<svg xmlns="http://www.w3.org/2000/svg" viewBox="0 0 100 125" x="0px" y="0px"><defs><style>.a{fill-rule:evenodd;}</style></defs><title>_</title><path class="a" d="M89.3,5.08H86.5L78.07,13.5v2.81L48,46.39a11.24,11.24,0,0,0-16.84,5.08c-2.48,4.38-6.41,4.14-6.41,4.14A19.66,19.66,0,0,0,5.08,75.26c0,8.4,11.26,19.66,19.66,19.66a19.63,19.63,0,0,0,17-9.85c.2-.37.41-.73.6-1.11s.35-.74.52-1.14A18.35,18.35,0,0,0,44,79.22v0c.08-.42.16-.81.21-1.22a.71.71,0,0,0,0-.14,10.69,10.69,0,0,0,.11-1.11,14.13,14.13,0,0,0,.07-1.46c0-.09,0-.18,0-.28h0c0-9.22,7.67-8,9-8.14a2.81,2.81,0,1,0,0-5.61c-2.2-.73-1.19-4-.75-5.17.11-.26.19-.42.19-.45a8.77,8.77,0,0,0-.06-1.15c0-.24,0-.46-.09-.7,0,0,0-.06,0-.09l-.09-.49a.18.18,0,0,1,0-.1L83.69,21.93H86.5l8.42-8.43V10.7ZM22.55,87.29a1.93,1.93,0,1,1,1.93-1.93A1.93,1.93,0,0,1,22.55,87.29Zm3.54-10L22.6,73.83a2.5,2.5,0,0,1,0-3.51,2.46,2.46,0,0,1,3.49,0l2,2,1.53,1.55a2.47,2.47,0,0,1-2,4.2A2.53,2.53,0,0,1,26.09,77.32Zm4.22,10a1.93,1.93,0,1,1,1.93-1.93A1.93,1.93,0,0,1,30.31,87.29Zm10.52-21.2a2.46,2.46,0,0,1-3.49,0L36.2,65l-2.37-2.38a2.46,2.46,0,0,1,0-3.49,2.5,2.5,0,0,1,3.51,0l2.54,2.55.95.94A2.5,2.5,0,0,1,40.83,66.09Z"/><text x="0" y="115" fill="#000000" font-size="5px" font-weight="bold" font-family="'Helvetica Neue', Helvetica, Arial-Unicode, Arial, Sans-serif">Created by Melvin Salas</text><text x="0" y="120" fill="#000000" font-size="5px" font-weight="bold" font-family="'Helvetica Neue', Helvetica, Arial-Unicode, Arial, Sans-serif">from the Noun Project</text></svg>