<svg viewBox="-3.3310837837837837 -0.30025000000000013 103.51351351351352 104.49000000000001" version="1.1" xmlns="http://www.w3.org/2000/svg" style="max-height: 500px" width="103.51351351351352" height="104.49000000000001">
 <path d="m19.781 59.441c1.0312 3.2109 2.5586 6.1992 4.4805 8.8906h9.6602c-0.58984-3.75-1.0117-7.5117-1.25-11.262h-7.4492l-2.25 0.92969c-1.4883 0.60938-2.4805 1.0195-3.1914 1.4414zm29.91-48.711v-6.2305c0-0.55078 0.44922-1 1-1 0.55078 0 1 0.44922 1 1v6.1719c0.25 0.12109 0.48047 0.28125 0.67188 0.46875 0.41016 0.41016 0.67188 0.98047 0.67188 1.6094v2.2305c-0.75-0.050781-1.5117-0.078125-2.2812-0.078125-0.76953 0-1.5312 0.03125-2.2891 0.078125v-2.2305c0-0.62891 0.26172-1.1992 0.69922-1.6406 0.16016-0.14844 0.33984-0.28125 0.53125-0.37891zm-23.801 44.34h6.6602c-0.078125-1.8789-0.12891-3.7617-0.12891-5.6289 0-1.8789 0.050781-3.7617 0.12891-5.6406h-13.852c-0.32031 1.8281-0.48047 3.7109-0.48047 5.6406l0.03125 1.4219c0.21094 0.37109 0.42969 0.66016 0.67188 0.91016 0.71875 0.71875 1.8711 1.1914 4.1484 2.1211l2.6992 1.1211 0.12109 0.058594zm-10.93-6.6914-0.19141-0.48047-0.19922 0.46875c-1.0391 2.5508-1.5586 3.8281-2.5508 4.8086-0.96094 0.96875-2.2188 1.4883-4.7109 2.5117l-0.55859 0.23828 0.46875 0.19141c2.5508 1.0391 3.8203 1.5586 4.8008 2.5391 0.96875 0.96875 1.5 2.2305 2.5117 4.7188l0.23828 0.55859 0.17969-0.46094c1.0508-2.5508 1.5703-3.8281 2.5586-4.8086 0.96094-0.96875 2.2188-1.5 4.7109-2.5117l0.55859-0.23828-0.46094-0.17969c-2.5508-1.0508-3.8281-1.5703-4.8086-2.5586-0.98047-0.98047-1.5117-2.25-2.5508-4.8008zm21.91 38.871c0-0.55078 0.44922-1 1-1 0.55078 0 1 0.44922 1 1v3.1211h3.1289c0.55078 0 1 0.44922 1 1 0 0.55859-0.44922 1-1 1h-3.1289v3.1289c0 0.55078-0.44922 1-1 1-0.55078 0-1-0.44922-1-1v-3.1289h-3.1211c-0.55078 0-1-0.44141-1-1 0-0.55078 0.44922-1 1-1h3.1211zm50.262-19.352c0-0.55859 0.44141-1 1-1 0.55078 0 1 0.44141 1 1v3.1211h3.1211c0.55078 0 1 0.44922 1 1s-0.44922 1-1 1h-3.1211v3.1289c0 0.55078-0.44922 1-1 1-0.55859 0-1-0.44922-1-1v-3.1289h-3.1289c-0.55078 0-1-0.44922-1-1s0.44922-1 1-1h3.1289zm-60.73 15.789c-0.67969-0.69141-1.0508-1.5312-1.7109-3.1211-0.64844 1.6016-1.0195 2.4414-1.6992 3.1211-0.67969 0.67969-1.5195 1.0508-3.1211 1.6992 1.5391 0.64062 2.3711 1 3.0781 1.6797 0.71094 0.71094 1.0898 1.5508 1.7383 3.1484 0.66016-1.6016 1.0312-2.4414 1.7109-3.1211 0.69141-0.67969 1.5312-1.0508 3.1211-1.6992-1.6016-0.66016-2.4414-1.0312-3.1211-1.7109zm3.8906-73.66c-0.67969-0.67969-1.0508-1.5195-1.6992-3.1094-0.62891 1.5312-1 2.3594-1.6797 3.0781-0.71094 0.71094-1.5508 1.0781-3.1484 1.7383 1.5391 0.62891 2.3789 1 3.0781 1.6719 0.71875 0.71094 1.0898 1.5508 1.7383 3.1484 0.62891-1.5391 1-2.3711 1.6797-3.0781 0.71094-0.71094 1.5508-1.0898 3.1484-1.7383-1.6016-0.66016-2.4414-1.0312-3.1211-1.7109zm52.93 37.25c-0.078125-1.1797-0.21875-2.3398-0.42188-3.4805h-13.859c0.089844 1.8789 0.12891 3.7617 0.12891 5.6406 0 1.8711-0.039062 3.75-0.12891 5.6289h13.859c0.19922-1.1406 0.33984-2.3008 0.42188-3.4805-0.32031-0.14063-0.67969-0.28125-1.1016-0.44922l-1.8906-0.78906c-0.51172-0.21094-0.73828-0.80078-0.53125-1.3086 0.10938-0.26172 0.32812-0.44922 0.57812-0.53906l1.8984-0.78906 1.0391-0.42969zm6.5117 0.44922c-0.67188-0.67187-1.0391-1.5117-1.6992-3.1094-0.64844 1.5898-1.0195 2.4414-1.6992 3.1094-0.67969 0.67969-1.5195 1.0508-3.1094 1.7109 1.5898 0.64844 2.4297 1.0195 3.1094 1.6992 0.67969 0.67188 1.0508 1.5195 1.6992 3.1094 0.66016-1.5898 1.0312-2.4297 1.6992-3.1094 0.67969-0.67969 1.5195-1.0508 3.1211-1.6992-1.6016-0.66016-2.4414-1.0312-3.1211-1.7109zm-63.922 22.602c1.6289 1.9492 3.4883 3.6992 5.5195 5.2188 1.4492 1.0781 2.9883 2.0391 4.6094 2.8711-0.64844-2.6992-1.2109-5.3906-1.6914-8.0898h-8.4414zm10.129-2h13.809v-11.262h-15.078c0.23828 3.75 0.67188 7.5117 1.2695 11.262zm15.809 0h13.801c0.60156-3.75 1.0312-7.5117 1.2695-11.262h-15.07zm15.82 0h9.6719c2.3789-3.3398 4.1602-7.1484 5.1484-11.262h-13.559c-0.25 3.75-0.66016 7.5117-1.2617 11.262zm8.1211 2h-8.4492c-0.46875 2.6992-1.0391 5.3906-1.6914 8.0898 2.8203-1.4492 5.3984-3.2891 7.6719-5.4609 0.87109-0.82812 1.6914-1.7109 2.4688-2.6289zm-10.48 0h-13.461v11.621c4.0586-0.12109 7.9219-0.98047 11.469-2.4609 0.78906-3.0508 1.4492-6.1016 1.9883-9.1602zm-15.461 0h-13.469c0.53906 3.0586 1.1992 6.1094 1.9883 9.1602 3.5508 1.4805 7.4219 2.3398 11.48 2.4609zm-15.191-15.262h15.191v-11.27h-15.191c-0.089844 1.8789-0.14062 3.7617-0.14062 5.6406 0 1.8711 0.050781 3.75 0.14062 5.6289zm17.191 0h15.18c0.089843-1.8789 0.14062-3.7617 0.14062-5.6289 0-1.8789-0.050781-3.7617-0.14062-5.6406h-15.18zm-19.078-13.27c0.23828-3.75 0.66016-7.5117 1.25-11.262h-9.6602c-2.3789 3.3398-4.1484 7.1484-5.1406 11.262zm49.719 0c-0.98828-4.1094-2.7695-7.9219-5.1484-11.262h-9.6719c0.60156 3.75 1.0117 7.5117 1.25 11.262zm-47.719 0h15.078v-11.262h-13.809c-0.60156 3.75-1.0312 7.5117-1.2695 11.262zm17.078 0h15.07c-0.23828-3.75-0.67187-7.5117-1.2695-11.262h-13.801zm-17.5-13.262c0.48047-2.6992 1.0391-5.3906 1.6914-8.0781-3.0391 1.5586-5.8008 3.5781-8.1992 5.9688-0.67188 0.67188-1.3086 1.3789-1.9219 2.1094zm41.43 0c-0.76953-0.92188-1.5898-1.8008-2.4609-2.6289-2.2695-2.1719-4.8516-4.0117-7.6719-5.4609 0.64844 2.6992 1.2188 5.3906 1.6914 8.0898zm-39.398 0h13.469v-11.621c-4.0586 0.12109-7.9297 0.98828-11.48 2.4609-0.78125 3.0508-1.4492 6.1016-1.9883 9.1602zm15.469 0h13.461c-0.53906-3.0586-1.1992-6.1094-1.9883-9.1602-3.5508-1.4805-7.4102-2.3398-11.469-2.4609v11.621z"/>
<text fill="#000000" font-family="Arbeit Regular, Helvetica, Arial-Unicode, Arial, Sans-serif" font-weight="bold" font-size="5.0" y="117.5" x="0.0">Created by Lula Sugiantoro</text><text fill="#000000" font-family="Arbeit Regular, Helvetica, Arial-Unicode, Arial, Sans-serif" font-weight="bold" font-size="5.0" y="122.5" x="0.0">from Noun Project</text></svg>