<svg viewBox="-3.3310837837837837 -0.30025000000000013 103.51351351351352 104.49000000000001" version="1.1" xmlns="http://www.w3.org/2000/svg" style="max-height: 500px" width="103.51351351351352" height="104.49000000000001">
 <path d="m11.793 31.133c0 0.51953 0.42188 0.94531 0.94531 0.94531 0.51953 0 0.94531-0.42188 0.94531-0.94531 0-3.6406 2.9609-6.6055 6.6055-6.6055 0.51953 0 0.94531-0.42188 0.94531-0.94531 0-0.51953-0.42188-0.94531-0.94531-0.94531-3.6406 0-6.6055-2.9609-6.6055-6.6055 0-0.51953-0.42188-0.94531-0.94531-0.94531-0.51953 0-0.94531 0.42187-0.94531 0.94531 0 3.6406-2.9609 6.6055-6.6055 6.6055-0.51953 0-0.94531 0.42188-0.94531 0.94531 0 0.51953 0.42187 0.94531 0.94531 0.94531 3.6406 0 6.6055 2.9648 6.6055 6.6055zm0.94141-11.207c0.80859 1.5664 2.0938 2.8516 3.6602 3.6602-1.5664 0.80859-2.8516 2.0938-3.6602 3.6602-0.80859-1.5664-2.0938-2.8516-3.6602-3.6602 1.5664-0.8125 2.8516-2.0938 3.6602-3.6602z"/>
 <path d="m94.812 88.68c-3.6406 0-6.6055-2.9609-6.6055-6.6055 0-0.51953-0.42188-0.94531-0.94531-0.94531-0.51953 0-0.94531 0.42188-0.94531 0.94531 0 3.6406-2.9609 6.6055-6.6055 6.6055-0.51953 0-0.94531 0.42187-0.94531 0.94531 0 0.51953 0.42188 0.94531 0.94531 0.94531 3.6406 0 6.6055 2.9609 6.6055 6.6055 0 0.51953 0.42188 0.94531 0.94531 0.94531 0.51953 0 0.94531-0.42188 0.94531-0.94531 0-3.6406 2.9609-6.6055 6.6055-6.6055 0.51953 0 0.94531-0.42187 0.94531-0.94531-0.003906-0.52344-0.42578-0.94531-0.94531-0.94531zm-7.5469 4.6016c-0.80859-1.5664-2.0938-2.8516-3.6602-3.6602 1.5664-0.80859 2.8516-2.0938 3.6602-3.6602 0.80859 1.5664 2.0938 2.8516 3.6602 3.6602-1.5664 0.8125-2.8516 2.0938-3.6602 3.6602z"/>
 <path d="m85.223 50.266c1.207-1.3203 2.9453-2.1523 4.8711-2.1523 0.51953 0 0.94531-0.42188 0.94531-0.94531 0-0.51953-0.42187-0.94531-0.94531-0.94531-3.6406 0-6.6055-2.9609-6.6055-6.6055 0-0.51953-0.42188-0.94531-0.94531-0.94531-0.51953 0-0.94531 0.42188-0.94531 0.94531 0 0.38281-0.035156 0.75391-0.097656 1.1211-5.2734-9.543-14.434-16.598-25.375-19.051l0.007812-6.5938c0-0.51953-0.42187-0.94531-0.94531-0.94531h-6.6055l0.003907-11.316c0-0.51953-0.42188-0.94531-0.94531-0.94531-0.51953 0-0.94531 0.42188-0.94531 0.94531v11.32h-6.6055c-0.51953 0-0.94531 0.42188-0.94531 0.94531v6.6016c-20.715 4.6562-34.234 25.512-29.102 46.824-1.0977 0.80859-2.4492 1.2891-3.9102 1.2891-0.51953 0-0.94531 0.42188-0.94531 0.94531 0 0.51953 0.42188 0.94531 0.94531 0.94531 3.6406 0 6.6055 2.9609 6.6055 6.6055 0 0.79688 0.92969 1.2383 1.5469 0.71875 6.9531 11.82 19.609 19.086 33.355 19.086 24.898 0 43.531-23.391 37.582-47.848zm-2.6758-6.7539c0.80859 1.5664 2.0938 2.8516 3.6602 3.6602-1.582 0.82031-2.8633 2.1172-3.6602 3.6602-0.80859-1.5664-2.0938-2.8516-3.6602-3.6602 1.5859-0.82031 2.8594-2.1172 3.6602-3.6602zm1.8711 14.98h-10.371c-0.058594-3.5625-0.44141-7.0469-1.1328-10.379h2.0859c3.6406 0 6.6055 2.9609 6.6055 6.6055 0 0.51953 0.42188 0.94531 0.94531 0.94531 0.51953 0 0.94531-0.42187 0.94531-0.94531 0-0.71094 0.11328-1.3945 0.32422-2.0352 0.34766 1.9062 0.55078 3.8516 0.59766 5.8086zm-8.5508-22.645c1.8477 2.1953 3.4453 4.6211 4.75 7.2461-1.168 1.8789-3.25 3.1328-5.6172 3.1328h-2.5117c-0.91797-3.7148-2.2227-7.2109-3.8867-10.379zm-27.281 33.965v-2.832c0-3.6406 2.9609-6.6055 6.6055-6.6055h2.8281c-0.023437 3.2344-0.17188 6.3984-0.42969 9.4336zm8.8203 1.8867c-0.38672 3.7188-0.94922 7.2148-1.6719 10.379l-7.1484-0.003906v-10.379zm-1.8945-35.852c0.76953 3.1406 1.3711 6.6406 1.793 10.379h-8.7188v-10.379zm-6.9258-1.8867v-11.141c3.2422 1.2227 5.4961 7.8125 6.4297 11.141zm8.9141 14.152c0.3125 3.3203 0.49219 6.8047 0.51562 10.379h-2.8281c-3.6406 0-6.6055-2.9609-6.6055-6.6055v-3.7734zm-0.050781-12.266h9c1.7148 3.0742 3.1055 6.5742 4.082 10.379h-11.332c-0.41016-3.7227-1-7.2188-1.75-10.379zm1.8516 35.852h11.465c-0.89453 3.7812-2.1875 7.2773-3.8047 10.379h-9.293c0.70703-3.1797 1.2539-6.6758 1.6328-10.379zm0.17578-1.8867c0.25781-3.0391 0.40234-6.2031 0.42578-9.4336h12.258c-0.054687 3.2656-0.39844 6.4297-0.98828 9.4336zm0.42578-11.32c-0.027344-3.5664-0.19922-7.0508-0.50781-10.379h11.586c0.71094 3.2812 1.1211 6.7656 1.1797 10.379zm14.262-24.531h-6.6289c-2.1875-3.6602-5.0273-7.0547-8.5703-9.5117 5.7578 1.8789 10.992 5.1562 15.199 9.5117zm-8.8398 0h-8.3516c-0.9375-3.4727-2.4766-7.9297-4.7891-10.688 5.1133 1.4453 9.6719 5.2734 13.141 10.688zm-24.285-17.922h13.207v5.2812c-2.168-0.375-4.375-0.56641-6.6055-0.56641-2.25 0-4.457 0.19531-6.6055 0.56641zm-11.32 32.074c2.5742 0 4.8047 1.4805 5.8945 3.6328-0.13672 2.207-0.21094 4.4688-0.22656 6.7461h-12.262c0.0625-3.6133 0.47266-7.0938 1.1797-10.379zm-4.9688-1.8867c0.97656-3.8047 2.3672-7.3047 4.082-10.379h9c-0.21484 0.91016-0.41797 1.8555-0.60938 2.8359-0.5 0.023437-0.90234 0.43359-0.90234 0.9375 0 3.6406-2.9609 6.6055-6.6055 6.6055zm10.629 14.152c0.023438 3.2305 0.16797 6.3945 0.42578 9.4336h-11.699c-0.58984-3.0039-0.93359-6.168-0.98828-9.4336zm0.60156 11.32c0.37891 3.7031 0.92578 7.1992 1.6328 10.379l-9.293-0.003906c-1.6172-3.1016-2.9102-6.5977-3.8047-10.379zm-2.375-24.531c1.5664-0.80859 2.8516-2.0938 3.6602-3.6602 0.80859 1.5664 2.0938 2.8516 3.6602 3.6602-1.5664 0.80859-2.8516 2.0938-3.6602 3.6602-0.8125-1.5664-2.0938-2.8477-3.6602-3.6602zm3.7148 8.4883c0.49219-0.03125 0.88672-0.4375 0.88672-0.9375 0-3.6406 2.9609-6.6055 6.6055-6.6055h1.8867v3.7734c0 3.6406-2.9609 6.6055-6.6055 6.6055h-2.8242c0.007813-0.94922 0.023438-1.8984 0.050781-2.8359zm7.4922-9.4297c-2.8711 0-5.3203-1.8438-6.2266-4.4102 0.33984-2.1289 0.74219-4.125 1.1953-5.9688h6.918v10.379zm-4.5352-12.266c1.7344-6.1797 4.0547-10.27 6.4219-11.145v11.145zm2.8672-10.699c-1.8828 2.2227-3.5352 5.8672-4.8398 10.699h-8.3477c3.4805-5.4297 8.0547-9.2656 13.188-10.699zm-6.7578 1.1445c-3.5625 2.4531-6.4258 5.8594-8.6406 9.5586h-6.6289c4.1758-4.3477 9.4023-7.6719 15.27-9.5586zm-16.961 11.441h7.2578c-1.6641 3.168-2.9727 6.6641-3.8867 10.379h-9.4961c1.4688-3.8047 3.5508-7.3047 6.125-10.379zm-6.793 12.266h9.7344c-0.69141 3.3281-1.0742 6.8125-1.1328 10.379h-10.375c0.09375-3.6133 0.71094-7.0977 1.7734-10.379zm9.5469 21.699h-0.95313c-3.6406 0-6.6055-2.9609-6.6055-6.6055 0-0.51953-0.42188-0.94531-0.94531-0.94531-0.51953 0-0.94531 0.42188-0.94531 0.94531 0 1.3633-0.41406 2.6289-1.125 3.6836-0.44141-2.1367-0.69141-4.3164-0.74609-6.5117h10.371c0.054687 3.2266 0.37891 6.3906 0.94922 9.4336zm-8.5 4.6016c-0.80859-1.5664-2.0938-2.8516-3.6602-3.6602 1.5898-0.82422 2.8672-2.125 3.6602-3.6602 0.80859 1.5664 2.0938 2.8516 3.6602 3.6602-1.5664 0.8125-2.8516 2.0938-3.6602 3.6602zm1.2539 1.8828c0.85156-2.6641 3.3516-4.5977 6.293-4.5977h1.3477c0.83984 3.6992 2.0586 7.1914 3.6328 10.379l-7.5859-0.003906c-1.3867-1.7852-2.6211-3.7148-3.6875-5.7773zm5.2578 7.6641h7.0078c2.2852 4.0781 5.3555 7.8789 9.2422 10.539-6.2578-1.9844-11.867-5.6133-16.25-10.539zm9.1836 0h8.6875c0.94922 3.7539 2.5586 8.6797 5.0352 11.629-5.4023-1.5234-10.188-5.7148-13.723-11.629zm17.324 12.086c-3.4297-1.293-5.7539-8.5273-6.6875-12.086h6.6875zm0-13.973h-7.1484c-0.72656-3.1602-1.2852-6.6562-1.6719-10.379l8.8203 0.003907zm0-12.262h-9c-0.26172-3.0352-0.40625-6.1992-0.42969-9.4336h2.8242c3.6406 0 6.6055 2.9609 6.6055 6.6055zm-2.7188-10.379c1.5664-0.80859 2.8516-2.0938 3.6602-3.6602 0.80859 1.5664 2.0938 2.8516 3.6602 3.6602-1.5664 0.80859-2.8516 2.0938-3.6602 3.6602-0.80859-1.5664-2.0938-2.8516-3.6602-3.6602zm4.6055 36.613v-12.086h6.6875c-0.93359 3.5547-3.2578 10.793-6.6875 12.086zm8.6328-12.086h8.6875c-3.5312 5.9141-8.3164 10.105-13.723 11.629 2.4766-2.9492 4.0859-7.875 5.0352-11.629zm1.6797 10.5c3.832-2.6406 6.8906-6.4062 9.1875-10.5h6.957c-4.3125 4.8086-9.8633 8.4766-16.145 10.5zm17.723-12.387h-7.543c1.5742-3.1836 2.793-6.6797 3.6328-10.379h9.6211c-1.3438 3.7812-3.2812 7.2812-5.7109 10.379zm6.3203-12.262h-9.8398c0.57422-3.043 0.89453-6.207 0.94531-9.4336h10.375c-0.082031 3.2656-0.59375 6.4297-1.4805 9.4336z"/>
<text fill="#000000" font-family="Arbeit Regular, Helvetica, Arial-Unicode, Arial, Sans-serif" font-weight="bold" font-size="5.0" y="117.5" x="0.0">Created by Icon Market</text><text fill="#000000" font-family="Arbeit Regular, Helvetica, Arial-Unicode, Arial, Sans-serif" font-weight="bold" font-size="5.0" y="122.5" x="0.0">from Noun Project</text></svg>