<svg xmlns="http://www.w3.org/2000/svg" version="1.1" viewBox="-5.0 -10.0 110.0 135.0">
 <path d="m73.438 78.125c0.86328 0 1.5625 0.69922 1.5625 1.5625s-0.69922 1.5625-1.5625 1.5625c-6.0312 0-10.938-4.9062-10.938-10.938 0-0.86328 0.69922-1.5625 1.5625-1.5625s1.5625 0.69922 1.5625 1.5625c0 4.3086 3.5039 7.8125 7.8125 7.8125zm7.8125-7.8125c0 0.86328 0.69922 1.5625 1.5625 1.5625s1.5625-0.69922 1.5625-1.5625c0-4.4453-2.668-8.2695-6.4844-9.9805l-3.0742 2.3086c3.6523 0.65625 6.4336 3.8359 6.4336 7.6719zm-4.6875 0c0-1.7266-1.3984-3.125-3.125-3.125s-3.125 1.3984-3.125 3.125 1.3984 3.125 3.125 3.125 3.125-1.3984 3.125-3.125zm-57.812 0c0-0.86328-0.69922-1.5625-1.5625-1.5625s-1.5625 0.69922-1.5625 1.5625c0 6.0312 4.9062 10.938 10.938 10.938 0.86328 0 1.5625-0.69922 1.5625-1.5625s-0.69922-1.5625-1.5625-1.5625c-4.3086 0-7.8125-3.5039-7.8125-7.8125zm15.625 0c0 0.86328 0.69922 1.5625 1.5625 1.5625s1.5625-0.69922 1.5625-1.5625c0-6.0312-4.9062-10.938-10.938-10.938-0.10938 0-0.20703 0.039062-0.30859 0.0625l-0.67188 2.6875c0.26953 0.22266 0.60547 0.375 0.98047 0.375 4.3086 0 7.8125 3.5039 7.8125 7.8125zm-4.6875 0c0-1.7266-1.3984-3.125-3.125-3.125s-3.125 1.3984-3.125 3.125 1.3984 3.125 3.125 3.125 3.125-1.3984 3.125-3.125zm67.188-18.75v42.188h-93.75v-42.188h9l-1.4023 7.0078 3.6094 4.8125c-1.1641 2.0469-1.8359 4.4062-1.8359 6.9297 0 7.7656 6.2969 14.062 14.062 14.062s14.062-6.2969 14.062-14.062c0-7.6055-6.0391-13.781-13.582-14.039l1.1797-4.7109h38.09l-2.0195 8.082c-3.0039 2.5781-4.9141 6.3984-4.9141 10.668 0 7.7656 6.2969 14.062 14.062 14.062s14.062-6.2969 14.062-14.062c0-5.125-2.75-9.5938-6.8438-12.055l0.20312-0.15234 1.7852-6.543h14.234zm-43.75 31.25c0-0.86328-0.69922-1.5625-1.5625-1.5625h-3.125c-0.86328 0-1.5625 0.69922-1.5625 1.5625s0.69922 1.5625 1.5625 1.5625h3.125c0.86328 0 1.5625-0.69922 1.5625-1.5625zm0-6.25c0-0.86328-0.69922-1.5625-1.5625-1.5625h-3.125c-0.86328 0-1.5625 0.69922-1.5625 1.5625s0.69922 1.5625 1.5625 1.5625h3.125c0.86328 0 1.5625-0.69922 1.5625-1.5625zm0-6.25c0-0.86328-0.69922-1.5625-1.5625-1.5625h-3.125c-0.86328 0-1.5625 0.69922-1.5625 1.5625s0.69922 1.5625 1.5625 1.5625h3.125c0.86328 0 1.5625-0.69922 1.5625-1.5625zm0-6.25c0-0.86328-0.69922-1.5625-1.5625-1.5625h-3.125c-0.86328 0-1.5625 0.69922-1.5625 1.5625s0.69922 1.5625 1.5625 1.5625h3.125c0.86328 0 1.5625-0.69922 1.5625-1.5625zm0-6.25c0-0.86328-0.69922-1.5625-1.5625-1.5625h-3.125c-0.86328 0-1.5625 0.69922-1.5625 1.5625s0.69922 1.5625 1.5625 1.5625h3.125c0.86328 0 1.5625-0.69922 1.5625-1.5625zm-31.25 6.25 0.035156-0.14453c0.007813-0.078125-0.007812-0.15625 0.011719-0.23438l4.6875-18.75c0.035156-0.14844 0.097656-0.29297 0.17578-0.42578l4.6875-7.8125c0.28906-0.48047 0.79688-0.72266 1.3203-0.73047l0.019531-0.027344-0.015625 0.027344c0.27734-0.003906 0.55859 0.042968 0.81641 0.19531 0.73828 0.44531 0.98047 1.4023 0.53516 2.1445l-4.5703 7.6133-0.62891 2.5195h31.984l4.6875-12.5 6.25 6.25-4.6875 18.75h4.6875l6.25-4.6875 4.6875-17.188-17.188-20.312-3.125-1.043v11.98c0 6.0312-4.9062 10.938-10.938 10.938h-6.25c-6.0312 0-10.938-4.9062-10.938-10.938v-11.457l-7.8125 5.207-9.375 18.75-3.125 15.625 4.6875 6.25zm23.438-26.562h6.25c4.3086 0 7.8125-3.5039 7.8125-7.8125v-3.168c-1.3047 1-2.918 1.6055-4.6875 1.6055h-12.5c-1.7695 0-3.3828-0.60938-4.6875-1.6055v3.168c0 4.3086 3.5039 7.8125 7.8125 7.8125zm0.29297-20.973-7.7773-1.9492c-0.20703 0.83984-0.32812 1.7109-0.32812 2.6094v3.125c0 1.4688 0.69141 2.7617 1.75 3.6211l6.3555-7.4102zm1.2695-10.277c-3.3477 0.48047-6.2031 2.6055-7.8555 5.4023l7.8555 1.9688zm3.125 0v7.375l7.8555-1.9688c-1.6523-2.8008-4.5078-4.9219-7.8555-5.4062zm4.6875 18.75c0.28516 0 0.5625-0.035156 0.83203-0.085938l-6.9961-6.9922-6.0703 7.0781zm3.6055-1.7305c0.66406-0.80859 1.082-1.832 1.082-2.957v-3.125c0-0.89844-0.12109-1.7695-0.32812-2.6094l-7.5547 1.8906z"/>
<text x="0.0" y="117.5" font-size="5.0" font-weight="bold" font-family="Arbeit Regular, Helvetica, Arial-Unicode, Arial, Sans-serif" fill="#000000">Created by Piyapong Khemawattana</text><text x="0.0" y="122.5" font-size="5.0" font-weight="bold" font-family="Arbeit Regular, Helvetica, Arial-Unicode, Arial, Sans-serif" fill="#000000">from Noun Project</text></svg>