<svg viewBox="0.6756756756756754 5.66 86.75675675675676 86.67" version="1.1" xmlns="http://www.w3.org/2000/svg" style="max-height: 500px" width="86.75675675675676" height="86.67">
 <path d="m61.102 44.738c-1.1602-6.1992-2.3203-12.398-3.4609-18.578v-0.039062c-12.801 0.80078-25.602 1.2812-38.422 1.4219-0.058594 9.7617-0.12109 19.52-0.17969 29.281-0.039062 5.0195-0.078124 10.02-0.10156 15.039 0 2.0781-0.039062 5.0391 2.4609 5.6992 1.9219 0.5 4.3594 0.10156 6.3789-0.019531 11.461-10.582 22.582-21.504 33.324-32.805zm-39.922 21.441c-0.039063-11.199-0.058594-22.379-0.10156-33.578 0-0.82031 1.2617-0.82031 1.2617 0 0.039062 11.199 0.058594 22.379 0.10156 33.578 0.019532 0.80078-1.2617 0.80078-1.2617 0z"/>
 <path d="m43.48 25.578c-0.019531-1.7188-0.16016-3.4414-0.39844-5.1406-1.8203 0.17969-3.6406 0.23828-5.4609 0.21875-1.0195 0-2.0586-0.039062-3.0781-0.039062h-1.4805-0.73828c-0.058594 0-0.16016 0.019531-0.26172 0.019531 0 0.76172 0.14062 1.5781 0.19922 2.3203 0.078125 0.94141 0.16016 1.8789 0.23828 2.8203 0 0.078125 0 0.12109-0.019531 0.17969 3.6602-0.078125 7.3203-0.21875 11-0.37891z"/>
 <path d="m28.059 21.602c0.039062 1.5 0.16016 3 0.28125 4.5 0.98047-0.019531 1.9609-0.058593 2.9609-0.078124-0.019531-0.058594-0.058593-0.14063-0.058593-0.21875-0.14063-1.6797-0.28125-3.3594-0.42188-5.0391-0.039062-0.60156 0.019532-1.1797 0.69922-1.3398 0.69922-0.17969 1.5586-0.058593 2.3008-0.058593 3.2812 0.019531 6.5586 0.17969 9.8203-0.21875 0.23828-0.039063 0.57812 0.21875 0.60156 0.46094 0.30078 1.9609 0.46094 3.9414 0.5 5.9219 1.1992-0.058594 2.4219-0.10156 3.6211-0.16016-0.21875-1.6406-0.44141-3.3008-0.66016-4.9414-0.10156-0.76172-0.19922-1.5391-0.32031-2.3008-0.039062-0.35938-0.039062-1.9414-0.30078-2.1211-0.078125-0.058593-1.1406 0.039063-1.2617 0.039063h-1.2812-2.3398c-1.5586 0-3.1406 0-4.6992-0.019531-1.6406 0-3.2812 0-4.9219-0.019532h-2.3398c-0.39844 0-0.80078-0.019531-1.1992 0-0.53906 0.019532-0.76172 0.23828-0.94141 0.80078-0.21875 0.71875-0.039062 1.7617-0.039062 2.5195-0.039063 0.75-0.019532 1.5117 0 2.2734z"/>
 <path d="m62.422 71.238s-0.023437 0.023438 0 0c-0.0625 0.0625-0.082031 0.10156 0 0z"/>
 <path d="m64.641 63.762c-0.80078-4.2617-1.5781-8.5195-2.3789-12.781-8.6016 8.8398-17.34 17.539-26.18 26.141 8.6797-0.46094 17.359-1.1016 26.02-1.9609 0.85938-0.078125 2.7188 0.058594 3.4805-0.39844 1.4414-0.85938 0.51953-3.1406 0.30078-4.3398-0.42187-2.2227-0.82422-4.4414-1.2422-6.6602zm-3.3594 9.1602c-0.35938 0-0.62109-0.28125-0.64062-0.64062-0.019531-0.33984 0.30078-0.64062 0.64062-0.64062h0.17969 0.039062-0.039062c0.078124 0.019531 0.21875-0.039063 0.28125-0.058594 0.039062-0.019531 0.10156-0.019531 0.14062-0.039062 0.019532 0 0.019532-0.019531 0.039063-0.019531 0.058594-0.019532 0.058594-0.019532-0.019531 0.019531 0.078125 0 0.19922-0.10156 0.26172-0.14062 0.058594-0.039063 0.16016-0.078125 0.21875-0.14062l0.019532-0.019531c0.039062-0.039063 0.078125-0.058594 0.12109-0.10156 0.078124-0.058594 0.14062-0.14062 0.19922-0.21875l0.019532-0.019531c0.019531-0.039063 0.058593-0.078125 0.078124-0.12109 0.058594-0.078125 0.10156-0.16016 0.16016-0.23828 0.019531-0.039063 0.039062-0.078125 0.058593-0.12109 0-0.019531 0.019532-0.039063 0.019532-0.058594 0.058594-0.17969 0.12109-0.35938 0.16016-0.55859v-0.14063-0.30078c0-0.039062-0.019531-0.078125-0.019531-0.14062-0.019531-0.10156-0.058594-0.19922-0.10156-0.30078-0.12109-0.32031 0.14062-0.67969 0.44141-0.78125 0.33984-0.12109 0.66016 0.14062 0.78125 0.44141 0.80078 1.957-0.94141 4.3594-3.0391 4.3398z"/>
 <path d="m80.922 31.18c-0.30078-0.89844-0.98047-1.5781-1.6797-2.1797-0.69922-0.60156-1.5391-1.3789-2.5-1.5-1.8398-0.23828-3.6016 1.4219-4.5 2.8398-0.94141 1.4805-1.3398 3.2188-1.1602 4.9609 0.019531 0.039063 0.039063 0.078125 0.058594 0.12109 0.039063 0.17969 0.078125 0.33984 0.14062 0.51953 0.019531 0.039063 0.019531 0.078125 0.039062 0.12109v0.019531c0.019532 0.078125 0.058594 0.14062 0.10156 0.19922 0.078125 0.16016 0.16016 0.30078 0.26172 0.44141 0.019531 0.039063 0.039062 0.078125 0.078125 0.10156l0.019531 0.019531c0.039062 0.058594 0.10156 0.12109 0.14062 0.17969 0.12109 0.12109 0.23828 0.23828 0.35938 0.35937 0.039062 0.019532 0.058594 0.058594 0.10156 0.078126l0.019532 0.019531c0.058594 0.019531 0.14062 0.10156 0.19922 0.14062 0.14063 0.078125 0.28125 0.16016 0.42188 0.23828 0.019531 0.019531 0.058593 0.039063 0.10156 0.039063 0 0 0.019531 0 0.039062 0.019531 0.039063 0.019531 0.078126 0.019531 0.12109 0.039062 0.26172 0.019531 0.5 0.21875 0.57812 0.48047 2.0781 0.33984 4.2383-0.37891 5.6602-1.9609 1.2383-1.3555 1.9766-3.4961 1.3984-5.2969z"/>
 <path d="m71.781 36.84c-0.019531 0-0.019531 0 0 0 0.039062 0.10156 0.019531 0.039062 0 0z"/>
 <path d="m70.281 36.781c-2.6406 2.8789-5.3203 5.6992-8 8.5391l-0.019531 0.019532c-10.84 11.422-22.078 22.48-33.68 33.121-0.058593 0.10156-0.14062 0.17969-0.26172 0.23828-1.1211 1.0195-2.1992 2.0586-3.3203 3.0781 0.019531 0.039062 0.039062 0.058594 0.058594 0.10156 0.058594 0.21875 0.12109 0.46094 0.19922 0.67969 0.039063 0.10156 0.078126 0.19922 0.12109 0.30078v0.019531 0.019532c0.019532 0.039062 0.039063 0.10156 0.058594 0.14062 0.039062 0.10156 0.10156 0.17969 0.16016 0.28125 0.019532 0.039063 0.058594 0.078126 0.078125 0.14063 0.019531 0.019531 0.039063 0.039062 0.039063 0.058593 0.058594 0.078125 0.14062 0.16016 0.21875 0.23828 0.019531 0.019532 0.14062 0.14063 0.058594 0.058594-0.058594-0.058594 0.039062 0.019532 0.058593 0.039063 0.058594 0.039062 0.17969 0.14062 0.23828 0.14062-0.019531-0.019532-0.039062-0.019532-0.078124-0.039063 0.019531 0.019531 0.058593 0.019531 0.078124 0.019531 0.039063 0.019532 0.078126 0.019532 0.12109 0.039063 0.039063 0.019531 0.078125 0.019531 0.12109 0.019531 0.078125 0 0.16016 0.019532 0.26172 0h0.019531 0.039062c0.019532 0 0.058594 0 0.058594-0.019531 0.039063 0 0.078125-0.019531 0.12109-0.039063 0.039062-0.019531 0.078125-0.039062 0.10156-0.058593 0.019532-0.039063 0.058594-0.058594 0.078126-0.078125 0.078124-0.12109 0.19922-0.21875 0.33984-0.26172 11.719-11.238 23.238-22.699 34.559-34.359 3.3398-3.4609 6.6797-6.9219 9.9805-10.422-0.71094-0.45703-1.3906-1.1562-1.8086-2.0156z"/>
<text fill="#000000" font-family="Arbeit Regular, Helvetica, Arial-Unicode, Arial, Sans-serif" font-weight="bold" font-size="5.0" y="117.5" x="0.0">Created by the oldman creative</text><text fill="#000000" font-family="Arbeit Regular, Helvetica, Arial-Unicode, Arial, Sans-serif" font-weight="bold" font-size="5.0" y="122.5" x="0.0">from Noun Project</text></svg>