<svg xml:space="preserve" viewBox="0 0 100.75 101.25" y="0px" x="0px" version="1.1" xmlns:xlink="http://www.w3.org/1999/xlink" xmlns="http://www.w3.org/2000/svg" style="max-height: 500px" width="100.75" height="101.25"><g><path d="M86.2,38.2c-7-21.4-24.2-35.3-39.9-32.9c8.1,1.1,15.6,6.1,21.1,14.3c5.9,8.9,8.9,20.4,8.5,32.6c-0.4,12-4.1,23.2-10.4,31.6   c-2,2.6-4.1,4.8-6.4,6.7c3.6,0.5,7.3,0.3,10.7-0.8C86.4,84.3,93.7,61.2,86.2,38.2z"/><path d="M73.8,52.1c0.8-24.2-12.6-44.4-30-44.9c-0.3,0-0.5,0-0.8,0c-17,0-31.3,19-32.1,42.9c-0.8,24.2,12.6,44.4,30,44.9   c0.3,0,0.5,0,0.8,0C58.7,95,73,76,73.8,52.1z M42.6,60.4c-1,0.7-2.2,1-3.3,1c-0.6,0-1.2-0.1-1.8-0.3c-1,3.1-2.3,6.5-3.8,9.2   c-2.9,5.6-4.5,6.3-5.4,6.4c0,0-0.1,0-0.1,0c-0.4,0-0.7-0.2-1-0.4L22,72.4c-0.2-0.1-0.3-0.3-0.3-0.6c-1-6.1,2.5-11.8,5.7-15.5   c1.3-1.5,2.7-2.9,4.1-4.1c0.1-4.4,1.6-8.3,4-10.6c1.4-1.3,2.9-2,4.5-1.9c2.2,0.1,4.2,1.3,5.6,3.4c1.4,2.1,2.1,4.7,2,7.5   C47.2,54.8,45.3,58.6,42.6,60.4z"/><path d="M28.4,74.8c0.5-0.3,1.7-1.5,3.7-5.3c2.5-4.8,4.5-11.5,5.6-15.6C27.7,65.9,28,72.9,28.4,74.8z"/><path d="M37.7,50c-0.9,0.1-6.2,3.5-10.2,8.9c-2.3,3-4.8,7.6-4.2,12.3l3.2,2.4c-0.1-3.6,1.2-11.5,12-23.4C38.5,50.1,38.2,50,37.7,50   z"/><path d="M39.7,41.6c-1.1,0-2.2,0.5-3.2,1.4c-1.8,1.7-2.9,4.5-3.3,7.7c2-1.5,3.7-2.4,4.5-2.4c1,0,1.8,0.3,2.2,0.9   c0.4,0.5,0.5,1.2,0.4,1.6c0,0,0,0,0,0c-0.1,0.3-0.9,4.1-2.4,8.7c1.3,0.4,2.5,0.2,3.7-0.5c2.2-1.4,3.9-4.7,4-8.1   c0.1-2.4-0.5-4.8-1.7-6.5C42.8,42.6,41.3,41.6,39.7,41.6z"/></g><text font-family="'Helvetica Neue', Helvetica, Arial-Unicode, Arial, Sans-serif" font-weight="bold" font-size="5px" fill="#000000" y="115" x="0">Created by parkjisun</text><text font-family="'Helvetica Neue', Helvetica, Arial-Unicode, Arial, Sans-serif" font-weight="bold" font-size="5px" fill="#000000" y="120" x="0">from the Noun Project</text></svg>