<svg xmlns="http://www.w3.org/2000/svg" xmlns:xlink="http://www.w3.org/1999/xlink" version="1.1" x="0px" y="0px" viewBox="0 0 60 72.5" enable-background="new 0 0 60 58" xml:space="preserve"><g><path d="M25,29c0,2.76,2.24,5,5,5s5-2.24,5-5s-2.24-5-5-5S25,26.24,25,29z M33,29c0,1.65-1.35,3-3,3s-3-1.35-3-3s1.35-3,3-3   S33,27.35,33,29z"/><path d="M57,53V10h2V0H49v2H11V0H1v10h2v43H0v5h12v-5H9V10h2V8h7.36l4.17,9.18C18.61,19.67,16,24.03,16,29   c0,7.64,6.15,13.87,13.76,14c0.05,0.08,0.12,0.14,0.17,0.22c0.08,0.11,0.17,0.21,0.26,0.31c0.08,0.09,0.16,0.17,0.25,0.25   c0.15,0.14,0.3,0.27,0.46,0.38c0.09,0.06,0.18,0.11,0.27,0.17c0.13,0.08,0.27,0.16,0.41,0.22c0.08,0.04,0.17,0.08,0.25,0.12   c0.22,0.09,0.44,0.16,0.67,0.21c0.07,0.02,0.14,0.03,0.2,0.04C32.97,44.97,33.23,45,33.5,45c0.86,0,1.66-0.26,2.35-0.68l9.41,10.35   C45.46,54.89,45.73,55,46,55c0.24,0,0.48-0.09,0.67-0.26c0.41-0.37,0.44-1,0.07-1.41l-9.46-10.41c0.45-0.7,0.72-1.53,0.72-2.42   c0-0.01,0-0.02,0-0.02c3.77-2.62,6-6.87,6-11.48c0-4.97-2.61-9.33-6.53-11.82L41.64,8H49v2h2v43h-3v5h12v-5H57z M10,55v1H2v-1h1h6   H10z M32.87,42.91c-0.06-0.01-0.11-0.03-0.17-0.05c-0.17-0.06-0.32-0.13-0.47-0.22c-0.03-0.02-0.06-0.03-0.09-0.05   c-0.18-0.12-0.34-0.26-0.49-0.42c-0.01-0.02-0.03-0.03-0.04-0.05c-0.14-0.17-0.27-0.36-0.37-0.57l-0.07-0.14   C31.07,41.13,31,40.82,31,40.5c0-1.38,1.12-2.5,2.5-2.5c1.18,0,2.17,0.83,2.43,1.94l0.03,0.2C35.98,40.26,36,40.38,36,40.5   c0,1.38-1.12,2.5-2.5,2.5C33.28,43,33.08,42.96,32.87,42.91z M42,29c0,3.7-1.69,7.11-4.56,9.38C36.68,36.97,35.21,36,33.5,36   c-2.48,0-4.5,2.02-4.5,4.5c0,0.15,0.03,0.3,0.05,0.45C22.87,40.46,18,35.3,18,29c0-6.62,5.38-12,12-12S42,22.38,42,29z    M35.71,16.23C33.96,15.45,32.03,15,30,15s-3.96,0.45-5.71,1.23L20.55,8h18.89L35.71,16.23z M51,8V6H9v2H7v45H5V8H3V2h6v2h42V2h6v6   h-2v45h-2V8H51z M58,56h-8v-1h1h6h1V56z"/><rect x="5" y="4" width="2" height="2"/><rect x="53" y="4" width="2" height="2"/></g><text x="0" y="73" fill="#000000" font-size="5px" font-weight="bold" font-family="'Helvetica Neue', Helvetica, Arial-Unicode, Arial, Sans-serif">Created by Smashicons</text><text x="0" y="78" fill="#000000" font-size="5px" font-weight="bold" font-family="'Helvetica Neue', Helvetica, Arial-Unicode, Arial, Sans-serif">from the Noun Project</text></svg>