<svg xml:space="preserve" style="max-height: 500px" viewBox="0 0 103.49999999999999 100.5" y="0px" x="0px" version="1.1" xmlns:xlink="http://www.w3.org/1999/xlink" xmlns="http://www.w3.org/2000/svg" width="103.49999999999999" height="100.5"><g><path d="M88.20001,11.95001C88.01001,11.58997,87.78998,11.25,87.56,10.94   c-0.98999-1.46002-2.26001-2.63-3.77002-3.47003C82.23999,6.62,80.56,6.17999,78.76001,6.12   C78.37,6.08997,77.96002,6.09998,77.56,6.13c-4.01001,0.20996-8.35999,2.19-12.33002,5.56c-0.44,0.37-0.87,0.73999-1.29999,1.14996   c-2.66998,2.52002-5.14001,5.67004-7.15997,9.33002c-2.48004,4.48999-4,9.27002-4.48004,13.72003   c-0.06,0.47998-0.09998,0.94995-0.12,1.40997c-0.03998,0.57001-0.06,1.12-0.06,1.67999c-0.01001,0.01001-0.01001,0.01001,0,0.03003   v0.21997c-0.01001,0.44,0.02002,0.85999,0.04004,1.27002c0,0.08997,0.00995,0.15997,0.01996,0.25   c0.17004,2.76996,0.84003,5.31,1.98004,7.40997c-1.10004,2.79004-1.79004,5.41998-1.99005,7.60004   c-0.00995,0.00995-0.01996,0.02997-0.02997,0.03998c0.01001,0.04999,0.02002,0.10999,0.02997,0.15997   c1.87006,2.61005,3.74005,5.40002,5.58002,8.32001c0.71002-1.44,1.38-2.85999,2.02002-4.26996   c1.76001-1.39001,3.62-3.37,5.38-5.79004c2.45996-0.15997,5-0.95996,7.47998-2.29999l0.03003-0.02002   c0.03998-0.00995,0.06995-0.03998,0.10999-0.04999c0.35999-0.19,0.69-0.39001,1.04999-0.60999   c0.02002-0.01001,0.02002-0.01001,0.02002-0.02002c0.02997-0.01996,0.06-0.03998,0.08997-0.04999   c0.48004-0.29999,0.94-0.59998,1.41003-0.94v-0.01001c0.39996-0.28998,0.79999-0.58997,1.19-0.89996   c3.48999-2.78003,6.69995-6.61005,9.20996-11.16003C88.02002,34.01996,89.44,29.75,90.04999,25.70996   c0.03003-0.07996,0.04004-0.15997,0.03003-0.25C90.84998,20.25,90.19,15.46997,88.20001,11.95001z M78.25,7.56   c0.78998,1.20996,2.03998,2.35999,3.63,3.23999c1.60999,0.89001,3.26001,1.33002,4.72998,1.34003   c0.85004,1.31,1.46002,2.87,1.85004,4.57996c-2.37-1.56-4.82001-3.03998-7.30005-4.39996l-0.04999-0.03003   c-2.48999-1.38-5.06-2.67999-7.64996-3.85999C75.09003,7.85999,76.71002,7.56,78.25,7.56z M64.90002,13.95001   c0.35999-0.36005,0.73999-0.71002,1.13-1.02002c0.91998,0.47998,1.85999,0.96002,2.78998,1.46002L64.25,18.29999L64.90002,13.95001   z M59.01001,58.70996c-0.97998-0.28998-1.91998-0.66998-2.81-1.15997l-0.02002-0.01001c-0.89996-0.5-1.77002-1.12-2.52997-1.82001   c0.19-1.83997,0.75995-4.03998,1.63-6.39001c1.22998,0.99005,2.54999,1.88,3.93994,2.64001   c0.01001,0.01001,0.01001,0.01001,0.03003,0.02002c1.37,0.76001,2.81,1.40002,4.29999,1.90002   C62.03003,55.87,60.46997,57.51996,59.01001,58.70996z M75.81,47.92999c-0.12-0.10004-0.23999-0.19-0.37-0.26001   c-1.09003-0.59998-2.51001-0.10999-3.17999,1.09003c-0.31,0.56995-0.40002,1.19995-0.28003,1.77997   c-0.12,0.08002-0.25,0.14001-0.37,0.21002C71.25,50.94,70.88,51.10999,70.53998,51.27997c-1.91998,0.87-3.84998,1.38-5.69,1.48004   c-1.69-0.51001-3.33997-1.22003-4.88995-2.07001c-0.01001-0.01001-0.01001-0.01001-0.02002-0.01001   c-1.56-0.85999-3.03998-1.89001-4.38-3.04999c-0.90002-1.61005-1.5-3.51001-1.77997-5.60004   c-0.06006-0.38995-0.10004-0.77997-0.14001-1.19C53.63,40.70001,53.63,40.56,53.62,40.41998   C54.15002,40.21997,54.63,39.81,54.94,39.25c0.65997-1.20001,0.32001-2.66003-0.77002-3.27002   c-0.13-0.07001-0.25-0.12-0.38-0.15997c0.10004-1.01001,0.28003-2.04004,0.51001-3.08002   c3.40002,3.03998,7.16003,5.71002,11.15002,7.90997C69.46002,42.87,73.71002,44.62,78.09998,45.88   C77.35999,46.62,76.59003,47.31,75.81,47.92999z M79.94,43.89996c-0.21002,0.25-0.44,0.52002-0.67999,0.77002   c-4.56-1.23999-8.96002-3.04999-13.08002-5.33002C62.04999,37.07001,58.19,34.31,54.71002,31.12   C54.78998,30.77997,54.89001,30.44,55,30.13L55.01001,30.12l0.06,0.01001l14.62,2.84998l10.21002,10.85999L79.95001,43.88   L79.94,43.89996z M86.07001,34.10999L86.06,34.13c-0.12,0.27997-0.23999,0.56-0.38,0.83997l-0.14996-0.03998L70.25,31.95996   L59.59003,20.60999L59.5,20.51001c0.16998-0.28003,0.34003-0.52002,0.53003-0.79004c0.15997-0.25,0.32996-0.51001,0.51996-0.73999   c0.75,0.46002,1.5,0.95001,2.28003,1.41003c0.12,0.07996,0.26001,0.15997,0.39996,0.25   c1.57001,0.96997,3.15002,1.90997,4.75,2.83997l0.28003,0.16003c1.63,0.94995,3.26001,1.87994,4.89001,2.78998l0.23999,0.12   c1.63,0.90997,3.28998,1.78998,4.95996,2.65997L78.64001,29.37c1.63,0.84998,3.26001,1.67999,4.92999,2.5   c0.16998,0.08002,0.33997,0.16998,0.52002,0.25c0.76996,0.38,1.56,0.76001,2.32996,1.14001   C86.31,33.54999,86.19,33.82996,86.07001,34.10999z M69.44,21.15997l0.88-5.97998c1.26001,0.65997,2.51001,1.33997,3.76001,2.02997   L69.44,21.15997z M74.63,24.02997l0.88-6.04999c1.27002,0.67999,2.52997,1.38,3.77002,2.08002L74.63,24.02997z M79.82001,26.89001   l0.88-6.03003c1.23999,0.67999,2.47998,1.39001,3.70996,2.09998L79.82001,26.89001z M88.58002,25.67999l-3.53003,3.77997   L85.89001,23.81c0.90997,0.51996,1.82001,1.04999,2.71997,1.58997l0.15002,0.08002L88.58002,25.67999z M88.91998,21.92999   c0,0.60999-0.03998,1.23999-0.10999,1.85999c-0.90002-0.52002-1.77997-1.03998-2.69-1.56   c-0.16998-0.09998-0.33002-0.20001-0.51001-0.27997c-1.52997-0.90002-3.08997-1.79004-4.66998-2.67004l-0.47003-0.26001   c-1.56-0.87-3.12994-1.73999-4.71997-2.59998l-0.46997-0.26001c-1.57001-0.87-3.16003-1.70996-4.74005-2.52997   c-0.15997-0.11005-0.33997-0.19-0.50995-0.28003c-0.93005-0.5-1.83002-0.96997-2.76001-1.44   c0.5-0.39001,1.01996-0.76001,1.51996-1.08997c0.17999-0.12,0.35004-0.25,0.53003-0.35004c3.22998,1.56,6.57001,3.29999,10,5.19   c3.38,1.87,6.58997,3.75,9.60999,5.63C88.94,21.5,88.94,21.71997,88.91998,21.92999z M49.07001,73.41998   c-1.31-2.15997-2.54999-4.31-3.70001-6.40002C43,71.32001,40.85999,75.60999,39.20001,79.44   c-1.64001,3.77997-2.79004,7.01996-3.31,9.33997l-0.07001,0.32001l0.16998,0.26001c0.47003,0.65997,1.04004,1.17999,1.72998,1.56   c0.68005,0.38,1.46002,0.59003,2.22003,0.62l0.33002,0.01001L40.5,91.32001c1.67999-1.67004,3.79999-4.38,6.12-7.79004   c1.44-2.09998,2.92999-4.45001,4.41998-6.92999C50.38,75.56,49.71997,74.5,49.07001,73.41998z"/><path d="M64.90997,46.78998c-0.66998,1.20001-2.17999,1.64001-3.37994,0.97003   c-1.21002-0.66003-1.64001-2.17004-0.98004-3.38c0.66998-1.21002,2.17999-1.64001,3.38-0.98004   C65.14001,44.07001,65.58002,45.57996,64.90997,46.78998z"/><path d="M59.28998,42.75c-0.54999,0.98999-1.77997,1.34998-2.76996,0.81   c-0.98999-0.54004-1.35004-1.79004-0.80005-2.78003C56.26001,39.79999,57.51001,39.44,58.5,39.97998   C59.47998,40.51996,59.83002,41.76001,59.28998,42.75z"/><path d="M70.53003,48.95996C69.98999,49.94,68.73999,50.29999,67.75,49.76001   c-0.97998-0.54004-1.33002-1.78003-0.78998-2.77002c0.54999-0.98999,1.77997-1.34998,2.76996-0.81   S71.08002,47.96997,70.53003,48.95996z"/></g><g><path d="M69.62,90.26001c-0.65002-2.41003-2-5.76001-3.88-9.65002c-1.94-4.01001-4.39001-8.5-7.09998-12.97998   c-0.47003-0.78003-0.94-1.54004-1.42004-2.30005c-1.87994-3-3.78998-5.87994-5.71997-8.56995   c-0.09998-0.14001-0.19-0.27002-0.28998-0.41003c-0.34003-2.33002-1.17999-5.06-2.45001-7.91998   c1.13-2.32001,1.73999-5.04999,1.82001-8.01001l-0.01001-0.02997c0.01001-0.04004,0-0.09003,0.01001-0.14001   c0.01996-0.42004,0.01001-0.82001,0-1.26001c0-0.03003,0-0.03003,0-0.03998c-0.01001-0.03003-0.01001-0.07001-0.01001-0.10004   c-0.02002-0.59998-0.06-1.16998-0.10999-1.77002L50.45001,37.06c-0.04999-0.51001-0.12-1.03003-0.19-1.54999   c-0.71002-4.62-2.52002-9.55005-5.34003-14.22003c-2.57001-4.23999-5.70996-7.77002-9.07001-10.42999   c-0.06-0.07001-0.13-0.12-0.20996-0.16998c-1.35999-1.07001-2.75-1.98999-4.15002-2.75   C30.39001,7.33997,29.28998,6.83997,28.19,6.45001c-0.28003-0.10004-0.56-0.19-0.84003-0.28003   C27.07001,6.07996,26.78998,6,26.51001,5.92999c-0.27002-0.07001-0.54999-0.14001-0.83002-0.20001   c-1.09998-0.22998-2.19-0.35999-3.25-0.37c-0.41998-0.01001-0.84998,0.01001-1.25,0.06c-1.84998,0.13-3.58002,0.66998-5.13,1.60999   c-1.58997,0.96002-2.87,2.26001-3.85999,3.87c-0.22998,0.34003-0.44,0.71002-0.62,1.10004c-1.91003,3.75-2.38,8.75-1.39001,14.13   c0.10004,0.58997,0.22003,1.16998,0.37,1.76996c0.89001,3.76001,2.47003,7.65002,4.73999,11.40002   C18.07001,43.89996,21.63,47.78998,25.42999,50.56c0.20001,0.14996,0.40002,0.29999,0.60999,0.44   c0.20001,0.14001,0.40002,0.26996,0.61005,0.39996c0.48999,0.34003,0.98999,0.64001,1.48999,0.92999   c0.01001,0.02002,0.01001,0.02002,0.02997,0.02002c0.06,0.04004,0.14001,0.08002,0.20001,0.12   c0.19,0.10999,0.39001,0.22003,0.59003,0.33002c0.19995,0.09998,0.39996,0.20001,0.58997,0.29999   c0.02002,0.01001,0.03003,0.02002,0.04999,0.03003c0.06,0.01996,0.12,0.04999,0.18005,0.07996   C30.08002,53.35999,30.39001,53.5,30.69,53.64001c0.65997,0.28998,1.32001,0.53998,1.96997,0.75   c0.20001,0.06995,0.41003,0.12994,0.61005,0.18994c1.42999,0.41003,2.84998,0.64001,4.21997,0.67004   c0.01001,0.01001,0.02002,0.01996,0.02002,0.02997H37.56c1.96002,2.46002,4,4.47003,5.87,5.79004   c0.78003,1.57001,1.63,3.20996,2.53998,4.87c1.25,2.29999,2.61005,4.65997,4.02002,6.98999   c0.54999,0.89996,1.09003,1.78998,1.65002,2.65997c2.20001,3.5,4.42999,6.80005,6.56,9.65002   c2.57001,3.47998,4.91998,6.21997,6.76001,7.90002L65.19,93.34998l0.28998-0.02002c0.84003-0.07996,1.62-0.32996,2.32001-0.75   c0.69-0.41998,1.29004-1.01996,1.72003-1.69995l0.19-0.29004L69.62,90.26001z M34.96002,11.90997l0.01996,0.04999l0.05005-0.02997   L35.12,12.20001L36.71002,17.38L36.63,17.31l0.01001,0.04999L31.94,13.64001c0.95001-0.55005,1.90997-1.10004,2.87-1.64001   L34.96002,11.90997z M13.16998,12.08997c1.51001-0.07996,3.21002-0.62,4.84003-1.60999c1.64996-1,2.91998-2.27002,3.69-3.59998   c0.40997-0.02002,0.83002-0.02002,1.26001,0.01001c0.15997,0.00995,0.32996,0.01996,0.5,0.03998   c0.08997,0,0.17999,0.01001,0.26996,0.02997c0.05005,0,0.09003,0,0.13,0.01001c0.17999,0.02002,0.37,0.04004,0.54999,0.07001   c0.23004,0.03003,0.46002,0.07001,0.69,0.12c0.02002,0,0.03003,0,0.04004,0.01001c0.21997,0.03998,0.44,0.09003,0.65997,0.15002   c0.22003,0.03998,0.42999,0.09998,0.65002,0.16998c0.06,0.01001,0.13,0.02002,0.19,0.04999   c0.07001,0.01001,0.13,0.03003,0.20001,0.04999c0,0-0.01001,0-0.01001,0.01001c0.02997,0,0.04999,0.01001,0.07996,0.02002   C24.25,8.95996,21.62,10.41998,19.08002,11.95996l-0.04999,0.03003C16.47998,13.52997,13.95001,15.19,11.52002,16.94   c0.01001-0.03003,0.01001-0.06,0.01996-0.09003c-0.02997,0.02002-0.06,0.04004-0.08997,0.06   C11.78998,15.12,12.35999,13.48999,13.16998,12.08997z M11.44,24.31c-0.02002,0.01001-0.03998,0.02997-0.06,0.03998   c-0.09003-0.64996-0.16003-1.32001-0.20001-1.95001c-0.01001-0.22998-0.03998-0.44995-0.03998-0.65997   c3.10999-2.13,6.44-4.25,9.95001-6.38C24.56,13.26001,27.95001,11.32001,31.25,9.56   c0.02002,0.01001,0.03003,0.01996,0.04999,0.02997c0.01001,0,0.01001-0.01001,0.02002-0.01001   c0.07001,0.04004,0.14996,0.09003,0.21997,0.14001c0.12,0.06,0.23004,0.13,0.35004,0.21002c0.54999,0.31,1.10999,0.69,1.63,1.08002   c-0.94,0.52997-1.88,1.06-2.83002,1.62c-0.16998,0.10999-0.34998,0.19995-0.52002,0.32001c-1.62,0.91998-3.23999,1.87-4.87,2.84998   l-0.46997,0.28998c-1.62,0.97003-3.23004,1.94-4.85004,2.94l-0.46997,0.29004c-1.60999,0.96997-3.22003,1.97998-4.79004,2.98999   c-0.17999,0.08997-0.34998,0.20996-0.51996,0.31c-0.94,0.58997-1.84003,1.16998-2.75,1.76001   C11.45001,24.35999,11.44,24.32996,11.44,24.31z M31.57001,20.77997l-5.03003-3.95996   c1.28003-0.77002,2.56-1.53003,3.86005-2.28003l0.00995,0.06c0.02002-0.01001,0.03003-0.02002,0.05005-0.02997l1.17999,6.22998   l-0.08002-0.06L31.57001,20.77997z M26.25,24l-5.03998-3.97003c1.28998-0.78998,2.57996-1.57001,3.85999-2.32996l0.01001,0.06   c0.01996-0.02002,0.03998-0.03003,0.06-0.04004l1.17999,6.29999l-0.08002-0.06L26.25,24z M20.92999,27.21997l-4.97998-3.92999   c1.26001-0.79999,2.52997-1.58002,3.81-2.35999L19.77002,21c0.01996-0.02002,0.03998-0.03003,0.06-0.04004L21,27.25l-0.08002-0.06   L20.92999,27.21997z M11.65997,26.01996c0.92004-0.58997,1.84003-1.19,2.78003-1.77997L14.45001,24.31   c0.01996-0.02002,0.03998-0.03003,0.06-0.04004l1.16998,6.20001l-0.08002-0.06L15.60999,30.44l-3.62-2.86005   C11.85999,27.06,11.73999,26.53998,11.65997,26.01996z M15.34998,35.91998l-0.14996,0.03003   C15.19,35.94,15.19,35.92999,15.19,35.91998l-0.04999,0.01001c-0.17004-0.29999-0.29999-0.58002-0.44-0.90002   c-0.15002-0.26996-0.29004-0.57001-0.41003-0.85999c0.82001-0.44,1.65002-0.87,2.48004-1.34003   c0.13995-0.06995,0.28998-0.14996,0.44-0.22998c1.69995-0.91998,3.38-1.85999,5.07001-2.83002l0.28998-0.17999   c1.71002-0.97998,3.41998-1.97998,5.08997-2.98999l0.24005-0.14996c1.67999-1.01001,3.34998-2.06,5.00995-3.12006l0.30005-0.17999   c1.62-1.03998,3.23999-2.08997,4.84998-3.17999c0.16998-0.12,0.34003-0.21997,0.51001-0.33997   c0.73999-0.51001,1.5-1.02002,2.25-1.53003c0.01001,0.02002,0.02997,0.03003,0.03998,0.04999   C40.87,18.14001,40.88,18.14001,40.89001,18.13c0.20996,0.25,0.39996,0.5,0.58997,0.76001l0.01001,0.01996   C41.69,19.16998,41.87,19.41998,42.06,19.69l-0.10999,0.12L31.25,32.15997L15.34998,35.91998z M22.32001,45.82996   c-0.01001,0-0.03003,0.01001-0.03998,0.01001c-0.26001-0.26001-0.52002-0.52997-0.75-0.78998v-0.01001l0.03998-0.04999   L31.81,33.16998l15.22998-3.59998l0.06-0.02002L47.10999,29.56c0,0.01001,0.01001,0.01996,0.01001,0.02997l0.04999-0.01996   l0.01001,0.01996c0.12,0.32001,0.23999,0.67004,0.34003,1.02002c-3.51001,3.5-7.46002,6.56-11.69,9.12   c-4.23004,2.56-8.75,4.63-13.48004,6.13C22.34003,45.84998,22.33002,45.83997,22.32001,45.82996z M35.94,53.56   c-0.31-0.04004-0.60999-0.09003-0.91998-0.16003c-0.31-0.06-0.62-0.13995-0.92999-0.21997   c-0.76001-0.20001-1.53003-0.46002-2.30005-0.77002c-0.01996,0-0.04999-0.01001-0.07001-0.01996   c-0.37994-0.15002-0.75995-0.32001-1.15997-0.5c-0.10999-0.06006-0.21002-0.11005-0.32001-0.17004   C30.21997,51.70996,30.19,51.70001,30.16998,51.69c0.10004-0.59003-0.01996-1.23999-0.37-1.81   C29.48999,49.37,29.06,49,28.58002,48.77997c-0.03003-0.01001-0.04999-0.01996-0.07001-0.02997   c-0.66003-0.26001-1.40002-0.23004-2.02002,0.14001c-0.13,0.07996-0.23999,0.16998-0.33997,0.26996   C26.13,49.14996,26.10999,49.13,26.09003,49.12L26.08002,49.13c-0.87-0.62-1.71002-1.32001-2.54004-2.08002   c4.55005-1.5,8.94-3.52002,13.04004-6c4.10999-2.48999,7.91998-5.44,11.37-8.78003   c0.01001,0.03003,0.01001,0.05005,0.01996,0.08002c0.02002-0.02002,0.03003-0.02997,0.05005-0.04999   c0.27997,1.06,0.5,2.12,0.65997,3.15997c-0.14996,0.05005-0.28998,0.12-0.42999,0.20001   C47.14001,36.33997,46.84003,37.88,47.59003,39.12c0.25995,0.44,0.62,0.77997,1.02997,1.01001   c0.12,0.06,0.23999,0.10999,0.35999,0.14996C49,40.28998,49.03003,40.29999,49.04999,40.31c0.02002,0.14996,0,0.29999,0,0.45001   C49.03998,41.19,49,41.60999,48.96997,42.01001c-0.20996,2.19995-0.75,4.21997-1.62994,5.94995   c-1.34003,1.26001-2.85004,2.40002-4.44,3.36005c-0.01001,0-0.01001,0-0.02002,0.00995   c-1.59998,0.97003-3.29999,1.78003-5.06,2.39001C37.20001,53.70996,36.57001,53.65997,35.94,53.56z M47.16998,58.32996   l-0.01001,0.01001c-0.92999,0.56-1.94,1.03003-2.97998,1.35004c-0.02002-0.01001-0.02997-0.02002-0.04999-0.04004   C44.12,59.65997,44.12,59.65997,44.10999,59.65997c-1.57996-1.13-3.27997-2.78998-4.95996-4.83002   C40.70001,54.23999,42.19,53.5,43.60999,52.64001C43.63,52.63,43.63,52.63,43.64001,52.62   c1.40997-0.85004,2.75-1.83002,3.97998-2.91998c0.01001,0.01996,0.02002,0.04999,0.03003,0.06995   c0.00995-0.01996,0.02997-0.02997,0.03998-0.03998c1.01001,2.41998,1.70001,4.70001,2.01001,6.65002   C48.92999,57.12,48.09003,57.76996,47.16998,58.32996z"/><path d="M40.98999,48.33997c-0.62,0.37-1.33002,0.46002-1.97998,0.31   c-0.09003-0.02997-0.17999-0.06-0.27002-0.09998c-0.51001-0.20001-0.95996-0.56-1.27002-1.07001   c-0.75-1.23999-0.34998-2.83997,0.88-3.58997c0.62-0.37006,1.33002-0.46002,1.98004-0.31006   c0.08997,0.03003,0.17999,0.06006,0.26996,0.10004C41.10999,43.88,41.56,44.23999,41.87,44.75   C42.62,45.98999,42.22998,47.58997,40.98999,48.33997z"/><path d="M34.54999,50.69c-0.58997,0.35999-1.27997,0.39996-1.88,0.16998   c-0.07001-0.03003-0.13995-0.06-0.20001-0.09998c-0.08997-0.05005-0.16998-0.10004-0.25-0.15002   C32,50.44,31.82001,50.23999,31.66998,50C31.06,48.97998,31.38,47.65997,32.39001,47.04999   c0.58997-0.35999,1.28998-0.39001,1.89001-0.15997c0.06,0.02997,0.12,0.04999,0.17999,0.08997   c0.32001,0.17999,0.59998,0.44,0.79999,0.77002C35.87,48.76996,35.56,50.07996,34.54999,50.69z"/><path d="M46.07001,43.71997c-0.51001,0.31-1.10004,0.38-1.63,0.23999c-0.07001-0.00995-0.13-0.03998-0.20001-0.06   c-0.41998-0.16998-0.78998-0.46997-1.03998-0.88995C42.59003,42,42.90002,40.69,43.90997,40.07001   c0.51001-0.31,1.10004-0.38,1.64001-0.24005l0.21002,0.06006c0.41998,0.16998,0.77997,0.46997,1.02997,0.87994   C47.40002,41.77997,47.08002,43.10999,46.07001,43.71997z"/></g><text font-family="'Helvetica Neue', Helvetica, Arial-Unicode, Arial, Sans-serif" font-weight="bold" font-size="5px" fill="#000000" y="115" x="0">Created by Marvdrock</text><text font-family="'Helvetica Neue', Helvetica, Arial-Unicode, Arial, Sans-serif" font-weight="bold" font-size="5px" fill="#000000" y="120" x="0">from the Noun Project</text></svg>