<svg xmlns:x="http://ns.adobe.com/Extensibility/1.0/" xmlns:i="http://ns.adobe.com/AdobeIllustrator/10.0/" xmlns:graph="http://ns.adobe.com/Graphs/1.0/" xmlns="http://www.w3.org/2000/svg" xmlns:xlink="http://www.w3.org/1999/xlink" version="1.1" x="0px" y="0px" viewBox="0 0 100 125" style="enable-background:new 0 0 100 100;" xml:space="preserve"><switch><foreignObject requiredExtensions="http://ns.adobe.com/AdobeIllustrator/10.0/" x="0" y="0" width="1" height="1"/><g i:extraneous="self"><path d="M62.53003,42.28998l5.94995-6.45001c0.16003,0.15002,0.32001,0.31,0.48004,0.46002    c8.57001-9.53998,17.13995-19.08002,25.70996-28.62l-2.76996-2.56L65.75,33.20001    c0.16998,0.15997,0.34003,0.32996,0.51001,0.48999l-5.28003,5.78998l-8.19-14.79999l-0.04999-0.07001    C52.47998,24.34998,52.19,24.09998,51.88,23.87c0.41998-0.76001,0.78998-1.54004,1.10999-2.35004    c0.75-1.89996,1.19-3.87994,1.32001-5.87994c0.12-1.97003-0.14001-2.92004-0.34003-3.46002    c-0.26996-0.73999-0.95996-2.12-2.43994-3.13C50.15997,8.13,48.76001,7.76996,47.38,7.97998    C45.13,8.32001,43.72998,10.02997,43.31,10.88c-0.82001,1.63-1.27002,3.44-1.31,5.23999    c-0.07001,2.97998,0.95001,5.32001,1.84003,6.77997c-1.32001,0.57001-2.20001,1.37-2.53003,1.71002L41.28998,24.63    L6.07001,81.73999l-0.03003,0.08002C5.77002,82.78998,6.17999,83.81,7.03003,84.28998C7.34003,84.46997,7.70001,84.56,8.06,84.56    c0.47998,0,0.97003-0.16003,1.37-0.48004l34-55.64996c0-0.01001,0.26001-0.45001,0.78003-0.92999L44.25,27.51996    c0.56,0.30005,1.44,0.64001,2.53998,0.64001h0.28003c0.77997-0.04999,1.56-0.26996,2.26001-0.64001L49.41998,27.44    c0.04004-0.04004,0.07001-0.09003,0.11005-0.13c0.53998,0.42999,0.84998,0.88,0.88995,0.95001l7.91003,14.13L29.46002,74.06    l-0.05005,0.06L29.38,74.19c-0.03003,0.13-0.19,0.78998,0.23999,1.37c0.29999,0.39001,0.75,0.60999,1.23999,0.60999    c0.09003,0,0.17999-0.01001,0.28003-0.02997L31.25,76.13l28.63-30.98004l20.21997,36.14001L82.14001,85.44    c0.02997,0.09998,0.76001,2.32001-0.66003,4.04999c-0.81,0.98999-1.89996,1.29999-2.41998,1.39001l-5.64001,0.20996    l-60.95996-0.12h-0.12L12.25,91.03998c-0.09003,0.07001-0.88,0.71002-0.84998,1.78998    C11.44,93.90997,12.26001,94.5,12.35999,94.56L12.44,94.62h64.27997C77,94.64996,77.33002,94.66998,77.69,94.66998    c1.02002,0,2.29999-0.16998,3.65002-0.72998c1.21997-0.51001,2.35999-1.29999,3.31-2.33002    c0.57996-0.94,0.96997-1.95001,1.16998-3c0.51001-2.69-0.41998-4.92999-1.01001-6.03003L62.53003,42.28998z M42.84003,28.07996    l-33.88,55.5c-0.47003,0.35004-1.11005,0.40002-1.60004,0.12006C6.79999,83.38,6.52002,82.69,6.67999,82.04999L41.82001,25.06    c0.53998-0.54004,2.38-2.14001,5.14996-2.16998c0.32001,0.00995,0.64001,0.01996,0.97003,0.06    c-0.02002,0.03998-0.03998,0.06995-0.07001,0.09998c-0.15002,0.21002-0.29999,0.41998-0.46997,0.62    c-0.17004,0.22998-0.35004,0.45001-0.54004,0.66998c-0.14996,0.19-0.32001,0.37-0.47998,0.55005    C46.25,25.02997,46.12,25.16998,45.97998,25.31c-0.15997,0.16998-0.32001,0.33002-0.48999,0.48999    c-0.08997,0.08002-0.17999,0.16998-0.27002,0.25C43.65002,26.70001,42.87,28.02997,42.84003,28.07996z M45.78998,18.21997    c-0.32996-2.08997-0.13-3.38-0.06-3.71997c0.22003-1.10999,0.40002-1.81,1.04004-2.25c0.77997-0.54004,1.75-0.34003,1.94-0.29004    c0.42999,0.11005,1.06,0.39001,1.57996,1.14001c0.48004,0.66998,0.61005,1.91003,0.37,3.48999    c-0.33997,2.30005-1.27997,3.98999-1.57996,4.55005C48.85999,21.54999,48.62,21.94,48.35999,22.32996    c-0.41998-0.06995-0.84998-0.09998-1.26996-0.10999L47,22.04999C46.40997,20.83997,46,19.54999,45.78998,18.21997z     M49.73999,25.95001c-0.16998,0.22998-0.34998,0.44995-0.52997,0.67999l-0.23004,0.27997    c-0.01001,0.01001-0.01996,0.03003-0.02997,0.04004c-0.59003,0.31-1.25,0.48999-1.91003,0.52997    c-0.81,0.03998-1.48999-0.13-2-0.33997c0.21002-0.18005,0.42004-0.37006,0.62-0.56006    c0.03003-0.01996,0.05005-0.04999,0.08002-0.06995c0.27002-0.26001,0.53003-0.52002,0.79004-0.79004    c0.27997-0.28998,0.53998-0.57996,0.79999-0.87c0.01001-0.01001,0.01996-0.02997,0.03998-0.04999    c0.25-0.31,0.5-0.60999,0.73999-0.92999c0.23999-0.31,0.47003-0.64001,0.69-0.97003    c0.04999-0.07001,0.10004-0.13995,0.14001-0.20996l0.14001-0.21002c0.20001-0.33002,0.39996-0.66998,0.58997-1.01001    c0.32001-0.57996,1.29999-2.35999,1.66003-4.77997c0.26996-1.77002,0.09998-3.15002-0.48004-3.98004    c-0.63995-0.91998-1.42999-1.27997-1.97998-1.40997C48.53998,11.21997,47.38,11.01001,46.39001,11.69    c-0.92004,0.63-1.13,1.66998-1.33002,2.66998c-0.08002,0.38-0.28998,1.76001,0.04999,3.96997    c0.20001,1.24005,0.56,2.44,1.08002,3.58002c-0.25,0.04004-0.48999,0.08002-0.72998,0.14001    c-0.38,0.08002-0.75,0.20001-1.12,0.34998c-0.83002-1.38995-1.73004-3.54999-1.66003-6.25995    c0.03003-1.70001,0.46002-3.41003,1.22998-4.95001c0.30005-0.60004,1.53003-2.22003,3.57001-2.54004    c1.21002-0.17999,2.44,0.14001,3.67004,0.97003c1.31995,0.89001,1.94,2.14001,2.19,2.79999    c0.17999,0.47998,0.39996,1.34003,0.28998,3.17999c-0.12,1.92999-0.54999,3.84003-1.27002,5.66998    c-0.29999,0.76001-0.64996,1.5-1.02997,2.21002l-0.17999,0.32001c-0.03003,0.04999-0.06,0.09998-0.09003,0.15002    c0,0.00995-0.01001,0.00995-0.01001,0.01996c-0.10999,0.17999-0.21997,0.38-0.33997,0.56v0.01001    c-0.04004,0.06-0.07001,0.12-0.12,0.16998C50.48999,24.89001,50.37,25.06,50.23999,25.23999    C50.09003,25.47998,49.91998,25.70996,49.73999,25.95001z M51.01001,27.91998L51,27.89996    c-0.03998-0.07001-0.40002-0.58997-1.03998-1.12c0.00995-0.01001,0.00995-0.01001,0.00995-0.01996    C50.15002,26.52997,50.33002,26.29999,50.5,26.06s0.33002-0.47003,0.48999-0.72003    c0.14001-0.20996,0.28003-0.41998,0.41003-0.63995c0.06-0.08002,0.09998-0.16003,0.14996-0.24005    c0.29004,0.23004,0.52002,0.44,0.66998,0.59003L60.5,40.01001l-1.57001,1.71997l-0.12,0.13L51.01001,27.91998z M59.53003,44.52997    L30.90997,75.48999C30.62,75.5,30.34003,75.38,30.16998,75.14996c-0.20001-0.25995-0.17999-0.56-0.14996-0.69995    l28.65997-31.43005l2.65002-2.90997l5.38995-5.90997l0.54004,0.45996l0.01001,0.01001    C67.51001,34.89996,67.76001,35.14001,68,35.37l-5.82001,6.28998L59.53003,44.52997z M85.15002,88.47998    C84.96997,89.45001,84.60999,90.38,84.10999,91.19c-0.84998,0.90997-1.89996,1.64996-3.02997,2.12    C79.38,94.01996,77.79999,94.04999,76.75,93.94H12.65997c-0.16998-0.14001-0.56-0.52002-0.57996-1.13    c-0.02002-0.60004,0.32996-1,0.5-1.16003l60.84998,0.12l5.69-0.21997c0.66998-0.10999,1.92999-0.47003,2.89001-1.63    c1.64996-2.01001,0.81-4.59003,0.75-4.73999l-2.06-4.20001L60.35999,44.63L62.03998,42.81l22.17004,40.09998    C84.76001,83.92999,85.62,86,85.15002,88.47998z"/></g></switch><text x="0" y="115" fill="#000000" font-size="5px" font-weight="bold" font-family="'Helvetica Neue', Helvetica, Arial-Unicode, Arial, Sans-serif">Created by Marvdrock</text><text x="0" y="120" fill="#000000" font-size="5px" font-weight="bold" font-family="'Helvetica Neue', Helvetica, Arial-Unicode, Arial, Sans-serif">from the Noun Project</text></svg>