<svg xml:space="preserve" viewBox="2.075675675675676 22.0672 509.2324324324325 463.10400000000004" y="0px" x="0px" version="1.1" xmlns:xlink="http://www.w3.org/1999/xlink" xmlns="http://www.w3.org/2000/svg" style="max-height: 500px" width="509.2324324324325" height="463.10400000000004"><path d="M253.786,158.044c-27.773,0-50.369,22.596-50.369,50.369s22.596,50.368,50.369,50.368c27.772,0,50.37-22.595,50.37-50.368  S281.559,158.044,253.786,158.044z"/><path d="M338.482,125.903h-30.636l37.479-77.796H163.174l37.478,77.796h-29.888v28.751l-74.662-35.969v182.152l74.662-35.968v28.751  h29.127l-36.345,75.442H244.7v29.694l-50.697,50.696l13.504,13.504l37.193-37.193v38.127h19.098V424.33l38.63,38.629l13.504-13.504  l-52.134-52.133v-28.258h81.9l-36.346-75.443h29.128v-30.078l77.415,37.295V118.686l-77.415,37.295v-30.078H338.482z   M314.928,67.204l-26.769,55.564H220.34l-26.769-55.564H314.928z M193.945,349.967l26.769-55.564h67.82l26.769,55.564H193.945z   M341.236,175.853l55.563-26.769v121.355l-55.563-26.769V175.853z M115.2,270.439V149.084l55.564,26.769v67.819L115.2,270.439z   M319.385,274.523H189.861V255.67v-91.815v-18.854h129.523L319.385,274.523L319.385,274.523z"/><text fill="#000000" font-family="Arbeit Regular, Helvetica, Arial-Unicode, Arial, Sans-serif" font-weight="bold" font-size="25.6" y="601.6" x="0.0">Created by Rafiico Creative Studio</text><text fill="#000000" font-family="Arbeit Regular, Helvetica, Arial-Unicode, Arial, Sans-serif" font-weight="bold" font-size="25.6" y="627.2" x="0.0">from Noun Project</text></svg>