<svg xmlns="http://www.w3.org/2000/svg" data-name="Layer 1" viewBox="0 0 100 125" x="0px" y="0px"><path d="M94.91,10.05,50,49.47,5.09,10.05a.36.36,0,0,0-.44,0,.37.37,0,0,0-.17.41l16.3,67.32A.34.34,0,0,0,21,78C21.33,84.65,34.21,90,50,90S78.67,84.65,79.05,78a.34.34,0,0,0,.17-.22l16.3-67.32a.37.37,0,0,0-.17-.41A.36.36,0,0,0,94.91,10.05ZM71.43,69.28c-5.32-2.47-13-4-21.43-4s-16.11,1.56-21.43,4L50,50.47ZM5.48,11.39,49.43,50,25.68,70.82a.36.36,0,0,0-.07.1c-2.34,1.53-3.9,3.3-4.45,5.2ZM50,89.29c-15.62,0-28.32-5.22-28.32-11.64,0-2.29,1.63-4.43,4.43-6.24l.07,0,.09-.09C31.33,68.12,40.07,66,50,66s18.67,2.12,23.73,5.31l.1.08s0,0,.08,0c2.79,1.8,4.41,3.94,4.41,6.23C78.32,84.07,65.62,89.29,50,89.29ZM78.84,76.12c-.55-1.9-2.11-3.67-4.45-5.2a.31.31,0,0,0-.07-.09L50.57,50,94.52,11.39Z"/><text x="0" y="115" fill="#000000" font-size="5px" font-weight="bold" font-family="'Helvetica Neue', Helvetica, Arial-Unicode, Arial, Sans-serif">Created by Tawny Whatmore</text><text x="0" y="120" fill="#000000" font-size="5px" font-weight="bold" font-family="'Helvetica Neue', Helvetica, Arial-Unicode, Arial, Sans-serif">from the Noun Project</text></svg>