<svg viewBox="5.216216216216216 9.386 90 83.7" version="1.1" xmlns="http://www.w3.org/2000/svg" style="max-height: 500px" width="90" height="83.7">
 <path d="m39.922 69.289c-0.55078 0-1 0.44922-1 1 0 0.55078 0.44922 1 1 1s1-0.44922 1-1c0-0.55078-0.44922-1-1-1z"/>
 <path d="m69.102 54.281c-0.26953 0-0.51953-0.14062-0.66016-0.39062-0.19922-0.35938-0.070312-0.82031 0.30078-1.0195l10.199-5.5703c0.37109-0.19922 0.82031-0.058593 1.0195 0.30078 0.19922 0.35938 0.070312 0.82031-0.30078 1.0195l-10.199 5.5703c-0.10938 0.058594-0.23828 0.089844-0.35938 0.089844z"/>
 <path d="m59.398 59.578c-0.26953 0-0.51953-0.14062-0.66016-0.39062-0.19922-0.35938-0.070312-0.82031 0.30078-1.0195l6.6719-3.6484c0.37109-0.19922 0.82031-0.058593 1.0195 0.30078 0.19922 0.35938 0.070312 0.82031-0.30078 1.0195l-6.6719 3.6484c-0.10937 0.058594-0.23828 0.089844-0.35937 0.089844z"/>
 <path d="m41.762 39.801c-0.14844 0-0.30078-0.039062-0.42969-0.14062-0.33984-0.23828-0.42188-0.71094-0.17969-1.0508l13.078-18.52c0.23828-0.33984 0.69922-0.42188 1.0391-0.17969 0.33984 0.23828 0.42188 0.71094 0.17969 1.0508l-13.078 18.52c-0.14844 0.21094-0.37891 0.32031-0.60938 0.32031z"/>
 <path d="m84.891 53.141c-0.19141-0.37109-0.64844-0.51172-1.0117-0.30859l-26.34 13.859-23.781-26.68 16.781-24.578c0.23047-0.33984 0.14844-0.80859-0.19922-1.0391-0.33984-0.23047-0.80859-0.14844-1.0391 0.19922l-16.57 24.27-4.2305-4.75c-0.28125-0.30859-0.75-0.33984-1.0586-0.058593-3.1719 2.8281-3.5898 7.6016-1.0703 10.93l-5.7383 14.801-5.3516 4.7695c-0.30859 0.28125-0.33984 0.75-0.070312 1.0586l4.6719 5.2383c-0.12891 0.32031-0.19922 0.67188-0.19922 1.0312v13.141c0 0.41016 0.33984 0.75 0.75 0.75h6.1797c0.42188 0 0.75-0.33984 0.75-0.75v-5.7812l2.5312 2.8398c0.14844 0.16016 0.35156 0.25 0.55859 0.25 0.17969 0 0.35938-0.070312 0.5-0.19141l5.3516-4.7695 15.359-4.0117c1.3906 1.3516 3.1992 2.1406 5.1484 2.2617 0.16016 0 0.32031 0.011718 0.48047 0.011718 1.9883 0 3.8789-0.71875 5.3789-2.0508 0.14844-0.12891 0.23828-0.32031 0.25-0.51953s-0.058594-0.39062-0.19141-0.53906l-4.1602-4.6602 26.012-13.68c0.37109-0.19141 0.51172-0.64844 0.30859-1.0117zm-59.031 31.109h-4.6797v-12.391c0-0.42969 0.23828-0.83984 0.60937-1.1484 0.42969-0.35156 1.0508-0.57031 1.7305-0.57031 1.2695 0 2.3398 0.78906 2.3398 1.7188zm4.6523-3.75-3.1484-3.5312v-5.1094c0-1.7812-1.7188-3.2188-3.8398-3.2188-1.0703 0-2.0312 0.35938-2.7305 0.94922l-3.9609-4.4414 4.3711-3.8906 13.68 15.34-4.3711 3.8984zm5.6797-4.6797-14.059-15.781 5.2188-13.469 22.828 25.609zm20.699-1.7188c-1.7617-0.10156-3.3789-0.87891-4.5508-2.1992l-24.449-27.43c-2.25-2.5312-2.1992-6.3203 0-8.7891l33.172 37.219c-1.2109 0.85938-2.6797 1.2891-4.1797 1.1914z"/>
<text fill="#000000" font-family="Arbeit Regular, Helvetica, Arial-Unicode, Arial, Sans-serif" font-weight="bold" font-size="5.0" y="117.5" x="0.0">Created by TENTELIER</text><text fill="#000000" font-family="Arbeit Regular, Helvetica, Arial-Unicode, Arial, Sans-serif" font-weight="bold" font-size="5.0" y="122.5" x="0.0">from Noun Project</text></svg>