<svg xml:space="preserve" viewBox="27.09375 5.34375 48.25 91.25" y="0px" x="0px" version="1.1" xmlns:xlink="http://www.w3.org/1999/xlink" xmlns="http://www.w3.org/2000/svg" style="max-height: 500px" width="48.25" height="91.25"><rect height="100" width="100" fill="none"/><path d="M63.849,88.073l-9.563-17.756c-0.111-0.206-0.271-0.37-0.457-0.485V40.603c0.381-0.389,0.615-0.923,0.615-1.51v-5.769  c0.569-0.486,0.931-1.209,0.931-2.016c0-0.808-0.361-1.53-0.931-2.017v-1.317c0-1.195-0.968-2.163-2.163-2.163  c-1.194,0-2.163,0.968-2.163,2.163v0.682h-1.839v-1.047c-1.396-11.026-12.282-17.586-12.282-17.586v20.657v1.256v20.656  c0,0,10.887-6.559,12.282-17.585v-1.047h1.839v5.134c0,0.587,0.235,1.121,0.616,1.51v29.229c-0.186,0.115-0.346,0.279-0.457,0.485  l-9.563,17.756c-0.338,0.628-0.104,1.411,0.525,1.75c0.628,0.338,1.412,0.103,1.75-0.525l8-14.856v14.245  c0,0.713,0.578,1.291,1.291,1.291c0.714,0,1.291-0.578,1.291-1.291V74.441l8.001,14.856c0.339,0.628,1.122,0.863,1.751,0.525  C63.951,89.484,64.187,88.701,63.849,88.073z M51.654,31.307c0-0.196,0.067-0.375,0.18-0.518c0.058-0.021,0.119-0.032,0.184-0.032  h0.947c0.064,0,0.126,0.012,0.184,0.032c0.112,0.143,0.181,0.322,0.181,0.518s-0.068,0.375-0.181,0.518  c-0.058,0.021-0.119,0.033-0.184,0.033h-0.947c-0.064,0-0.126-0.012-0.184-0.033C51.722,31.682,51.654,31.503,51.654,31.307z"/><text font-family="'Helvetica Neue', Helvetica, Arial-Unicode, Arial, Sans-serif" font-weight="bold" font-size="5px" fill="#000000" y="115" x="0">Created by Marco Livolsi</text><text font-family="'Helvetica Neue', Helvetica, Arial-Unicode, Arial, Sans-serif" font-weight="bold" font-size="5px" fill="#000000" y="120" x="0">from the Noun Project</text></svg>