<svg xmlns="http://www.w3.org/2000/svg" version="1.1" viewBox="-5.0 -10.0 110.0 135.0">
 <path d="m9.0312 95.77-0.74609-0.6875 4.5742-4.9453 0.74609 0.69141zm-1.793-0.21484-1.0898 1.1797 1.4062 1.3008 1.0898-1.1797zm28.148 1.6445c-6.3398 1.9961-13.574-0.5-21.504-7.4141l-0.007812-0.007812c-7.5117-7.3633-10.562-14.379-9.0703-20.859 1.8867-8.1875 10.695-12.859 11.957-13.281 1.5586-0.51953 1.5078-1.543 1.5039-1.5859l-0.003906-0.058593 0.51562-0.55859 0.089844 0.039062c6.5938 2.7383 10.875-1.7773 10.918-1.8203l0.0625-0.070313 0.027344 0.011719c0.16406-0.12109 0.97266-0.83203 4.5-4.9219 1.4766-1.707 2.1484-3.3672 1.9961-4.9375-0.1875-1.9375-1.5977-3.0625-1.6133-3.0742l-0.11719-0.09375 0.40625-0.44141 0.082031 0.027344c1.0078 0.32031 1.793-1.1992 1.8008-1.2109 3.4023-6.6328 15.656-4.1367 22.656-2.0625l0.21484 0.0625-0.15625 0.16406-19.859 20.527 6.1172 5.6562 19.07-21.578 0.082032 0.21094c2.6172 6.8164 6.0625 18.84-0.28516 22.75-0.015625 0.007813-1.4688 0.91016-1.0703 1.8906l0.03125 0.082031-0.40625 0.44141-0.10156-0.10938c-0.015625-0.011718-1.2461-1.332-3.1914-1.3672-1.5781-0.027344-3.1797 0.76953-4.7656 2.375-3.8047 3.8398-4.4492 4.6992-4.5586 4.8711l0.011719 0.027343-0.0625 0.070313c-0.042969 0.046875-4.207 4.6719-0.96484 11.027l0.042969 0.085937-0.51562 0.55859h-0.058594c-0.042968 0-1.0664 0.027344-1.4648 1.6211-0.32031 1.2891-4.293 10.43-12.309 12.953zm7.8633-36.234-8.5977 9.6523 0.41016 0.36328 8.5977-9.6523zm-10.438 7.9414 0.40234 0.37109 8.7734-9.4883-0.40234-0.37109zm-1.8203-1.6914 0.39453 0.38281 8.9492-9.3242-0.39453-0.38281zm-3.0469 1.6914 5.6484 5.2266 1.5938-1.7227-5.6484-5.2266zm4.2812 5.2578-0.41016-0.36328-4.3125 4.8438 0.41016 0.36328zm-2.3086-2.1289-4.4102 4.7695 0.40234 0.37109 4.4102-4.7695zm-1.875-1.7422-4.4844 4.668 0.39453 0.38281 4.4844-4.668zm5.6445-10.859c0.097656-0.085938 0.17969-0.1875 0.24609-0.30469 0.13672-0.24219 0.19922-0.52344 0.18359-0.80469-0.015626-0.28125-0.14453-0.59375-0.34375-0.85547-0.17969-0.23047-0.40625-0.44141-0.68359-0.61719-0.25-0.16797-0.58594-0.27344-0.91797-0.29297-0.63281-0.035156-1.168 0.14844-1.6094 0.32812-0.96875 0.39844-1.8008 0.99219-2.5508 1.5703-0.69141 0.53906-1.4023 1.1758-2.1719 1.957-0.32422 0.32813-0.64453 0.66797-0.94922 1.0078-0.34375 0.37891-0.67578 0.76953-0.99219 1.1523-0.066407 0.085937-0.13672 0.15625-0.19922 0.21484-0.21484 0.19531-0.45703 0.32031-0.69531 0.36328-0.33203 0.054687-0.71875-0.046875-1.0898-0.28125-0.12109-0.078125-0.22656-0.16016-0.32422-0.25-0.5625-0.48438-0.95312-1.1719-1.0508-1.8398l-0.003906-0.019531c-0.046875-0.17188-0.046875-0.38281-0.003906-0.57812 0.003906-0.007813 0.003906-0.015625 0.007812-0.027344 0.046876-0.1875 0.13281-0.33203 0.21094-0.35156 0.023438-0.007813 0.046875 0 0.070312 0.015624 0.003907 0.023438 0.019532 0.085938 0.039063 0.12891 0.125 0.34375 0.47656 0.53516 0.77734 0.42578s0.44141-0.48047 0.31641-0.83203c-0.011719-0.03125-0.027344-0.0625-0.035156-0.082031l-0.011719-0.03125c-0.13672-0.25781-0.38672-0.42578-0.64453-0.43359h-0.027344c-0.070313 0-0.13672 0.007812-0.19141 0.019531-0.0625 0.003906-0.13281 0.019531-0.19922 0.039063-0.12891 0.046874-0.25 0.10937-0.35938 0.1875-0.066406 0.050781-0.12891 0.10937-0.17578 0.16016l-0.011719 0.011718c-0.19141 0.25391-0.32422 0.5625-0.38281 0.89453-0.015624 0.070312-0.023437 0.14844-0.03125 0.23438-0.046874 0.96094 0.36328 1.957 1.0898 2.7109 0.13672 0.14062 0.28516 0.27344 0.44141 0.39453 0.27344 0.20703 0.5625 0.36328 0.85156 0.46484 0.32812 0.10547 0.66797 0.14453 0.97656 0.11328 0.72656-0.070312 1.2539-0.48828 1.5703-0.82812 0.24609-0.27344 0.51172-0.56641 0.8125-0.89063 0.42578-0.45703 0.78516-0.83594 1.1328-1.1875 0.23828-0.24219 0.48047-0.48828 0.72656-0.72656 0.38281-0.375 0.80078-0.76562 1.3125-1.2227 0.39453-0.34766 0.75-0.63672 1.0859-0.87891 0.33984-0.25 0.73438-0.53516 1.1484-0.75391 0.30859-0.16016 0.76562-0.37891 1.2148-0.41797 0.23438-0.011718 0.40234 0.019532 0.57031 0.10547 0.20703 0.10156 0.35938 0.21875 0.50391 0.39844 0.24219 0.29688 0.28906 0.76562 0.19141 0.90625-0.023438 0.03125-0.050781 0.042969-0.085938 0.035156-0.015625-0.019531-0.046875-0.0625-0.078125-0.09375-0.24219-0.25-0.62109-0.27734-0.84766-0.058594-0.082031 0.078125-0.13672 0.18359-0.15234 0.30078-0.03125 0.19141 0.039063 0.39844 0.18359 0.54688 0.023438 0.023437 0.046875 0.046874 0.074219 0.066406l-0.003907 0.003906c0.22266 0.18359 0.53125 0.23438 0.76953 0.11719 0.050781-0.027344 0.10938-0.058594 0.16406-0.09375l0.007813-0.003907c0.011719-0.003906 0.019531-0.011719 0.023437-0.015625 0.039063-0.023437 0.078125-0.054687 0.12109-0.089844zm-5.8008 21.449-6.2305-5.7617-0.058594 0.22266c-0.011718 0.042969-1.1367 4.4297-3.5 7.1094-1.0352 1.1797-2.3594 2.6758-3.5352 4l-1.1211 1.2617 2.5117 2.3242 0.09375-0.09375c0.70703-0.72656 1.543-1.5859 2.375-2.4492 0.84766-0.87891 1.6992-1.7578 2.4219-2.4961 2.4883-2.5625 6.7734-4.0312 6.8164-4.043zm15.77 0.14453 0.011719-0.015625c0.050781-0.050781 0.10156-0.11719 0.14844-0.1875 0.070313-0.11328 0.125-0.23828 0.16016-0.37109 0.015626-0.066406 0.027344-0.13672 0.023438-0.20312 0.007812-0.054688 0.007812-0.125 0.003906-0.19141l-0.003906-0.027344c-0.023438-0.25391-0.21484-0.49609-0.48047-0.60938l-0.03125-0.011719c-0.019531-0.007812-0.050781-0.015625-0.085937-0.027344-0.35547-0.097656-0.71875 0.070313-0.80469 0.37891-0.085937 0.3125 0.12891 0.64453 0.48438 0.74219 0.042969 0.011719 0.10547 0.023438 0.12891 0.027344 0.019531 0.019531 0.027343 0.042969 0.023437 0.066406-0.015625 0.078125-0.15234 0.17188-0.33594 0.23828-0.011719 0.003906-0.019532 0.003906-0.027344 0.007812-0.19141 0.058594-0.40234 0.074219-0.57812 0.039062l-0.019531-0.003906c-0.67188-0.046875-1.3867-0.37891-1.9141-0.90234-0.09375-0.085937-0.1875-0.1875-0.27344-0.30078-0.26172-0.35156-0.39453-0.72656-0.36719-1.0625 0.023438-0.24219 0.12891-0.49219 0.30469-0.72266 0.054687-0.066406 0.12109-0.14062 0.19922-0.21484 0.35938-0.34375 0.71875-0.70703 1.0703-1.0781 0.31641-0.33203 0.62891-0.67578 0.92969-1.0234 0.71484-0.82812 1.2969-1.5898 1.7812-2.3203 0.51953-0.79688 1.043-1.668 1.3672-2.668 0.14453-0.45313 0.28516-1 0.20312-1.6289-0.046875-0.32812-0.17969-0.65625-0.36719-0.89453-0.19531-0.26172-0.42188-0.47266-0.66797-0.63281-0.27734-0.17969-0.59766-0.28125-0.87891-0.27734-0.28516 0.003906-0.55859 0.089844-0.78906 0.24609-0.10938 0.074218-0.20703 0.16797-0.28516 0.26953-0.035157 0.046875-0.0625 0.089843-0.082032 0.12891-0.003906 0.003906-0.011718 0.015625-0.015625 0.027344l-0.003906 0.011719c-0.035156 0.054687-0.0625 0.11719-0.082031 0.16797-0.09375 0.24609-0.023438 0.55078 0.17969 0.75781l0.003907-0.003907c0.023437 0.023438 0.046874 0.046876 0.070312 0.066407 0.16406 0.13281 0.37109 0.1875 0.5625 0.14062 0.11328-0.027344 0.21484-0.089844 0.28516-0.17578 0.19922-0.24219 0.14453-0.61719-0.125-0.83984-0.03125-0.027344-0.078125-0.058594-0.10156-0.070313-0.011719-0.035156-0.003906-0.0625 0.027344-0.089844 0.13281-0.10937 0.60547-0.097656 0.91797 0.12109 0.19141 0.12891 0.32031 0.27344 0.43359 0.47266 0.097656 0.16016 0.14062 0.32813 0.14844 0.55859-0.003907 0.44922-0.1875 0.92578-0.32422 1.2461-0.18359 0.42578-0.4375 0.84375-0.66406 1.2031-0.21875 0.35156-0.47656 0.73047-0.79297 1.1484-0.41797 0.54688-0.77344 0.99219-1.1172 1.4023-0.21875 0.26562-0.44141 0.52734-0.66797 0.78125-0.32422 0.375-0.67188 0.76172-1.0977 1.2227-0.30078 0.32813-0.57031 0.61328-0.82422 0.87891-0.3125 0.33984-0.69141 0.90234-0.70312 1.6289-0.007812 0.3125 0.058594 0.64453 0.1875 0.96484 0.125 0.28125 0.30078 0.55469 0.53125 0.8125 0.13281 0.14844 0.27734 0.28516 0.42969 0.41016 0.80859 0.66797 1.8359 0.99609 2.7891 0.875 0.085938-0.011719 0.16406-0.027344 0.23047-0.046875 0.34375-0.074219 0.64062-0.23047 0.875-0.44141zm42.316-66.312 0.089844-0.10156-2.875-2.6602-42.121 43.551-0.097656 0.10156 4.8711 4.5039zm-42.883 40.684-0.39844-0.37891 40.191-41.871 0.39844 0.37891zm1.6016 1.4727-0.40234-0.37109 39.398-42.605 0.40234 0.37109zm39.824-42.207 0.41016 0.36719-38.613 43.336-0.41016-0.36719zm4.1367-7.9648-4.25 4.3945 2.4219 2.2422 4.0469-4.5781zm-0.15625 1.1992-3.3594 3.4531-0.19922-0.19141 3.832-3.9336 0.19531 0.19141zm-2.582 4.168-0.20312-0.1875 3.7266-4.0273 0.20312 0.1875zm0.59766 0.55469 3.6211-4.125 0.20703 0.17969-0.44141 0.50781-3.1836 3.6172zm4.7461-3.8867-2.6172-2.4219-4.6289 4.7891 2.8359 2.6211zm-2.7617-0.83594-3.3594 3.4531-0.19922-0.19141 3.832-3.9336 0.19531 0.19141zm-2.582 4.168-0.20312-0.1875 3.7266-4.0273 0.20312 0.1875zm0.59766 0.55469 3.6211-4.125 0.20703 0.17969-0.44141 0.50781-3.1836 3.6172zm-0.74219-6.8516c-0.18359 0.19531-0.45312 0.27734-0.74219 0.22266-0.1875-0.035157-0.36328-0.12891-0.5-0.25781-0.11719-0.10938-0.20703-0.24219-0.26562-0.39453l-0.65234-1.7148c-0.11719-0.30859-0.066406-0.625 0.13672-0.84766 0.20312-0.21875 0.51562-0.29297 0.83594-0.19922l1.7578 0.52734c0.33984 0.10156 0.60938 0.37891 0.70312 0.71875 0.078125 0.28125 0.015625 0.55859-0.16797 0.75391zm1.2031-0.90625 1.1445 1.0586-0.90625 0.98047-1.1445-1.0586zm-3.1406 1.8438c0.078125 0.28125 0.015625 0.55859-0.16797 0.75391l-1.1055 1.1875c-0.18359 0.19531-0.45312 0.27734-0.74219 0.22266-0.1875-0.035156-0.36328-0.12891-0.5-0.25391-0.11719-0.10938-0.21094-0.24219-0.26562-0.39453l-0.65234-1.7148c-0.11719-0.30859-0.066407-0.625 0.13672-0.84766 0.20312-0.21875 0.51562-0.29297 0.83594-0.19922l1.7578 0.52734c0.33984 0.10156 0.60938 0.37891 0.70312 0.71875zm-0.070312 1.0352 1.1445 1.0586-0.90625 0.98047-1.1445-1.0586zm8.1602 5.0547c-0.14062-0.12891-0.24219-0.29297-0.29297-0.48047-0.078125-0.28125-0.019531-0.55859 0.16406-0.75391l1.0977-1.1953c0.18359-0.19922 0.45312-0.28125 0.73828-0.22656 0.34766 0.066406 0.64062 0.3125 0.76953 0.64453l0.66406 1.7109c0.12109 0.30859 0.070312 0.625-0.13281 0.84766-0.20313 0.22266-0.51563 0.29688-0.83203 0.20312l-1.7617-0.51562c-0.15625-0.046875-0.29688-0.12891-0.41406-0.23438zm-0.22656-1.5273-1.1445-1.0586 0.90625-0.97656 1.1445 1.0586zm0.61719 5.5c-0.20312 0.22266-0.51562 0.29688-0.83203 0.20312l-1.7617-0.51562c-0.15625-0.046875-0.29688-0.12891-0.41406-0.23438-0.14063-0.12891-0.24219-0.29297-0.29297-0.48047-0.078125-0.28125-0.019531-0.55859 0.16406-0.75391l1.0977-1.1953c0.18359-0.19922 0.45312-0.28125 0.73828-0.22656 0.34766 0.066406 0.64453 0.3125 0.76953 0.64453l0.66406 1.7109c0.11719 0.3125 0.070313 0.62891-0.13281 0.84766zm-3.4766-4.1094 1.1445 1.0586-0.90625 0.97656-1.1445-1.0586zm6.4961-3.5859-1.9922-1.8438-0.84766 1.3008c-0.023438 0.035156-0.058594 0.054688-0.097657 0.0625-0.039062 0.003906-0.082031-0.007812-0.10938-0.035156l-3.543-3.2773c-0.03125-0.027344-0.046876-0.066406-0.042969-0.10547 0.003906-0.039062 0.023437-0.078125 0.054687-0.10156l1.2305-0.94531-1.9922-1.8438c-0.039063-0.039062-0.054688-0.097656-0.035157-0.14844s0.066407-0.085938 0.125-0.089844l1.8906-0.078125c0.035156 0 0.070313 0.011719 0.097656 0.035156l5.3125 4.9141c0.027344 0.023437 0.042969 0.054687 0.042969 0.089843l0.14062 1.957c0.003906 0.054687-0.027344 0.10938-0.078125 0.13281-0.054687 0.023438-0.11719 0.015625-0.15625-0.023437z"/>
<text x="0.0" y="117.5" font-size="5.0" font-weight="bold" font-family="Arbeit Regular, Helvetica, Arial-Unicode, Arial, Sans-serif" fill="#000000">Created by satrio</text><text x="0.0" y="122.5" font-size="5.0" font-weight="bold" font-family="Arbeit Regular, Helvetica, Arial-Unicode, Arial, Sans-serif" fill="#000000">from Noun Project</text></svg>