<svg xmlns:dc="http://purl.org/dc/elements/1.1/" xmlns:cc="http://creativecommons.org/ns#" xmlns:rdf="http://www.w3.org/1999/02/22-rdf-syntax-ns#" xmlns:svg="http://www.w3.org/2000/svg" xmlns="http://www.w3.org/2000/svg" xmlns:sodipodi="http://sodipodi.sourceforge.net/DTD/sodipodi-0.dtd" xmlns:inkscape="http://www.inkscape.org/namespaces/inkscape" viewBox="0 0 26.458334 33.07291625" version="1.1" x="0px" y="0px"><g transform="translate(0,-270.54168)"><path style="display:inline;opacity:1;fill:#000000;fill-opacity:1;stroke:none;stroke-width:0.59199637;stroke-linecap:round;stroke-linejoin:round;stroke-miterlimit:4;stroke-dasharray:none;stroke-opacity:1;paint-order:stroke markers fill" d="m 0.84213202,271.8686 c 0,0 0.15557381,0.175 0.28323938,0.38763 -0.084482,0.11562 -0.12831378,0.24656 -0.040789,0.38743 0.011761,0.0165 0.029379,0.0368 0.049711,0.0577 l -0.21474958,0.21795 c 0,0 0.19200268,0.1906 0.29054678,0.24839 0.073554,0.043 0.1216965,0.0443 0.1968341,0.025 0.094672,-0.0241 0.1757393,-0.0766 0.2500074,-0.14277 0.1018947,0.10206 0.1835598,0.1803 0.1835598,0.1803 l 0.081897,-0.0811 0.5560979,0.62168 c -0.00168,0.002 -0.0031,0.002 -0.00382,0.004 l -0.572547,0.58107 -0.055986,-0.0537 c -0.1850305,-0.17653 -0.2933905,-0.0575 -0.472905,0.1248 -0.1792265,0.18245 -0.1834075,0.43304 -0.00127,0.61252 l 0.1049442,0.10285 c 0.1819198,0.17976 0.4156214,0.17781 0.5951502,-0.004 0.1792266,-0.18245 0.3200535,-0.31559 0.1350127,-0.49207 l -0.044374,-0.0422 0.5567115,-0.56478 0.6019874,0.67291 c -0.00616,0.006 -0.012742,0.01 -0.018571,0.016 l -0.5725575,0.58109 -0.055989,-0.0536 c -0.1850252,-0.17653 -0.2933925,-0.0575 -0.4728958,0.12481 l -8.85e-5,10e-5 c -0.1797415,0.1819 -0.1834064,0.43302 -0.00129,0.61252 l 0.1049442,0.10285 c 0.1819198,0.17975 0.4156318,0.17781 0.5951434,-0.004 0.1797519,-0.18191 0.320102,-0.31553 0.1350292,-0.49204 l -0.04437,-0.0421 0.5685042,-0.5769 c 3.704e-4,-3.8e-4 3.548e-4,-7e-4 0.00169,-0.002 l 0.016804,0.0184 4.3173323,4.53701 c -1.0794922,1.5477 -1.061729,3.60933 0.089005,4.63383 0.5467222,0.48683 1.1707621,0.83981 1.7843366,1.12384 0.1713198,0.0793 0.068591,0.46265 0.2396841,0.54527 0.065,0.0316 0.144514,0.12085 0.234272,0.055 0.166771,-0.12212 0.126842,-0.3717 0.452353,-0.37002 0.837793,0.004 1.261444,0.57423 1.6798,1.07756 0.5863,0.70539 0.884731,1.48167 -0.02428,2.38409 -0.005,0.11937 0.0077,0.28536 0.162012,0.33538 0.144329,0.0469 0.298725,0.15286 0.417072,0.24513 0.143854,0.11219 0.32709,0.5285 0.355611,0.58946 0.931831,1.99525 1.965413,2.71067 4.082842,2.50312 0.976594,-0.0957 1.898106,-0.51463 2.665244,-1.13858 0.0078,0.0138 0.01694,0.0275 0.02835,0.0396 0.06385,0.0629 0.165856,0.0622 0.228768,-0.002 l 0.316599,-0.32072 4.419407,4.35549 -0.06486,0.0656 0.39526,0.38898 0.259649,-0.26312 -0.395254,-0.38898 -0.06484,0.0657 -4.419383,-4.35545 0.380977,-0.38701 c 0.06289,-0.0638 0.06216,-0.16587 -0.0017,-0.22877 -0.01194,-0.0114 -0.02534,-0.0203 -0.03929,-0.0277 0.615236,-0.77742 1.022872,-1.7071 1.104548,-2.68749 0.17662,-2.12019 -0.553757,-3.14332 -2.562382,-4.04594 -0.06142,-0.0276 -0.48029,-0.20473 -0.594586,-0.34696 -0.09417,-0.11684 -0.202296,-0.26981 -0.251131,-0.41349 -0.05225,-0.15358 -0.218337,-0.164 -0.337684,-0.15714 -0.889072,0.92208 -1.669617,0.63498 -2.383484,0.059 -0.509358,-0.41098 -1.085461,-0.82627 -1.101894,-1.66396 -0.0064,-0.32542 0.243672,-0.28922 0.363418,-0.45769 0.06449,-0.0908 -0.02602,-0.16888 -0.05851,-0.2334 -0.08517,-0.16971 -0.466972,-0.0614 -0.54879,-0.23155 -0.29292,-0.60939 -0.655021,-1.22817 -1.149669,-1.76779 -1.033214,-1.12703 -3.071567,-1.12377 -4.5996289,-0.0467 l -5.1313521,-4.78049 0.5423612,-0.54999 0.043004,0.0438 c 0.1034926,0.0963 0.1295572,-0.21877 0.3090424,-0.40096 0.1792204,-0.18242 0.3587949,-0.15686 0.1766251,-0.33639 l -0.104958,-0.10284 c -0.1678605,-0.14863 -0.1768874,-0.0888 -0.3742011,0.18776 -0.1478531,0.18251 -0.4592871,0.22407 -0.356026,0.29731 l 0.054625,0.0551 -0.5534583,0.56142 -0.5143086,-0.47919 0.5404307,-0.548 0.043004,0.0438 c 0.103504,0.0963 0.1295068,-0.21862 0.3090499,-0.40075 0.1797518,-0.18191 0.3585632,-0.15762 0.1766445,-0.33659 l -0.1049443,-0.10285 c -0.1678558,-0.14861 -0.176803,-0.0887 -0.3741859,0.18777 -0.1478419,0.18248 -0.45946,0.22406 -0.3561669,0.29734 l 0.054655,0.0551 -0.551513,0.55942 -0.2177286,-0.20307 0.074402,-0.0745 c 0,0 -0.092303,-0.0917 -0.2132036,-0.2039 0.054965,-0.0754 0.099539,-0.15623 0.1216999,-0.247 0.022147,-0.0908 0.036346,-0.13586 -0.014747,-0.22064 -0.051983,-0.0859 -0.2425365,-0.23965 -0.2425365,-0.23965 l -0.2432759,0.24732 c -0.028152,-0.0253 -0.055847,-0.048 -0.077309,-0.0632 -0.1447639,-0.10095 -0.2473414,-0.055 -0.3487828,0.0372 -0.2158743,-0.10728 -0.3995238,-0.25396 -0.3995238,-0.25396 0,0 -0.019325,0.11094 -0.052395,0.14339 -0.0352,0.0341 -0.1515443,0.0572 -0.1515443,0.0572 0,0 -0.011503,0.1033 -0.0407743,0.13194 -0.0289442,0.0287 -0.13378234,0.04 -0.13378234,0.04 z M 16.471388,286.99997 c 0.298954,-0.2993 1.090447,-0.61256 1.090447,-0.61256 0,0 0.731152,1.64282 1.309712,2.39958 0.477091,0.62397 1.480437,1.48557 1.889029,1.82795 l -0.523678,0.53183 c -0.366778,-0.3936 -1.312223,-1.38409 -1.983718,-1.83901 -0.778628,-0.52748 -2.443418,-1.17505 -2.443418,-1.17505 0,0 0.341494,-0.81141 0.661719,-1.13234 z"/></g><text x="0" y="41.458332999999996" fill="#000000" font-size="5px" font-weight="bold" font-family="'Helvetica Neue', Helvetica, Arial-Unicode, Arial, Sans-serif">Created by Elves Sousa</text><text x="0" y="46.458332999999996" fill="#000000" font-size="5px" font-weight="bold" font-family="'Helvetica Neue', Helvetica, Arial-Unicode, Arial, Sans-serif">from the Noun Project</text></svg>