<svg xmlns="http://www.w3.org/2000/svg" version="1.1" viewBox="-5.0 -10.0 110.0 135.0">
 <path d="m42.77 92.902c2.4883 0.11328 1.6953-0.019532 3.6797 0.42578 1.4453 0.30859 7.3164 0.42969 12.344-0.78516 9.9492-2.4023 17.488-10.117 21.059-18.719 7.4805-18.152-8.4297-33.363-6.9883-50.316 0.125-1.4258 0.35547-2.832 0.87891-4.1758 0.50781 0.39453 1.1055 0.76953 1.8828 0.78906 1.4922 0 2.918-1.1016 3.3945-2.6211 0.77344-2.4922-0.89062-5.1562-2.9453-6.293-1.5039-0.83594-3.3945-0.91797-4.4531-0.54688-0.007813 0.003906-0.011719 0.011719-0.019532 0.015625-3.6328 0.03125-6.3711 5.168-7.2383 8.75l-1.7383-0.20703 0.69531-3.5586c0.93359-0.16797 1.6484-0.95703 1.6328-1.9336-0.019531-1.0977-0.92188-1.9609-2.0039-1.9414-1.9648 0.03125-2.7031 2.6055-0.94922 3.6406l-0.71094 3.6367-3.957-0.46875 0.83594-3.9414c0.93359-0.15234 1.6641-0.92969 1.6641-1.9102 0-1.0859-0.88281-1.9727-1.9688-1.9727-1.9609 0-2.7461 2.5586-1.0078 3.625l-0.85547 4.0391-3.8086-0.44922 0.90234-4.2656c0.93359-0.15234 1.6641-0.92969 1.6641-1.9102 0-1.0859-0.88281-1.9727-1.9727-1.9727-1.9609 0-2.7461 2.5586-1.0078 3.625l-0.92188 4.3711-3.125-0.37109c0.37109-7.2812-3.6094-10.812-7.4727-10.434-4.9414-2.2422-8.4023 2.7109-6.7422 5.8047 1.3203 2.5195 4.5273 2.0352 4.9141-0.085937 0.15625-0.85547-0.35938-1.7617-1.1328-2.1211 0.67578-0.0625 1.8555 0.52344 2.457 1.8516 2.0469 4.5273-2.3281 13.809-5.1758 17.816-3.5 4.8906-7.8125 9.1406-10.777 14.59-11.402 20.91-5.8359 46.383 18.969 48.02zm20.199-79.777h0.011719c0.5625 0 0.83594 0.67969 0.45312 1.0742-0.40234 0.41406-1.0781 0.10156-1.0859-0.42969-0.003906-0.35156 0.27344-0.63672 0.62109-0.64453zm-4.4766-0.37891c0 0.83594-1.2617 0.83594-1.2617 0-0.003907-0.83594 1.2617-0.83594 1.2617 0zm-5.0742-0.93359c0 0.83594-1.2656 0.83594-1.2656 0s1.2656-0.83594 1.2656 0zm12.879 61.738c-0.69531-1.25-2.1328-1.6875-3.5-1.3086-1.8242-1.4883-4.9609-0.50391-5.8008 2.668-0.35938 1.3633-0.17188 2.8359 0.48438 4.0781-0.67578-0.011719-6.1953-0.85938-6.375-0.89062l9.5742-48.949 3.3906 0.49219c0.32813 2.6641 0.90234 5.2188 1.7734 7.5312 3.0234 8.0938 5.3633 15.336 4.1562 26.922-0.38672 3.6602-1.1406 7.0195-3.7031 9.457zm-36.168-2.9961c0.003906 0 0.003906-0.003907 0.007813-0.003907 0.92188-0.10938 2.0039 0.84766 1.7734 1.7539-0.03125 0.085937-0.03125 0.125-0.046875 0.20703-0.15625 0.51562-0.65625 0.76172-1.0117 0.6875-0.41016-0.085938-0.73047-0.59766-0.33203-0.92188 0.082031-0.066406 0.16797-0.10156 0.25-0.089844 0.36719 0.058594 0.70703-0.19531 0.76172-0.5625 0.12891-0.85156-1.0469-1.043-1.8555-0.38672-1.582 1.2812-0.17969 3.8477 1.9258 3.207-0.011718 0.097657 0.042969-0.33203-0.125 0.9375-3.5859-0.5-3.6875-4.5156-1.3477-4.8281zm24.086-43.703-3.7852-0.55078 0.91016-4.2969 3.8086 0.44922zm2.2656-4.2383 4.0195 0.47656-0.89062 4.5508-4.0703-0.59375zm-7.3789 3.4961-3.3594-0.48828c0.59375-1.3984 1.0586-2.7695 1.3906-4.1094l2.8711 0.33984zm-15.168 44.219c-3.4414-2.3086-5.6406-6.875-5.6055-11.629 0.082031-12.445 11.488-20.566 16.832-31.809l3.6602 0.53125-10.363 48.898-2.7617-0.38672 0.14063-1.0664c0.22266-1.6562-0.63281-3.6914-1.9023-4.5391zm16.215-42.715 3.7852 0.55078-10.359 48.871-3.7891-0.53125zm5.1133 0.74609 4.0898 0.59766-9.5781 48.953-4.8711-0.68359zm8.6523-0.09375-2.9766-0.43359 0.89844-4.5859 1.9531 0.23047c-0.058593 1.2656-0.058593 2.6328 0.125 4.7891zm0.17188-7.5234-0.24219 1.3906-1.75-0.20703 0.27344-1.3867zm-3.0547-0.35938-0.26953 1.3867-4-0.47266 0.29297-1.3828zm-5.3125-0.62891-0.29297 1.3828-3.8086-0.44922 0.29297-1.3828zm-5.1445-0.60547-0.29297 1.3828-2.8711-0.33984c0.085938-0.46875 0.15234-0.93359 0.20703-1.3945zm-25.598 26.375c2.8906-5.3086 7.1992-9.5703 10.691-14.453 3.0703-4.3242 7.6328-13.996 5.3086-19.148-0.62891-1.3906-1.8438-2.3867-3.1875-2.6094-2.8984-0.38281-2.5078 2.7891-1.2734 2.4883 0.16016-0.035156 0.31641 0.089844 0.375 0.14453 0.91406 0.875-1.1797 2.1836-2.1914 0.25391-1.1211-2.0859 1.375-5.7617 5.1719-3.8906 0.51953 0.26172 0.67188 0.39062 0.73828 0.42188l-0.003906 0.007812c0.3125 0.19141 0.78125 0.59375 1.2422 1.1719 4.0391 5.1484 0.37891 14.68-3.1992 20.234-5.3867 8.4531-15.145 17.543-14.5 29.148 0.19141 3.9023 1.8633 7.707 4.6133 10.367-3.1406 1.9766-1.3555 7.1094 3.2812 7.1094 12.047 1.6914 25.781 3.7188 31.391 4.1289 0.88672 0.125 1.0547-1.2031 0.18359-1.3281l-4.5508-0.63281c-0.79297-1.0312-1.1094-2.4453-0.77734-3.6914 0.73047-2.7539 3.6992-2.9844 4.125-1.1758-1.2031-1.5977-3.8984-0.24219-3.293 1.9648 0.47656 1.7383 2.7461 2.332 3.9883 0.82812 1.1797-0.09375 2.3672-0.91797 3.3203-1.6055 3.3906-2.5859 4.4492-6.7461 4.9023-11.02 1.293-12.43-1.5273-20.27-4.2344-27.531-2.5273-6.6992-3.3789-17.34 1.5469-22.977 4.6328-5.2969 8.3281 3.2109 4.3516 4.4375-1.332 0.47656-2.6836-1.1484-1.9297-2.0352 0.082032 0.17969 0.054688 0.92188 0.59766 1.2305 0.011719 0.007813 0.027344 0.011719 0.039063 0.019531 0.007813 0.003907 0.011719 0.015626 0.019531 0.019532 1.3945 0.83203 2.9023-0.50781 2.2773-1.9766-0.52344-1.5742-2.7656-1.7344-4.1719-0.67578-0.32422 0.25-0.58594 0.49219-1.3867 2.0547-8.5117 15.195 13.441 36.609 5.4023 55.98-2.3633 5.7109-6.5 10.781-11.645 14.273-7.6055 5.1484-19.062 5.5859-26.387 3.2539-18.578-5.7578-19.777-28.391-10.836-44.789zm35.648 30.539c-0.10156-0.10938-0.17578-0.23828-0.21484-0.37891-0.25781-0.9375 0.98438-1.3008 0.97266-0.58984-0.027343 0.035156-0.082031 0.0625-0.125 0.0625h-0.007812c-0.36719 0-0.66797 0.29688-0.66797 0.66406 0 0.085938 0.015625 0.16797 0.042969 0.24219z"/>
 <path d="m30.68 86.094c0.13672 0 0.26953-0.03125 0.40625-0.039062-0.58203 0.24219-0.53906 1.043 0.027343 1.2422 2.4609 0.86719 4.7773 0.32031 6.8906-1.1875-0.81641 4.3789 4.6133 6.8008 7.7461 3.668 0.9375-0.94922 1.4414-2.2773 1.457-3.625 0.72656 0.80078 1.3984 1.5664 2.2109 2.1641 1.4844 1.0938 3.4258 1.6094 5.3516 1.3008 0.58984-0.09375 0.78516-0.87109 0.25-1.2188 1.6445 0.41797 3.2188 0.10156 4.4922-0.70703 0.21875-0.14062 0.33984-0.39453 0.30469-0.65234-0.074218-0.57812-0.63672-0.56641-0.81641-0.66016-3.0781-0.92969-2.4414-1.4688-4.2852-2.832-2.0742-1.5312-4.918-1.168-5.3008-0.53125-0.54297-0.10156-1.1172-0.11719-1.7188-0.039063 0.085938-1.4453-0.84375-2.293-1.0312-3.3047-0.10547-0.57031-0.84766-0.75-1.1953-0.27344-0.60938 0.82422-2.0469 1.5508-2.2461 3.0742h-0.019531c0.039063-1.293-0.65234-2.1367-1.5195-3.5273-0.26562-0.41406-0.89062-0.41797-1.1445 0.027344-1.0703 1.875-1.3945 2.3359-1.4961 2.9805-0.49609-0.14062-0.99219-0.21484-1.4883-0.21094-0.27734-0.69141-3.0039-1.5391-5.2891-0.41016-2.0039 0.95312-1.5586 1.668-4.7578 2.0352-0.17969 0.054687-0.71094-0.050782-0.88672 0.49609-0.082032 0.25-0.007813 0.51953 0.17969 0.69922 1.0117 0.94141 2.3867 1.5312 3.8789 1.5312zm2.3242 0.25c0.67188-0.66797 1.2734-1.6523 1.8203-2.1602 1.0586-1.0195 2.7109-1.4922 4.5938-0.70703-2.4414 1.5703-3.6094 3.0859-6.4141 2.8672zm9.1406-1.3477c-1.0078 0.78516-1.375 2.1094-0.94141 3.2695 0.28516 0.82031-0.92188 1.3125-1.2617 0.46094-0.64844-1.793-0.007812-3.707 1.3867-4.7812 0.71094-0.54297 1.5234 0.50781 0.81641 1.0508zm15.051 2.1836c-1.1289 0.20312-2.2695-0.058594-3.168-0.64063-0.27734-0.17969-0.52734-0.41016-0.77734-0.64453-0.44531-0.80859-0.94141-1.4727-1.8477-2.0781 3.0352-0.019531 3.1211 2.25 5.793 3.3633zm-6.8359-2.418c0.88672 1 1.3281 1.5078 1.8008 1.9727 0.45703 0.86328 0.71484 1.3047 0.92188 1.5977-3.0547-0.31641-3.918-2.3359-5.8125-3.9453 1.1367-0.26953 2.0703-0.19141 3.0898 0.375zm-4.625-3.7109c0.32812 0.70312 0.875 1.582 0.50781 2.2266-0.5-0.51172-0.98828-0.67578-1.6797-0.74609 0.15625-0.60938 0.74609-1.0859 1.1719-1.4805zm-4.5898-0.44922c0.41016 0.64063 0.80469 1.2695 0.68359 1.9844-0.35938 0.054687-0.71875 0.13672-1.0781 0.25781-0.089844-0.12109-0.19141-0.22656-0.31641-0.31641-0.23438-0.44531 0.050781-0.74219 0.71094-1.9258zm-5.6836 1.5859c-1.0391 0.4375-1.6797 1.0859-2.2305 1.7734-1.3633 0.87891-2.7734 1.0078-4.0781 0.51562 2.7812-0.60937 3.3672-2.8242 6.3086-2.2891z"/>
<text x="0.0" y="117.5" font-size="5.0" font-weight="bold" font-family="Arbeit Regular, Helvetica, Arial-Unicode, Arial, Sans-serif" fill="#000000">Created by Vectors Market</text><text x="0.0" y="122.5" font-size="5.0" font-weight="bold" font-family="Arbeit Regular, Helvetica, Arial-Unicode, Arial, Sans-serif" fill="#000000">from Noun Project</text></svg>