<?xml version="1.0" encoding="UTF-8" standalone="no"?>
<!-- Created with Inkscape (http://www.inkscape.org/) -->

<svg
   xmlns:dc="http://purl.org/dc/elements/1.1/"
   xmlns:cc="http://creativecommons.org/ns#"
   xmlns:rdf="http://www.w3.org/1999/02/22-rdf-syntax-ns#"
   xmlns:svg="http://www.w3.org/2000/svg"
   xmlns="http://www.w3.org/2000/svg"
   xmlns:sodipodi="http://sodipodi.sourceforge.net/DTD/sodipodi-0.dtd"
   xmlns:inkscape="http://www.inkscape.org/namespaces/inkscape"
   width="295.99969"
   height="1000"
   viewBox="0 0 295.99968 1000"
   id="svg2"
   version="1.1"
   inkscape:version="0.91 r13725"
   sodipodi:docname="bass-guitar-sandberg-california-tm-5.svg">
  <defs
     id="defs4">
    <style
       id="style4140"
       type="text/css"><![CDATA[
    .fil11 {fill:black}
    .fil5 {fill:#08090C}
    .fil4 {fill:#081326}
    .fil8 {fill:#301614}
    .fil7 {fill:#3D1D1A}
    .fil9 {fill:#422311}
    .fil6 {fill:#522A13}
    .fil10 {fill:#E0AE38}
    .fil13 {fill:#1A1A1A;fill-rule:nonzero}
    .fil3 {fill:#8B9CBA;fill-rule:nonzero}
    .fil12 {fill:#CC9D31;fill-rule:nonzero}
    .fil0 {fill:url(#id2)}
    .fil1 {fill:url(#id3)}
    .fil2 {fill:url(#id4)}
   ]]></style>
    <mask
       id="id0">
      <linearGradient
         y2="8973.1396"
         x2="300.617"
         y1="8034.3701"
         x1="294.67401"
         gradientUnits="userSpaceOnUse"
         id="id1">
        <stop
           id="stop4144"
           style="stop-opacity:1; stop-color:white"
           offset="0" />
        <stop
           id="stop4146"
           style="stop-opacity:0; stop-color:white"
           offset="1" />
      </linearGradient>
      <rect
         id="rect4148"
         height="765"
         width="3221"
         y="8068"
         x="-2"
         style="fill:url(#id1)" />
    </mask>
  </defs>
  <sodipodi:namedview
     id="base"
     pagecolor="#ffffff"
     bordercolor="#666666"
     borderopacity="1.0"
     inkscape:pageopacity="0.0"
     inkscape:pageshadow="2"
     inkscape:zoom="0.90509668"
     inkscape:cx="171.39551"
     inkscape:cy="374.95218"
     inkscape:document-units="px"
     inkscape:current-layer="layer1-5"
     showgrid="false"
     inkscape:window-width="1920"
     inkscape:window-height="1056"
     inkscape:window-x="0"
     inkscape:window-y="24"
     inkscape:window-maximized="1"
     showguides="true"
     inkscape:guide-bbox="true"
     fit-margin-top="0"
     fit-margin-left="0"
     fit-margin-right="0"
     fit-margin-bottom="0"
     units="px" />
  <metadata
     id="metadata7">
    <rdf:RDF>
      <cc:Work
         rdf:about="">
        <dc:format>image/svg+xml</dc:format>
        <dc:type
           rdf:resource="http://purl.org/dc/dcmitype/StillImage" />
        <dc:title></dc:title>
      </cc:Work>
    </rdf:RDF>
  </metadata>
  <g
     inkscape:label="Ebene 1"
     inkscape:groupmode="layer"
     id="layer1"
     transform="translate(12761.423,303.59629)">
    <g
       transform="translate(197.479,221.66859)"
       inkscape:label="Layer 1"
       id="layer1-5">
      <path
         style="fill:#0f0f0f"
         d="m -12663.224,413.71282 c -1.004,9.68769 -3.446,18.60879 -6.661,24.34088 -4.021,7.16948 -13.577,17.3802 -19.706,21.05573 -4.63,2.77801 -11.412,5.27287 -19.726,7.25828 -15.55,3.71292 -28.156,4.84819 -48.636,4.37982 -15.442,-0.35312 -23.029,-0.88412 -39.462,-2.76151 -7.611,-0.86954 -11.482,-1.11069 -12.143,-0.75655 -1.177,0.63048 -1.264,2.24525 -0.17,3.15417 1.07,0.88844 1.013,2.31681 -0.133,3.34239 -1.23,1.10125 -2.043,1.22129 -5.033,0.74334 -4.299,-0.68708 -6.784,-3.75629 -4.175,-5.1545 1.195,-0.63988 1.435,-2.79381 0.401,-3.58726 -0.367,-0.28151 -5.231,-1.42674 -10.809,-2.54497 -40.846,-8.1887 -63.512,-16.24401 -83.551,-29.69309 -14.931,-10.02043 -23.741,-19.71017 -33.656,-37.01607 -8.511,-14.85531 -12.194,-27.88612 -12.218,-43.2251 -0.02,-12.87277 2.926,-28.26951 7.903,-41.30815 2.632,-6.89455 17.224,-38.09114 21.713,-46.4222 6.606,-12.25603 14.254,-32.34712 16.555,-43.48836 1.338,-6.4739 1.996,-15.81062 1.628,-23.11066 -0.533,-10.62231 -2.322,-18.31959 -9.627,-41.4144 -5.501,-17.38577 -9.469,-35.70476 -10.991,-50.72252 -1.004,-9.91987 -0.406,-26.107496 1.293,-35.045307 2.219,-11.669172 4.765,-19.257868 9.119,-27.176213 4.46,-8.11213 10.285,-13.499913 16.574,-15.330353 3.574,-1.040244 4.22,-1.790213 3.771,-4.377847 -0.837,-4.825272 -0.746,-5.204212 1.298,-5.359438 1.028,-0.07802 3.069,0.162451 4.537,0.53438 3.257,0.825295 3.744,2.232122 1.64,4.735752 -1.776,2.11396 -1.858,4.92347 -0.182,6.232528 4.798,3.745314 7.569,8.409759 9.124,15.358183 0.461,2.057361 1.692,11.364706 2.736,20.682994 1.895,16.905275 2.752,22.276939 4.206,26.370626 2.426,6.829965 7.593,14.328155 11.782,17.099405 2.965,1.96169 7.821,3.44593 11.275,3.44593 2.897,0 7.471,-1.39311 9.83,-2.99415 l 1.898,-1.28755 9.276,-456.66902 c -2.014,-5.38783 -8.031,-10.58434 -15.161,-13.09366 -4.377,-1.54008 -5.984,-2.44383 -6.939,-3.90337 -1.825,-2.78924 -1.82,-4.15305 0.05,-12.68945 1.899,-8.67626 2.154,-10.88269 1.315,-11.40159 -0.284,-0.17591 -1.87,0.0342 -3.525,0.4667 -2.527,0.66054 -3.625,1.38456 -6.854,4.52004 -4.243,4.11844 -6.088,4.8531 -9.727,3.87211 -3.435,-0.92619 -6.599,-5.20207 -6.599,-8.92097 0,-0.86876 -0.711,-2.21056 -1.829,-3.44901 -1.929,-2.13898 -2.876,-5.64265 -2.225,-8.23906 0.492,-1.96586 3.33,-4.95506 5.424,-5.7128 1.005,-0.36425 1.974,-1.12187 2.152,-1.6836 0.631,-1.9899 4.029,-5.15787 6.144,-5.72798 4.384,-1.1818 8.323,1.03776 10.051,5.66334 1.858,4.96909 3.112,7.004 5.546,9.00139 2.701,2.21583 3.911,2.40264 4.626,0.71414 0.819,-1.93535 5.339,-23.8054 5.339,-25.83526 0,-1.13935 -0.302,-1.96879 -0.786,-2.15476 -0.433,-0.16629 -2.458,0.33687 -4.5,1.11806 -3.023,1.15662 -4.167,1.95249 -6.158,4.28483 -3.08,3.60978 -6.178,4.98463 -9.075,4.02742 -3.877,-1.2814 -6.702,-4.84178 -6.702,-8.44974 0,-0.96598 -0.517,-2.00312 -1.407,-2.82263 -2.253,-2.07459 -3.562,-5.54078 -3.145,-8.3252 0.421,-2.80715 2.74,-5.72067 5.246,-6.58932 1.199,-0.41545 2.037,-1.26198 2.81,-2.83815 2.14,-4.36122 6.509,-5.77801 11.217,-3.63746 2.805,1.27584 4.157,3.0439 5.564,7.27718 0.963,2.89557 1.617,3.83851 4.243,6.11646 3.423,2.96824 4.603,3.29755 5.346,1.4908 0.566,-1.38131 5.887,-25.64847 5.887,-26.85491 0,-0.96419 -2.022,-1.04696 -5.046,-0.20657 -1.4,0.38933 -3.293,1.73015 -5.627,3.98616 -4.354,4.20784 -7.539,5.76553 -10.253,5.01504 -3.706,-1.02438 -6.267,-4.18654 -7.133,-8.80493 -0.221,-1.17907 -0.916,-2.51159 -1.584,-3.0378 -0.654,-0.51557 -1.596,-1.95262 -2.092,-3.19346 -1.61,-4.03036 0.114,-8.45942 4.236,-10.87782 1.32,-0.77442 2.577,-2.02422 2.955,-2.93681 2.212,-5.34648 10.061,-6.91119 14.003,-2.79155 0.78,0.81459 2.089,3.39595 2.911,5.73627 1.234,3.51699 1.817,4.46057 3.36,5.43934 1.028,0.65131 2.29,1.56061 2.803,2.02073 0.513,0.46008 1.525,0.83649 2.248,0.83649 1.069,0 1.412,-0.37365 1.839,-2.00392 1.125,-4.28533 5.387,-24.30279 5.387,-25.29895 0,-1.52633 -1.005,-1.69558 -4.561,-0.76831 -2.681,0.69918 -3.683,1.34385 -6.637,4.27122 -4.337,4.29636 -6.639,5.36533 -9.752,4.52632 -3.396,-0.9155 -5.982,-3.82034 -6.847,-7.69164 -0.391,-1.74849 -1.166,-3.63493 -1.723,-4.1921 -1.695,-1.69684 -3.173,-5.63316 -2.819,-7.50623 0.516,-2.73624 2.285,-5.08972 4.713,-6.27079 1.623,-0.78959 2.682,-1.83578 3.696,-3.65327 2.303,-4.13007 6.366,-5.36179 10.895,-3.30251 2.766,1.25754 4.236,3.13989 5.417,6.93107 0.711,2.28428 1.672,3.76011 3.984,6.1189 2.655,2.70867 3.272,3.08675 4.8,2.93909 1.544,-0.14924 1.976,-0.57756 3.629,-3.59172 1.032,-1.88225 3.522,-5.18895 5.533,-7.34826 7.841,-8.41947 19.018,-11.18101 27.203,-6.721 6.054,3.29878 12.769,12.0579 13.447,17.5391 0.178,1.44337 0.689,5.36028 1.134,8.70426 0.819,6.15823 0.663,12.02584 -0.432,16.33537 -0.452,1.77606 -0.393,2.21459 0.377,2.77809 0.697,0.5109 0.832,1.10878 0.566,2.52873 -0.551,2.93553 -1.801,4.03657 -5.211,4.58548 -3.714,0.59777 -6.027,1.7404 -8.373,4.13621 -1.737,1.77394 -1.786,1.944 -1.573,5.40501 0.217,3.53358 1.353,6.78428 8.251,23.6126 4.241,10.34614 7.631,19.8609 8.212,23.05253 0.736,4.04104 1.048,5.32107 3.163,13.01806 0.889,3.23299 1.984,8.28288 2.432,11.22196 0.448,2.93908 1.04,6.756 1.316,8.48205 0.872,5.45549 -1.525,9.22211 -8.025,12.60751 -4.339,2.2599 -9.833,6.84808 -11.15,9.30956 -0.405,0.7583 -1.2,1.52614 -1.768,1.70629 -1.208,0.38434 -2.571,3.34247 -2.503,5.43741 0.423,29.56656 9.97,514.33781 10.016,512.2003 -0.377,0.96868 -0.392,1.69765 -0.05,2.13751 0.288,0.3671 1.061,2.46493 1.718,4.66184 2.125,7.11365 4.579,10.98037 8.828,13.9069 6.164,4.24574 17.997,5.81716 24.681,3.27758 5.835,-2.21712 11.767,-9.17568 15.018,-17.61729 0.885,-2.29573 2.935,-9.39746 4.556,-15.78162 3.368,-13.26872 4.98,-16.92426 8.617,-19.53895 5.231,-3.76058 10.857,-2.42121 17.264,4.10907 8.83,9.00245 12.918,24.40271 12.159,45.81883 -0.654,18.52392 -3.916,32.86627 -14.286,62.80775 -8.004,23.10992 -8.556,25.17267 -8.887,33.19508 -0.439,10.62499 0.909,17.55033 5.339,27.43878 2.518,5.61983 9.283,17.70996 14.802,26.45176 15.285,24.21293 22.029,37.75401 25.681,51.56494 2.944,11.12965 4.077,22.63603 3.13,31.77157 z m -25.925,-28.34844 c -3.952,-4.12868 -10.358,-1.26972 -10.358,4.62209 0,2.898 2.815,5.58408 5.853,5.58408 2.777,0 4.053,-0.66981 5.413,-2.83959 1.434,-2.28839 1.061,-5.30813 -0.908,-7.36658 z m -7.398,-217.43935 c -2.144,-14.13746 -7.706,-25.65021 -12.389,-25.65021 -1.754,0 -4.651,1.77401 -6.004,3.67614 -0.573,0.80482 -1.438,3.6134 -1.924,6.2413 -0.991,5.35739 -4.708,16.8521 -7.695,23.79599 -2.22,5.1603 -7.008,12.29636 -10.832,16.14458 -3.025,3.04395 -8.92,6.01261 -13.708,6.90429 -2.554,0.47523 -4.679,0.47274 -8.998,-0.0107 -6.113,-0.68378 -8.85,-1.71107 -16.835,-6.31848 l -4.17,-2.40526 -30.658,0.0488 -30.659,0.0489 0,-5.62677 0,-5.6267 29.623,0 c 29.268,0 29.624,-0.0128 29.624,-1.06876 0,-1.05606 -0.356,-1.06876 -29.89,-1.06876 l -29.89,0 0,-5.87817 0,-5.87821 29.089,0 c 28.734,0 29.09,-0.0132 29.09,-1.06876 0,-1.05567 -0.356,-1.06876 -29.09,-1.06876 l -29.089,0 0,-4.53439 0,-4.53441 -3.07,-2.41894 c -7.365,-5.80532 -15.825,-6.10714 -19.061,-0.68002 -2.263,3.79789 -1.771,6.89511 4.225,26.59604 1.567,5.14337 3.007,10.11075 3.203,11.03856 0.469,2.23307 -2.151,20.84771 -3.561,25.29922 -0.606,1.91039 -2.538,7.20074 -4.294,11.75635 -9.288,24.09318 -13.807,38.06207 -15.62,48.28978 -2.085,11.75442 0.405,23.50913 6.909,32.63539 2.705,3.79494 5.081,6.02155 9.334,8.74518 4.105,2.62901 7.677,3.62223 20.6,5.72837 11.327,1.84591 70.203,10.40837 71.57,10.40837 0.829,0 1.355,-0.79139 7.868,-11.83581 5.583,-9.47056 10.123,-15.67329 12.025,-16.43249 1.366,-0.54512 15.65,-3.0974 24.362,-4.35289 2.348,-0.33845 4.53,-0.82735 4.845,-1.08641 0.383,-0.31293 0.495,-2.8812 0.333,-7.65026 -0.468,-13.84072 2.429,-25.8477 12.105,-50.14405 8.677,-21.78954 11.257,-33.11708 12.309,-54.04217 0.278,-5.54344 0.64,-10.21259 0.803,-10.37589 0.458,-0.45907 0.355,-2.09503 -0.48,-7.60007 z m -2.472,17.90169 c -1.107,20.9854 -3.389,30.84321 -12.498,53.97234 -9.522,24.17625 -13.362,40.86145 -12.052,52.36914 0.233,2.05737 0.39,3.78952 0.347,3.84929 -0.04,0.0598 -4.151,0.74411 -9.13,1.52076 -17.724,2.76427 -19.416,3.18793 -21.755,5.44604 -2.457,2.37291 -8.4,11.24642 -13.434,20.05858 -3.552,6.21869 -3.615,6.28982 -5.277,6.00173 -0.925,-0.16036 -15.128,-2.22293 -31.562,-4.58343 -44.331,-6.36734 -50.165,-7.41082 -55.112,-9.85896 -9.731,-4.81446 -16.241,-14.90114 -17.85,-27.6545 -1.379,-10.93981 1.59,-22.7406 13.952,-55.43157 3.167,-8.37637 6.133,-16.43217 6.591,-17.90171 1.19,-3.81695 3.733,-22.54549 3.37,-24.8133 -0.168,-1.04812 -1.405,-5.51272 -2.751,-9.92134 -4.095,-13.41925 -6.123,-20.94432 -6.123,-22.72449 0,-2.41612 1.495,-5.24739 3.249,-6.15549 3.362,-1.74066 9.748,-0.0601 14.26,3.75254 l 1.762,1.48946 -0.08,12.88778 c -0.05,7.08825 0.09,14.99185 0.313,17.56353 0.286,3.37105 0.227,4.67583 -0.21,4.67583 -0.334,0 -0.607,0.48094 -0.607,1.06876 0,0.5878 0.24,1.06874 0.533,1.06874 0.319,0 0.534,2.04848 0.534,5.0766 0,3.0282 -0.215,5.07662 -0.534,5.07662 -0.293,0 -0.533,0.48094 -0.533,1.06875 0,0.58782 0.224,1.06876 0.498,1.06876 0.274,0 0.574,0.66131 0.667,1.46954 0.158,1.37374 0.478,1.54718 4.907,2.65997 16.055,4.03427 33.778,4.00049 49.171,-0.0937 2.643,-0.70273 5.465,-1.53158 6.272,-1.84195 l 1.468,-0.56421 0,-7.16782 0,-7.16781 7.076,3.92289 c 6.156,3.41294 7.691,4.03038 11.812,4.74986 10.883,1.89996 18.911,0.23871 26.156,-5.4121 3.336,-2.60204 9.954,-11.74869 12.563,-17.36028 2.816,-6.05852 6.671,-17.74253 7.989,-24.20767 1.129,-5.5365 2.12,-7.48161 4.507,-8.83713 1.064,-0.60431 1.643,-0.65763 2.35,-0.21662 4.647,2.89613 9.822,18.18531 9.661,28.53871 -0.04,2.49825 -0.262,8.14929 -0.495,12.55791 z m -74.985,85.00446 c -0.747,-0.74779 -5.038,-0.83971 -39.193,-0.83971 -34.156,0 -38.446,0.0919 -39.193,0.83971 -1.224,1.22514 -1.224,13.12678 0,14.35192 0.747,0.74779 5.037,0.83975 39.193,0.83975 34.155,0 38.446,-0.092 39.193,-0.83975 0.668,-0.669 0.839,-2.12828 0.839,-7.17594 0,-5.0477 -0.171,-6.50699 -0.839,-7.17598 z m -6.876,9.60497 c -0.721,0.7214 -1.813,1.31166 -2.427,1.31166 -0.614,0 -1.706,-0.59026 -2.426,-1.31166 -0.721,-0.72141 -1.31,-1.81446 -1.31,-2.42899 0,-0.61454 0.589,-1.70762 1.31,-2.42903 0.72,-0.72141 1.812,-1.31162 2.426,-1.31162 1.441,0 3.736,2.29889 3.736,3.74065 0,0.61453 -0.589,1.70758 -1.309,2.42899 z m -14.946,0 c -0.72,0.7214 -1.812,1.31166 -2.426,1.31166 -0.613,0 -1.705,-0.59026 -2.426,-1.31166 -0.721,-0.72141 -1.311,-1.81446 -1.311,-2.42899 0,-0.61454 0.59,-1.70762 1.311,-2.42903 0.721,-0.72141 1.813,-1.31162 2.426,-1.31162 1.44,0 3.736,2.29889 3.736,3.74065 0,0.61453 -0.589,1.70758 -1.31,2.42899 z m -14.411,0 c -0.72,0.7214 -1.812,1.31166 -2.426,1.31166 -0.614,0 -1.706,-0.59026 -2.427,-1.31166 -0.72,-0.72141 -1.31,-1.81446 -1.31,-2.42899 0,-0.61454 0.59,-1.70762 1.31,-2.42903 0.721,-0.72141 1.813,-1.31162 2.427,-1.31162 1.44,0 3.736,2.29889 3.736,3.74065 0,0.61453 -0.589,1.70758 -1.31,2.42899 z m -14.411,0 c -0.721,0.7214 -1.813,1.31166 -2.427,1.31166 -0.614,0 -1.706,-0.59026 -2.426,-1.31166 -0.721,-0.72141 -1.31,-1.81446 -1.31,-2.42899 0,-0.61454 0.589,-1.70762 1.31,-2.42903 0.72,-0.72141 1.812,-1.31162 2.426,-1.31162 1.441,0 3.736,2.29889 3.736,3.74065 0,0.61453 -0.589,1.70758 -1.309,2.42899 z m -14.946,0 c -0.72,0.7214 -1.812,1.31166 -2.426,1.31166 -1.44,0 -3.737,-2.29889 -3.737,-3.74065 0,-1.44176 2.297,-3.74065 3.737,-3.74065 1.44,0 3.736,2.29889 3.736,3.74065 0,0.61453 -0.589,1.70758 -1.31,2.42899 z m 27.998,-77.77648 -28.823,0 0,-5.07662 0,-5.0766 28.823,0 28.823,0 0,5.0766 0,5.07662 z m 24.153,3.68477 c -7.862,2.20712 -12.098,2.7928 -22.4,3.09687 -10.816,0.31928 -18.437,-0.37662 -26.537,-2.42322 -7.992,-2.01948 -5.773,-2.22091 24.473,-2.22091 15.73,0 28.6,0.0868 28.6,0.19297 0,0.10611 -1.861,0.71556 -4.136,1.35429 z m 80.518,154.91282 c -1.28,-1.43414 -1.933,-1.733 -3.791,-1.733 -1.874,0 -2.508,0.29664 -3.851,1.80038 -1.394,1.5618 -1.568,2.09122 -1.313,3.99485 0.605,4.51457 5.728,6.25573 8.941,3.03883 2.126,-2.12824 2.132,-4.72876 0.01,-7.10106 z m -14.374,-25.50423 c -1.125,-2.09875 -3.889,-3.77358 -6.231,-3.77358 -2.34,0 -5.106,1.67483 -6.229,3.77358 -1.89,3.52672 -0.648,7.83082 2.793,9.6782 3.523,1.89139 7.822,0.64741 9.667,-2.79716 0.536,-1.00138 0.975,-2.54963 0.975,-3.4405 0,-0.89092 -0.439,-2.43913 -0.975,-3.44054 z m -14.004,-24.9804 c -1.284,-3.4036 -5.096,-6.04651 -8.72,-6.04651 -8,0 -12.257,9.59163 -6.895,15.5335 5.595,6.20077 16.074,2.302 16.162,-6.01352 0.01,-1.083 -0.234,-2.64608 -0.547,-3.47347 z m -33.364,24.18409 c -0.748,-0.74951 -5.449,-0.83977 -43.73,-0.83977 -38.28,0 -42.981,0.0902 -43.729,0.83977 -0.731,0.73077 -0.84,3.22127 -0.84,19.19946 0,15.97815 0.109,18.46865 0.84,19.19947 0.748,0.74946 5.449,0.83974 43.729,0.83974 38.281,0 42.982,-0.0903 43.73,-0.83974 0.73,-0.73082 0.839,-3.22132 0.839,-19.19947 0,-15.97819 -0.109,-18.46869 -0.839,-19.19946 z m -11.146,32.04884 c -0.721,0.72141 -1.813,1.31167 -2.427,1.31167 -1.439,0 -3.736,-2.2989 -3.736,-3.74066 0,-1.44175 2.297,-3.74066 3.736,-3.74066 1.44,0 3.737,2.29891 3.737,3.74066 0,0.61454 -0.59,1.70758 -1.31,2.42899 z m 0,-19.77202 c -0.721,0.72141 -1.813,1.31167 -2.427,1.31167 -0.613,0 -1.705,-0.59026 -2.425,-1.31167 -0.721,-0.72141 -1.311,-1.81445 -1.311,-2.429 0,-0.61453 0.59,-1.70757 1.311,-2.42898 0.72,-0.72141 1.812,-1.31167 2.425,-1.31167 1.44,0 3.737,2.2989 3.737,3.74065 0,0.61455 -0.59,1.70759 -1.31,2.429 z m -14.945,19.77202 c -0.72,0.72141 -1.812,1.31167 -2.426,1.31167 -1.441,0 -3.737,-2.2989 -3.737,-3.74066 0,-1.44175 2.296,-3.74066 3.737,-3.74066 1.44,0 3.736,2.29891 3.736,3.74066 0,0.61454 -0.589,1.70758 -1.31,2.42899 z m 0,-19.77202 c -0.72,0.72141 -1.812,1.31167 -2.426,1.31167 -0.614,0 -1.706,-0.59026 -2.427,-1.31167 -0.72,-0.72141 -1.31,-1.81445 -1.31,-2.429 0,-0.61453 0.59,-1.70757 1.31,-2.42898 0.721,-0.72141 1.813,-1.31167 2.427,-1.31167 1.44,0 3.736,2.2989 3.736,3.74065 0,0.61455 -0.589,1.70759 -1.31,2.429 z m -14.871,0.14975 c -1.602,1.50738 -3.62,1.47762 -5.076,-0.0749 -1.506,-1.60455 -1.476,-3.62413 0.07,-5.0826 1.603,-1.50737 3.621,-1.47762 5.077,0.0749 1.506,1.60455 1.476,3.62412 -0.08,5.08263 z m -0.608,19.62227 c -0.72,0.72141 -1.812,1.31167 -2.426,1.31167 -1.441,0 -3.737,-2.2989 -3.737,-3.74066 0,-1.44175 2.296,-3.74066 3.737,-3.74066 1.44,0 3.736,2.29891 3.736,3.74066 0,0.61454 -0.589,1.70758 -1.31,2.42899 z m -14.946,0 c -0.72,0.72141 -1.812,1.31167 -2.426,1.31167 -1.439,0 -3.736,-2.2989 -3.736,-3.74066 0,-1.44175 2.297,-3.74066 3.736,-3.74066 1.44,0 3.737,2.29891 3.737,3.74066 0,0.61454 -0.59,1.70758 -1.311,2.42899 z m 0,-20.3064 c -0.72,0.72141 -1.812,1.31167 -2.426,1.31167 -0.613,0 -1.705,-0.59026 -2.425,-1.31167 -0.721,-0.72141 -1.311,-1.81445 -1.311,-2.42899 0,-0.61454 0.59,-1.70759 1.311,-2.429 0.72,-0.72141 1.812,-1.31165 2.425,-1.31165 1.44,0 3.737,2.29888 3.737,3.74065 0,0.61454 -0.59,1.70758 -1.311,2.42899 z m -14.944,0 c -0.721,0.72141 -1.813,1.31167 -2.427,1.31167 -1.44,0 -3.736,-2.2989 -3.736,-3.74066 0,-1.44177 2.296,-3.74065 3.736,-3.74065 1.441,0 3.736,2.29888 3.736,3.74065 0,0.61454 -0.589,1.70758 -1.309,2.42899 z m -0.535,20.3064 c -0.72,0.72141 -1.812,1.31167 -2.426,1.31167 -0.613,0 -1.705,-0.59026 -2.425,-1.31167 -0.721,-0.72141 -1.311,-1.81445 -1.311,-2.42899 0,-0.61453 0.59,-1.70757 1.311,-2.42898 0.72,-0.72141 1.812,-1.31168 2.425,-1.31168 0.614,0 1.706,0.59027 2.426,1.31168 0.721,0.72141 1.311,1.81445 1.311,2.42898 0,0.61454 -0.59,1.70758 -1.311,2.42899 z m 27.999,-218.85256 c -29.535,0 -29.891,0.0128 -29.891,1.06876 0,1.05606 0.356,1.06875 29.891,1.06875 29.534,0 29.89,-0.0128 29.89,-1.06875 0,-1.05602 -0.356,-1.06876 -29.89,-1.06876 z m 0,-15.497 c -29.535,0 -29.891,0.0128 -29.891,1.06876 0,1.05606 0.356,1.06875 29.891,1.06875 29.534,0 29.89,-0.0128 29.89,-1.06875 0,-1.05602 -0.356,-1.06876 -29.89,-1.06876 z m 0.266,-16.56575 c -28.733,0 -29.09,0.0132 -29.09,1.06877 0,1.05572 0.357,1.06875 29.09,1.06875 28.735,0 29.09,-0.0133 29.09,-1.06875 0,-1.05569 -0.355,-1.06877 -29.09,-1.06877 z m 0,-18.168891 c -28.2,0 -28.555,0.01326 -28.555,1.068759 0,1.055462 0.355,1.068752 28.555,1.068752 28.2,0 28.556,-0.0132 28.556,-1.068752 0,-1.055421 -0.356,-1.068759 -28.556,-1.068759 z m 0,-18.16889 c -27.665,0 -28.022,0.01368 -28.022,1.068758 0,1.055207 0.357,1.068759 28.022,1.068759 27.667,0 28.023,-0.01368 28.023,-1.068759 0,-1.055162 -0.356,-1.068758 -28.023,-1.068758 z m 0,-19.772027 c -27.132,0 -27.488,0.01368 -27.488,1.068758 0,1.05495 0.356,1.068759 27.488,1.068759 27.133,0 27.489,-0.01368 27.489,-1.068759 0,-1.054907 -0.356,-1.068758 -27.489,-1.068758 z m 26.616,-460.079222 c -1.774,-3.00556 -5.138,-3.97239 -8.411,-2.4173 -4.491,2.13383 -4.666,8.56031 -0.303,11.14089 5.514,3.26049 11.97,-3.20388 8.714,-8.72359 z m -26.616,438.704059 c -26.598,0 -26.954,0.01411 -26.954,1.068758 0,1.054651 0.356,1.068758 26.954,1.068758 26.599,0 26.955,-0.01411 26.955,-1.068758 0,-1.05465 -0.356,-1.068758 -26.955,-1.068758 z m 0,-22.443923 c -26.064,0 -26.421,0.01453 -26.421,1.068758 0,1.054352 0.357,1.068759 26.421,1.068759 26.066,0 26.421,-0.01454 26.421,-1.068759 0,-1.054351 -0.355,-1.068758 -26.421,-1.068758 z m -0.266,-23.5126801 c -25.798,0 -26.155,0.014535 -26.155,1.0687581 0,1.0542232 0.357,1.0687581 26.155,1.0687581 25.798,0 26.153,-0.014535 26.153,-1.0687581 0,-1.054223 -0.355,-1.0687581 -26.153,-1.0687581 z m 0.266,-24.5814819 c -24.997,0 -25.353,0.01496 -25.353,1.068758 0,1.053753 0.356,1.068759 25.353,1.068759 24.998,0 25.354,-0.01496 25.354,-1.068759 0,-1.053751 -0.356,-1.068758 -25.354,-1.068758 z m 0,-26.718955 c -24.463,0 -24.82,0.01539 -24.82,1.068758 0,1.053411 0.357,1.068759 24.82,1.068759 24.465,0 24.82,-0.01539 24.82,-1.068759 0,-1.053411 -0.355,-1.068758 -24.82,-1.068758 z m 0,-27.787713 c -23.93,0 -24.285,0.01539 -24.285,1.068758 0,1.053111 0.355,1.068758 24.285,1.068758 23.93,0 24.286,-0.01539 24.286,-1.068758 0,-1.053112 -0.356,-1.068758 -24.286,-1.068758 z m 0.267,-29.390846 c -23.129,0 -23.485,0.0162 -23.485,1.06874 0,1.05257 0.356,1.06877 23.485,1.06877 23.13,0 23.486,-0.0158 23.486,-1.06877 0,-1.05254 -0.356,-1.06874 -23.486,-1.06874 z m -0.267,-31.52838 c -22.328,0 -22.684,0.0167 -22.684,1.06876 0,1.05196 0.356,1.06876 22.684,1.06876 22.329,0 22.685,-0.0167 22.685,-1.06876 0,-1.052 -0.356,-1.06876 -22.685,-1.06876 z m 0,-33.13151 c -21.794,0 -22.151,0.0171 -22.151,1.06876 0,1.05157 0.357,1.06875 22.151,1.06875 21.796,0 22.151,-0.0171 22.151,-1.06875 0,-1.05162 -0.355,-1.06876 -22.151,-1.06876 z m 0.267,-34.73464 c -20.994,0 -21.35,0.0175 -21.35,1.06876 0,1.05093 0.356,1.06875 21.35,1.06875 20.994,0 21.35,-0.0175 21.35,-1.06875 0,-1.05097 -0.356,-1.06876 -21.35,-1.06876 z m 0,-37.40653 c -19.927,0 -20.282,0.0188 -20.282,1.06874 0,1.04999 0.355,1.06876 20.282,1.06876 19.928,0 20.283,-0.0188 20.283,-1.06876 0,-1.05002 -0.355,-1.06874 -20.283,-1.06874 z m -0.267,-39.00974 c -19.125,0 -19.482,0.0192 -19.482,1.06877 0,1.04927 0.357,1.06877 19.482,1.06877 19.127,0 19.483,-0.0192 19.483,-1.06877 0,-1.04922 -0.356,-1.06877 -19.483,-1.06877 z m 0,-41.14718 c -18.058,0 -18.414,0.021 -18.414,1.06876 0,1.04816 0.356,1.06876 18.414,1.06876 18.059,0 18.415,-0.0209 18.415,-1.06876 0,-1.04811 -0.356,-1.06876 -18.415,-1.06876 z m 9.002,-159.22368 c -1.773,-3.00556 -5.137,-3.97244 -8.41,-2.41732 -4.492,2.1338 -4.667,8.56033 -0.303,11.14086 5.514,3.26053 11.97,-3.20383 8.713,-8.72354 z m -8.54,36.33778 c -1.773,-3.00556 -5.137,-3.97245 -8.41,-2.41732 -4.492,2.1338 -4.667,8.56032 -0.303,11.14086 5.513,3.26053 11.97,-3.20383 8.713,-8.72354 z m -8.006,37.40653 c -1.774,-3.00556 -5.138,-3.97243 -8.411,-2.41731 -4.491,2.13379 -4.666,8.56032 -0.303,11.14091 5.514,3.26047 11.97,-3.20388 8.714,-8.7236 z m -8.007,36.87216 c -1.774,-3.00556 -5.137,-3.9724 -8.411,-2.41732 -4.491,2.13385 -4.665,8.56033 -0.302,11.14092 5.513,3.26049 11.97,-3.20389 8.713,-8.7236 z m 89.442,-30.4809 c -0.306,0.73481 -1.236,2.05737 -2.065,2.93909 -1.077,1.14395 -1.585,2.32796 -1.772,4.13374 -0.364,3.47429 -1.581,5.08515 -5.04,6.67077 -4.146,1.89998 -6.137,1.24485 -10.964,-3.60718 -2.778,-2.79238 -4.277,-3.85482 -6.419,-4.55066 -1.537,-0.4992 -3.023,-1.11861 -3.302,-1.37639 -0.279,-0.25779 -1.36,-0.47239 -2.402,-0.47687 -2.62,-0.0111 -3.218,-0.53572 -3.368,-2.95153 -0.116,-1.88884 0.03,-2.14341 1.473,-2.65082 0.881,-0.30865 3.096,-1.966 4.923,-3.68298 2.487,-2.33891 3.6,-3.86955 4.435,-6.10347 0.613,-1.6399 1.52,-3.67876 2.016,-4.53077 1.103,-1.89263 4.24,-3.58495 6.649,-3.58495 2.618,0 6.304,2.55706 7.826,5.42715 0.888,1.67668 1.997,2.78878 3.686,3.69578 1.329,0.71363 2.886,1.94086 3.461,2.7272 1.213,1.65718 1.682,5.96261 0.863,7.92189 z"
         id="path27398"
         inkscape:connector-curvature="0"
         sodipodi:nodetypes="csssssscccscssssssssssssssccsssssssscccssccscsssccssccsscsssssccccssscscsccscccccssscsscccscssssccscsccsssssssccccsccccsscsssssssssccssscscscsssscscccccssscccssscccsssssssssssscscssscccssscssssssssccsssccscssssssscssccccssssscccscsccscscssssssssssssssssssssssssssssssssssssssccccccccccssssccsscscccscscsccsscccscssscscssssssssssssssssssssssssssssssscsssssssssssssssssssssssssssssssssssssssssssssssssssssssssssssssssssscssssssssssssssssssssssssssssssssssssssssssssssssssssssssssssssssssscssscsssccssscscscsscccscsscsscsc" />
    </g>
  </g>
</svg>
