<?xml version="1.0"?>
<svg xmlns:rdf="http://www.w3.org/1999/02/22-rdf-syntax-ns#" xmlns="http://www.w3.org/2000/svg" xmlns:cc="http://web.resource.org/cc/" xmlns:dc="http://purl.org/dc/elements/1.1/" xmlns:svg="http://www.w3.org/2000/svg" id="svg2258" viewBox="0 0 218.81 641.8" version="1.0">
  <g id="layer1" transform="translate(-222.95 -107.95)">
    <g id="g32136" transform="matrix(1.6228 -.014316 .014221 1.6121 -543.47 246.39)">
      <path id="path32004" d="m554.62-34.313l0.31 0.657 5.77 1.53v-7.321l-6.17 2.054-0.35 0.892h-2.5v2.322l2.94-0.134z" fill-rule="evenodd" stroke="#000" stroke-width="1px" fill="#999"/>
      <path id="path32006" d="m554.45-46.456l0.3 0.658 5.77 1.53v-7.322l-6.16 2.054-0.36 0.893h-2.5v2.321l2.95-0.134z" fill-rule="evenodd" stroke="#000" stroke-width="1px" fill="#999"/>
      <path id="path32008" d="m554.67-60.742l0.3 0.658 5.77 1.53v-7.322l-6.16 2.054-0.36 0.893h-2.5v2.321l2.95-0.134z" fill-rule="evenodd" stroke="#000" stroke-width="1px" fill="#999"/>
      <path id="path32010" d="m518.28-32.885l-0.3 0.658-5.77 1.53v-7.321l6.16 2.053 0.36 0.893h2.5v2.321l-2.95-0.134z" fill-rule="evenodd" stroke="#000" stroke-width="1px" fill="#999"/>
      <path id="path32012" d="m520.43-46.635l-0.31 0.658-5.76 1.53v-7.321l6.16 2.053 0.35 0.893h2.5v2.321l-2.94-0.134z" fill-rule="evenodd" stroke="#000" stroke-width="1px" fill="#999"/>
      <path id="path32014" d="m518.82-59.67l-0.3 0.657-5.77 1.53v-7.321l6.16 2.053 0.36 0.893h2.5v2.322l-2.95-0.134z" fill-rule="evenodd" stroke="#000" stroke-width="1px" fill="#999"/>
      <path id="path32016" d="m544.9 141.83c1.71 5.85 3.64 11.26 3.92 16.16 5.88 19.55 17.89 12.5 30.81 1.51 5.02 5.95 4.77 14.7-3.53 27.78-1.6 9.65-6.25 10.88 3.53 25.26 12.54 18.43 32.2 35.54 21.72 63.64-6.31 16.9-14.31 33.97-38.38 38.38-17.29 3.17-34.15 2.71-51.02-2.52-15.69-4.88-25.73-13.85-33.33-25.26-11.4-17.1-9.46-32.9-2.53-46.97 6.44-13.08 18.81-23.07 23.24-37.38 0.42-13.24-7.09-21.72-9.6-31.82-2.38-9.59 2.36-17.78 10.61-21.71 4.7-2.1 11.1-4.12 16.16-1.52 2.25 1.16 2.39 5.01 4.04 7.07" fill-rule="evenodd" stroke="#000" stroke-width="1px" fill="#800000"/>
      <path id="path32018" d="m545.83 175.46v-9.82l10.89 9.29c9.3 19.38 14.05 37.62 21.07 56.43-1.01 3.09 0.26 7.33-6.96 7.32l-18.22-3.75-0.17-16.43-1.08-1.43h-5.17v-22.5h5.17l1.25-1.25v-15.71l-0.99-1.73-5.79-0.42z" fill-rule="evenodd" stroke="#000" stroke-width="1px" fill="#fff6d5"/>
      <rect id="rect32020" fill-rule="evenodd" ry="1.9738" height="19.088" width="37.481" stroke="#000" y="216.46" x="515.48" stroke-width="1.0189" fill="#fff6d5"/>
      <rect id="rect32022" fill-rule="evenodd" ry="1.9738" height="19.088" width="37.481" stroke="#000" y="175.47" x="515.3" stroke-width="1.0189" fill="#fff6d5"/>
      <rect id="rect32024" fill-rule="evenodd" ry="1.9738" height="15" width="27.143" stroke="#000" y="177.25" x="520.65" fill="#e3dedb"/>
      <rect id="rect32026" fill-rule="evenodd" ry="1.9738" height="15" width="27.143" stroke="#000" y="219.04" x="520.11" fill="#e3dedb"/>
      <rect id="rect32028" fill-rule="evenodd" ry="4.2549" height="9.0682" width="39.247" stroke="#000" y="256.55" x="514.24" stroke-width="1.0389" fill="#e3dedb"/>
      <rect id="rect32030" ry="4.2633" fill-rule="evenodd" transform="rotate(-3.0897)" height="9.086" width="37.836" stroke="#000" y="265.44" x="501.69" stroke-width="1.0211" fill="#e3dedb"/>
      <path id="path32032" d="m525.92-15.998l-3.53 188.4h23.23l-2.52-188.4-17.18 0.002z" fill-rule="evenodd" stroke="#000" stroke-width="1px" fill="#c87137"/>
      <rect id="rect32034" fill-rule="evenodd" ry=".14981" height=".68853" width="23.367" stroke="#000" y="168.33" x="522" stroke-width=".22575" fill="#ffe680"/>
      <rect id="rect32036" fill-rule="evenodd" ry=".15013" height=".69002" width="23.011" stroke="#000" y="164.4" x="522.18" stroke-width=".22427" fill="#ffe680"/>
      <rect id="rect32038" fill-rule="evenodd" ry=".14981" height=".68853" width="23.367" stroke="#000" y="159.76" x="521.82" stroke-width=".22575" fill="#ffe680"/>
      <rect id="rect32040" fill-rule="evenodd" ry=".14981" height=".68853" width="23.367" stroke="#000" y="155.12" x="521.82" stroke-width=".22575" fill="#ffe680"/>
      <rect id="rect32042" fill-rule="evenodd" ry=".15013" height=".69002" width="23.011" stroke="#000" y="149.94" x="522.36" stroke-width=".22427" fill="#ffe680"/>
      <rect id="rect32044" fill-rule="evenodd" ry=".1503" height=".69076" width="22.834" stroke="#000" y="144.58" x="522.54" stroke-width=".22352" fill="#ffe680"/>
      <rect id="rect32046" fill-rule="evenodd" ry=".14997" height=".68927" width="23.189" stroke="#000" y="139.23" x="522.36" stroke-width=".22501" fill="#ffe680"/>
      <rect id="rect32048" fill-rule="evenodd" ry=".15046" height=".69151" width="22.656" stroke="#000" y="133.33" x="522.72" stroke-width=".22277" fill="#ffe680"/>
      <rect id="rect32050" fill-rule="evenodd" ry=".15046" height=".69151" width="22.656" stroke="#000" y="126.73" x="522.89" stroke-width=".22277" fill="#ffe680"/>
      <rect id="rect32052" fill-rule="evenodd" ry=".15079" height=".69303" width="22.3" stroke="#000" y="120.12" x="522.89" stroke-width=".22126" fill="#ffe680"/>
      <rect id="rect32054" fill-rule="evenodd" ry=".1518" height=".69766" width="21.233" stroke="#000" y="112.79" x="523.43" stroke-width=".21662" fill="#ffe680"/>
      <rect id="rect32056" fill-rule="evenodd" ry=".15163" height=".69688" width="21.411" stroke="#000" y="105.83" x="523.25" stroke-width=".21741" fill="#ffe680"/>
      <rect id="rect32058" fill-rule="evenodd" ry=".15129" height=".69533" width="21.767" stroke="#000" y="97.616" x="523.25" stroke-width=".21896" fill="#ffe680"/>
      <rect id="rect32060" fill-rule="evenodd" ry=".15392" height=".7074" width="19.1" stroke="#000" y="14.039" x="524.85" stroke-width=".20688" fill="#ffe680"/>
      <rect id="rect32062" fill-rule="evenodd" ry=".15466" height=".7108" width="18.389" stroke="#000" y=".4654" x="525.3" stroke-width=".20348" fill="#ffe680"/>
      <rect id="rect32064" fill-rule="evenodd" ry=".077707" height="2.3214" width="14.107" y="161.18" x="526.81" stroke-width="0" fill="#fff"/>
      <rect id="rect32066" fill-rule="evenodd" ry=".077707" height="2.3214" width="13.393" y="151.54" x="527.35" stroke-width="0" fill="#fff"/>
      <rect id="rect32068" fill-rule="evenodd" ry=".10162" height="3.0357" width="13.571" y="140.82" x="526.81" stroke-width="0" fill="#fff"/>
      <rect id="rect32070" fill-rule="evenodd" ry=".1315" height="3.9286" width="13.393" y="128.68" x="526.63" stroke-width="0" fill="#fff"/>
      <rect id="rect32072" fill-rule="evenodd" ry=".15541" height="4.6429" width="13.214" y="107.25" x="526.45" stroke-width="0" fill="#fff"/>
      <rect id="rect32074" fill-rule="evenodd" ry=".29887" height="8.9286" width="9.4643" y="40.285" x="529.31" stroke-width="0" fill="#fff"/>
      <rect id="rect32076" fill-rule="evenodd" ry=".15541" height="2.5" width="18.571" stroke="#000" y="-15.608" x="525.29" stroke-width=".5" fill="#d38d5f"/>
      <path id="path32078" d="m521.36-75.251c5.88 0.66 10.55-2.905 15.54-5.357 4.8 2.38 9.43 5.024 16.07 4.643-3.09 32.614-1.33 33.342-1.43 46.25-3.19 4.116-6.5 8.174-7.85 13.214h-18.22c-1.19-5.643-3.63-8.798-5.71-12.678 1.27-14.988 2.22-30.141 1.6-46.072z" fill-rule="evenodd" stroke="#000" stroke-width="1px" fill="#241c1c"/>
      <rect id="rect32080" fill-rule="evenodd" ry=".33474" height="10" width="9.4643" y="-11.501" x="529.94" stroke-width="0" fill="#fff"/>
      <rect id="rect32082" fill-rule="evenodd" ry=".33474" height="10" width="9.4643" y="15.285" x="529.67" stroke-width="0" fill="#fff"/>
      <rect id="rect32084" fill-rule="evenodd" ry=".25105" height="7.5" width="9.4643" y="62.071" x="529.13" stroke-width="0" fill="#fff"/>
      <rect id="rect32086" fill-rule="evenodd" ry=".20323" height="6.0714" width="9.4643" y="81.535" x="529.13" stroke-width="0" fill="#fff"/>
      <rect id="rect32088" fill-rule="evenodd" ry=".15284" height=".70245" width="20.167" stroke="#000" y="38.505" x="524.32" stroke-width=".21183" fill="#ffe680"/>
      <rect id="rect32090" fill-rule="evenodd" ry=".15373" height=".70657" width="19.278" stroke="#000" y="26.539" x="524.85" stroke-width=".20772" fill="#ffe680"/>
      <rect id="rect32092" fill-rule="evenodd" ry=".15319" height=".70408" width="19.811" stroke="#000" y="49.933" x="524.5" stroke-width=".2102" fill="#ffe680"/>
      <rect id="rect32094" fill-rule="evenodd" ry=".15284" height=".70245" width="20.167" stroke="#000" y="60.648" x="524.14" stroke-width=".21183" fill="#ffe680"/>
      <rect id="rect32096" fill-rule="evenodd" ry=".15319" height=".70408" width="19.811" stroke="#000" y="70.469" x="523.96" stroke-width=".2102" fill="#ffe680"/>
      <rect id="rect32098" fill-rule="evenodd" ry=".15197" height=".69845" width="21.056" stroke="#000" y="80.114" x="523.78" stroke-width=".21584" fill="#ffe680"/>
      <rect id="rect32100" fill-rule="evenodd" ry=".1518" height=".69766" width="21.233" stroke="#000" y="89.043" x="523.61" stroke-width=".21662" fill="#ffe680"/>
      <path id="path32102" d="m526.19-48.464l3.57 33.043-2.32 274.76" stroke="#555" stroke-width=".50132" fill="none"/>
      <path id="path32104" d="m544.04-34.357l-2.67 18.89 3.03 275.25" stroke="#555" stroke-width=".50172" fill="none"/>
      <path id="path32106" d="m543.86-47.214l-5.17 31.78 1.07 275.42" stroke="#555" stroke-width=".5013" fill="none"/>
      <path id="path32108" d="m544.4-60.786l-8.75 45.084-0.18 275.17" stroke="#555" stroke-width=".50142" fill="none"/>
      <path id="path32110" d="m527.26-59.357l5.35 44.581-1.07 274.32" stroke="#555" stroke-width=".50159" fill="none"/>
      <path id="path32112" d="m437.68 60.219a2.3214 2.3214 0 1 1 -4.64 0 2.3214 2.3214 0 1 1 4.64 0z" fill="#d38d5f" transform="translate(110.47 -122.43)" fill-rule="evenodd"/>
      <path id="path32114" d="m437.68 60.219a2.3214 2.3214 0 1 1 -4.64 0 2.3214 2.3214 0 1 1 4.64 0z" fill="#d38d5f" transform="translate(109.94 -108.84)" fill-rule="evenodd"/>
      <path id="path32116" d="m437.68 60.219a2.3214 2.3214 0 1 1 -4.64 0 2.3214 2.3214 0 1 1 4.64 0z" fill="#d38d5f" transform="translate(109.94 -96.006)" fill-rule="evenodd"/>
      <path id="path32118" d="m437.68 60.219a2.3214 2.3214 0 1 1 -4.64 0 2.3214 2.3214 0 1 1 4.64 0z" fill="#d38d5f" transform="translate(89.543 -108.68)" fill-rule="evenodd"/>
      <path id="path32120" d="m437.68 60.219a2.3214 2.3214 0 1 1 -4.64 0 2.3214 2.3214 0 1 1 4.64 0z" fill="#d38d5f" transform="translate(91.008 -121.9)" fill-rule="evenodd"/>
      <path id="path32122" d="m333.39 369.59a3.125 3.125 0 1 1 -6.25 0 3.125 3.125 0 1 1 6.25 0z" fill-rule="evenodd" transform="matrix(.86157 0 0 .86157 233.96 -57.433)" stroke="#000" stroke-width=".2" fill="#ccc"/>
      <path id="path32124" d="m333.39 369.59a3.125 3.125 0 1 1 -6.25 0 3.125 3.125 0 1 1 6.25 0z" fill-rule="evenodd" transform="matrix(.86157 0 0 .86157 264.76 -57.254)" stroke="#000" stroke-width=".2" fill="#ccc"/>
      <path id="path32126" d="m524.72-34l2.5 18.48-3.39 275.05" stroke="#555" stroke-width=".5011" fill="none"/>
      <path id="path32128" d="m437.68 60.219a2.3214 2.3214 0 1 1 -4.64 0 2.3214 2.3214 0 1 1 4.64 0z" fill="#d38d5f" transform="translate(89.158 -95.47)" fill-rule="evenodd"/>
      <rect id="rect32130" fill-rule="evenodd" ry="2.9947" height="5.9894" width="24.263" y="259.13" x="521.66" fill="#b3b3b3"/>
      <path id="path32132" d="m333.39 369.59a3.125 3.125 0 1 1 -6.25 0 3.125 3.125 0 1 1 6.25 0z" fill-rule="evenodd" transform="matrix(.74411 0 0 .74411 274.42 -32.86)" stroke="#000" stroke-width=".2" fill="#ccc"/>
      <path id="path32134" d="m333.39 369.59a3.125 3.125 0 1 1 -6.25 0 3.125 3.125 0 1 1 6.25 0z" fill-rule="evenodd" transform="matrix(.74411 0 0 .74411 302.52 -34.376)" stroke="#000" stroke-width=".2" fill="#ccc"/>
    </g>
  </g>
  <metadata>
    <rdf:RDF>
      <cc:Work>
        <dc:format>image/svg+xml</dc:format>
        <dc:type rdf:resource="http://purl.org/dc/dcmitype/StillImage"/>
        <cc:license rdf:resource="http://creativecommons.org/licenses/publicdomain/"/>
        <dc:publisher>
          <cc:Agent rdf:about="http://openclipart.org/">
            <dc:title>Openclipart</dc:title>
          </cc:Agent>
        </dc:publisher>
        <dc:title>Gibson Les Paul</dc:title>
        <dc:date>2008-05-16T15:53:41</dc:date>
        <dc:description>A svg of a Gibson Les Paul</dc:description>
        <dc:source>http://openclipart.org/detail/16769/gibson-les-paul-by-piemaster</dc:source>
        <dc:creator>
          <cc:Agent>
            <dc:title>Piemaster</dc:title>
          </cc:Agent>
        </dc:creator>
        <dc:subject>
          <rdf:Bag>
            <rdf:li>cartoon</rdf:li>
            <rdf:li>clip art</rdf:li>
            <rdf:li>clipart</rdf:li>
            <rdf:li>electric</rdf:li>
            <rdf:li>gibson</rdf:li>
            <rdf:li>guitar</rdf:li>
            <rdf:li>image</rdf:li>
            <rdf:li>les paul</rdf:li>
            <rdf:li>media</rdf:li>
            <rdf:li>music</rdf:li>
            <rdf:li>musical instrument</rdf:li>
            <rdf:li>png</rdf:li>
            <rdf:li>public domain</rdf:li>
            <rdf:li>svg</rdf:li>
          </rdf:Bag>
        </dc:subject>
      </cc:Work>
      <cc:License rdf:about="http://creativecommons.org/licenses/publicdomain/">
        <cc:permits rdf:resource="http://creativecommons.org/ns#Reproduction"/>
        <cc:permits rdf:resource="http://creativecommons.org/ns#Distribution"/>
        <cc:permits rdf:resource="http://creativecommons.org/ns#DerivativeWorks"/>
      </cc:License>
    </rdf:RDF>
  </metadata>
</svg>
