<?xml version="1.0" encoding="UTF-8"?>
<svg xmlns="http://www.w3.org/2000/svg" width="740" height="395" viewBox="0 0 740 395"><defs><linearGradient id="lg0" x1="93" y1="0" x2="155" y2="340" gradientUnits="userSpaceOnUse"><stop offset="0%" stop-color="rgb(210,228,255)" stop-opacity="0.9"></stop><stop offset="100%" stop-color="rgb(180,210,255)" stop-opacity="0"></stop></linearGradient><radialGradient id="glow0" cx="50%" cy="50%" r="50%" gradientUnits="objectBoundingBox"><stop offset="0%" stop-color="#89adff" stop-opacity="0.95"></stop><stop offset="100%" stop-color="#89adff" stop-opacity="0"></stop></radialGradient><linearGradient id="lg1" x1="285" y1="0" x2="180" y2="340" gradientUnits="userSpaceOnUse"><stop offset="0%" stop-color="rgb(210,228,255)" stop-opacity="0.9"></stop><stop offset="100%" stop-color="rgb(180,210,255)" stop-opacity="0"></stop></linearGradient><radialGradient id="glow1" cx="50%" cy="50%" r="50%" gradientUnits="objectBoundingBox"><stop offset="0%" stop-color="#89adff" stop-opacity="0.95"></stop><stop offset="100%" stop-color="#89adff" stop-opacity="0"></stop></radialGradient><linearGradient id="lg2" x1="355" y1="0" x2="355" y2="340" gradientUnits="userSpaceOnUse"><stop offset="0%" stop-color="rgb(210,228,255)" stop-opacity="0.9"></stop><stop offset="100%" stop-color="rgb(180,210,255)" stop-opacity="0"></stop></linearGradient><radialGradient id="glow2" cx="50%" cy="50%" r="50%" gradientUnits="objectBoundingBox"><stop offset="0%" stop-color="#89adff" stop-opacity="0.95"></stop><stop offset="100%" stop-color="#89adff" stop-opacity="0"></stop></radialGradient><linearGradient id="lg3" x1="435" y1="0" x2="510" y2="340" gradientUnits="userSpaceOnUse"><stop offset="0%" stop-color="rgb(210,228,255)" stop-opacity="0.9"></stop><stop offset="100%" stop-color="rgb(180,210,255)" stop-opacity="0"></stop></linearGradient><radialGradient id="glow3" cx="50%" cy="50%" r="50%" gradientUnits="objectBoundingBox"><stop offset="0%" stop-color="#89adff" stop-opacity="0.95"></stop><stop offset="100%" stop-color="#89adff" stop-opacity="0"></stop></radialGradient><linearGradient id="lg4" x1="505" y1="0" x2="610" y2="340" gradientUnits="userSpaceOnUse"><stop offset="0%" stop-color="rgb(210,228,255)" stop-opacity="0.9"></stop><stop offset="100%" stop-color="rgb(180,210,255)" stop-opacity="0"></stop></linearGradient><radialGradient id="glow4" cx="50%" cy="50%" r="50%" gradientUnits="objectBoundingBox"><stop offset="0%" stop-color="#89adff" stop-opacity="0.95"></stop><stop offset="100%" stop-color="#89adff" stop-opacity="0"></stop></radialGradient><linearGradient id="lg5" x1="697" y1="0" x2="635" y2="340" gradientUnits="userSpaceOnUse"><stop offset="0%" stop-color="rgb(210,228,255)" stop-opacity="0.9"></stop><stop offset="100%" stop-color="rgb(180,210,255)" stop-opacity="0"></stop></linearGradient><radialGradient id="glow5" cx="50%" cy="50%" r="50%" gradientUnits="objectBoundingBox"><stop offset="0%" stop-color="#89adff" stop-opacity="0.95"></stop><stop offset="100%" stop-color="#89adff" stop-opacity="0"></stop></radialGradient><clipPath id="ball-clip"><circle cx="100" cy="100" r="90"></circle></clipPath><radialGradient id="ball-shadow" cx="42%" cy="38%" r="62%" fx="42%" fy="38%" gradientUnits="objectBoundingBox"><stop offset="0" stop-color="rgba(255,255,255,0)" stop-opacity="0"></stop><stop offset="0.5" stop-color="rgba(0,0,0,0)" stop-opacity="0"></stop><stop offset="0.8" stop-color="rgba(0,0,0,0.18)" stop-opacity="1"></stop><stop offset="1" stop-color="rgba(0,0,0,0.65)" stop-opacity="1"></stop></radialGradient><radialGradient id="ball-hl" cx="35%" cy="28%" r="45%" fx="30%" fy="22%" gradientUnits="objectBoundingBox"><stop offset="0" stop-color="rgba(255,255,255,0.75)" stop-opacity="1"></stop><stop offset="0.4" stop-color="rgba(255,255,255,0.10)" stop-opacity="1"></stop><stop offset="1" stop-color="rgba(255,255,255,0)" stop-opacity="1"></stop></radialGradient><radialGradient id="cap-grad" cx="50%" cy="50%" r="50%" gradientUnits="objectBoundingBox"><stop offset="0" stop-color="rgb(200,202,210)" stop-opacity="1"></stop><stop offset="1" stop-color="rgb(150,152,162)" stop-opacity="1"></stop></radialGradient><linearGradient id="wire-grad" x1="395" y1="0" x2="395" y2="40" gradientUnits="userSpaceOnUse"><stop offset="0%" stop-color="rgb(180,185,210)" stop-opacity="0.0"></stop><stop offset="40%" stop-color="rgb(185,190,215)" stop-opacity="0.5"></stop><stop offset="100%" stop-color="rgb(195,200,220)" stop-opacity="0.9"></stop></linearGradient><linearGradient id="div-grad" x1="200" y1="368" x2="540" y2="368" gradientUnits="userSpaceOnUse"><stop offset="0%" stop-color="rgb(180,210,255)" stop-opacity="0"></stop><stop offset="30%" stop-color="rgb(180,210,255)" stop-opacity="0.9"></stop><stop offset="70%" stop-color="rgb(180,210,255)" stop-opacity="0.9"></stop><stop offset="100%" stop-color="rgb(180,210,255)" stop-opacity="0"></stop></linearGradient></defs><polygon points="93,0 93,0 80,340 230,340" fill="url(#lg0)" opacity="0.28"></polygon><polygon points="93,0 93,0 113.75,340 196.25,340" fill="url(#lg0)" opacity="0.36"></polygon><polygon points="93,0 93,0 138.5,340 171.5,340" fill="url(#lg0)" opacity="0.5"></polygon><ellipse cx="93" cy="0" rx="28" ry="14" fill="url(#glow0)"></ellipse><circle cx="93" cy="0" r="4" fill="white" opacity="0.6"></circle><polygon points="285,0 285,0 80,340 280,340" fill="url(#lg1)" opacity="0.28"></polygon><polygon points="285,0 285,0 125,340 235,340" fill="url(#lg1)" opacity="0.36"></polygon><polygon points="285,0 285,0 158,340 202,340" fill="url(#lg1)" opacity="0.5"></polygon><ellipse cx="285" cy="0" rx="28" ry="14" fill="url(#glow1)"></ellipse><circle cx="285" cy="0" r="4" fill="white" opacity="0.6"></circle><polygon points="355,0 355,0 235,340 475,340" fill="url(#lg2)" opacity="0.28"></polygon><polygon points="355,0 355,0 289,340 421,340" fill="url(#lg2)" opacity="0.36"></polygon><polygon points="355,0 355,0 328.6,340 381.4,340" fill="url(#lg2)" opacity="0.5"></polygon><ellipse cx="355" cy="0" rx="28" ry="14" fill="url(#glow2)"></ellipse><circle cx="355" cy="0" r="4" fill="white" opacity="0.6"></circle><polygon points="435,0 435,0 460,340 560,340" fill="url(#lg3)" opacity="0.28"></polygon><polygon points="435,0 435,0 482.5,340 537.5,340" fill="url(#lg3)" opacity="0.36"></polygon><polygon points="435,0 435,0 499,340 521,340" fill="url(#lg3)" opacity="0.5"></polygon><ellipse cx="435" cy="0" rx="28" ry="14" fill="url(#glow3)"></ellipse><circle cx="435" cy="0" r="4" fill="white" opacity="0.6"></circle><polygon points="505,0 505,0 510,340 710,340" fill="url(#lg4)" opacity="0.28"></polygon><polygon points="505,0 505,0 555,340 665,340" fill="url(#lg4)" opacity="0.36"></polygon><polygon points="505,0 505,0 588,340 632,340" fill="url(#lg4)" opacity="0.5"></polygon><ellipse cx="505" cy="0" rx="28" ry="14" fill="url(#glow4)"></ellipse><circle cx="505" cy="0" r="4" fill="white" opacity="0.6"></circle><polygon points="697,0 697,0 560,340 710,340" fill="url(#lg5)" opacity="0.28"></polygon><polygon points="697,0 697,0 593.75,340 676.25,340" fill="url(#lg5)" opacity="0.36"></polygon><polygon points="697,0 697,0 618.5,340 651.5,340" fill="url(#lg5)" opacity="0.5"></polygon><ellipse cx="697" cy="0" rx="28" ry="14" fill="url(#glow5)"></ellipse><circle cx="697" cy="0" r="4" fill="white" opacity="0.6"></circle><line x1="395" y1="0" x2="395" y2="40" stroke="url(#wire-grad)" stroke-width="2"></line><g transform="translate(322.5,40) scale(0.725)"><circle cx="100" cy="100" r="90" fill="#c8ccd8"></circle><g clip-path="url(#ball-clip)"><rect x="80.75" y="10.75" width="14.5" height="11.5" fill="rgb(130,140,165)" rx="1"></rect><rect x="98.25" y="10.75" width="14.5" height="11.5" fill="rgb(130,140,165)" rx="1"></rect><rect x="54.5" y="25.25" width="14.5" height="11.5" fill="rgb(175,182,200)" rx="1"></rect><rect x="72" y="25.25" width="14.5" height="11.5" fill="rgb(195,200,215)" rx="1"></rect><rect x="89.5" y="25.25" width="14.5" height="11.5" fill="rgb(215,218,228)" rx="1"></rect><rect x="107" y="25.25" width="14.5" height="11.5" fill="rgb(210,215,228)" rx="1"></rect><rect x="124.5" y="25.25" width="14.5" height="11.5" fill="rgb(148,158,180)" rx="1"></rect><rect x="142" y="25.25" width="14.5" height="11.5" fill="rgb(170,178,195)" rx="1"></rect><rect x="28.25" y="39.75" width="14.5" height="11.5" fill="rgb(195,200,215)" rx="1"></rect><rect x="45.75" y="39.75" width="14.5" height="11.5" fill="rgb(210,215,228)" rx="1"></rect><rect x="63.25" y="39.75" width="14.5" height="11.5" fill="rgb(170,178,195)" rx="1"></rect><rect x="80.75" y="39.75" width="14.5" height="11.5" fill="rgb(215,218,228)" rx="1"></rect><rect x="98.25" y="39.75" width="14.5" height="11.5" fill="rgb(175,182,200)" rx="1"></rect><rect x="115.75" y="39.75" width="14.5" height="11.5" fill="rgb(170,178,195)" rx="1"></rect><rect x="133.25" y="39.75" width="14.5" height="11.5" fill="rgb(130,140,165)" rx="1"></rect><rect x="150.75" y="39.75" width="14.5" height="11.5" fill="rgb(148,158,180)" rx="1"></rect><rect x="19.5" y="54.25" width="14.5" height="11.5" fill="rgb(195,200,215)" rx="1"></rect><rect x="37" y="54.25" width="14.5" height="11.5" fill="rgb(170,178,195)" rx="1"></rect><rect x="54.5" y="54.25" width="14.5" height="11.5" fill="rgb(240,242,248)" rx="1"></rect><rect x="72" y="54.25" width="14.5" height="11.5" fill="rgb(240,242,248)" rx="1"></rect><rect x="89.5" y="54.25" width="14.5" height="11.5" fill="rgb(240,242,248)" rx="1"></rect><rect x="107" y="54.25" width="14.5" height="11.5" fill="rgb(130,140,165)" rx="1"></rect><rect x="124.5" y="54.25" width="14.5" height="11.5" fill="rgb(148,158,180)" rx="1"></rect><rect x="142" y="54.25" width="14.5" height="11.5" fill="rgb(130,140,165)" rx="1"></rect><rect x="159.5" y="54.25" width="14.5" height="11.5" fill="rgb(130,140,165)" rx="1"></rect><rect x="10.75" y="68.75" width="14.5" height="11.5" fill="rgb(215,218,228)" rx="1"></rect><rect x="28.25" y="68.75" width="14.5" height="11.5" fill="rgb(200,205,220)" rx="1"></rect><rect x="45.75" y="68.75" width="14.5" height="11.5" fill="rgb(228,230,238)" rx="1"></rect><rect x="63.25" y="68.75" width="14.5" height="11.5" fill="rgb(240,242,248)" rx="1"></rect><rect x="80.75" y="68.75" width="14.5" height="11.5" fill="rgb(240,242,248)" rx="1"></rect><rect x="98.25" y="68.75" width="14.5" height="11.5" fill="rgb(175,182,200)" rx="1"></rect><rect x="115.75" y="68.75" width="14.5" height="11.5" fill="rgb(170,178,195)" rx="1"></rect><rect x="133.25" y="68.75" width="14.5" height="11.5" fill="rgb(215,218,228)" rx="1"></rect><rect x="150.75" y="68.75" width="14.5" height="11.5" fill="rgb(200,205,220)" rx="1"></rect><rect x="168.25" y="68.75" width="14.5" height="11.5" fill="rgb(130,140,165)" rx="1"></rect><rect x="19.5" y="83.25" width="14.5" height="11.5" fill="rgb(215,218,228)" rx="1"></rect><rect x="37" y="83.25" width="14.5" height="11.5" fill="rgb(215,218,228)" rx="1"></rect><rect x="54.5" y="83.25" width="14.5" height="11.5" fill="rgb(170,178,195)" rx="1"></rect><rect x="72" y="83.25" width="14.5" height="11.5" fill="rgb(130,140,165)" rx="1"></rect><rect x="89.5" y="83.25" width="14.5" height="11.5" fill="rgb(215,218,228)" rx="1"></rect><rect x="107" y="83.25" width="14.5" height="11.5" fill="rgb(215,218,228)" rx="1"></rect><rect x="124.5" y="83.25" width="14.5" height="11.5" fill="rgb(240,242,248)" rx="1"></rect><rect x="142" y="83.25" width="14.5" height="11.5" fill="rgb(148,158,180)" rx="1"></rect><rect x="159.5" y="83.25" width="14.5" height="11.5" fill="rgb(130,140,165)" rx="1"></rect><rect x="177" y="83.25" width="14.5" height="11.5" fill="rgb(130,140,165)" rx="1"></rect><rect x="10.75" y="97.75" width="14.5" height="11.5" fill="rgb(170,178,195)" rx="1"></rect><rect x="28.25" y="97.75" width="14.5" height="11.5" fill="rgb(240,242,248)" rx="1"></rect><rect x="45.75" y="97.75" width="14.5" height="11.5" fill="rgb(148,158,180)" rx="1"></rect><rect x="63.25" y="97.75" width="14.5" height="11.5" fill="rgb(215,218,228)" rx="1"></rect><rect x="80.75" y="97.75" width="14.5" height="11.5" fill="rgb(240,242,248)" rx="1"></rect><rect x="98.25" y="97.75" width="14.5" height="11.5" fill="rgb(148,158,180)" rx="1"></rect><rect x="115.75" y="97.75" width="14.5" height="11.5" fill="rgb(148,158,180)" rx="1"></rect><rect x="133.25" y="97.75" width="14.5" height="11.5" fill="rgb(130,140,165)" rx="1"></rect><rect x="150.75" y="97.75" width="14.5" height="11.5" fill="rgb(130,140,165)" rx="1"></rect><rect x="168.25" y="97.75" width="14.5" height="11.5" fill="rgb(210,215,228)" rx="1"></rect><rect x="19.5" y="112.25" width="14.5" height="11.5" fill="rgb(215,218,228)" rx="1"></rect><rect x="37" y="112.25" width="14.5" height="11.5" fill="rgb(175,182,200)" rx="1"></rect><rect x="54.5" y="112.25" width="14.5" height="11.5" fill="rgb(170,178,195)" rx="1"></rect><rect x="72" y="112.25" width="14.5" height="11.5" fill="rgb(215,218,228)" rx="1"></rect><rect x="89.5" y="112.25" width="14.5" height="11.5" fill="rgb(200,205,220)" rx="1"></rect><rect x="107" y="112.25" width="14.5" height="11.5" fill="rgb(148,158,180)" rx="1"></rect><rect x="124.5" y="112.25" width="14.5" height="11.5" fill="rgb(130,140,165)" rx="1"></rect><rect x="142" y="112.25" width="14.5" height="11.5" fill="rgb(228,230,238)" rx="1"></rect><rect x="159.5" y="112.25" width="14.5" height="11.5" fill="rgb(175,182,200)" rx="1"></rect><rect x="28.25" y="126.75" width="14.5" height="11.5" fill="rgb(130,140,165)" rx="1"></rect><rect x="45.75" y="126.75" width="14.5" height="11.5" fill="rgb(240,242,248)" rx="1"></rect><rect x="63.25" y="126.75" width="14.5" height="11.5" fill="rgb(228,230,238)" rx="1"></rect><rect x="80.75" y="126.75" width="14.5" height="11.5" fill="rgb(210,215,228)" rx="1"></rect><rect x="98.25" y="126.75" width="14.5" height="11.5" fill="rgb(210,215,228)" rx="1"></rect><rect x="115.75" y="126.75" width="14.5" height="11.5" fill="rgb(200,205,220)" rx="1"></rect><rect x="133.25" y="126.75" width="14.5" height="11.5" fill="rgb(195,200,215)" rx="1"></rect><rect x="150.75" y="126.75" width="14.5" height="11.5" fill="rgb(130,140,165)" rx="1"></rect><rect x="168.25" y="126.75" width="14.5" height="11.5" fill="rgb(200,205,220)" rx="1"></rect><rect x="37" y="141.25" width="14.5" height="11.5" fill="rgb(210,215,228)" rx="1"></rect><rect x="54.5" y="141.25" width="14.5" height="11.5" fill="rgb(170,178,195)" rx="1"></rect><rect x="72" y="141.25" width="14.5" height="11.5" fill="rgb(130,140,165)" rx="1"></rect><rect x="89.5" y="141.25" width="14.5" height="11.5" fill="rgb(240,242,248)" rx="1"></rect><rect x="107" y="141.25" width="14.5" height="11.5" fill="rgb(130,140,165)" rx="1"></rect><rect x="124.5" y="141.25" width="14.5" height="11.5" fill="rgb(130,140,165)" rx="1"></rect><rect x="142" y="141.25" width="14.5" height="11.5" fill="rgb(130,140,165)" rx="1"></rect><rect x="159.5" y="141.25" width="14.5" height="11.5" fill="rgb(195,200,215)" rx="1"></rect><rect x="45.75" y="155.75" width="14.5" height="11.5" fill="rgb(228,230,238)" rx="1"></rect><rect x="63.25" y="155.75" width="14.5" height="11.5" fill="rgb(240,242,248)" rx="1"></rect><rect x="80.75" y="155.75" width="14.5" height="11.5" fill="rgb(175,182,200)" rx="1"></rect><rect x="98.25" y="155.75" width="14.5" height="11.5" fill="rgb(200,205,220)" rx="1"></rect><rect x="115.75" y="155.75" width="14.5" height="11.5" fill="rgb(130,140,165)" rx="1"></rect><rect x="133.25" y="155.75" width="14.5" height="11.5" fill="rgb(130,140,165)" rx="1"></rect><rect x="150.75" y="155.75" width="14.5" height="11.5" fill="rgb(130,140,165)" rx="1"></rect><rect x="54.5" y="170.25" width="14.5" height="11.5" fill="rgb(210,215,228)" rx="1"></rect><rect x="72" y="170.25" width="14.5" height="11.5" fill="rgb(240,242,248)" rx="1"></rect><rect x="89.5" y="170.25" width="14.5" height="11.5" fill="rgb(195,200,215)" rx="1"></rect><rect x="107" y="170.25" width="14.5" height="11.5" fill="rgb(240,242,248)" rx="1"></rect><rect x="124.5" y="170.25" width="14.5" height="11.5" fill="rgb(130,140,165)" rx="1"></rect></g><circle cx="100" cy="100" r="90" fill="url(#ball-shadow)" clip-path="url(#ball-clip)"></circle><circle cx="100" cy="100" r="90" fill="url(#ball-hl)" clip-path="url(#ball-clip)"></circle><ellipse cx="100" cy="15" rx="7" ry="5" fill="url(#cap-grad)" stroke="rgba(100,100,115,0.4)" stroke-width="0.5"></ellipse></g><line x1="200" y1="368" x2="540" y2="368" stroke="url(#div-grad)" stroke-width="2"></line><path d="M296.99 253.07L296.99 250.38L296.99 245.20C296.99 242.51 296.90 241.17 296.80 239.92C296.51 238.19 295.74 236.85 294.59 235.70C293.34 234.74 291.81 234.06 289.89 233.87C288.16 233.68 287.01 233.58 282.78 233.58L271.65 233.58L268.86 233.58L267.04 233.58C264.35 233.58 263.78 233.39 263.20 232.82C262.72 232.34 262.53 231.47 262.53 230.22C262.53 228.02 263.20 227.25 265.22 227.06C266.46 227.06 268.29 226.96 271.65 226.96L296.90 226.96L296.90 216.11L265.22 216.11C260.90 216.11 259.74 216.11 258.11 216.30C256.19 216.59 254.56 217.26 253.41 218.22C252.16 219.28 251.39 220.82 251.20 222.45C251.10 223.41 251.01 224.66 251.01 226.19L251.01 227.73L251.01 232.91C251.01 235.60 251.01 236.94 251.20 238.19C251.49 239.92 252.16 241.36 253.41 242.42C254.56 243.38 256.19 244.05 258.11 244.24C259.84 244.43 260.90 244.53 265.22 244.53L276.35 244.53L279.04 244.53L280.96 244.53C284.61 244.53 285.47 245.10 285.47 247.79C285.47 249.04 285.28 249.81 284.80 250.29C284.42 250.67 283.74 250.96 282.78 251.06C281.82 251.06 281.54 251.15 279.04 251.15L276.35 251.15L251.01 251.15L251.01 262L282.78 262C287.01 262 288.26 262 289.89 261.81C291.71 261.62 293.34 260.94 294.59 259.89C295.74 258.83 296.51 257.49 296.80 255.66C296.90 254.90 296.99 254.03 296.99 253.07ZM328.58 226.96L328.58 216.11L316.96 216.11L316.96 208.91L305.54 208.91L305.54 262L316.96 262L316.96 226.96L328.58 226.96ZM380.61 262L380.61 231.66L380.51 227.73L380.51 225.04C380.51 220.62 379.26 218.42 376.38 217.17C374.27 216.30 372.93 216.11 366.40 216.11L362.37 216.11L334.62 216.11L334.62 226.96L359.87 226.96C361.89 226.96 362.85 227.06 364.48 227.06C366.40 227.15 366.98 227.15 367.65 227.34C368.80 227.73 369.09 228.50 369.09 231.76L369.09 233.58L352.86 233.58L348.83 233.58C344.13 233.58 343.55 233.58 341.73 233.78C339.90 234.06 338.27 234.64 337.12 235.70C335.39 237.14 334.72 239.15 334.72 242.51L334.72 245.10L334.62 246.06L334.62 249.14L334.72 250.38L334.72 253.07C334.72 257.30 335.97 259.70 338.85 260.94C340.86 261.81 342.30 262 348.83 262L352.86 262L380.61 262ZM369.09 251.15L355.36 251.15C353.34 251.15 352.19 251.06 350.75 251.06C348.83 250.96 348.16 250.96 347.58 250.77C346.72 250.48 346.14 249.52 346.14 248.37L346.14 247.22C346.14 246.06 346.62 245.10 347.58 244.82C348.16 244.62 348.83 244.43 350.75 244.43L355.36 244.43L369.09 244.43L369.09 251.15ZM434.66 264.59L434.66 216.11L407.01 216.11L402.98 216.11C398.66 216.11 397.50 216.11 395.87 216.30C393.95 216.59 392.32 217.26 391.17 218.22C389.54 219.66 388.77 221.68 388.77 225.04L388.77 227.73L388.77 231.66L388.77 246.45L388.77 250.38L388.77 253.07C388.77 257.49 390.02 259.70 392.90 260.94C395.01 261.81 396.35 262 402.98 262L407.01 262L423.14 262L423.14 262.96L423.14 264.50C423.14 267.66 422.85 268.53 421.70 268.82C421.02 269.10 420.45 269.20 418.53 269.20L413.92 269.20L388.77 269.20L388.77 280.14L416.42 280.14L420.45 280.14C424.67 280.14 425.82 280.05 427.55 279.86C429.38 279.66 431.01 278.99 432.16 278.03C433.89 276.50 434.56 274.58 434.56 271.22L434.56 268.53L434.66 264.59ZM423.14 251.15L409.41 251.15C407.49 251.15 406.24 251.06 404.80 251.06C402.88 250.96 402.30 250.96 401.63 250.77C400.48 250.38 400.19 249.62 400.19 246.35L400.19 244.82L400.19 241.74L400.19 236.37L400.19 233.30L400.19 231.76C400.19 228.50 400.48 227.73 401.63 227.34C402.30 227.15 402.88 227.15 404.80 227.06C406.43 227.06 407.49 226.96 409.41 226.96L423.14 226.96L423.14 251.15ZM488.90 262L488.90 251.15L463.74 251.15C461.82 251.15 460.58 251.06 459.14 251.06C457.22 250.96 456.64 250.96 455.97 250.77C454.82 250.38 454.53 249.52 454.53 246.35L454.53 244.43L488.90 244.43L488.90 231.66L488.90 227.73L488.80 225.04C488.61 220.62 487.55 218.42 484.67 217.17C482.56 216.30 481.22 216.11 474.69 216.11L470.66 216.11L461.34 216.11L457.31 216.11C452.99 216.11 451.84 216.11 450.21 216.30C448.29 216.59 446.66 217.26 445.50 218.22C443.87 219.66 443.10 221.68 443.10 225.04L443.10 227.73L443.10 231.66L443.10 246.45L443.10 250.38L443.10 253.07C443.10 257.49 444.35 259.70 447.23 260.94C449.34 261.81 450.69 262 457.31 262L461.34 262L488.90 262ZM477.38 233.49L454.53 233.49L454.53 231.76L454.53 231.18C454.53 228.78 454.91 227.73 455.97 227.34C456.64 227.15 457.22 227.15 459.14 227.06C460.77 227.06 461.82 226.96 463.74 226.96L468.16 226.96C474.98 226.96 476.03 227.06 476.70 227.82C477.18 228.40 477.38 229.36 477.38 231.76L477.38 233.49Z" fill="rgba(255,255,255,0.88)" stroke="rgba(255,255,255,0.88)" stroke-width="2.5" stroke-linejoin="round"></path><path d="M284.75 332.07L284.75 329.38L284.75 325.45L284.75 310.66L284.75 306.73L284.75 304.04C284.75 299.62 283.41 297.42 280.53 296.17C278.51 295.30 277.07 295.11 270.54 295.11L266.51 295.11L238.86 295.11L238.86 359.24L250.29 359.24L250.29 341L266.51 341L270.54 341C274.77 341 275.92 341 277.65 340.81C279.57 340.52 281.10 339.94 282.26 338.89C283.98 337.45 284.75 335.43 284.75 332.07ZM273.23 325.35C273.23 327.46 273.14 327.85 272.94 328.52C272.75 329.10 272.37 329.58 271.89 329.77C271.12 329.96 270.54 329.96 268.72 330.06C267.18 330.06 266.03 330.15 264.11 330.15L250.29 330.15L250.29 305.96L264.11 305.96C266.03 305.96 266.99 306.06 268.72 306.06C270.54 306.15 271.12 306.15 271.89 306.34C272.46 306.54 272.85 307.02 272.94 307.59C273.14 308.26 273.23 308.65 273.23 310.76L273.23 312.30L273.23 315.37L273.23 320.74L273.23 323.82L273.23 325.35ZM304.72 341L304.72 276.97L293.30 276.97L293.30 341L304.72 341ZM359.15 325.45L359.15 310.66L359.06 306.73L359.06 304.04C359.06 299.62 357.81 297.42 354.93 296.17C352.82 295.30 351.47 295.11 344.94 295.11L340.91 295.11L331.50 295.11L327.47 295.11C323.15 295.11 322 295.11 320.37 295.30C318.45 295.59 316.82 296.26 315.66 297.22C314.03 298.66 313.26 300.68 313.26 304.04L313.26 306.73L313.26 310.66L313.26 325.45L313.26 329.38L313.26 332.07C313.26 336.49 314.51 338.70 317.39 339.94C319.50 340.81 320.85 341 327.47 341L331.50 341L340.91 341L344.94 341C349.17 341 350.32 341 352.05 340.81C353.87 340.52 355.50 339.85 356.66 338.89C358.38 337.45 359.06 335.43 359.06 332.07L359.06 329.38L359.15 325.45ZM347.63 325.35C347.63 328.62 347.34 329.38 346.19 329.77C345.52 329.96 344.94 329.96 343.02 330.06C341.58 330.06 340.43 330.15 338.42 330.15L333.90 330.15C331.98 330.15 330.74 330.06 329.30 330.06C327.38 329.96 326.80 329.96 326.13 329.77C324.98 329.38 324.69 328.62 324.69 325.35L324.69 323.82L324.69 320.74L324.69 315.37L324.69 312.30L324.69 310.76C324.69 307.50 324.98 306.73 326.13 306.34C326.80 306.15 327.38 306.15 329.30 306.06C330.93 306.06 331.98 305.96 333.90 305.96L338.42 305.96C340.43 305.96 341.49 306.06 343.02 306.06C344.94 306.15 345.52 306.15 346.19 306.34C347.34 306.73 347.63 307.50 347.63 310.76L347.63 312.30L347.63 315.37L347.63 320.74L347.63 323.82L347.63 325.35ZM390.64 305.96L390.64 295.11L379.02 295.11L379.02 287.91L367.60 287.91L367.60 341L379.02 341L379.02 305.96L390.64 305.96ZM420.11 305.96L420.11 295.11L408.50 295.11L408.50 287.91L397.07 287.91L397.07 341L408.50 341L408.50 305.96L420.11 305.96ZM471.86 341L471.86 330.15L446.70 330.15C444.78 330.15 443.54 330.06 442.10 330.06C440.18 329.96 439.60 329.96 438.93 329.77C437.78 329.38 437.49 328.52 437.49 325.35L437.49 323.43L471.86 323.43L471.86 310.66L471.86 306.73L471.76 304.04C471.57 299.62 470.51 297.42 467.63 296.17C465.52 295.30 464.18 295.11 457.65 295.11L453.62 295.11L444.30 295.11L440.27 295.11C435.95 295.11 434.80 295.11 433.17 295.30C431.25 295.59 429.62 296.26 428.46 297.22C426.83 298.66 426.06 300.68 426.06 304.04L426.06 306.73L426.06 310.66L426.06 325.45L426.06 329.38L426.06 332.07C426.06 336.49 427.31 338.70 430.19 339.94C432.30 340.81 433.65 341 440.27 341L444.30 341L471.86 341ZM460.34 312.49L437.49 312.49L437.49 310.76L437.49 310.18C437.49 307.78 437.87 306.73 438.93 306.34C439.60 306.15 440.18 306.15 442.10 306.06C443.73 306.06 444.78 305.96 446.70 305.96L451.12 305.96C457.94 305.96 458.99 306.06 459.66 306.82C460.14 307.40 460.34 308.36 460.34 310.76L460.34 312.49ZM503.44 305.96L503.44 295.11L480.50 295.11L480.50 341L491.92 341L491.92 305.96L503.44 305.96Z" fill="rgba(255,255,255,0.88)" stroke="rgba(255,255,255,0.88)" stroke-width="2.5" stroke-linejoin="round"></path></svg>