<?xml version="1.0" encoding="UTF-8"?>
<svg id="Layer_1" xmlns="http://www.w3.org/2000/svg" version="1.1" viewBox="0 0 100 125">
  <!-- Generator: Adobe Illustrator 30.2.1, SVG Export Plug-In . SVG Version: 2.1.1 Build 1)  -->
  <path d="M49.89,66.77l-1.33,1.62-1.19-.97s.03-.03.05-.05l1.27-1.57,1.2.97Z"/>
  <path d="M51.68,64.58l-1.32,1.62-1.23-1.01c.02-.08.02-.16.02-.24-.01-.05-.02-.11-.04-.16l.02-.02.11-.15.03-.03c.06.01.12.02.17.01.17-.02.31-.1.42-.22l.63-.78,1.19.98Z"/>
  <path d="M53.96,69.61c-.87,1.06-2.5,1.15-3.65.21l-.95-.78,1.32-1.62,1.21.99c.17.14.42.13.56-.03.13-.16.08-.41-.09-.55l-1.21-.98,1.33-1.63.95.78c1.15.94,1.39,2.56.53,3.61Z"/>
  <path d="M48.72,65.17l-.32.39-1.27,1.57s-.04.04-.06.04c-.09.07-.21.06-.29-.01l-.06-.04-.09.11-.29-.24.05-.06-5.58-4.55h0s-.02-.05-.03-.07l-.09-.22s-.03-.08-.06-.18c-.01-.05-.03-.11-.04-.2h0c-.02-.11-.04-.24-.05-.39,0-.18-.02-.39-.02-.63,0-.7.1-1.35.24-1.92.03-.12.05-.22.09-.33,0-.02.01-.05.02-.07l1.25,1.02,6.25,5.11.05-.06.3.24-.09.1.09.08c.07.08.08.22,0,.31Z"/>
  <path d="M45.62,54.75c-.16.17-.32.35-.49.55-.19.23-.36.46-.5.68l-1.6-1.31c.1-.14.21-.29.33-.44.52.02.91.09,1.08.13.4.09.79.22,1.18.39Z"/>
  <path d="M62.87,71.95h-.05c-.32-.04-.57-.15-.73-.23l-.23-.17h0c.06-.38.07-.74.03-1.11-.06-.67-.27-1.29-.61-1.84l.85.7.62.5c.06.04.18.12.37.14.08.5.07,1.2-.25,2.01Z"/>
  <path d="M74.43,76.01c-.02,1.5-.51,2.58-.61,2.8-.43.9-.95,1.46-1.56,2.12-.41.43-1.06,1.11-2.12,1.77-.14.09-.28.17-.41.24-.08.05-.17.1-.26.14-.93.48-1.67.66-1.86.71-.56.13-1.07.2-1.5.22-.09,0-.17,0-.25,0-.16.01-.3.01-.43.01-.36,0-.98-.01-1.77-.15l-.68-.52h-.02s-6.7-5.22-6.7-5.22c.37.03.71.04,1.01.03.27.02.54.04.81.04.08,0,.17,0,.25,0,.19,0,.37-.01.55-.04l.91.74c.21.16.52.37.9.6.43.27,1.03.64,1.81.95,1.15.43,2.09.5,2.3.51.58.03,1.38.08,2.34-.24.96-.32,1.57-.86,2.03-1.27.27-.23.55-.48.81-.77.12-.14.24-.29.34-.45.12-.18.22-.37.32-.58.13-.29.51-1.2.35-2.37-.14-.93-.55-1.55-.92-2.15-.08-.12-.15-.23-.24-.34-.07-.1-.14-.19-.21-.28-.17-.21-.33-.39-.48-.54l-.19-.19c-.06-.06-.12-.11-.17-.16l-.3-.23-2.52-1.96-.46-.36-1.69-1.32-8.19-6.37.3-.37h0s.09-.12.09-.12l-.8-.65-.1.12h-.01s-.3.39-.3.39l-.88-.68-.14-.12c-1.14-.91-2.3-1.83-3.45-2.73-.88-.68-1.76-1.35-2.61-2-.24-.2-.48-.39-.74-.56l-.05-.03-3.13-2.44c.05-.08.1-.17.14-.25.04-.07.07-.13.11-.19.03-.05.05-.09.08-.14.06-.11.13-.23.2-.34.18-.32.37-.65.59-1.01.06-.1.13-.21.18-.3.07-.11.14-.22.2-.32.07-.11.13-.22.2-.32.08-.14.17-.27.25-.4.09-.15.18-.29.27-.43l8.84,7.22,3.49,2.85,3.68,3.01.07.05,8.61,7.03.29.24c.13.11.25.22.36.34l.21.21c.07.06.14.13.2.21.13.14.25.27.36.41.03.03.06.06.08.09.06.07.12.14.17.22.12.15.22.29.31.42.97,1.39,1.34,2.66,1.42,2.93.13.49.33,1.25.31,2.29Z"/>
  <path d="M41.27,51.52c-.09.15-.18.31-.27.47-.13.23-.26.47-.39.71l-.46-.38-.04-.03.12-.16-.13-.11.1-.13c.42-.2.79-.3,1.07-.37Z"/>
  <path d="M45.91,54.46h0c-.41-.19-.87-.36-1.38-.47-.1-.02-.41-.08-.87-.12-.22-.02-.47-.03-.74-.03.07-.13.14-.25.2-.37.16-.29.31-.57.45-.83l.7.54.68.52h.01s.96.76.96.76Z"/>
  <path d="M65.56,72.13c-.29,1.18-.87,1.95-1.34,2.55-.46.59-1.64,2.06-3.77,2.77-.51.17-1,.27-1.46.32-.18.03-.35.04-.52.05h0c-.2,0-.4,0-.58,0h-.01c-.2,0-.39-.01-.56-.03-.61.01-1.16-.03-1.63-.1l-.11-.08h.05c.43,0,.85-.06,1.26-.19h.01c.12-.03.23-.07.34-.12.13-.05.26-.1.38-.18.12-.05.24-.12.35-.19.35-.22.68-.5.96-.83.03-.03.06-.07.09-.1l.33-.41h0c.37-.12.64-.25.8-.32.56-.27,1.72-.82,2.54-2.11.11-.16.38-.6.59-1.2.19-.55.33-1.26.21-2.04,0-.04,0-.09-.01-.13-.03-.18-.15-.83-.58-1.56-.35-.58-.75-.98-1.03-1.22-1.23-1-2.47-2-3.7-3l4.91,3.81,2.12,1.65.46.36c.09.62.12,1.41-.1,2.3Z"/>
  <path d="M88.14,77.4c.18,3.39-1.19,7.38-4.01,10.83-3,3.68-6.93,5.86-10.47,6.17h0c-1.47.14-2.68.15-3.58.12-1.33-.04-2.08-.16-2.27-.19-1.04-.17-1.8-.41-2.26-.55-1.11-.35-1.95-.72-2.43-.97-.42-.2-.93-.45-1.55-.85.11.01.24.02.39.02.12,0,.24-.01.37-.02.34-.02.8-.08,1.29-.34.39-.18.63-.39.95-.7.37-.32.6-.62.74-.8.16-.22.36-.51.55-.96.1-.23.23-.55.27-.97.01-.02.09-.54-.1-1.26-.09-.35-.23-.67-.42-.99l-.15-.21c3.84,2.25,8.75,1.55,11.52-1.85,3.08-3.77,2.4-9.42-1.5-12.68h.01s-.1-.09-.1-.09c-.04-.03-.09-.07-.14-.1l-3.66-2.82-.08-.06-.3-.23c-1.36-1.07-3.37-2.59-5.83-4.39-.48-.35-.95-.69-1.39-1.01l-4.11-3.36-.03-.02-13.54-11.05c.19-.3.39-.61.61-.95l.98-1.53c.91-1.41,1.39-2.18,1.82-2.86.44-.7.81-1.29,1.53-2.4.53-.83,1.13-1.75,1.79-2.75.07-.1.14-.21.22-.32h.01c2.02,1.86,2.57,2.4,7.32,6.91,4.75,4.5,4.04,3.8,6.71,6.33,2.74,2.62,3.79,3.64,5.85,5.54,1.87,1.72,3.43,3.12,4.46,4.02.09.08.19.17.28.25.03.03.06.05.08.07,1.08.97,2.08,1.86,2.97,2.65.77.71,1.38,1.27,2.15,2.1.43.47.86.93,1.35,1.59,1.07,1.41,1.66,2.66,2,3.39.25.53.68,1.48,1.05,2.78.29,1.02.61,2.47.65,4.23,0,.1,0,.19,0,.28Z"/>
  <path d="M51.39,35.57c-.07.11-.14.22-.21.32-.68,1.02-1.34,2.02-1.98,3-1.11,1.67-1.26,1.91-1.83,2.82-.46.75-1.21,1.95-3.02,4.77l-12.4-10.13h-.01c-2.09-1.71-4.74-2.51-7.45-2.25-.4.04-.79.1-1.17.19-.2.04-.41.09-.61.16-1.36-.55-2.07-.82-2.56-.97-.91-.26-1.67-.36-2.05-.4-.44-.04-1.27-.11-2.28.03-.39.05-.84.17-1.11.23-.45.1-.81.2-1.08.28-3.07,2.4-4.14,2.63-4.51,2.32-1.29-1.09,4.29-10.25,10-17.24,6.87-8.41,13.55-14.35,14.89-13.25.58.47.09,2.13-1.18,4.54.09.08-.15.41-.24,1.36-.05.59-.01,1.06.02,1.34.09.96.33,1.65.54,2.29.29.84.59,1.44.8,1.85.19.39.64,1.26,1.4,2.31.43.63.8,1.09,1.61,2.02,1.11,1.31,1.79,2.09,2.92,3.32.78.83,1.8,1.91,3.09,3.21.91.92,2.4,2.4,6.03,5.72,1.25,1.14,1.83,1.66,2.39,2.16Z"/>
  <path d="M63.42,87.95h0c-.22.4-.44.64-.56.76-.13.13-.23.24-.32.33-.14.12-.26.19-.42.23-.15.04-.29.03-.41,0-.08-.01-.14-.03-.2-.05l-.25-.2-10.07-8.11,1.56-1.91,9.67,7.72.44.35.39.31s.1.13.14.26c.05.15.03.28.03.32Z"/>
  <path d="M44.08,46.9c-.08.14-.17.28-.27.43-.12.18-.24.37-.36.57-.07.1-.14.21-.21.32-.05.08-.11.17-.16.25,0,0-.01.02-.04.07-.12.18-.48.76-1,1.64-.08.14-.17.28-.25.44l-6.7-5.21-6.05-4.71h0c-2.33-1.91-5.81-1.55-7.72.79l-1.5,1.83c-1.91,2.34-1.56,5.82.78,7.74l1.31,1.07,5,3.88,1,.77,1.25.97c0,.14.07.28.18.37l.12.09c.13.11.29.14.44.11l1.49,1.16c-.11.17-.14.36-.11.54.02.13.08.26.16.37l-.13.15,1.1.91.11-.14.14.11.12-.15,2.87,2.34-.16.2s-.06.07-.14.08h-.02c-.06,0-.11-.03-.12-.03l-2.53-2.08c-1.26-.99-3.14-.74-4.19.57-.3.39-.52.84-.62,1.31-.04.19-.06.38-.07.58l-9.43-7.77c-.86-.74-1.52-1.44-1.99-2.01-.42-.49-.89-1.08-1.37-1.92-.36-.62-.63-1.21-.81-1.74-.05-.14-.11-.29-.16-.43-.04-.1-.07-.2-.1-.3-.95-3.01-.42-6.44,1.71-9.06l2.38-2.9c1.31-1.6,3.01-2.67,4.86-3.19.2-.06.4-.11.61-.15.17-.04.35-.07.53-.1.17-.03.34-.05.52-.07,2.47-.24,5.03.45,7.09,2.13.12.11.26.22.38.33h.01s12.06,9.84,12.06,9.84Z"/>
  <path d="M38.99,68.02s-.04,0-.11-.02c-.06-.02-.11-.03-.15-.04-.07,0-.13-.02-.19-.04-.21-.05-.43-.2-.61-.45-.2-.29-.33-.73-.14-1.15.11-.21.24-.29.34-.36.07-.04.11-.07.17-.15,0-.01.01-.01.01-.02l-.7-.56-.52.64c-.41.34-.82.55-1.26.63-.66.15-1.2-.01-1.59-.12-.47-.15-.85-.34-1.2-.58l-2.15-1.73s-.1-.04-.13-.04-.08.01-.12.06c-.03.04-.05.1-.04.15,0,.03.01.08.06.12l1.91,1.55,17.82,14.35,1.55-1.91-12.95-10.33Z"/>
  <path d="M65.76,88.13c-.05.41-.17.69-.26.92-.18.4-.37.67-.51.85-.06.08-.28.39-.68.74-.3.29-.51.48-.85.64-.48.24-.91.29-1.17.31-.41.04-.73-.01-.91-.04-.15-.02-.33-.04-.54-.1-.07-.02-.14-.04-.22-.07-.06-.02-.12-.05-.19-.08-.17-.08-.3-.16-.56-.33-.32-.19-.58-.39-.79-.55l-12.4-9.98-.39-.32-17.1-13.76-.1-.09c-.31-.25-.54-.55-.69-.88-.13-.27-.2-.55-.23-.84-.01-.21-.01-.41.02-.62.07-.47.27-.94.59-1.34.93-1.16,2.56-1.38,3.66-.51l2.45,2s.21.21.49.18c.23-.03.36-.18.38-.2l.17-.21.29.24.81.66.29.24-.52.64c-.2.16-.55.41-1.04.51-.61.13-1.11-.03-1.48-.14-.25-.08-.62-.23-1.03-.51l-.21-.17-1.91-1.54c-.24-.2-.59-.16-.78.08-.2.23-.17.59.07.79l.09.07,1.83,1.48,17.82,14.34-.24.29-.04.05.79.65.05-.06.23-.29,9.45,7.61.63.51.29.24s.07.03.12.05c.15.05.35.1.59.07.06,0,.12-.01.18-.02.37-.09.6-.33.93-.67.17-.17.39-.45.6-.82.04-.1.1-.33.02-.61,0-.01-.01-.02-.01-.03-.06-.19-.16-.33-.23-.4l-.03-.03-.4-.31-.44-.35-9.67-7.71.24-.29.04-.05-.8-.65-.05.06-.23.29-12.52-9.98-.44-.36s-.13-.06-.22-.09c-.09-.03-.15-.04-.21-.05-.05,0-.09-.01-.13-.03-.26-.05-.41-.28-.43-.32-.14-.2-.22-.51-.1-.76.11-.22.28-.17.47-.44l.29.23,4.53,3.7-.05.06.87.72.14-.17c.14.03.29,0,.41-.07.07-.03.13-.09.18-.15l.09-.11,2.49,2.04.58.47,4.73,3.86c.27.22.56.41.86.55h0c.05.03.1.05.15.07.01.01.02.01.03.02.19.08.38.14.57.19.05.02.09.03.13.03h.01c.07.03.14.04.2.05l.65.52h0l4.88,3.9.1.07,1.95,1.57h0s.01.01.01.01l.7.56.82.65.77.62s.04.04.07.07c.1.1.21.23.33.39.06.08.12.16.18.26.25.42.34.78.37.88.15.57.11,1.01.1,1.1Z"/>
  <path d="M61.52,71.28c-.08.76-.37,1.5-.88,2.13l-1.5,1.85h-.01l-.41.51c-.14.17-.29.32-.45.46-.19.18-.4.33-.62.45-.11.07-.23.13-.35.19-.13.05-.26.11-.4.15h-.01c-.57.2-1.19.25-1.79.18,0,0-.02-.01-.03-.01-.02,0-.04-.01-.05-.01h.01s-.04,0-.06,0c-.11-.02-.21-.04-.32-.07-.22-.05-.43-.12-.63-.21h-.01c-.13-.06-.25-.12-.37-.19-.07-.04-.14-.08-.21-.13-.05-.03-.09-.06-.13-.09-.05-.03-.1-.07-.14-.11-.02-.01-.04-.02-.06-.04l-.37-.3-3.87-3.16-.49-.41h-.01l-.28-.23-.29-.24-1.07-.87-1.43-1.17h.01s-.29-.24-.29-.24h-.01l-.29-.24-.37-.3-3.16-2.58c-.18-.13-.4-.32-.66-.56-.08-.08-.17-.17-.27-.27-.04-.04-.08-.09-.12-.14,0,0-.01-.01-.02-.01t-.02-.02c-.13-.14-.27-.31-.39-.49-.09-.1-.16-.21-.23-.32-.08-.1-.15-.21-.21-.32-.26-.42-.5-.9-.68-1.44-.04-.12-.08-.24-.1-.35-.04-.12-.07-.24-.09-.36-.03-.13-.06-.25-.07-.38-.02-.07-.03-.13-.03-.2-.02-.07-.02-.13-.02-.2-.02-.11-.03-.22-.03-.33-.01-.12-.02-.24-.02-.36h0v-.02h0v-.11c0-.15,0-.3.01-.45,0-.02,0-.04.01-.06,0-.14.01-.27.03-.4.01-.25.04-.48.07-.69.09-.66.23-1.25.49-1.93.03-.12.08-.24.13-.37.05-.11.09-.23.15-.35h0c.05-.12.1-.23.15-.35.05-.11.11-.23.16-.35.1-.2.2-.4.31-.62.1-.2.21-.41.32-.63.1-.18.19-.36.3-.56.02-.03.04-.07.06-.11.04-.08.09-.16.13-.24.06-.12.12-.23.18-.34.06-.11.13-.22.19-.33.2-.38.41-.74.6-1.08.08-.15.16-.29.24-.43.03-.05.05-.09.08-.14.05-.09.1-.18.15-.26.04-.06.07-.12.11-.18.08-.15.17-.29.25-.43.51-.88.88-1.47,1.01-1.67.03-.05.05-.08.05-.08.05-.08.1-.16.15-.24.07-.11.14-.22.21-.32.12-.19.23-.37.34-.54.1-.15.19-.29.28-.43.09-.15.19-.29.27-.43,4.02-6.29,2.85-4.57,4.86-7.62.57-.87,1.22-1.86,1.95-2.95.06-.1.13-.2.21-.31.06-.1.14-.21.21-.32.87-1.31,1.85-2.76,2.9-4.31-.02-.18,0-.44.17-.61.03-.04.07-.07.11-.08.03-.02.06-.04.09-.04.06-.03.11-.05.15-.11.04-.05.07-.1.08-.19h.01s0-.02,0-.02c-.08-.22-.14-.45-.14-.7,0-.01-.01-.01-.01-.01.01-.01,0-.02,0-.02-.01-.64.19-1.35.65-1.99.05-.06.09-.13.15-.2-.17-.44-.17-.88.05-1.19.5-.68,1.84-.54,3.01.3l.06.05c1.12.83,1.64,2.02,1.17,2.7-.19.27-.52.41-.94.44-.05.1-.12.18-.18.28-.47.64-1.08,1.07-1.7,1.25h-.02c-.18.06-.37.09-.54.09,0,.01-.02.01-.02.01-.1.05-.16.1-.19.16-.05.09-.03.18-.04.28.01.07.01.13-.02.2-.08.22-.3.35-.48.43-1.12,1.63-2.14,3.13-3.02,4.46-.07.1-.14.21-.2.31-.08.11-.15.21-.21.32-.71,1.07-1.33,2.02-1.83,2.81-1.41,2.17-1.5,2.37-3.36,5.26-.66,1.03-1.14,1.77-1.56,2.44-.1.14-.19.28-.27.42-.1.14-.19.29-.28.43-.09.14-.17.28-.26.43-.07.1-.13.21-.2.32-.06.1-.13.2-.19.31-.07.1-.13.21-.2.32-.24.4-.45.76-.65,1.11-.07.12-.14.23-.2.35-.07.11-.13.23-.19.34-.02.03-.04.07-.06.1-.08.14-.16.29-.25.44-.18.33-.37.68-.58,1.07-.06.12-.13.25-.2.38-.05.08-.09.17-.14.26-.02.04-.04.08-.07.13-.02.05-.05.1-.08.15-.01.02-.02.04-.03.06-.07.12-.12.23-.18.33-.51.95-.8,1.56-1.05,2.22-.05.12-.09.24-.14.37,0,.02,0,.05-.02.07-.03.09-.07.19-.1.29v.02c-.03.08-.06.16-.09.24-.01.04-.02.08-.04.12,0,.03,0,.05-.02.07-.02.11-.05.21-.08.32h0c-.17.66-.3,1.39-.3,2.19,0,.26.01.48.03.67.02.23.05.41.08.56.04.14.07.25.1.31,0,.01,0,.04.01.06,0,0,.04.11.12.27,0,.01.01.02.02.03h.01v.02c.11.24.3.59.6.94l.02.02c.13.17.26.31.44.45l4.73,3.87h.01s.36.3.36.3l1.23,1.01-.23.28-.09.11.24.19.56.46.08-.1.24-.29.5.41.3.24.29.24.49.4,3.86,3.15s.01.01.02.01c.34.27.74.43,1.16.47.72.08,1.46-.19,1.95-.79l1.33-1.64c.77-.94.62-2.35-.32-3.12l-5.44-4.44.24-.29.08-.1-.79-.65-.09.1-.23.29-1.19-.97.23-.29.37-.45c.14-.17.17-.4.08-.61l.15-.18-.59-.47-.34-.18-4.56-3.72h0l-.02-.02-.7-.58c.09.01.17.03.23.04.42.08.73.24,1.03.4.29.15.52.32.95.61.2.14.37.26.48.34l5.31,4.33-.08.1.8.65.08-.09,5.81,4.74c.25.21.47.44.66.69.61.81.88,1.83.78,2.81Z"/>
  <path d="M51.17,62.18l-.37.45-.24.29-.23.29-.13.16-.63.77c-.09.11-.25.12-.35.03l-.06-.04-.09.11-.29-.24.05-.06-6.25-5.11-1.42-1.16-.06-.05s.01-.04.02-.06c.04-.11.07-.21.12-.31.25-.7.55-1.31,1.04-2.23.05-.1.11-.21.18-.33l.35.29,1.61,1.31s-.02.03-.03.04h.06s.41.32.41.32l.46.38,5.49,4.48.06-.06.29.24-.08.1.05.04c.1.08.12.25.04.35Z"/>
  <path d="M44.77,70.01l-.09.11c-.07.09-.18.11-.27.08-.03-.02-.05-.03-.07-.05l-.06-.04-.09.11-.29-.24.05-.06-1.38-1.13-.08-.06-3.43-2.8h0s-.31-.25-.31-.25l-.3-.25-.6-.49-.29-.24-1.4-1.14-.29-.23-3.15-2.58-.12.14-.14-.11-.08.1-.03.04-.52-.43.02-.02.09-.11-.15-.12c-.16-.14-.2-.35-.11-.53.01-.03.03-.06.05-.09l.25-.31.27-.33-1.77-1.45-.29.36s-.01,0-.02.02c-.08.07-.19.07-.28.01-.05.05-.14.06-.2,0l-.12-.09s-.06-.13-.03-.19c-.08-.07-.1-.17-.05-.26,0-.01.01-.03.02-.04l1.2-1.48c.08-.09.22-.11.31-.04.06-.04.14-.03.19,0l.11.1c.06.04.08.13.05.19.08.08.1.21.02.31l-.29.35,1.77,1.45.53-.65c.11-.13.29-.19.45-.15.06.02.12.05.17.09l.15.12.1-.13.11-.14-.14-.11s-.09-.09-.12-.15c-.08-.15-.06-.33.05-.47l.53-.64-1.78-1.45-.29.36c-.07.09-.2.09-.3.03-.05.05-.13.05-.2,0l-.12-.1s-.06-.12-.03-.19c-.09-.07-.1-.2-.03-.29l1.21-1.48c.07-.09.21-.11.3-.04.06-.04.14-.04.19,0l.12.1s.08.13.04.19c.08.08.1.21.02.31l-.29.35,1.78,1.45.53-.65c.11-.13.28-.19.44-.15.06.02.12.05.17.09l.15.12.1-.13.11-.14-.14-.12c-.06-.04-.1-.09-.12-.15-.07-.15-.05-.32.06-.46l.52-.64-1.78-1.45-.29.36c-.07.09-.2.09-.3.03-.05.04-.13.05-.2,0l-.12-.1s-.06-.12-.02-.19c-.1-.07-.11-.2-.03-.3l1.2-1.47c.07-.09.21-.11.3-.04.06-.04.14-.04.19,0l.12.1s.08.12.04.19c.09.08.1.21.03.3l-.3.36,1.78,1.45.53-.65c.15-.18.42-.22.61-.06l.15.12.1-.13.36.29.17.14-.11.12.09.08.05.04-.13.15.21.17.63.52c-.06.11-.12.22-.18.33-.05.11-.11.21-.17.32-.1.19-.2.38-.3.56-.12.23-.23.45-.34.66h0c-.11.23-.21.43-.31.62-.03.07-.06.13-.08.19h0c-.03.06-.06.12-.07.17l-.05-.05-.3-.23-.28-.24-.59-.47-.15-.13-.12.15h-.01s-.12-.11-.12-.11l-.12.14-.1.12.13.11h.01s-.13.16-.13.16l.15.13.56.45.29.24.29.24.23.18c-.06.13-.1.25-.14.37-.3.76-.45,1.41-.55,2.13,0,.05-.02.11-.02.17v.02c-.01.09-.03.16-.04.26,0,.14-.03.29-.04.45l-.16-.13-.49-.39h0s-1.59-1.31-1.59-1.31l-.32-.26h.01s-.03-.04-.03-.04c0,.01,0,.02,0,.02l-.12-.1-.12.14-.12-.09h0s-.02-.02-.02-.02l-.11.14-.1.13.13.11-.12.15.16.13.38.31.45.37,2.08,1.69v.02s.08.05.08.05c0,0,0,.03,0,.05,0,.14.01.3.02.46.02.21.04.43.09.66,0,.12.04.25.07.37.03.12.06.24.1.36h0c.02.13.06.24.1.36.19.57.44,1.09.73,1.54-.01-.01-.01,0-.02.02l.06.04c.04.09.1.18.16.26.07.1.14.21.22.3.2.28.42.53.64.75.24.26.48.47.7.66.08.06.15.12.22.17l.09.07.08.07,2,1.63,1.12.92.24.2.3.23Z"/>
  <polygon points="52.91 78.4 52.78 78.55 52.55 78.84 51 80.74 50.76 81.03 50.64 81.18 50.23 80.85 50.35 80.7 50.59 80.41 52.14 78.51 52.37 78.23 52.5 78.07 52.91 78.4"/>
  <polygon points="52.81 64.42 52.65 64.62 52.41 64.91 52.28 65.06 50.96 66.69 50.49 67.26 49.16 68.88 48.75 69.39 48.51 69.69 48.5 69.69 48.34 69.89 47.98 69.59 47.94 69.56 48.1 69.36 48.34 69.07 48.76 68.55 50.08 66.93 50.55 66.36 51.88 64.73 52 64.58 52.24 64.29 52.4 64.09 52.81 64.42"/>
  <polygon points="55.67 60.92 55.42 61.23 55.38 61.27 55.15 61.56 55.1 61.61 54.91 61.85 54.31 62.58 54.15 62.78 53.74 62.45 53.9 62.25 54.5 61.52 54.69 61.29 54.74 61.22 54.98 60.94 55 60.9 55.26 60.59 55.67 60.92"/>
  <text/>
  <text/>
</svg>