<svg xmlns:dc="http://purl.org/dc/elements/1.1/" xmlns:cc="http://creativecommons.org/ns#" xmlns:rdf="http://www.w3.org/1999/02/22-rdf-syntax-ns#" xmlns:svg="http://www.w3.org/2000/svg" xmlns="http://www.w3.org/2000/svg" xmlns:sodipodi="http://sodipodi.sourceforge.net/DTD/sodipodi-0.dtd" xmlns:inkscape="http://www.inkscape.org/namespaces/inkscape" viewBox="0 0 26.458334 33.07291625" version="1.1" x="0px" y="0px"><g transform="translate(0,-270.54168)"><path style="display:inline;opacity:1;fill:#000000;fill-opacity:1;stroke:none;stroke-width:1.82567573;stroke-linecap:round;stroke-linejoin:round;stroke-miterlimit:4;stroke-dasharray:none;stroke-opacity:1;paint-order:stroke markers fill" d="m 6.6112756,271.4943 c -0.3591953,0.22745 -0.465249,0.69973 -0.2377938,1.05893 l 3.9348612,6.21382 c 0.0086,0.0626 0.02555,0.11919 0.05387,0.16714 l 10.466743,16.52879 c 0.597072,0.94288 2.166248,1.16682 3.091811,0.54328 l 0.641363,-0.43197 c 0.925563,-0.62356 1.440627,-2.06681 0.860934,-3.02047 l -8.202649,-13.4945 c 0,0 -0.828632,-1.29528 -0.926257,-2.0338 -0.05652,-0.42761 0.128552,-1.16851 0.227212,-1.52034 0.03402,-0.12135 1.092692,-0.14252 0.942906,-0.45828 -0.268471,-0.56598 -5.064841,-0.5692 -5.503911,-0.0283 l -0.06478,0.0802 c -0.136876,0.1686 0.923735,0.432 1.005825,0.65238 0,0 0.620174,2.47246 1.519862,4.08067 0.376873,0.67367 0.837004,1.43703 1.338487,2.24057 a 1.4884347,1.1318308 57.65623 0 1 0.403362,-0.53077 1.4884347,1.1318308 57.65623 0 1 1.748018,0.68001 1.4884347,1.1318308 57.65623 0 1 -0.182853,1.85219 1.4884347,1.1318308 57.65623 0 1 -0.60726,0.12225 c 0.180112,0.27462 0.360282,0.54908 0.543703,0.82492 a 1.4884347,1.1318308 57.65623 0 1 0.389624,-0.49282 1.4884347,1.1318308 57.65623 0 1 1.748017,0.68001 1.4884347,1.1318308 57.65623 0 1 -0.18285,1.85218 1.4884347,1.1318308 57.65623 0 1 -0.491599,0.12963 c 0.187279,0.27397 0.372026,0.54247 0.554883,0.80764 a 1.4884347,1.1318308 57.65623 0 1 0.319653,-0.33526 1.4884347,1.1318308 57.65623 0 1 1.748022,0.67999 1.4884347,1.1318308 57.65623 0 1 -0.182978,1.85198 1.4884347,1.1318308 57.65623 0 1 -0.277086,0.10933 c 0.258868,0.36749 0.493389,0.69865 0.711103,1.00507 a 1.2868759,0.99228998 57.65623 0 1 0.299854,-0.33068 1.2868759,0.99228998 57.65623 0 1 1.522477,0.58068 1.2868759,0.99228998 57.65623 0 1 -0.169875,1.60865 1.2868759,0.99228998 57.65623 0 1 -0.316577,0.10794 c 0.06857,0.30473 -0.0618,0.63524 -0.342459,0.81297 -0.359197,0.22745 -0.831485,0.1214 -1.058957,-0.23772 l -1.030545,-1.6274 a 0.85274916,0.65119022 57.65623 0 1 -0.449483,0.0133 0.85274916,0.65119022 57.65623 0 1 -0.665707,-1.0006 l 0.26207,0.0876 a 0.72871294,0.43412681 57.65623 0 0 0.543353,0.71728 0.72871294,0.43412681 57.65623 0 0 0.504312,-0.34715 0.72871294,0.43412681 57.65623 0 0 -0.557911,-0.86221 0.72871294,0.43412681 57.65623 0 0 -0.511609,0.33562 l 0.534902,0.26733 -0.53435,-0.25122 a 0.72871294,0.43412681 57.65623 0 0 0.01813,0.12591 l -0.257484,-0.0933 a 0.85274916,0.65119022 57.65623 0 1 0.206012,-0.42596 l -0.500506,-0.79048 a 0.85274916,0.65119022 57.65623 0 1 -0.53002,0.06 0.85274916,0.65119022 57.65623 0 1 -0.665706,-1.00061 l 0.228282,0.0763 a 0.72871294,0.43412681 57.65623 0 0 0.553,0.76257 0.72871294,0.43412681 57.65623 0 0 0.504161,-0.34739 0.72871294,0.43412681 57.65623 0 0 -0.557909,-0.86221 0.72871294,0.43412681 57.65623 0 0 -0.511608,0.33561 l 0.534897,0.26732 -0.534014,-0.25114 a 0.72871294,0.43412681 57.65623 0 0 0.0091,0.0803 l -0.224497,-0.0815 a 0.85274916,0.65119022 57.65623 0 1 0.260494,-0.46501 0.85274916,0.65119022 57.65623 0 1 0.148205,-0.0611 l -0.427897,-0.6757 a 0.85274916,0.65119022 57.65623 0 1 -0.627138,0.15271 0.85274916,0.65119022 57.65623 0 1 -0.66558,-1.00039 l 0.27858,0.093 a 0.72871294,0.43412681 57.65623 0 0 0.539856,0.70191 0.72871294,0.43412681 57.65623 0 0 0.504309,-0.34714 0.72871294,0.43412681 57.65623 0 0 -0.558037,-0.8624 0.72871294,0.43412681 57.65623 0 0 -0.511485,0.3358 l 0.534902,0.26733 -0.534351,-0.25121 a 0.72871294,0.43412681 57.65623 0 0 0.02168,0.14183 l -0.274042,-0.0994 a 0.85274916,0.65119022 57.65623 0 1 0.260365,-0.46521 0.85274916,0.65119022 57.65623 0 1 0.14822,-0.061 l -0.351557,-0.55513 a 0.85274916,0.65119022 57.65623 0 1 -0.646611,0.17981 0.85274916,0.65119022 57.65623 0 1 -0.665573,-1.0004 l 0.220359,0.0737 a 0.72871294,0.43412681 57.65623 0 0 0.55186,0.75451 0.72871294,0.43412681 57.65623 0 0 0.504186,-0.34736 0.72871294,0.43412681 57.65623 0 0 -0.557913,-0.86221 0.72871294,0.43412681 57.65623 0 0 -0.511607,0.33563 l 0.534897,0.26733 -0.534018,-0.25113 a 0.72871294,0.43412681 57.65623 0 0 0.0103,0.0881 l -0.216655,-0.0785 a 0.85274916,0.65119022 57.65623 0 1 0.260165,-0.46506 0.85274916,0.65119022 57.65623 0 1 0.180972,-0.0675 l -0.391074,-0.61757 a 0.85274916,0.65119022 57.65623 0 1 -0.646607,0.17983 0.85274916,0.65119022 57.65623 0 1 -0.665705,-1.00061 l 0.289074,0.0965 a 0.72871294,0.43412681 57.65623 0 0 0.5384,0.696 0.72871294,0.43412681 57.65623 0 0 0.504312,-0.34713 0.72871294,0.43412681 57.65623 0 0 -0.557714,-0.86235 0.72871294,0.43412681 57.65623 0 0 -0.511813,0.33575 l 0.534902,0.26732 -0.534146,-0.25134 a 0.72871294,0.43412681 57.65623 0 0 0.02299,0.14839 l -0.284607,-0.10321 a 0.85274916,0.65119022 57.65623 0 1 0.260291,-0.46488 0.85274916,0.65119022 57.65623 0 1 0.180962,-0.0674 l -0.440987,-0.69638 a 0.85274916,0.65119022 57.65623 0 1 -0.646608,0.17982 0.85274916,0.65119022 57.65623 0 1 -0.665705,-1.00063 l 0.252377,0.0842 a 0.72871294,0.43412681 57.65623 0 0 0.544138,0.72079 0.72871294,0.43412681 57.65623 0 0 0.504307,-0.34715 0.72871294,0.43412681 57.65623 0 0 -0.557911,-0.86222 0.72871294,0.43412681 57.65623 0 0 -0.511606,0.33563 l 0.534898,0.26732 -0.534146,-0.25134 a 0.72871294,0.43412681 57.65623 0 0 0.01703,0.12236 l -0.247647,-0.09 a 0.85274916,0.65119022 57.65623 0 1 0.260292,-0.46488 0.85274916,0.65119022 57.65623 0 1 0.180958,-0.0674 l -0.245548,-0.38795 a 0.85274916,0.65119022 57.65623 0 1 -0.714536,0.30428 0.85274916,0.65119022 57.65623 0 1 -0.665577,-1.00039 l 0.306717,0.10239 a 0.72871294,0.43412681 57.65623 0 0 0.525183,0.64959 0.72871294,0.43412681 57.65623 0 0 0.504306,-0.34713 0.72871294,0.43412681 57.65623 0 0 -0.557913,-0.86223 0.72871294,0.43412681 57.65623 0 0 -0.511606,0.33563 l 0.534898,0.26732 -0.534347,-0.2512 a 0.72871294,0.43412681 57.65623 0 0 0.03568,0.19483 l -0.301486,-0.10942 a 0.85274916,0.65119022 57.65623 0 1 0.582959,-0.54032 L 7.9667272,271.54449 C 7.739267,271.18528 7.2669765,271.0792 6.9077813,271.30665 Z m 1.6241767,0.29034 2.2346907,3.52896 c 0,0 -0.04009,-0.90403 -0.7137627,-1.98783 -0.6736689,-1.08377 -1.520928,-1.54113 -1.520928,-1.54113 z m -6.6325795,4.8748 0.079419,0.12541 -0.88963069,1.21795 0.14440019,0.0643 1.155561,-0.63441 0.01462,0.0232 1.0286782,-0.65139 0.00511,0.0104 0.055893,-0.0486 0.077228,-0.0491 -0.00747,-0.0117 0.7623035,-0.66099 -0.038704,-0.0664 c 0.3600644,-0.25707 0.9660367,-0.67591 1.3686685,-0.8667 0.1879446,-0.0891 0.380838,-0.20426 0.5853446,-0.1663 0.2506411,0.046 0.3902447,0.18792 0.5909156,0.48535 0.3876339,0.57458 0.7177519,1.2462 1.2993087,1.62327 0.2642051,0.17132 0.6018966,0.27748 0.9142937,0.23804 0.095466,-0.0121 0.2200737,-0.0804 0.3238901,-0.1475 l -0.4567651,-0.72131 c -0.00196,-0.003 -0.00334,-0.007 -0.00494,-0.0108 -0.1415377,0.0136 -0.2976928,0.0151 -0.3973491,-0.0277 -0.5293617,-0.22761 -0.805703,-0.82877 -1.1490839,-1.29148 -0.2693164,-0.3629 -0.6745285,-0.61677 -1.0999639,-0.66117 -0.3204384,-0.0334 -0.6686142,0.12091 -0.9458833,0.28503 -0.068512,0.0406 -0.1450897,0.0876 -0.2260773,0.13875 -0.3755431,0.23727 -0.7689316,0.50698 -1.0486674,0.70098 l -0.03037,-0.0523 -0.9302196,0.43663 -0.013198,-0.021 z m 14.4610062,5.12839 a 1.2713715,0.88924953 57.65623 0 0 -0.09601,1.53746 l 0.0055,0.0104 a 1.2713715,0.88924953 57.65623 0 0 1.429128,0.61482 1.2713715,0.88924953 57.65623 0 0 0.09002,-1.5402 1.2713715,0.88924953 57.65623 0 0 -1.428835,-0.62152 z m 1.881746,3.02946 a 1.2713715,0.88924953 57.65623 0 0 -0.09634,1.53739 l 0.0059,0.0104 a 1.2713715,0.88924953 57.65623 0 0 1.428996,0.6146 1.2713715,0.88924953 57.65623 0 0 0.08995,-1.53985 1.2713715,0.88924953 57.65623 0 0 -1.428633,-0.62167 z m 2.043258,3.11055 a 1.2713715,0.88924953 57.65623 0 0 -0.09634,1.53739 l 0.0059,0.0104 a 1.2713715,0.88924953 57.65623 0 0 1.428794,0.61475 1.2713715,0.88924953 57.65623 0 0 0.09015,-1.54 1.2713715,0.88924953 57.65623 0 0 -1.428629,-0.62168 z m 2.367335,3.30901 a 1.0543078,0.71869967 57.65623 0 0 -0.06378,1.26468 l 0.0047,0.008 a 1.0543078,0.71869967 57.65623 0 0 1.169488,0.51951 1.0543078,0.71869967 57.65623 0 0 0.05872,-1.26689 1.0543078,0.71869967 57.65623 0 0 -1.169221,-0.52534 z"/></g><text x="0" y="41.458332999999996" fill="#000000" font-size="5px" font-weight="bold" font-family="'Helvetica Neue', Helvetica, Arial-Unicode, Arial, Sans-serif">Created by Elves Sousa</text><text x="0" y="46.458332999999996" fill="#000000" font-size="5px" font-weight="bold" font-family="'Helvetica Neue', Helvetica, Arial-Unicode, Arial, Sans-serif">from the Noun Project</text></svg>