<?xml version="1.0"?>
<svg xmlns:rdf="http://www.w3.org/1999/02/22-rdf-syntax-ns#" xmlns="http://www.w3.org/2000/svg" xmlns:cc="http://creativecommons.org/ns#" xmlns:dc="http://purl.org/dc/elements/1.1/" xmlns:svg="http://www.w3.org/2000/svg" id="svg2" viewBox="0 0 490.03 85.099" version="1.0">
  <path id="path2311" d="m316.69 84.854c-0.35-0.151-0.6-0.393-0.6-0.585 0-0.18-0.12-0.478-0.26-0.662-0.22-0.29-0.21-0.443 0.09-1.142 0.34-0.788 0.75-2.148 1.1-3.62 0.1-0.4 0.22-1.302 0.27-2.002 0.1-1.333 0.45-1.912 1.17-1.912 0.51 0 1.24-0.871 1.64-1.975 0.2-0.566 0.48-1.233 0.61-1.483 0.14-0.251 0.35-0.865 0.46-1.366 0.3-1.249 1.29-3.906 1.67-4.459 0.17-0.251 0.6-1.096 0.96-1.879s0.88-1.794 1.16-2.247c1.19-1.927 3.1-4.77 3.78-5.618 1.25-1.562 3.93-3.953 5.83-5.211 3.18-2.098 3.07-2.045 8.01-3.869 1-0.369 2.52-1.025 3.37-1.458s2.45-1.177 3.55-1.655c1.1-0.477 2.16-0.98 2.36-1.116s0.47-0.248 0.6-0.248c0.14 0 0.59-0.266 1-0.591 2.14-1.687 3.05-3.212 3.05-5.12-0.01-1.016-0.07-1.199-0.72-2.063-0.4-0.521-0.84-1.176-0.99-1.456-0.14-0.28-0.41-0.643-0.6-0.807-0.52-0.46-3.36-1.549-4.54-1.738-0.57-0.091-0.57-0.089-0.66 0.877-0.08 0.84-0.18 1.046-0.79 1.566-1.12 0.969-1.57 1.022-5.61 0.661-0.79-0.07-2.09 0.004-3.55 0.202-1.68 0.23-2.54 0.269-3.22 0.145-0.63-0.116-1.58-0.095-2.98 0.065-1.37 0.155-2.18 0.175-2.39 0.058-0.21-0.109-1.44-0.13-3.18-0.055-2.35 0.101-2.87 0.078-3.01-0.134-0.25-0.399-0.2-0.5 0.37-0.797 0.42-0.217 1.3-0.284 4.01-0.305 3.23-0.025 4.16-0.165 2.96-0.45-0.27-0.066-0.6-0.201-0.73-0.3-0.13-0.104-0.62-0.128-1.15-0.057-0.66 0.088-1.04 0.05-1.32-0.13-0.23-0.147-1.16-0.303-2.2-0.371-1.29-0.083-1.9-0.2-2.1-0.403-0.25-0.259-0.25-0.31 0.04-0.523 0.73-0.542 0-1.44-1.03-1.263-0.75 0.129-1.75 0.643-1.75 0.904 0 0.115 0.25 0.312 0.56 0.438 0.75 0.311 0.98 0.784 0.73 1.494-0.27 0.783-0.24 1.331 0.09 1.606 0.22 0.185 0.26 0.446 0.16 1.251-0.15 1.217-0.32 1.471-1.01 1.471-0.64 0-0.95-0.517-0.97-1.638l-0.01-0.819-4.24 0.029c-3.61 0.024-4.27-0.013-4.52-0.254-0.61-0.616 0-0.735 4.48-0.865 2.35-0.068 4.3-0.147 4.33-0.177s0.07-0.281 0.09-0.558l0.04-0.504-4.1 0.006c-2.48 0.004-4.18-0.066-4.32-0.178-0.12-0.101-0.23-0.371-0.23-0.601 0-0.756-2.19-1.745-2.56-1.157-0.24 0.376-0.2 0.957 0.09 1.35 0.21 0.293 0.3 0.31 0.54 0.106 0.16-0.133 0.42-0.192 0.58-0.132 0.23 0.09 0.27 0.381 0.23 1.613-0.06 1.441-0.04 1.506 0.35 1.562 0.32 0.046 0.41 0.177 0.41 0.608 0 0.545-0.01 0.548-0.77 0.421-0.87-0.143-1.41-0.383-1.41-0.62 0-0.087-0.29-0.327-0.64-0.534-0.87-0.514-0.85-1.029 0.04-1.24 0.55-0.129 0.7-0.255 0.74-0.63 0.05-0.402-0.02-0.472-0.45-0.49-0.28-0.011-0.8-0.043-1.15-0.071-0.62-0.049-0.64-0.033-0.8 0.795-0.2 1.005-0.07 1.43 0.42 1.43 0.53 0 1.38 0.788 1.23 1.154-0.09 0.235-0.35 0.302-1.21 0.302-1.08 0-1.1-0.011-1.55-0.721-0.4-0.644-0.55-0.735-1.38-0.845-1.38-0.183-1.46-0.874-0.14-1.147 0.54-0.112 0.6-0.181 0.54-0.663-0.03-0.295-0.09-0.569-0.13-0.608-0.03-0.039-0.44 0.033-0.89 0.161-0.92 0.258-1.25 0.847-0.83 1.51 0.2 0.322 0.14 0.439-0.57 1.057-0.51 0.45-0.98 0.702-1.33 0.715-0.31 0.011-3.17 0.049-6.38 0.085-3.2 0.037-8.81 0.144-12.47 0.24-3.65 0.095-6.7 0.139-6.77 0.096-0.35-0.204-27.33-0.367-30-0.181-0.95 0.067-6.35 0.16-12.01 0.208-5.66 0.049-11.43 0.128-12.83 0.177-6.33 0.22-13.74 0.368-16.66 0.333-3.48-0.041-3.64-0.091-3.64-1.17 0-0.478-0.03-0.493-0.54-0.313-0.69 0.241-2.12-0.256-2.29-0.795-0.2-0.606-1.45-1.002-3.6-1.132-1.08-0.066-2.06-0.154-2.18-0.195-0.12-0.042-2.39-0.119-5.04-0.171-2.66-0.053-5.89-0.146-7.19-0.205-3.26-0.15-5.67-0.213-7.92-0.208-1.05 0.002-2.1-0.008-2.32-0.023-0.68-0.046-1.1-0.042-4.3 0.038-2.33 0.058-3.11 0.136-3.23 0.324-0.1 0.17-0.7 0.276-1.93 0.339-1.76 0.09-1.78 0.095-2.04 0.637-0.32 0.692-0.51 0.813-1.26 0.816-0.47 0.002-0.77-0.164-1.33-0.729l-0.72-0.731-1.4 0.014c-0.77 0.008-3-0.056-4.95-0.143-2.85-0.127-16.67-0.158-17.39-0.039-0.1 0.017-0.67-0.015-1.27-0.071-2.09-0.192-5.32-0.297-12.11-0.392-3.75-0.053-8.36-0.146-10.23-0.209-2.61-0.087-3.48-0.06-3.69 0.116-0.22 0.185-0.33 0.182-0.57-0.018-0.23-0.19-1.76-0.285-6.635-0.41-3.484-0.09-6.463-0.115-6.62-0.054-0.174 0.067-0.285 0.33-0.285 0.678 0 1.223-1.287 2.263-2.123 1.715-0.239-0.157-0.514-0.237-0.611-0.177-0.27 0.167-1.607-0.851-2.818-2.144-1.252-1.338-1.911-2.121-1.911-2.271 0-0.057-0.197-0.362-0.439-0.679-0.522-0.685-2.093-3.925-2.34-4.829-0.096-0.35-0.227-1.129-0.292-1.729-0.103-0.973-0.14-1.05-0.337-0.706-0.157 0.274-0.17 0.564-0.045 1 0.097 0.337 0.176 0.998 0.176 1.469 0 0.47 0.082 0.905 0.182 0.967 0.101 0.062 0.183 0.333 0.184 0.603 0 0.269 0.123 0.724 0.273 1.011 0.149 0.287 0.272 0.717 0.272 0.956 0 0.238 0.163 0.598 0.364 0.798 0.2 0.2 0.364 0.468 0.364 0.595 0 0.128 0.409 0.794 0.91 1.48 0.5 0.687 0.91 1.309 0.91 1.382 0 0.175 1.662 1.817 2.274 2.248 0.37 0.259 0.465 0.461 0.421 0.898-0.066 0.671-0.515 0.845-2.331 0.902-2.718 0.085-4.262-0.824-5.516-3.249-0.564-1.091-1.095-1.139-13.779-1.251-4.956-0.044-9.912-0.119-11.013-0.166-1.102-0.048-5.446-0.131-9.654-0.186-4.209-0.055-9.287-0.145-11.286-0.199-6.356-0.171-15.739-0.455-18.512-0.559-1.474-0.056-2.782-0.039-2.905 0.037s-1.0055 0.148-1.9608 0.159c-1.4585 0.017-1.8649 0.089-2.536 0.452l-0.7991 0.433-0.7938-0.421c-0.6399-0.34-0.9673-0.401-1.69-0.315-1.0131 0.12-1.0649 0.082-1.7435-1.258-0.78296-1.547-0.90349-2.562-0.90479-7.626-0.0013051-5.039 0.22142-7.355 0.84232-8.759 0.42417-0.959 0.50437-1.011 1.5742-1.023 0.7061-0.008 0.9744-0.116 1.5384-0.62 0.8723-0.7805 1.6318-0.8159 2.3679-0.111 0.473 0.453 0.6638 0.505 2.0123 0.542 4.3899 0.123 26.047-0.081 43.175-0.405 2.704-0.051 7.905-0.137 11.559-0.191 13.242-0.194 13.289-0.197 13.833-0.7179 0.274-0.2619 0.691-0.4566 0.979-0.4566 0.415 0 0.492 0.0703 0.445 0.4074l-0.057 0.4071 2.822-0.04c1.552-0.022 3.213-0.09 3.691-0.152 0.571-0.0734 0.962-0.0355 1.138 0.111 0.174 0.143 0.477 0.175 0.86 0.088 0.325-0.074 4.564-0.162 9.419-0.197 4.861-0.0342 10.921-0.1222 13.471-0.1955s6.38-0.1167 8.5-0.0965c2.38 0.0227 4.2-0.0425 4.73-0.1701 0.58-0.1357 3.96-0.2247 9.85-0.2587 9.43-0.0544 16.65-0.2062 18.1-0.3805 0.68-0.0811 0.87-0.1752 0.87-0.4355 0-0.83 0.15-0.908 1.75-0.908 1.47 0 1.54-0.0194 1.71-0.455 0.22-0.5812 1.18-1.1717 1.7-1.0446 0.21 0.0534 0.66 0.3812 0.98 0.7283 0.5 0.5326 0.68 0.6171 1.18 0.5412 1.07-0.1608 2.92 0.2203 3.43 0.7054 0.59 0.5568 0.5 0.5532 10 0.3793 4.16-0.0761 9.85-0.1788 12.65-0.2283 2.81-0.0495 6.94-0.1261 9.19-0.1702 2.26-0.0442 7.5-0.1236 11.66-0.1764 4.15-0.0529 9.84-0.1363 12.65-0.1854 4.52-0.0792 13.23-0.2097 24.93-0.3732 6.02-0.0841 8.03-0.223 8.8-0.6086 1.03-0.5133 1.57-0.5945 3.75-0.5601 1.55 0.0243 15.9 0.021 17.85-0.0041 0.27-0.0035 0.3-0.0531 0.13-0.223-0.12-0.1201-0.22-0.3558-0.22-0.5238 0-0.8015-0.1-0.7954 13.36-0.7566 8.21 0.0237 13.37 0.1109 14.45 0.244 1.51 0.1864 1.74 0.2669 2.31 0.8044l0.64 0.5972 4.51 0.0348c2.48 0.0191 5.37 0.0238 6.42 0.0105 1.05-0.0134 6.79-0.0416 12.76-0.0627l10.84-0.0383 0.65-0.6826c0.5-0.5331 0.78-0.6827 1.27-0.6827 0.67 0 1.42 0.5975 1.42 1.1387 0 0.5853 0.39 0.5185 1.17-0.1987 0.88-0.8087 1.87-1.072 3.24-0.8653 0.43 0.0638 0.86 0.1213 0.96 0.1277s0.24-0.3292 0.31-0.7459c0.07-0.4166 0.33-1.1906 0.57-1.7199 0.52-1.1356 0.67-1.1869 2.86-0.9926 0.84 0.0753 4.94 0.1773 9.09 0.2266 4.16 0.0494 12.39 0.1475 18.3 0.218 9.45 0.1128 22.57 0.1229 29.94 0.0231l2.45-0.0332 0.14-0.8061c0.16-0.98073 0.35-1.1817 1.1-1.2199 0.52-0.025771 1.59 0.35516 1.59 0.56259 0 0.41674-0.42 0.99151-0.76 1.0399-0.4 0.0564-0.42 0.1297-0.4 1.4247 0.05 2.7531 0.01 2.5793 0.57 2.515 0.45-0.0522 0.49-0.1173 0.44-0.6947-0.03-0.3504-0.21-0.9844-0.4-1.4088-0.3-0.6884-0.31-0.8014-0.06-1.0467 0.33-0.332 1.46-0.3659 1.57-0.0474 0.05 0.1251 0.05 0.5961 0 1.0467-0.05 0.5104 0.03 1.0683 0.2 1.4805l0.28 0.6614 1.75 0.0095c0.96 0.0052 1.85 0.0854 1.97 0.1781 0.12 0.0977 0.67 0.1091 1.3 0.0271 1.66-0.2147 1.89-0.1992 2.24 0.1528 0.18 0.1788 0.53 0.3412 0.77 0.3609 0.46 0.0369 4.94 0.0342 30.61-0.0184 14-0.0286 14.88-0.0492 14.96-0.349 0.12-0.4462 1.21-0.4205 1.8 0.0423 0.43 0.3367 0.73 0.3592 4.44 0.3367 2.19-0.0133 4.08-0.0615 4.21-0.1073 0.12-0.0457 0.22-0.2743 0.22-0.508 0-0.2336 0.08-0.4692 0.16-0.5235 0.09-0.0543 0.26-0.4682 0.37-0.9199 0.24-0.964 0.99-1.552 2.57-2.0289 1.34-0.4019 2.48-0.3449 3.23 0.1619 0.71 0.4824 2.26 2.798 2.64 3.9563 1.48 4.462 1.53 10.993 0.12 13.834-0.67 1.359-2 2.682-2.86 2.851-0.9 0.178-1.98 0.144-2.85-0.088-0.69-0.184-1.73-1.106-1.98-1.745-0.19-0.504-0.82-0.601-4.64-0.715-2.03-0.061-3.77-0.158-3.86-0.217-0.3-0.181-0.2-0.601 0.17-0.716 0.24-0.077 0.38-0.353 0.46-0.926 0.07-0.449 0.28-1.173 0.48-1.609 0.44-0.996 0.55-1.021 4.59-1.021 2.73 0 3.12-0.037 3.34-0.319 0.56-0.75 0.43-0.779-3.6-0.762-3.19 0.014-3.89-0.03-4.12-0.256-0.39-0.388-0.17-0.776 0.51-0.913 0.32-0.064 2.14-0.117 4.05-0.117h3.46l-0.09-1.256c-0.05-0.69-0.25-1.632-0.44-2.092-0.33-0.8231-0.52-0.9347-1.37-0.8507-0.17 0.0163-0.35-0.053-0.42-0.1541-0.06-0.1063-0.28-0.1246-0.51-0.0436-0.33 0.1148-2.3 0.1285-5.41 0.0377-0.36-0.0104-0.53-0.1852-0.82-0.8307-0.27-0.6184-0.46-0.8174-0.76-0.8174-0.68 0-0.82 0.5483-0.42 1.6142 0.28 0.7354 0.36 1.3936 0.36 3.0466 0 1.93 0.03 2.116 0.35 2.2 0.58 0.152 0.63 0.644 0.11 1.022-0.35 0.26-0.46 0.499-0.46 1.027 0 1.776-0.95 4.431-1.66 4.657-0.19 0.061-0.34 0.187-0.34 0.28s-0.28 0.17-0.62 0.17c-0.48 0-0.74-0.137-1.12-0.592l-0.5-0.591-19.22 0.04c-22.53 0.047-23.47 0.07-24.34 0.606-0.34 0.212-0.74 0.55-0.88 0.752-0.32 0.452-1.12 0.517-3.75 0.302-1.05-0.086-4.24-0.143-7.1-0.126-2.85 0.018-9.77 0.025-15.38 0.018-5.6-0.008-14.29-0.016-19.29-0.018-5.01-0.002-10.37-0.009-11.93-0.014-8.23-0.026-9.08-0.01-9.58 0.181-0.32 0.126-1.03 0.159-1.89 0.087l-1.36-0.116-0.63 0.645c-0.34 0.355-0.78 0.646-0.96 0.646-0.5 0-1.37-0.498-1.59-0.906-0.24-0.442-1.26-0.725-2.5-0.694-0.58 0.014-1.06-0.076-1.25-0.235-0.26-0.209-1.37-0.265-5.79-0.291-3.02-0.018-8.07-0.069-11.24-0.113l-5.76-0.08-0.22 0.727c-0.12 0.4-0.15 0.793-0.06 0.873 0.08 0.081 0.88 0.203 1.79 0.273 1.79 0.138 2.25 0.261 2.62 0.7 0.3 0.366 0.63 0.372 0.93 0.019 0.14-0.175 0.54-0.273 1.12-0.273 0.53 0 1.18-0.146 1.61-0.364 0.93-0.476 1.25-0.46 2.01 0.105 0.5 0.375 0.77 0.452 1.35 0.384 0.4-0.046 0.87-0.141 1.04-0.21 0.51-0.211 1 0.475 1.14 1.608l0.12 1.026 2.68 0.014c1.47 0.008 2.87 0.037 3.12 0.063s1.32 0.103 2.37 0.17c5.35 0.34 7.23 0.79 10.36 2.488 0.9 0.489 3.46 2.803 3.47 3.142 0 0.08 0.18 0.407 0.4 0.729 0.22 0.321 0.55 0.81 0.74 1.086 0.75 1.115 0.31 6.055-0.65 7.255-0.22 0.275-0.6 0.791-0.85 1.146-1.41 1.993-3.43 3.462-6.01 4.35-1.02 0.352-3.19 1.26-3.91 1.639-0.3 0.157-0.83 0.418-1.18 0.581s-0.85 0.412-1.1 0.554c-0.25 0.141-1.07 0.508-1.82 0.816-1.45 0.597-1.64 0.683-2.91 1.358-0.45 0.24-0.93 0.44-1.06 0.446-0.14 0.006-0.48 0.177-0.77 0.381-0.28 0.203-0.95 0.51-1.48 0.683-1.19 0.389-2.67 1.251-3.13 1.829-0.19 0.238-0.67 0.665-1.06 0.947-0.39 0.283-0.89 0.76-1.11 1.061-0.88 1.205-2.07 2.694-2.55 3.211-0.47 0.492-1.01 1.275-3.25 4.708-0.38 0.587-0.7 1.159-0.7 1.271s-0.23 0.697-0.52 1.299c-0.28 0.602-0.69 1.505-0.9 2.005-0.21 0.501-0.67 1.59-1.03 2.421-0.35 0.831-0.64 1.618-0.64 1.749s-0.24 0.718-0.54 1.303c-0.37 0.73-0.48 1.133-0.36 1.281 0.1 0.119 0.2 0.614 0.22 1.1 0.03 0.763-0.07 1.021-0.68 1.885-0.39 0.551-0.8 1.083-0.92 1.183-0.29 0.245-0.93 1.352-1.09 1.89-0.29 0.959-1.38 2.552-1.94 2.83-0.69 0.344-0.8 0.345-1.56 0.015zm5.46-10.241c0.14-0.276 0.52-1.361 0.85-2.412s0.84-2.403 1.13-3.004c0.28-0.6 0.86-1.905 1.27-2.899 0.83-2.018 1.82-3.739 2.87-4.998 0.39-0.462 0.88-1.15 1.09-1.528s0.71-1.102 1.12-1.609c0.44-0.566 0.72-1.113 0.72-1.419 0-0.573 0.14-0.727 2.03-2.203 1.25-0.977 6.34-3.65 7.8-4.098 0.25-0.077 0.9-0.378 1.44-0.669s1.48-0.721 2.11-0.955c1.14-0.432 2.12-0.861 4.74-2.089 0.8-0.376 2.03-0.95 2.73-1.277 0.7-0.326 1.73-0.871 2.3-1.212 0.56-0.341 1.15-0.619 1.32-0.619 0.16 0 0.29-0.062 0.3-0.137 0-0.075 0.37-0.533 0.82-1.019 1.05-1.133 1.9-2.481 2.41-3.821 0.43-1.128 0.51-1.871 0.23-1.971-0.2-0.068-0.32-1.721-0.15-1.896 0.17-0.164-0.9-2.078-1.52-2.724-0.29-0.305-0.53-0.603-0.53-0.662s-0.36-0.479-0.81-0.932c-0.74-0.757-2.16-1.482-3.28-1.684-0.2-0.036-0.95-0.267-1.66-0.512-0.71-0.246-1.77-0.506-2.37-0.578-0.59-0.073-1.27-0.209-1.52-0.303-0.7-0.263-8.45-0.374-9.59-0.137-1.02 0.21-1.13 0.387-0.87 1.358 0.1 0.353 0.26 0.364 5.23 0.371l5.14 0.007 2.38 0.582c1.31 0.319 2.7 0.715 3.09 0.878 0.83 0.345 2.99 2.042 2.99 2.349 0 0.115 0.22 0.408 0.48 0.651 0.82 0.752 1.15 1.731 1.15 3.353-0.01 1.593-0.11 1.855-1.39 3.722-0.48 0.692-1.26 1.48-2.09 2.101-0.74 0.547-1.43 1.078-1.56 1.181-0.12 0.103-0.32 0.189-0.45 0.193-0.13 0.003-0.39 0.126-0.59 0.273-0.19 0.147-0.46 0.267-0.59 0.267-0.21 0-1.11 0.378-3.08 1.291-0.41 0.191-0.84 0.347-0.96 0.347-0.11 0-0.51 0.164-0.88 0.364-0.38 0.2-0.8 0.364-0.94 0.364-0.15 0-0.71 0.251-1.25 0.558-0.55 0.307-1.03 0.52-1.08 0.473-0.08-0.083-1.57 0.48-3.1 1.172-0.42 0.19-0.85 0.346-0.96 0.346-0.23 0-1.1 0.537-1.37 0.842-0.1 0.116-0.52 0.421-0.94 0.678s-0.81 0.556-0.88 0.664-0.28 0.147-0.47 0.085c-0.45-0.142-1.8 0.896-1.8 1.38 0 0.321-0.72 0.873-0.91 0.705-0.05-0.042-0.22 0.186-0.37 0.507s-0.76 1.058-1.36 1.638-1.24 1.37-1.41 1.757c-0.23 0.508-0.4 0.672-0.61 0.591-0.37-0.14-0.75 0.065-0.46 0.246 0.15 0.088 0.1 0.271-0.16 0.597-0.2 0.259-0.37 0.572-0.37 0.697 0 0.126-0.41 0.871-0.9 1.657-0.5 0.785-0.96 1.632-1.02 1.882-0.07 0.25-0.19 0.454-0.28 0.454s-0.16 0.166-0.16 0.369c0 0.416-1.24 2.966-1.48 3.06-0.09 0.033-0.16 0.203-0.16 0.377s-0.14 0.716-0.3 1.205c-0.25 0.723-0.33 0.823-0.44 0.533-0.13-0.351-0.13-0.351-0.27 0.008-0.08 0.201-0.45 1.153-0.83 2.117-0.69 1.754-0.79 2.181-0.74 3.117 0.02 0.403 0.12 0.5 0.48 0.5 0.31 0 0.53-0.154 0.69-0.5zm-111.93-40.002c-0.15-0.378 0.29-0.345 0.59 0.046 0.23 0.296 0.27 0.297 0.49 0.015 0.21-0.27 0.59-0.294 3.41-0.214 1.75 0.05 4.28 0.074 5.64 0.054 1.35-0.019 7.02-0.017 12.6 0.006 7.37 0.029 10.23-0.016 10.41-0.166 0.18-0.155 0.36-0.152 0.72 0.01 0.37 0.17 0.63 0.165 1.2-0.022 0.49-0.163 0.79-0.18 0.95-0.054 0.15 0.118 0.72 0.132 1.57 0.037 0.73-0.081 1.59-0.1 1.91-0.043 0.95 0.17 6.02 0.038 6.27-0.164 0.16-0.129 0.31-0.117 0.5 0.038 0.21 0.177 3 0.196 12.97 0.089 14.23-0.151 18.48-0.222 21.52-0.358 1.16-0.051 3.98-0.123 6.28-0.159 2.86-0.046 4.35-0.139 4.68-0.295 0.43-0.204 0.49-0.362 0.6-1.462 0.16-1.585-0.01-1.92-1.08-2.079-1.35-0.204-2.06 0.024-2.57 0.826-0.25 0.39-0.44 0.979-0.44 1.324 0 0.766-0.41 0.973-0.9 0.452-0.19-0.207-0.42-0.335-0.5-0.284-0.13 0.083-4.12 0.181-17.08 0.42-6.74 0.124-20.21 0.245-23.57 0.212-9.34-0.094-25.06-0.029-25.25 0.103-0.12 0.084-1.43 0.144-2.91 0.133s-2.86-0.02-3.06-0.02-0.98-0.006-1.73-0.012c-0.75-0.007-1.49-0.013-1.64-0.012-0.15 0-0.89 0.053-1.64 0.117s-2.26 0.101-3.36 0.081c-5.27-0.096-10.6 0.034-10.98 0.268-0.12 0.073-0.63 0.136-1.13 0.14-0.84 0.006-0.91 0.042-0.91 0.444 0 0.241 0.02 0.444 0.05 0.451 0.02 0.007 1.22 0.056 2.66 0.11 2.08 0.077 2.65 0.047 2.78-0.149 0.14-0.201 0.21-0.188 0.39 0.072 0.27 0.389 0.7 0.425 0.56 0.045zm89.07-1.669c-0.25-0.243-0.12-1.104 0.21-1.397 0.4-0.364 1.1-0.395 1.23-0.055 0.14 0.361-0.64 1.574-1.01 1.574-0.17 0-0.37-0.055-0.43-0.122zm-216.52 0.341c-0.475-0.48-1.225-1.463-1.666-2.184-0.441-0.722-0.908-1.312-1.037-1.312-0.13 0-0.313-0.136-0.406-0.302-0.15-0.269-0.193-0.257-0.387 0.106-0.358 0.67 0.096 2.998 0.69 3.536 0.667 0.604 1.758 1.014 2.715 1.022l0.955 0.007-0.864-0.873zm263.79-0.652c0.57-0.238 1.39-1.072 1.39-1.412 0-0.087-0.73-0.158-1.62-0.158-1.52 0-1.62 0.024-1.72 0.41-0.2 0.738-0.12 1.056 0.29 1.223 0.59 0.236 0.98 0.222 1.66-0.063zm-257.75-0.217c0.395-0.395 0.358-1.034-0.108-1.848-0.216-0.378-0.51-0.915-0.652-1.192-0.269-0.525-1.412-1.407-1.824-1.407-0.178 0-0.19 0.088-0.049 0.352 0.104 0.194 0.189 0.562 0.189 0.819 0 0.716-0.507 0.584-1.496-0.391-0.65-0.64-0.871-0.994-0.871-1.396 0-0.729 0.471-1.204 1.192-1.204 0.64 0 0.733-0.176 0.791-1.499 0.03-0.665 0.019-0.677-0.529-0.567-0.424 0.085-0.659 0.018-0.975-0.278-0.459-0.432-0.661-0.352-0.661 0.26 0 0.58-0.568 1.223-0.95 1.077-0.33-0.127-0.425-0.345-0.591-1.36-0.077-0.47 0.005-0.828 0.314-1.365 0.463-0.809 1.082-1.015 1.808-0.603 0.33 0.188 1.511 0.219 5.498 0.148 4.616-0.083 5.013-0.114 4.375-0.345-0.386-0.139-1.182-0.652-1.767-1.139-1.505-1.253-2.855-2.081-3.627-2.226-1.201-0.225-2.966 0.184-3.926 0.911-0.473 0.358-0.935 0.806-1.025 0.996-0.204 0.43-1.216 0.724-1.882 0.546-0.373-0.1-0.502-0.248-0.502-0.575 0-0.347 0.115-0.46 0.546-0.533 0.458-0.078 0.64-0.283 1.133-1.276 0.376-0.759 0.931-1.492 1.547-2.046l0.961-0.862-1.843-0.002-1.842-0.002-0.554 1.137c-0.813 1.672-1.158 2.957-0.944 3.519 0.097 0.256 0.177 0.906 0.177 1.445s0.076 1.169 0.169 1.399 0.214 0.623 0.267 0.873c0.054 0.25 0.395 0.903 0.757 1.451 0.363 0.548 0.802 1.373 0.977 1.834 0.282 0.74 0.624 1.255 2.213 3.322 0.215 0.28 0.873 0.849 1.462 1.265 0.59 0.415 1.072 0.821 1.072 0.902 0 0.259 0.875 0.155 1.17-0.14zm250.53 0.008c1.02-0.163 1.3-0.503 0.75-0.889-0.23-0.159-0.52-0.29-0.66-0.29s-0.48-0.163-0.76-0.363c-0.55-0.388-1.47-0.348-2.01 0.088-0.49 0.396-0.98 0.517-1.93 0.472-0.89-0.043-0.94-0.02-1.32 0.62l-0.39 0.665 2.78-0.09c1.53-0.049 3.12-0.145 3.54-0.213zm-136.57-1.452c-0.11-0.555-0.05-0.655 0.61-1.137 1.04-0.753 3.09-1.044 6.35-0.9 1.38 0.061 2.68 0.161 2.89 0.222 0.32 0.093 0.41-0.003 0.59-0.587 0.11-0.385 0.32-0.856 0.46-1.049 0.23-0.306 0.22-0.385-0.07-0.633-0.22-0.189-0.41-0.772-0.56-1.741-0.12-0.801-0.29-1.532-0.37-1.624-0.08-0.095-1.94-0.164-4.26-0.157-4.66 0.013-5.08-0.044-5.08-0.689 0-0.44 0-0.442 1.72-0.399 0.96 0.024 2.55 0.032 3.55 0.017 1.01-0.015 2.41-0.012 3.13 0.007s1.35-0.036 1.4-0.123c0.06-0.087-0.02-0.329-0.17-0.539-0.22-0.327-0.5-0.395-1.95-0.473-0.92-0.051-2.6-0.191-3.73-0.312-1.62-0.174-2.15-0.173-2.48 0.003-0.23 0.123-0.65 0.196-0.94 0.163-0.47-0.053-0.54-0.14-0.59-0.743-0.04-0.506-0.14-0.683-0.37-0.683-0.18 0-0.42-0.097-0.54-0.216-0.29-0.291 0.23-0.876 0.79-0.876 0.63 0 3.39-0.701 4.03-1.025 0.55-0.276 0.96-0.795 0.63-0.795-0.08 0-0.79 0.164-1.57 0.364-1.79 0.458-3.33 0.487-3.49 0.067-0.07-0.164-0.02-0.452 0.1-0.64 0.33-0.535-0.31-0.67-3.28-0.694-1.44-0.012-5.32-0.103-8.62-0.203-6.44-0.195-7.22-0.204-7.33-0.089-0.04 0.04-0.15 0.592-0.23 1.226-0.09 0.634-0.24 1.438-0.35 1.788s-0.19 0.821-0.19 1.047c0 0.408 0.01 0.41 2.73 0.41 1.5 0 2.73-0.071 2.73-0.159s-0.12-0.262-0.28-0.387c-0.31-0.264-0.37-1.661-0.08-2.199 0.11-0.195 0.51-0.555 0.9-0.8 0.6-0.38 0.84-0.429 1.65-0.333 0.75 0.088 1.07 0.239 1.56 0.727 0.34 0.338 0.62 0.772 0.62 0.965 0 0.435 0.37 1.276 0.56 1.276 0.08 0 0.36-0.286 0.63-0.637 0.27-0.35 0.63-0.637 0.79-0.637 0.17 0 0.39-0.082 0.49-0.182 0.25-0.251 5.86-0.271 6.49-0.023 0.93 0.364 0.55 0.849-0.77 0.993-1.65 0.179-2.75 0.287-4.13 0.404-0.98 0.083-1.38 0.201-1.64 0.479l-0.33 0.368 3-0.129c2.25-0.096 3.08-0.196 3.31-0.398 0.46-0.404 0.98-0.228 0.93 0.314-0.06 0.69-0.06 1.675-0.01 4.506 0.04 1.883 0.12 2.641 0.29 2.746 0.12 0.079 1.31 0.113 2.64 0.075 2.79-0.082 5.93-0.034 7.83 0.119 0.08 0.006 0.12 0.237 0.09 0.512l-0.06 0.501-2.18-0.052c-1.2-0.029-3.59-0.096-5.31-0.15l-3.12-0.097-0.12 0.555c-0.14 0.601 0.03 2.398 0.29 3.077 0.23 0.619 0.55 0.296 0.42-0.421zm14 0.083c0.35-0.204 0.77-0.665 0.94-1.023 0.27-0.562 0.27-0.716 0.06-1.127-0.64-1.228-1.3-1.508-1.24-0.527 0.07 1.322 0.03 1.439-0.5 1.378-0.38-0.045-0.52-0.19-0.64-0.649-0.32-1.245-1.13-0.257-1.02 1.248 0.05 0.721 0.11 0.809 0.61 0.914 0.92 0.196 1.14 0.171 1.79-0.214zm-60.95-1.149c-0.25-2.346-0.12-13.828 0.17-14.302 0.03-0.058 0.12-1.579 0.19-3.381 0.08-2.057 0.22-3.4967 0.37-3.8681 0.14-0.3368 0.17-0.5916 0.07-0.5916s-0.25 0.1904-0.34 0.4232-0.37 0.5624-0.63 0.7323c-0.3 0.1949-0.47 0.4757-0.47 0.76 0 0.4252-0.06 0.4512-1 0.4512-0.81 0-1.03 0.066-1.19 0.374-0.37 0.685-0.15 0.806 1.34 0.744 1.39-0.058 1.52-0.001 1.4 0.611-0.02 0.1-0.04 0.534-0.04 0.965v0.782l-0.78-0.117c-0.43-0.065-0.94-0.035-1.13 0.066-0.23 0.126-0.45 0.123-0.68-0.008-0.29-0.161-0.33-0.141-0.23 0.122 0.07 0.172 0.12 0.507 0.12 0.745 0 0.402 0.08 0.435 1.14 0.485 1 0.048 1.14 0.099 1.14 0.419 0 0.321-0.14 0.37-1.18 0.419-0.65 0.03-1.25 0.121-1.34 0.202-0.23 0.232-0.17 6.685 0.07 7.13 0.15 0.287 0.31 0.354 0.65 0.27 0.52-0.131 1.16 0.163 1.16 0.531 0 0.177-0.27 0.273-0.86 0.312-0.79 0.05-0.87 0.097-0.87 0.51 0 0.393 0.09 0.459 0.64 0.485 0.35 0.016 0.85 0.113 1.12 0.216 0.47 0.183 0.48 0.22 0.41 1.49-0.04 0.716-0.13 1.385-0.19 1.487-0.06 0.103-0.4 0.138-0.77 0.079-0.82-0.129-1.03 0.004-1.15 0.703-0.2 1.122 0.03 1.436 1.22 1.664 1.88 0.359 1.79 0.412 1.64-0.91zm99.14 0.808c0.31-0.258 0.43-0.535 0.43-1.047v-0.697l20.66-0.042c19.95-0.041 20.69-0.055 21.48-0.394 0.45-0.193 1.09-0.455 1.43-0.581 0.55-0.204 0.58-0.247 0.26-0.365-0.5-0.183-5.14-0.07-5.34 0.13-0.15 0.149-2.53 0.084-7.13-0.195-1.08-0.066-4.11-0.105-6.74-0.088s-5.19 0.032-5.69 0.034c-0.58 0.003-0.98 0.099-1.1 0.268-0.17 0.225-0.5 0.233-2.3 0.055-1.41-0.138-3.72-0.164-6.91-0.078-8.94 0.242-8.89 0.247-9.54-1.028-0.37-0.727-0.54-0.902-0.92-0.902-0.52 0-0.51-0.144-0.03 2.148 0.17 0.82 0.16 1.006-0.09 1.253-0.16 0.16-0.4 0.248-0.53 0.196-0.35-0.134-0.95-2.391-0.82-3.051 0.13-0.61 0.09-0.64-0.42-0.324-0.3 0.186-0.45 0.152-0.94-0.209-0.55-0.408-0.73-0.432-3.47-0.453-3.03-0.024-3.23-0.078-3.24-0.869 0-0.518 0.37-0.6 2.73-0.601l2.28-0.001 0.02-0.785c0.04-1.023-0.23-1.126-2.93-1.126h-2.06l-0.31-0.646c-0.19-0.415-0.26-0.838-0.18-1.183 0.1-0.452 0.21-0.54 0.69-0.554 4.7-0.135 5.49-0.187 5.6-0.366 0.06-0.111 0.17-0.605 0.23-1.099 0.12-1.079 0.6-1.787 1.68-2.534 0.45-0.307 0.77-0.624 0.72-0.705s-0.87-0.15-1.82-0.153c-1.73-0.006-2.04 0.122-1.54 0.632 0.58 0.58-0.74 1.717-1.52 1.307-0.59-0.315-0.69-0.538-0.57-1.298 0.11-0.68 0.1-0.683-0.53-0.683-0.92 0-1.22 0.162-1.22 0.671 0 0.767-1.29 2.978-2.07 3.546-0.39 0.284-0.84 0.516-0.99 0.516s-0.47 0.178-0.7 0.396c-0.35 0.324-0.42 0.579-0.41 1.411 0 0.558 0.12 1.343 0.27 1.743s0.35 1.543 0.45 2.539 0.22 1.958 0.28 2.139c0.16 0.495 0.41 0.394 0.31-0.125-0.11-0.568-0.05-0.588 2.32-0.719 1.05-0.059 2.69-0.154 3.64-0.212 1.39-0.086 1.8-0.052 2.09 0.173 0.49 0.378 0.16 0.975-0.47 0.86-0.98-0.175-6.65 0.126-7.13 0.377-0.17 0.093-0.32 0.321-0.32 0.507 0 0.63-0.96 0.785-1.4 0.224-0.2-0.266-0.25-0.269-0.41-0.029-0.28 0.413-0.23 0.661 0.23 1.191 0.3 0.349 0.64 0.509 1.24 0.576 1.08 0.122 1.88-0.288 2.31-1.181 0.28-0.599 0.39-0.675 0.95-0.656 0.35 0.011 1.56 0.041 2.7 0.067l2.06 0.046 0.52-0.613c0.43-0.517 0.57-0.581 0.85-0.406 0.18 0.114 0.31 0.36 0.29 0.546s-0.09 0.714-0.16 1.173c-0.11 0.8-0.09 0.851 0.5 1.226 0.8 0.511 2.13 0.534 2.73 0.048zm-94.18-0.07c0.09-0.12 0.13-0.596 0.08-1.059l-0.07-0.84-1.67 0.088c-0.92 0.049-1.71 0.141-1.77 0.204s-0.07 0.493-0.03 0.955l0.08 0.84 1.6 0.015c1.05 0.01 1.67-0.06 1.78-0.203zm170.45-2.855c-0.03-1.451-0.09-2.689-0.13-2.753-0.18-0.292-1.25-0.333-1.66-0.064-0.35 0.229-0.42 0.395-0.34 0.867 0.13 0.784 0.34 3.35 0.34 4.095l0.01 0.6 0.92-0.054 0.92-0.054-0.06-2.637zm4.35 2.064c0.27-0.712-0.02-0.891-1.36-0.834-1.45 0.061-1.69-0.273-0.84-1.13 0.5-0.494 0.67-0.555 1.55-0.534 1.2 0.028 1.28-0.109 1.09-1.864-0.12-1.106-0.16-1.185-0.52-1.08-0.91 0.265-2.25 0.318-2.65 0.103l-0.42-0.223 0.14 2.886c0.07 1.587 0.15 2.926 0.19 2.976 0.03 0.05 0.63 0.113 1.34 0.139 1.26 0.047 1.3 0.034 1.48-0.439zm-134.89-0.679c0-0.138-0.13-0.352-0.28-0.477s-0.27-0.338-0.27-0.473c0-0.136-0.19-0.368-0.41-0.516-0.41-0.266-1.71-0.368-10.33-0.809-3.37-0.173-7.79-0.107-9.82 0.147-0.8 0.101-1.58 0.139-1.72 0.084-0.35-0.131-0.51-0.575-0.27-0.723 0.44-0.274 4.25-0.424 9.22-0.365 2.92 0.035 5.32-0.001 5.32-0.08s-0.41-0.249-0.91-0.378c-0.81-0.207-0.97-0.328-1.31-1.01l-0.38-0.776 0.39-1.195c0.21-0.657 0.39-1.281 0.39-1.386 0-0.186-0.74-0.171-6.12 0.128l-1.84 0.102-0.69 0.94c-0.91 1.23-1.93 2.305-2.18 2.305-0.11 0-0.54 0.252-0.96 0.559-0.55 0.405-1.02 0.579-1.71 0.637-0.52 0.043-1.2 0.163-1.5 0.267-2.04 0.687-7.96 1.414-11.73 1.44-1.13 0.007-1.5 0.068-1.44 0.237 0.08 0.234 0.94 0.361 2.23 0.33 3.43-0.081 28.7-0.079 31.04 0.003 2.48 0.087 3.15 0.169 3.84 0.48 0.46 0.206 0.9 0.466 0.97 0.577 0.17 0.284 0.47 0.254 0.47-0.048zm29.76-0.315c4-0.01 7.59 0.041 7.96 0.112l0.69 0.131v-1.315l-1.6-0.033c-0.87-0.018-2.25-0.045-3.05-0.059-0.8-0.015-3.62-0.088-6.28-0.164-6.7-0.191-9.44-0.168-9.74 0.08-0.21 0.172-0.18 0.314 0.15 0.844l0.4 0.637 2.09-0.107c1.16-0.06 5.37-0.116 9.38-0.126zm-221.49-0.979c-0.0506-0.449-0.2286-1.024-0.3954-1.279-0.2774-0.423-0.3787-0.453-1.1851-0.346-1.095 0.145-1.4501-0.045-1.7637-0.946-0.3433-0.986-0.3116-1.598 0.1022-1.973 0.2941-0.266 0.5401-0.298 1.4562-0.192l1.1023 0.128v-1.42l-1.0937 0.181c-0.8354 0.138-1.147 0.127-1.3197-0.049-0.4083-0.414 0.3618-0.79 1.4434-0.705l0.9414 0.073-0.0916-2.016c-0.0504-1.109-0.1233-2.118-0.162-2.244-0.0441-0.142-0.4125-0.227-0.9863-0.227-0.6594 0-0.9159-0.071-0.9159-0.253 0-0.167 0.3514-0.305 1.0467-0.409 1.0096-0.152 1.0487-0.178 1.1037-0.748l0.057-0.591-1.0848 0.08c-0.9001 0.066-1.1383 0.021-1.3988-0.267-0.1727-0.191-0.2657-0.473-0.2066-0.627 0.1043-0.272 0.2599-0.302 1.8952-0.371 0.9004-0.039 0.886-0.029 1.05-0.683l0.1256-0.5h-1.4653c-0.8059 0-1.5159-0.082-1.5777-0.182-0.2236-0.362-0.4455-0.167-0.6756 0.592-0.1714 0.565-0.2261 2.171-0.2032 5.961 0.0267 4.42 0.0862 5.456 0.4017 6.996 0.4549 2.22 0.6442 2.441 2.2142 2.58 0.6465 0.057 1.2095 0.138 1.2512 0.179 0.2758 0.273 0.4143-0.034 0.3346-0.742zm300.37 0.589c0.17-0.17 1.63-0.235 5.82-0.259 4.02-0.022 5.75-0.096 6.16-0.262 0.56-0.223 1.7-0.137 4.23 0.32l0.62 0.111-0.11-0.706c-0.07-0.388-0.12-0.963-0.12-1.278-0.01-0.47-0.08-0.573-0.41-0.578-0.23-0.003-1.11-0.086-1.96-0.183-0.85-0.098-3.51-0.165-5.92-0.15l-4.37 0.027v0.617c0 0.462 0.11 0.662 0.41 0.803 1.06 0.48 0.38 0.583-3.82 0.577-2.33-0.004-4.4 0.047-4.6 0.111-0.19 0.065-0.59 0.038-0.87-0.059-0.52-0.184-2.13-0.033-2.13 0.201 0 0.261 1.85 0.697 3.15 0.739 0.72 0.023 1.34 0.077 1.38 0.12 0.19 0.186 2.33 0.059 2.54-0.151zm-305.28-0.364c0.1223-0.152 0.121-0.647-0.0038-1.498-0.1391-0.948-0.2223-1.173-0.328-0.887-0.1787 0.483-1.218 0.706-1.8815 0.404-0.6021-0.275-0.7541-0.122-0.5166 0.519 0.6802 1.835 0.5432 1.69 1.5905 1.69 0.5467 0 1.0351-0.098 1.1394-0.228zm300.46-1.277c6.46-0.04 7.76-0.117 6.98-0.416-0.17-0.066-0.31-0.265-0.31-0.443 0-0.766-0.13-0.778-9.93-0.842-5.16-0.034-9.45-0.101-9.52-0.148-0.24-0.147-17.03-0.159-17.38-0.013-0.3 0.127-0.72 0.046-2.41-0.468-0.31-0.093-0.72-0.17-0.92-0.17-1.41 0-3.58-1.333-6.03-3.693-0.6-0.575-0.51-0.314 0.32 0.93 1.36 2.023 3.65 3.658 6.19 4.4 2.31 0.678 3 0.735 9.1 0.752 3.25 0.009 6.61 0.082 7.46 0.161s3.35 0.11 5.55 0.068c2.21-0.042 7.11-0.095 10.9-0.118zm-66.39-0.744c-0.12-0.503-0.32-0.849-0.56-0.954-0.2-0.091-0.45-0.33-0.56-0.533-0.79-1.579-2.16-2.453-3.84-2.453-0.82 0-1.23 0.116-2.01 0.559-0.53 0.308-1.16 0.535-1.38 0.506-0.23-0.029-0.52 0.016-0.66 0.099-0.34 0.211-10.34 0.284-11.17 0.082-0.37-0.091-0.81-0.346-0.96-0.569-0.27-0.374-0.31-0.38-0.47-0.086-0.1 0.176-0.31 0.319-0.45 0.319-0.34 0-0.33 0.596 0.01 1.547 0.15 0.401 0.27 0.995 0.27 1.32v0.592l1.87-0.002c1.99-0.003 10.94 0.198 11 0.246 0.01 0.016 2.07 0.048 4.56 0.073l4.53 0.044-0.18-0.79zm31.74 0.59c0-0.062-0.36-0.247-0.79-0.413-0.43-0.165-1.03-0.552-1.32-0.859-0.29-0.306-0.8-0.669-1.12-0.806-0.33-0.137-0.69-0.458-0.8-0.713-0.12-0.256-0.28-0.465-0.36-0.465-0.07 0-0.39-0.398-0.71-0.884l-0.57-0.883-5.51-0.028c-3.03-0.016-5.76 0.022-6.06 0.082-0.54 0.109-0.56 0.136-0.65 1.413-0.05 0.716-0.07 1.328-0.04 1.361 0.03 0.034 0.22-0.024 0.41-0.127 0.25-0.132 0.66-0.114 1.42 0.062 0.68 0.16 1.18 0.189 1.38 0.082 0.17-0.092 0.55-0.168 0.84-0.168 0.99 0 1.28 0.811 0.5 1.424l-0.46 0.357 0.48 0.119c0.74 0.187 1.65-0.209 2.08-0.91 0.21-0.344 0.5-0.626 0.64-0.626 0.36 0 0.52 0.798 0.3 1.438-0.11 0.293-0.15 0.573-0.1 0.621 0.13 0.129 10.44 0.053 10.44-0.077zm-241.24-0.33c0.174-0.093 0.447-0.208 0.606-0.256 0.447-0.135 0.228-1.199-0.287-1.395-0.567-0.215-0.665-0.593-0.433-1.674 0.186-0.866 0.172-0.954-0.194-1.23-0.513-0.387-0.385-0.667 0.711-1.557 0.493-0.4 0.9-0.834 0.905-0.964 0.018-0.449-0.538-1.294-1.167-1.773-0.56-0.427-0.697-0.459-1.23-0.283-0.759 0.251-1.598 1.02-1.598 1.466 0 0.898 0.467 1.195 0.868 0.553 0.292-0.467 0.882-0.47 1.004-0.004 0.051 0.198 0.011 0.669-0.091 1.047-0.283 1.057-0.283 2.35 0.001 4.145 0.366 2.32 0.326 2.234 0.905 1.925zm169.79-0.928c-0.08-1.274-0.43-1.817-1.17-1.813-0.61 0.004-0.84 0.169-1.02 0.725-0.24 0.795-0.65 1.254-1.38 1.577-0.39 0.172-0.63 0.361-0.53 0.42 0.09 0.059 1.07 0.131 2.17 0.161l2 0.055-0.07-1.125zm-174.48 0.188c0.158-1.097 1.46-1.404 1.83-0.432 0.295 0.776 0.569 0.501 0.434-0.434-0.069-0.476-0.149-0.892-0.178-0.925-0.028-0.033-0.255 0.073-0.503 0.236-0.433 0.284-0.467 0.276-0.837-0.195-0.212-0.27-0.437-0.808-0.499-1.195-0.062-0.388-0.171-0.741-0.242-0.785s-3.263-0.098-7.093-0.12c-5.826-0.033-6.9808-0.082-7.0638-0.298-0.0547-0.143 0.015-0.331 0.1547-0.42 0.1401-0.088 3.4381-0.162 7.3311-0.164l7.076-0.002-0.154-0.592c-0.085-0.325-0.157-1.179-0.159-1.896-0.003-0.717-0.058-1.356-0.121-1.42-0.17-0.17-14.031-0.131-14.202 0.04-0.1706 0.171-0.2531 5.381-0.0893 5.646 0.0689 0.111 2.5663 0.233 6.4403 0.314 3.481 0.073 6.656 0.187 7.056 0.253 0.914 0.151 1.058 0.676 0.375 1.359-0.328 0.328-0.466 0.661-0.466 1.124 0 0.578 0.05 0.651 0.41 0.6 0.313-0.045 0.431-0.208 0.5-0.694zm143.25 0.429c0.35-0.071 0.56-0.223 0.56-0.414 0-0.266-0.28-0.303-2.32-0.307-1.28-0.002-2.55-0.062-2.82-0.133-0.48-0.124-0.5-0.1-0.5 0.539v0.668l2.26-0.121c1.24-0.067 2.51-0.171 2.82-0.232zm-6.54-4.663c0-2.428 0.05-4.834 0.11-5.348l0.12-0.935-1.22 0.044-1.21 0.043 0.05-0.565 0.06-0.566 1.17-0.02c0.65-0.011 1.19-0.093 1.21-0.182 0.15-0.609 0.18-1.891 0.05-1.891-0.09 0-0.16 0.214-0.16 0.476 0 0.472-0.01 0.475-1.05 0.356-1.39-0.162-2.04-0.432-2.04-0.854 0-0.188-0.07-0.342-0.15-0.342s-0.16 0.553-0.18 1.229c-0.02 0.675-0.14 2.498-0.26 4.05-0.22 2.8-0.24 3.265-0.19 5.37 0.02 0.601 0.03 1.297 0.02 1.547 0 0.387 0.1 1.399 0.18 1.866 0.02 0.075 0.81 0.136 1.76 0.136h1.73v-4.414zm-3.08 3.112c-0.89-0.332-0.26-0.781 1.36-0.966 0.9-0.103 1.15-0.072 1.35 0.17 0.21 0.252 0.2 0.343-0.06 0.601-0.33 0.331-1.96 0.45-2.65 0.195zm-5.89 0.024c-0.06-0.415-0.14-0.795-0.19-0.845-0.17-0.163-4.75-0.06-4.92 0.11-0.1 0.101-0.35 0.096-0.64-0.012-0.29-0.112-2.09-0.129-4.84-0.046-6.01 0.182-14.14 0.09-15.94-0.18-1.6-0.24-4.08-0.348-9.28-0.402-7.12-0.076-15.27-0.234-18.386-0.358-3.42-0.136-10.148-0.187-10.259-0.078-0.104 0.103 0.153 1.418 0.307 1.572 0.051 0.051 5.567 0.12 12.258 0.152 6.69 0.033 12.57 0.11 13.08 0.171 0.5 0.061 7.62 0.149 15.83 0.195 13.18 0.073 20.47 0.196 20.62 0.348 0.02 0.026 0.59 0.066 1.25 0.087l1.21 0.039-0.1-0.753zm42.79 0.267c0.8-0.561 0.33-1.096-0.79-0.887-0.67 0.127-0.81-0.01-1.09-1.104-0.23-0.867-0.67-1.026-1.09-0.391-0.4 0.609-0.09 1.766 0.6 2.283 0.6 0.449 1.79 0.499 2.37 0.099zm-151.96-0.86c0-0.128-0.237-0.322-0.526-0.432-0.455-0.171-0.543-0.323-0.652-1.117-0.07-0.505-0.101-1.273-0.07-1.707 0.049-0.669 0.006-0.789-0.283-0.789-0.188 0-0.399 0.123-0.471 0.273-0.071 0.151-0.28 0.587-0.465 0.969-0.268 0.556-0.292 0.764-0.121 1.038 0.293 0.47 0.095 0.543-1.255 0.459-0.64-0.04-2.903-0.13-5.028-0.2-3.529-0.115-3.876-0.099-3.984 0.181-0.064 0.169-0.026 0.508 0.086 0.754l0.204 0.447 4.963-0.017c2.729-0.009 5.454 0.06 6.055 0.155 1.55 0.243 1.547 0.244 1.547-0.014zm34.314 0.019c0.068-0.067 0.073-0.281 0.011-0.475-0.101-0.318-0.356-0.364-2.61-0.472-1.375-0.066-4.401-0.128-6.726-0.138-2.938-0.012-4.316-0.084-4.521-0.233-0.661-0.484 3.488-0.882 9.473-0.909 3.409-0.015 3.643-0.038 3.705-0.359 0.036-0.188-0.026-0.398-0.138-0.468-0.112-0.069-1.328-0.097-2.703-0.063-1.374 0.034-3.687 0.047-5.139 0.029-4.151-0.051-4.785-0.005-5.097 0.367-0.353 0.422-1.505 1.076-2.445 1.387-0.445 0.148-1.321 0.226-2.196 0.194-10.405-0.37-9.678-0.374-9.907 0.053-0.236 0.442-0.705 0.518-0.851 0.138-0.077-0.202-0.204-0.212-0.636-0.049-0.85 0.321-1.156 0.011-1.222-1.236-0.035-0.674 0.036-1.184 0.201-1.437 0.255-0.391 0.25-0.393-1.219-0.38-2.078 0.019-2.333 0.05-2.196 0.272 0.066 0.107 0.374 0.168 0.685 0.137l0.565-0.058 0.032 1.23c0.035 1.35 0.257 1.774 0.925 1.774 0.319 0 0.426 0.088 0.388 0.319-0.043 0.253 0.113 0.337 0.765 0.409 1.25 0.139 30.716 0.109 30.856-0.032zm88.826-0.029c0.91-0.156 1.28-0.298 1.28-0.489 0-0.341-1.07-0.511-3.34-0.529l-1.69-0.013 0.06 0.501c0.04 0.413 0.17 0.52 0.69 0.613 0.99 0.174 1.62 0.156 3-0.083zm108.41-0.099c0-0.469-0.29-0.656-1.53-1.013-1.2-0.343-2.8-1.191-3.3-1.742-0.18-0.199-0.48-0.361-0.66-0.361s-0.42-0.165-0.52-0.367c-0.11-0.202-0.52-0.57-0.91-0.819-0.64-0.401-1.37-1.224-2.43-2.733-0.22-0.31-0.41-0.419-0.52-0.306-0.17 0.175 0.4 1.35 1.54 3.163 0.57 0.892 2.26 2.366 3.5 3.037 0.4 0.217 1.34 0.563 2.09 0.769 0.76 0.206 1.62 0.442 1.92 0.526 0.8 0.222 0.82 0.219 0.82-0.154zm-34.1-0.659c0.05-0.585-0.03-0.827-0.4-1.229-0.44-0.467-0.57-0.5-1.96-0.5h-1.49l1.17 1.174c1.06 1.076 1.58 1.363 2.35 1.303 0.17-0.012 0.28-0.289 0.33-0.748zm-236.23-0.592c-0.0024-0.375-0.081-1.01-0.1747-1.41-0.1044-0.446-0.1072-1.681-0.0072-3.186 0.0898-1.352 0.107-2.51 0.0382-2.574s-0.6363-0.151-1.2613-0.194c-0.9971-0.067-1.1497-0.034-1.2468 0.272-0.14158 0.446 0.1029 0.684 0.8644 0.839 0.806 0.165 0.8215 0.652 0.0212 0.667-0.3229 0.006-0.6236 0.047-0.6682 0.092-0.1454 0.145-0.2986 3.265-0.183 3.726 0.084 0.334 0.2354 0.449 0.5936 0.451 0.2645 0.002 0.5952 0.076 0.7349 0.164 0.3705 0.235 0.1008 0.744-0.394 0.744-0.4636 0-0.8612 0.306-0.8612 0.664 0 0.144 0.3491 0.251 0.9556 0.294 0.5257 0.037 1.0991 0.082 1.2743 0.1 0.2534 0.027 0.3176-0.106 0.3142-0.649zm318.62-0.446c0.06-0.421 0.06-0.835 0.01-0.919-0.06-0.084-0.68-0.129-1.4-0.099l-1.31 0.054-0.05 0.709c-0.08 0.889 0.11 1.014 1.53 1.017l1.12 0.003 0.1-0.765zm-24.81-0.053c0.42-1.278 1.32-1.193-12.28-1.152-6.76 0.02-12.39 0.096-12.51 0.169-0.13 0.078 0.08 0.208 0.5 0.318 2.79 0.729 2.94 0.743 8.91 0.857 3.3 0.064 7.07 0.169 8.37 0.234s3.36 0.143 4.58 0.173l2.21 0.054 0.22-0.653zm11.46 0.462c0.23-0.145 0.22-0.215-0.05-0.512-0.17-0.189-0.31-0.476-0.31-0.637 0-0.162-0.08-0.342-0.17-0.401-0.15-0.091-7.41-0.118-9.02-0.034-0.45 0.024-0.56 0.125-0.66 0.575-0.28 1.287-0.71 1.183 4.89 1.18 2.78-0.001 5.17-0.078 5.32-0.171zm6.56-0.293c0.26-0.678 0.22-1.171-0.09-1.171-0.15 0-0.28 0.092-0.28 0.204 0 0.143-0.06 0.147-0.22 0.016-0.13-0.104-0.68-0.212-1.22-0.241-0.99-0.052-1-0.048-1.15 0.546-0.23 0.908 0.05 1.113 1.53 1.113 1.18 0 1.27-0.028 1.43-0.467zm-86.64-0.125c0-0.225 0.16-0.761 0.35-1.191 0.57-1.252 1.24-1.452 5.35-1.605 3.02-0.113 3.4-0.161 3.29-0.418-0.6-1.467-0.51-2.206 0.4-3.272 0.72-0.84 0.73-0.826-0.93-0.753-0.94 0.042-1.16 0.258-0.74 0.728 0.46 0.506 0.15 1.198-0.61 1.365-1.13 0.247-1.82-0.364-1.47-1.288 0.1-0.273 0.13-0.556 0.05-0.629s-0.78-0.189-1.54-0.258c-1.34-0.12-1.41-0.107-1.62 0.299-1.34 2.624-4.67 5.304-6.2 4.997-0.35-0.069-0.7-0.006-0.98 0.174-0.48 0.315-1.08 0.352-2.82 0.174-2.54-0.261-3.12-0.204-3.81 0.374-0.31 0.259-0.56 0.632-0.56 0.83 0 0.197 0.07 0.315 0.15 0.262 0.09-0.052 0.31 0.022 0.5 0.166 0.5 0.371 0.94 0.333 1.08-0.091 0.11-0.351 0.27-0.364 4.46-0.364 2.38 0 4.47 0.049 4.63 0.11 0.15 0.061 0.28 0.266 0.28 0.455 0 0.224 0.13 0.345 0.37 0.345 0.25 0 0.36-0.123 0.37-0.41zm-86.87 0.053c7.07-0.02 9.35-0.079 9.4-0.244 0.04-0.12 0.11-1.294 0.15-2.61 0.08-2.34 0.08-2.391-0.3-2.406-0.22-0.008-1.12-0.097-2.02-0.197-1.13-0.127-1.69-0.124-1.85 0.01-0.13 0.106-0.32 0.141-0.42 0.078-0.22-0.134-9.22-0.126-20.58 0.018-11.37 0.145-11.4 0.145-16.57-0.016-5.27-0.163-7.63-0.145-8.55 0.068-0.35 0.081-1.358 0.134-2.234 0.117-0.876-0.016-1.592 0.026-1.592 0.093s0.126 0.228 0.281 0.356c0.504 0.418 1.405 2.506 1.286 2.98-0.061 0.246-0.48 0.681-0.96 1l-0.852 0.564 7.721 0.004c7.81 0.004 14.93 0.15 15.1 0.309 0.05 0.048 2.91 0.046 6.37-0.005 3.45-0.051 10.48-0.105 15.62-0.119zm57.81-0.286c0.27-0.176 0.46-0.451 0.43-0.612-0.04-0.248-0.42-0.3-2.46-0.343-1.33-0.028-2.41 0.013-2.41 0.091 0.02 0.444 0.92 1.123 1.57 1.179 1.35 0.116 2.39 0.003 2.87-0.315zm-32.76-0.107c0.1-0.095-0.04-0.163-0.36-0.166-0.3-0.003-0.7-0.129-0.9-0.281-0.27-0.203-0.61-0.244-1.29-0.159-0.72 0.09-0.97 0.052-1.16-0.175-0.13-0.159-0.47-0.289-0.77-0.289-0.4 0-0.57 0.113-0.7 0.467-0.37 0.968-0.38 0.962 2.42 0.858 1.42-0.052 2.67-0.168 2.76-0.255zm-109.48 0.106c0-0.055-0.166-0.426-0.371-0.826-0.352-0.692-0.358-0.797-0.11-2.132 0.144-0.772 0.317-1.573 0.384-1.78 0.12-0.367 0.074-0.375-2.029-0.322-1.183 0.03-2.946 0.094-3.918 0.144-1.057 0.054-1.811 0.019-1.876-0.087-0.166-0.269-0.353-0.219-0.871 0.231-0.259 0.226-0.66 0.551-0.891 0.722-0.279 0.208-0.353 0.361-0.22 0.455 0.11 0.079 0.297 0.327 0.416 0.553 0.136 0.257 0.384 0.409 0.67 0.409 0.674 0 0.785 0.526 0.199 0.952-0.36 0.262-0.484 0.511-0.484 0.971v0.618l3.413 0.054c1.877 0.029 3.925 0.072 4.551 0.095 0.626 0.022 1.137-0.003 1.137-0.057zm296.66-0.926c1.53 0.127 2.27-0.082 2.39-0.673 0.12-0.651-0.31-0.852-1.81-0.852-1.61 0-1.58 0.035-1.23-1.421 0.28-1.181 0.54-1.343 2.07-1.28 1.18 0.048 1.27 0.025 1.22-0.307-0.11-0.72-0.2-0.772-1.48-0.844-1.3-0.074-1.81-0.303-1.56-0.704 0.1-0.154 0.59-0.196 1.66-0.14 1.78 0.094 1.66 0.242 1.87-2.263 0.11-1.36 0.09-1.793-0.14-2.233-0.15-0.3007-0.4-1.1198-0.57-1.8206l-0.29-1.2743-1.63-0.0586c-1-0.0359-1.74-0.1506-1.9-0.2952-0.77-0.6626-1.05-0.6767-1.72-0.0861-0.57 0.4947-0.81 0.5749-1.96 0.6456-0.72 0.0444-1.34 0.1023-1.36 0.1287-0.03 0.0264 0.01 0.2896 0.09 0.585l0.15 0.5369 1.69 0.0527 1.7 0.0526-0.12-0.7556c-0.18-1.1068 0.36-1.6909 0.76-0.8209 0.72 1.5833 0.91 10.296 0.27 12.757-0.27 1.063-0.39 1.284-0.73 1.333-0.23 0.032-0.41 0.162-0.41 0.288 0 0.469 0.24 0.441 0.92-0.106 0.69-0.55 0.73-0.559 2.12-0.445zm1.82-10.2c0.13-0.049 0.37-0.052 0.55-0.006s0.08 0.087-0.22 0.09c-0.31 0.004-0.45-0.034-0.33-0.084zm-2.56-1.5317c-0.27-0.2075-0.48-0.4481-0.48-0.5346 0-0.1596 3.03-0.0556 3.31 0.1134 0.37 0.2273 0.09 0.578-0.54 0.6816-1.19 0.197-1.8 0.1276-2.29-0.2604zm132.41 12.116c0.49-0.252 0.9-0.535 0.9-0.629 0-0.164-1.24-0.484-1.34-0.346-0.03 0.037-0.23 0.302-0.44 0.59-0.34 0.451-0.4 0.843-0.11 0.843 0.04 0 0.49-0.206 0.99-0.458zm-451.09 0.001c0-0.114-0.131-0.592-0.292-1.064-0.275-0.809-0.272-1.137 0.029-2.605l0.118-0.576-1.021-0.128c-1.149-0.143-3.301-0.048-3.504 0.156-0.074 0.074 0.017 0.391 0.203 0.705 0.455 0.771 0.424 2-0.067 2.624-0.781 0.993-0.633 1.071 2.077 1.083 1.716 0.008 2.457-0.051 2.457-0.195zm25.06-1.035c-0.086-0.722-0.045-1.021 0.172-1.261 0.259-0.286 0.364-0.291 1.134-0.059 1.286 0.387 2.323 0.447 9.072 0.524 6.754 0.077 6.43 0.123 6.43-0.915 0-0.244 0.1-0.604 0.223-0.8 0.489-0.783 0.201-0.816-7.057-0.808-4.636 0.005-6.884 0.07-7.018 0.204-0.141 0.141-0.14 0.232 0.002 0.319 0.108 0.067 0.197 0.281 0.197 0.476 0 0.478-0.613 0.462-1.069-0.028-0.736-0.791-2.415-0.372-2.99 0.745-0.557 1.082-0.184 2.549 0.648 2.549 0.336 0 0.358-0.082 0.256-0.946zm423.9 0.299c0.28-0.356 0.47-0.766 0.41-0.911-0.17-0.464-0.8-0.282-1.31 0.381-0.47 0.623-0.48 0.651-0.15 0.904 0.47 0.355 0.46 0.358 1.05-0.374zm-133.12-0.218c0-0.275 0.12-0.705 0.26-0.956 0.39-0.671 0.33-0.841-0.13-0.419-0.34 0.308-0.61 0.362-1.56 0.314l-1.15-0.057 0.06 0.582c0.05 0.556 0.1 0.591 1.15 0.789 0.6 0.114 1.15 0.217 1.22 0.228 0.08 0.011 0.14-0.206 0.15-0.481zm-313.18-0.131c0.345-0.261 0.344-0.267-0.042-0.273-0.928-0.013-1.237-0.441-0.702-0.976 0.227-0.227 0.991-0.253 5.051-0.171 4.61 0.094 4.795 0.085 5.107-0.264 0.288-0.323 0.293-0.388 0.045-0.593-0.376-0.312-0.349-0.879 0.084-1.728 0.199-0.39 0.319-0.751 0.268-0.802-0.121-0.121-2.863-0.034-2.99 0.094-0.053 0.054-0.097 0.685-0.097 1.402 0 1.284-0.006 1.302-0.455 1.244-0.25-0.032-0.906-0.101-1.456-0.152-0.551-0.052-1.074-0.163-1.162-0.248-0.088-0.084-0.149-0.65-0.136-1.258l0.025-1.104h-1.426l0.03 0.864c0.033 0.975-0.029 0.999-1.47 0.567-0.701-0.21-0.819-0.197-1.275 0.141-0.578 0.428-0.939 1.084-1.082 1.969-0.082 0.501-0.011 0.708 0.368 1.087 0.536 0.536 0.815 0.579 1.315 0.201zm9.637-0.279c-0.062-0.1-0.19-0.182-0.284-0.182s-0.171 0.082-0.171 0.182c0 0.101 0.127 0.182 0.283 0.182s0.233-0.081 0.172-0.182zm50.175-0.308c0.357-0.357 0.354-0.363-0.459-1.268-0.45-0.5-1.322-1.19-1.938-1.532-0.617-0.343-1.339-0.745-1.605-0.893-0.685-0.384-2.965-0.344-4.188 0.071l-0.975 0.332 1.612 0.791c0.886 0.435 1.789 0.923 2.005 1.083 0.39 0.289 0.393 0.284 0.295-0.448-0.058-0.434-0.025-0.74 0.081-0.74 0.099 0 0.704 0.267 1.344 0.592 0.64 0.326 1.429 0.688 1.755 0.804 0.714 0.254 0.769 0.715 0.12 1.011-0.384 0.175-0.642 0.155-1.383-0.108-1.07-0.381-1.353-0.278-0.483 0.175 1.358 0.708 3.179 0.77 3.819 0.13zm119.14 0.211c0.06-0.154 0.34-0.4 0.62-0.547 0.43-0.222 0.82-0.234 2.31-0.071 0.98 0.107 2.15 0.168 2.59 0.136 0.8-0.058 0.8-0.058 0.84-0.804 0.04-0.762 0.29-1.321 1.08-2.423 0.25-0.341 0.41-0.659 0.37-0.707-0.14-0.138-3.41-0.404-3.59-0.292-0.09 0.056 0.04 0.265 0.3 0.464 0.7 0.556 0.63 1.308-0.18 1.689-0.48 0.229-0.72 0.254-1 0.105-0.5-0.267-0.5-1.345 0-1.773 0.2-0.171 0.36-0.38 0.36-0.464s-0.75-0.119-1.68-0.079c-0.98 0.043-1.81-0.005-1.99-0.114-0.24-0.149-0.53-0.002-1.42 0.728-1.22 1.005-3.51 1.906-4.95 1.956-0.52 0.018-1.04 0.194-1.52 0.519-0.4 0.271-1.01 0.549-1.36 0.617-0.76 0.15-1.82 0.572-1.82 0.725 0 0.059 0.73 0.059 1.62-0.002 0.89-0.06 2.87-0.115 4.4-0.122 2.52-0.012 2.82 0.021 3.25 0.352 0.57 0.444 1.62 0.507 1.77 0.107zm-137.46-1.665c-0.131-0.7-0.461-0.814-0.461-0.16 0 0.245-0.082 0.495-0.182 0.557-0.354 0.219-0.2 1.006 0.228 1.166 0.363 0.136 0.416 0.09 0.469-0.403 0.033-0.306 0.008-0.828-0.054-1.16zm112.55 1.544c0.32-0.326 0.26-0.956-0.17-1.683-0.35-0.595-1.07-0.912-1.07-0.471 0 0.097-0.12 0.129-0.28 0.071-0.28-0.111-0.81 0.222-0.81 0.516 0 0.095 0.22 0.147 0.5 0.115 0.39-0.047 0.54 0.047 0.74 0.451 0.17 0.367 0.19 0.576 0.05 0.745-0.11 0.129-0.14 0.289-0.08 0.355 0.2 0.196 0.88 0.136 1.12-0.099zm62.41-0.789c1.12-0.518 4.61-4.179 4.61-4.835 0-0.37-0.61-0.494-0.82-0.165-0.06 0.1-0.27 0.182-0.46 0.182s-0.8 0.41-1.36 0.911c-0.55 0.5-1.12 0.91-1.26 0.91-0.38 0-1.65 1.395-2.36 2.583-0.34 0.57-0.58 1.071-0.54 1.114 0.09 0.09 1.34-0.312 2.19-0.7zm-81.4 0.279c0.4-0.095 1.03-0.175 1.41-0.177 1.14-0.008 3.87-1.179 4.89-2.096 0.36-0.326 0.81-0.679 1-0.785 0.19-0.105 0.28-0.253 0.21-0.328-0.08-0.075-4.17-0.143-9.1-0.15l-8.97-0.013-0.05 1.547c-0.03 0.851 0 1.742 0.06 1.98l0.1 0.432 4.86-0.119c2.68-0.065 5.19-0.196 5.59-0.291zm90.39-0.294c0.1-0.262 0.13-0.872 0.06-1.355-0.14-1.06 0.02-1.809 0.39-1.809 0.3 0 0.37-0.465 0.09-0.638-0.25-0.153-3.27-0.301-3.65-0.179-0.17 0.053-0.71 0.646-1.2 1.318-0.49 0.671-1.26 1.569-1.71 1.995l-0.81 0.774 1.91 0.024c1.6 0.021 2.62 0.093 4.51 0.319 0.12 0.015 0.31-0.187 0.41-0.449zm-20.34-1.957c0.29-0.314 0.65-0.816 0.81-1.116 0.28-0.533 0.84-2.816 0.72-2.938-0.1-0.101-1.84 1.052-2.07 1.37-0.11 0.161-0.41 0.515-0.66 0.785s-0.55 0.885-0.66 1.365c-0.1 0.481-0.31 1.256-0.45 1.722-0.15 0.466-0.22 0.896-0.16 0.954 0.11 0.112 1.61-1.187 2.47-2.142zm183.72 1.643c0.05-0.135 0.11-0.565 0.14-0.956 0.04-0.65 0.11-0.733 0.76-0.965 1.1-0.389 11.18-0.541 28.07-0.425l14.61 0.101v-0.474c0-0.261-0.09-0.529-0.2-0.596-0.28-0.176-7.14-0.219-9.72-0.061-1.31 0.081-2.46 0.062-2.88-0.046-0.76-0.196-16.7-0.252-17.46-0.061-0.25 0.063-0.77 0.03-1.16-0.073-0.48-0.126-1.76-0.127-3.98-0.002-1.81 0.101-3.73 0.18-4.28 0.176s-1.39 0.082-1.87 0.19c-1.02 0.233-1.69 0.106-1.95-0.372-0.13-0.26-0.1-0.439 0.14-0.727 0.31-0.381 0.39-0.384 12.41-0.47 11.05-0.079 13.44-0.125 19.3-0.37 1.05-0.044 3.88 0.011 6.28 0.122 2.41 0.111 4.62 0.212 4.92 0.224 0.5 0.022 0.55-0.028 0.57-0.614 0.03-0.594-0.06-1.192-0.43-2.997l-0.14-0.7224-1.46-0.2009c-0.8-0.1105-1.79-0.1391-2.19-0.0635-0.63 0.1159-2.11 0.1667-6.46 0.2211-0.35 0.0044-2.25-0.0197-4.22-0.0535-2.57-0.0441-3.66-0.0007-3.85 0.1535-0.19 0.1566-0.48 0.1657-1.07 0.0334-0.44-0.0999-4.94-0.2304-9.99-0.29-10.81-0.1278-11.68-0.1262-12.48 0.0239-0.79 0.1473-1.15-0.1581-1.15-0.961 0-0.6229 0-0.6251-0.77-0.5693-0.89 0.0643-1.12 0.4842-0.58 1.075 0.22 0.2488 0.26 0.4122 0.13 0.5468-0.14 0.1347-0.12 0.4352 0.05 1.0059 0.27 0.897 0.31 6.663 0.05 7.603-0.08 0.289-0.1 0.596-0.05 0.682 0.15 0.246 0.81 0.182 0.91-0.088zm-199.93-0.601c1.21-0.756 2.49-1.883 2.78-2.445 0.36-0.699 0.35-0.722-0.32-0.589-0.78 0.156-2.51 1.495-3.11 2.408-0.81 1.223-0.61 1.415 0.65 0.626zm125.12-1.802c0.06-1.097 0.11-2.077 0.09-2.177-0.01-0.1-0.04-1.096-0.07-2.214-0.02-1.118-0.1-2.0904-0.17-2.1603-0.07-0.07-0.63-0.0382-1.25 0.0706-0.73 0.1296-1.23 0.1369-1.45 0.0211-0.49-0.262-0.5-0.2432-0.34 0.5966 0.08 0.426 0.15 1.543 0.16 2.483l0.01 1.709 0.9-0.107c0.72-0.085 0.98-0.038 1.32 0.235 0.38 0.313 0.39 0.351 0.09 0.467-0.18 0.07-0.77 0.089-1.32 0.044-0.91-0.076-0.99-0.051-1 0.297 0 0.208-0.05 0.572-0.11 0.809-0.11 0.388-0.08 0.416 0.32 0.291 0.85-0.27 1.6-0.12 2.07 0.411 0.25 0.278 0.45 0.704 0.45 0.946s0.04 0.402 0.09 0.356 0.14-0.981 0.21-2.078zm60.87 1.408c4.96 0.004 9.62 0.018 10.37 0.032l1.37 0.024 0.27-1.365c0.15-0.751 0.26-1.57 0.24-1.821-0.02-0.25-0.08-1.11-0.14-1.911-0.05-0.801-0.15-1.907-0.22-2.457-0.07-0.551-0.1-1.0994-0.08-1.219 0.06-0.3673-0.74-1.8948-0.96-1.8226-0.36 0.1208-0.32 0.6324 0.08 1.0044 0.24 0.2221 0.36 0.5283 0.33 0.7902-0.06 0.3763-0.2 0.4435-1.16 0.5608-0.6 0.0733-1.99 0.125-3.09 0.1148s-2.15 0.043-2.33 0.1182c-0.19 0.0752-0.74 0.0884-1.24 0.0293-0.7-0.0828-0.93-0.0466-1.01 0.1581-0.14 0.3738-0.48 0.3298-0.75-0.0986-0.3-0.4834-0.7-0.4619-0.84 0.0455-0.1 0.3549-0.15 0.3729-0.35 0.1365-0.47-0.5657-0.97-0.6634-3.18-0.6276-2.08 0.0335-2.28 0.0672-2.71 0.4684l-0.47 0.4326 0.13-0.4326c0.09-0.2796 0.05-0.4828-0.1-0.5753-0.27-0.1694-1.44-0.0167-1.75 0.2294-0.12 0.0948-0.29 0.1279-0.38 0.0734-0.09-0.0544-0.44-0.108-0.78-0.1191-1.18-0.0383-19.39-0.0211-25.65 0.0242-10.17 0.0736-11.91 0.0647-15.99-0.0819l-3.89-0.1393 0.15 0.6015c0.09 0.3307 0.13 1.6797 0.1 2.9987l-0.05 2.397 1.42 0.075c0.78 0.041 10.63 0.049 21.9 0.018 11.26-0.032 23.47-0.052 27.12-0.045s7.25 0.006 7.98-0.002c1.08-0.011 1.32 0.036 1.24 0.243-0.05 0.141 0.03 0.305 0.18 0.363 0.18 0.069 0.31-0.019 0.37-0.241 0.08-0.312 0.28-0.35 1.9-0.367 1.73-0.017 3.47 0.322 3.72 0.727 0.21 0.336-1.32 0.581-2.53 0.406-0.66-0.095-1.3-0.112-1.42-0.039-0.12 0.074-6.77 0.141-14.79 0.15-8.02 0.008-16.87 0.036-19.68 0.061-2.8 0.025-6 0.012-7.1-0.029-1.7-0.063-8.97-0.103-17.68-0.097-2.12 0.002-2.8 0.155-2.8 0.636 0 0.63-0.03 0.629 22.86 0.596 12.31-0.018 26.43-0.029 31.39-0.024zm-0.73-7.8516c0-0.1061 0.08-0.1928 0.18-0.1928s0.19 0.0361 0.19 0.0803c0 0.0441-0.09 0.1309-0.19 0.1927-0.1 0.0619-0.18 0.0258-0.18-0.0802zm-141.55 7.1536c1.71-0.019 3.98-0.092 5.03-0.163 1.05-0.07 9.04-0.151 17.75-0.178 26.59-0.083 23.93-0.032 23.93-0.452 0-0.453 0.1-0.455 0.66-0.014 0.42 0.328 0.85 0.354 6.59 0.407 3.37 0.031 7.24 0.042 8.59 0.024 1.35-0.017 4.83-0.057 7.74-0.088l5.28-0.056 0.05-0.485c0.04-0.342-0.04-0.514-0.27-0.583-0.3-0.089-3.85-0.191-4.06-0.116-0.38 0.135-4.71 0.256-6.56 0.183-0.65-0.026-3.39-0.046-6.09-0.046-2.71 0.001-5.41-0.022-6.01-0.051s-2.43-0.083-4.06-0.12c-2.47-0.055-3-0.022-3.12 0.199-0.13 0.23-0.19 0.231-0.41 0.005-0.22-0.221-1.94-0.255-11.36-0.222-6.1 0.021-12.97 0.079-15.27 0.128-2.31 0.049-6.89 0.133-10.2 0.186-7.27 0.116-12.3 0.276-12.5 0.397-0.08 0.049 0.02 0.419 0.23 0.821 0.32 0.631 0.41 0.699 0.66 0.496 0.2-0.171 1.15-0.247 3.4-0.272zm218.49 0.253c0.08-0.125 0.15-0.493 0.16-0.819 0.02-0.442-0.05-0.591-0.28-0.591-0.17 0-0.56-0.128-0.88-0.283-0.31-0.156-0.98-0.349-1.49-0.431-0.99-0.156-1.04-0.123-1.13 0.704-0.04 0.4 0.05 0.469 0.9 0.662 0.52 0.118 1.22 0.382 1.55 0.586 0.71 0.439 0.98 0.479 1.17 0.172zm-276.05-1.588c0.71-0.264 1.44-0.758 2.32-1.577 0.71-0.655 1.29-1.275 1.29-1.377 0-0.237-0.91-0.017-1.28 0.309-0.15 0.134-0.64 0.385-1.09 0.559-0.45 0.173-1.11 0.589-1.46 0.925-0.36 0.336-0.78 0.611-0.93 0.611-0.32 0-0.58 0.269-0.77 0.797-0.1 0.295-0.05 0.328 0.39 0.24 0.28-0.056 0.97-0.275 1.53-0.487zm-6.23-0.132c0.46-0.171 1.16-0.494 1.56-0.72 0.4-0.225 1.13-0.621 1.63-0.879 1.15-0.591 1.33-0.74 2.05-1.661 0.87-1.119 0.52-1.272-1.18-0.504-1.77 0.804-2.19 0.979-2.35 0.982-0.18 0.003-1.24 0.987-2.42 2.233-0.92 0.969-0.75 1.098 0.71 0.549zm69.82-1.156c2.6-0.091 4.85-0.172 5-0.182 0.15-0.009 3.96-0.014 8.47-0.01 9.75 0.008 45.97-0.135 48.69-0.192 1.05-0.022 2.9 0.031 4.1 0.119s2.51 0.165 2.91 0.172l0.73 0.011-0.04-1.365c-0.03-1.321-0.33-2.84-0.59-2.9991-0.11-0.0652-14.11-0.1308-15.48-0.0726-0.25 0.0107-1.48-0.0378-2.73-0.1077-2.51-0.1403-19.47-0.2219-26.76-0.1288-3.14 0.0402-4.68 0.1245-4.76 0.2614-0.09 0.1471-0.68 0.1366-2.15-0.0391-1.36-0.1613-2.7-0.1967-4.07-0.107-1.97 0.1294-13.13 0.13-17.42 0.001-9.63-0.2903-13.64-0.2934-16.14-0.0126-1.41 0.1595-2.82 0.2406-3.12 0.1803-0.47-0.0945-0.59-0.0377-0.81 0.4102-0.15 0.287-0.32 0.875-0.38 1.309l-0.13 0.787 2.24-0.111c4.35-0.216 7.83-0.255 8.8-0.097 1.38 0.224 2.26 0.949 2.26 1.851v0.67l3.32-0.092c1.83-0.05 5.46-0.165 8.06-0.256zm212.83-1.765c-0.1-1.982-0.46-3.9007-1.14-6.144-0.33-1.0952-1.64-2.8449-2.31-3.0801-0.53-0.1871-1.62 0.0921-2.62 0.6702-0.63 0.3641-0.84 0.7134-0.68 1.1357 0.14 0.363 0.4 0.3444 1.25-0.091 0.72-0.3647 2.17-0.4875 2.59-0.2193 0.34 0.2168 1.31 1.7351 1.21 1.8959-0.05 0.079-0.37 0.1437-0.72 0.1437-0.77 0-1.48 0.3456-2.05 1.0045-0.41 0.4753-0.41 0.5205-0.15 1.2461 0.42 1.1223 0.88 3.6343 0.82 4.4263l-0.06 0.695 1.42 0.116c0.78 0.063 1.47 0.166 1.53 0.227 0.07 0.062 0.32 0.112 0.57 0.112h0.45l-0.11-2.138zm-429.45 1.621c9.411-0.004 17.213-0.013 17.338-0.018 0.137-0.006 0.228-0.266 0.228-0.651v-0.641l-3.686 0.015c-2.028 0.008-3.888-0.06-4.133-0.151-0.246-0.091-0.725-0.103-1.065-0.026-0.339 0.076-1.858 0.145-3.375 0.153s-6.281 0.056-10.586 0.107c-4.305 0.05-10.285 0.084-13.288 0.075-3.004-0.009-5.543-0.013-5.644-0.008-0.1 0.004-5.83 0.053-12.735 0.109-7.273 0.058-12.623 0.172-12.72 0.269-0.0929 0.092-0.1192 0.296-0.059 0.453 0.1267 0.33 1.228 0.348 20.28 0.329 6.778-0.007 11.555 0.057 11.616 0.155 0.061 0.1 0.226 0.1 0.41 0.002 0.177-0.094 7.595-0.168 17.419-0.172zm45.31-0.106c11.4-0.048 21.28-0.02 21.94 0.063 0.65 0.082 1.69 0.081 2.29-0.003s4.61-0.193 8.92-0.243c7.97-0.092 13.54-0.256 13.78-0.406 0.08-0.046 0.14-0.359 0.14-0.695 0-0.52-0.07-0.628-0.5-0.72-1.36-0.294-47.25 0.05-47.75 0.358-0.06 0.041-3.765 0.127-8.222 0.19-5.837 0.083-8.138 0.058-8.228-0.087-0.091-0.146-0.229-0.145-0.51 0.005-0.242 0.13-1.742 0.221-4.039 0.247-4.856 0.053-4.41-0.019-4.437 0.723l-0.024 0.629 1.223 0.054c0.672 0.029 2.001 0.035 2.952 0.013s11.06-0.079 22.465-0.128zm-100.95-0.781c0.0432-0.304-0.0574-0.432-0.4108-0.52-0.5835-0.147-1.7849 0.066-1.9643 0.348-0.3299 0.519-0.1269 0.631 1.089 0.603 1.1196-0.025 1.2338-0.064 1.2861-0.431zm192.8-0.458c3.96-0.037 7.56-0.012 8.01 0.057 0.75 0.114 0.87 0.076 1.47-0.463 0.36-0.323 1.24-0.818 1.96-1.1 0.72-0.281 1.3-0.572 1.3-0.646 0-0.192-8.89-0.018-10.77 0.211-0.88 0.106-1.67 0.143-1.77 0.081-0.22-0.136-22.78-0.053-25.5 0.095-0.45 0.024-1.07 0.039-1.37 0.033s-2.16-0.003-4.15 0.006l-3.6 0.017 0.05 0.634c0.05 0.519 0.14 0.646 0.51 0.7 0.25 0.036 3.53 0.101 7.28 0.144 3.76 0.043 7.24 0.143 7.74 0.221 0.9 0.141 4.81 0.144 18.84 0.01zm60.8 0.031c0-0.106-0.08-0.142-0.18-0.08s-0.18 0.149-0.18 0.193 0.08 0.08 0.18 0.08 0.18-0.087 0.18-0.193zm-17.66-0.562c2.19-0.02 3.1-0.095 3.37-0.273 0.46-0.315 1.15-0.304 1.73 0.027 0.49 0.279 5.09 0.402 5.1 0.137 0.01-0.076 0.04-0.563 0.08-1.083l0.08-0.946-0.77-0.109c-0.42-0.0605-1.04-0.1129-1.4-0.117-0.35-0.0041-2.76-0.044-5.37-0.0887-3.38-0.0582-4.84-0.0211-5.12 0.1304-0.28 0.1493-1.08 0.1743-2.73 0.0823-1.29-0.0707-2.42-0.1329-2.52-0.1378-0.84-0.0416-12.16 0.2578-12.64 0.3338-0.35 0.055-1.93 0.097-3.51 0.095l-2.87-0.005v0.703c0 0.386-0.05 0.832-0.11 0.99-0.14 0.365 0.42 0.391 0.93 0.043 0.41-0.279 1.86-0.665 2.5-0.665 0.23 0 0.75 0.18 1.14 0.399 1.12 0.617 3.13 0.661 22.11 0.484zm-78.82-1.583c0-0.385-0.13-0.9619-0.29-1.2815-0.28-0.5748-0.3-0.5806-1.5-0.5339-0.67 0.026-1.35-0.0206-1.53-0.1034-0.29-0.1358-0.32-0.0273-0.32 1.0975v1.2483l1.48-0.06c0.9-0.037 1.56 0.017 1.68 0.136 0.35 0.351 0.48 0.21 0.48-0.503zm89.75-2.2126c0-0.1001-0.17-0.1821-0.37-0.1821s-0.36 0.082-0.36 0.1821 0.16 0.182 0.36 0.182 0.37-0.0819 0.37-0.182zm96-0.1614c0.12-0.1924-0.4-0.6669-0.56-0.5095-0.15 0.1516 0.07 0.6709 0.29 0.6709 0.1 0 0.22-0.0727 0.27-0.1614zm59.53-0.3973c-0.15-0.2525-0.26-0.2054-0.26 0.1143 0 0.1561 0.08 0.2324 0.18 0.1695 0.11-0.0629 0.14-0.1906 0.08-0.2838zm41.24 0.0126c0-0.1001-0.08-0.182-0.19-0.182s-0.14 0.0819-0.08 0.182 0.15 0.182 0.19 0.182c0.05 0 0.08-0.0819 0.08-0.182zm-147.23-0.6705c-0.13-0.0525-0.29-0.0461-0.35 0.0144s0.05 0.1035 0.24 0.0956c0.21-0.0087 0.26-0.0519 0.11-0.11zm106.09-1.0588c0-0.1502 0.11-0.2526 0.23-0.2276 0.32 0.064 0.21-2.0537-0.12-2.3879-0.19-0.1886-1.02-0.264-3.32-0.3038-1.69-0.0291-3.72-0.0676-4.52-0.0855-0.8-0.018-1.47 0.0364-1.5 0.1208s-1.96 0.1278-4.28 0.0964c-8.36-0.1127-8.37-0.112-8.74 0.3365-0.18 0.224-0.32 0.699-0.32 1.0863 0 0.5772 0.07 0.7061 0.44 0.7994 0.25 0.0611 4.22 0.1149 8.83 0.1196 5.49 0.0055 8.58 0.076 8.95 0.2042 0.4 0.1422 0.61 0.1398 0.76-0.0089 0.12-0.1125 0.75-0.2046 1.42-0.2046 0.98 0 1.27 0.0696 1.54 0.3641 0.39 0.4326 0.63 0.4677 0.63 0.091zm-112.13-0.1785c0.57-0.3537-0.63-0.4485-6.1-0.4828-3.2-0.0202-6.92-0.0435-8.25-0.0518-1.34-0.0083-2.47 0.0464-2.52 0.1215-0.04 0.0751-0.24 0.1365-0.43 0.1365-0.49 0-0.45 0.3258 0.05 0.3969 0.88 0.1245 17.03 0.0118 17.25-0.1203zm8.19 0.1023c0.43-0.1222 0.41-0.1396-0.23-0.2636-0.37-0.073-1.19-0.0685-1.82 0.01l-1.13 0.1428 0.91 0.1104c1.25 0.1525 1.74 0.1526 2.27 0.0004zm-26.99-0.141c-0.17-0.0461-0.42-0.0431-0.54 0.0068-0.13 0.0498 0.02 0.0876 0.32 0.0839s0.4-0.0445 0.22-0.0907zm74.76-0.6159c0.37-0.4346 0.47-0.7585 0.47-1.4456 0-0.487-0.08-0.9383-0.19-1.0028-0.53-0.3277-1.48 1.3648-1.32 2.3488 0.13 0.8068 0.42 0.8349 1.04 0.0996zm61.25 0.2109c0.28-0.178 0.39-1.7058 0.14-1.9565-0.16-0.1655-2.38-0.2582-2.9-0.1211-0.24 0.0643-0.31 0.2762-0.31 0.8768 0 1.3166 0.05 1.3682 1.52 1.3651 0.71-0.0015 1.41-0.0755 1.55-0.1643zm-29.19-0.201c0.06-0.1014 0.06-0.6214-0.01-1.1556l-0.12-0.9713-1.12-0.0423c-4.78-0.1803-19.68-0.4236-23.51-0.3839-1.9 0.0197-3.67 0.0376-3.92 0.0397-1.28 0.0107-1.6 0.1466-1.73 0.7376-0.12 0.5171-0.05 0.6405 0.63 1.223l0.76 0.6478 14.45 0.0447c9.61 0.0297 14.49-0.0172 14.57-0.1397zm-116.14 56.252c-0.07-0.1 0.01-0.182 0.17-0.182 0.15 0 0.28 0.082 0.28 0.182s-0.08 0.182-0.17 0.182-0.22-0.082-0.28-0.182zm57.19-26.152c-0.27-0.268-0.11-0.967 0.27-1.17 0.33-0.175 0.44-0.154 0.64 0.12 0.3 0.41 0.3 0.67 0.02 0.953-0.24 0.238-0.74 0.29-0.93 0.097zm131.04-3.495c-0.07-0.127-0.09-0.28-0.03-0.34 0.16-0.163 0.34 0.077 0.25 0.341-0.06 0.185-0.1 0.185-0.22-0.001z"/>
  <metadata>
    <rdf:RDF>
      <cc:Work>
        <dc:format>image/svg+xml</dc:format>
        <dc:type rdf:resource="http://purl.org/dc/dcmitype/StillImage"/>
        <cc:license rdf:resource="http://creativecommons.org/licenses/publicdomain/"/>
        <dc:publisher>
          <cc:Agent rdf:about="http://openclipart.org/">
            <dc:title>Openclipart</dc:title>
          </cc:Agent>
        </dc:publisher>
        <dc:title>Bassoon</dc:title>
        <dc:date>2009-03-22T12:35:17</dc:date>
        <dc:description>Source: http://commons.wikimedia.org/wiki/File:Bassoon_drawing_(PSF).png</dc:description>
        <dc:source>http://openclipart.org/detail/22779/bassoon-by-papapishu</dc:source>
        <dc:creator>
          <cc:Agent>
            <dc:title>papapishu</dc:title>
          </cc:Agent>
        </dc:creator>
        <dc:subject>
          <rdf:Bag>
            <rdf:li>black and white</rdf:li>
            <rdf:li>clip art</rdf:li>
            <rdf:li>clipart</rdf:li>
            <rdf:li>contour</rdf:li>
            <rdf:li>externalsource</rdf:li>
            <rdf:li>image</rdf:li>
            <rdf:li>line art</rdf:li>
            <rdf:li>media</rdf:li>
            <rdf:li>music</rdf:li>
            <rdf:li>musical instruments</rdf:li>
            <rdf:li>outline</rdf:li>
            <rdf:li>png</rdf:li>
            <rdf:li>psf</rdf:li>
            <rdf:li>public domain</rdf:li>
            <rdf:li>svg</rdf:li>
            <rdf:li>wikimedia commons</rdf:li>
            <rdf:li>woodwind instruments</rdf:li>
          </rdf:Bag>
        </dc:subject>
      </cc:Work>
      <cc:License rdf:about="http://creativecommons.org/licenses/publicdomain/">
        <cc:permits rdf:resource="http://creativecommons.org/ns#Reproduction"/>
        <cc:permits rdf:resource="http://creativecommons.org/ns#Distribution"/>
        <cc:permits rdf:resource="http://creativecommons.org/ns#DerivativeWorks"/>
      </cc:License>
    </rdf:RDF>
  </metadata>
</svg>
