<svg xmlns:dc="http://purl.org/dc/elements/1.1/" xmlns:cc="http://creativecommons.org/ns#" xmlns:rdf="http://www.w3.org/1999/02/22-rdf-syntax-ns#" xmlns:svg="http://www.w3.org/2000/svg" xmlns="http://www.w3.org/2000/svg" xmlns:sodipodi="http://sodipodi.sourceforge.net/DTD/sodipodi-0.dtd" xmlns:inkscape="http://www.inkscape.org/namespaces/inkscape" viewBox="0 0 26.458334 33.07291625" version="1.1" x="0px" y="0px"><g transform="translate(0,-270.54168)"><path d="m 0.9644748,271.88213 0.0156521,0.0927 1.5055759,0.28001 0.071965,0.11658 1.6135394,0.21428 0.1356837,-0.0991 0.6173018,0.0437 0.085627,-0.11461 0.1090978,0.0243 c 0,0 0.739974,-0.0198 1.0880367,0.20748 0.4875761,0.4897 0.8859566,1.21359 0.8859566,1.21359 l -0.026658,0.26646 0.1419794,0.24781 c 0,0 0.223411,-0.37126 0.4564721,-0.51538 0.2330258,-0.14413 0.5997715,-0.22982 0.5997715,-0.22982 l -0.1565897,-0.24997 -0.2632998,0.0491 c 0,0 -0.6348182,-1.13673 -1.307508,-1.45227 -0.6726836,-0.31552 -1.4128315,-0.2956 -1.4128315,-0.2956 l -0.1824734,-0.17897 -0.6816759,-0.11396 -0.1415813,-0.10469 -1.786153,-0.0231 c 0,0 -0.066693,0.13998 -0.3981435,0.23861 -0.3312431,0.0987 -0.9697277,0.38264 -0.9697277,0.38264 z m 6.5672428,2.34836 c -0.2444942,0.17848 -0.2978662,0.51905 -0.1193314,0.76357 l 14.2748028,19.55355 c 0.178483,0.24449 0.519281,0.29765 0.763754,0.11914 l 0.407325,-0.29735 c 0.244482,-0.17848 0.297477,-0.51916 0.119023,-0.76362 l -0.111407,-0.15262 -0.344009,0.25114 a 0.3863658,0.36880371 53.869213 0 1 -0.100432,0.49002 0.3863658,0.36880371 53.869213 0 1 -0.524195,-0.10055 l -0.0024,-0.003 a 0.3863658,0.36880371 53.869213 0 1 0.0793,-0.52718 0.3863658,0.36880371 53.869213 0 1 0.378246,-0.0226 l 0.376686,-0.27499 -2.081764,-2.85158 -0.32601,0.238 a 0.3863658,0.36880371 53.869213 0 1 -0.119499,0.4513 0.3863658,0.36880371 53.869213 0 1 -0.5244,-0.10035 l -0.0024,-0.003 a 0.3863658,0.36880371 53.869213 0 1 -0.06635,-0.29708 l -1.474421,-2.01968 c -0.02056,-0.0282 -0.01424,-0.0676 0.01365,-0.0882 l 0.03395,-0.0249 c 0.02819,-0.0206 0.06742,-0.0145 0.08802,0.0136 l 1.421041,1.94653 a 0.3863658,0.36880371 53.869213 0 1 0.06308,-0.0578 0.3863658,0.36880371 53.869213 0 1 0.41856,6.6e-4 l 0.337514,-0.2464 -3.997344,-5.47554 c -0.01182,0.0176 -0.02586,0.0339 -0.04345,0.0471 l -0.645138,0.47097 c -0.06939,0.0506 -0.163422,0.0399 -0.220763,-0.021 l -0.01709,0.0125 c -0.01028,0.008 -0.02469,0.005 -0.03201,-0.005 l -2.078917,-2.84767 a 0.32692491,0.31206469 53.869213 0 1 -0.394268,-0.11296 l -0.0017,-10e-4 a 0.32692491,0.31206469 53.869213 0 1 0.06701,-0.44617 0.32692491,0.31206469 53.869213 0 1 0.140475,-0.0528 l -1.452212,-1.98924 a 0.32692491,0.31206469 53.869213 0 1 -0.01572,0.0123 0.32692491,0.31206469 53.869213 0 1 -0.443583,-0.0848 l -0.0024,-0.003 a 0.32692491,0.31206469 53.869213 0 1 0.06718,-0.44599 0.32692491,0.31206469 53.869213 0 1 0.307756,-0.0252 l -0.643222,-0.88109 a 0.32692491,0.31206469 53.869213 0 1 -0.138982,-0.11305 l -0.0024,-0.003 a 0.32692491,0.31206469 53.869213 0 1 -0.05979,-0.159 l -0.800015,-1.09585 a 0.32692491,0.31206469 53.869213 0 1 -0.100013,0.12308 0.32692491,0.31206469 53.869213 0 1 -0.4437749,-0.0847 l -0.00166,-0.001 a 0.32692491,0.31206469 53.869213 0 1 0.067176,-0.446 0.32692491,0.31206469 53.869213 0 1 0.1401926,-0.0528 L 9.3639339,275.9963 a 0.32692491,0.31206469 53.869213 0 1 -0.026606,0.0221 0.32692491,0.31206469 53.869213 0 1 -0.4437132,-0.0851 l -0.00239,-0.003 a 0.32692491,0.31206469 53.869213 0 1 0.067176,-0.44599 0.32692491,0.31206469 53.869213 0 1 0.4432975,0.0867 0.32692491,0.31206469 53.869213 0 1 0.038215,0.3159 l 0.5057977,0.69285 a 0.32692491,0.31206469 53.869213 0 1 0.1223761,0.10562 0.32692491,0.31206469 53.869213 0 1 0.05773,0.14111 l 0.806823,1.1052 a 0.32692491,0.31206469 53.869213 0 1 0.09701,-0.11432 0.32692491,0.31206469 53.869213 0 1 0.443402,0.0869 0.32692491,0.31206469 53.869213 0 1 -0.06503,0.44651 0.32692491,0.31206469 53.869213 0 1 -0.131323,0.0521 l 3.950044,5.41076 c 0.009,-0.0107 0.01873,-0.0211 0.03019,-0.0298 l 0.356457,-0.26023 -6.9144238,-9.47134 c -0.1784956,-0.2445 -0.5189733,-0.29761 -0.7634746,-0.11913 z m 0.5674998,2.12227 c -0.046549,0.0339 -0.044969,0.11487 0.00345,0.18134 l 1.0427641,1.42836 c 0.048523,0.0665 0.1250778,0.0926 0.1716659,0.0586 0.04655,-0.0339 0.044933,-0.11469 -0.00359,-0.18117 l -1.0427689,-1.4284 c -0.048523,-0.0665 -0.1249253,-0.0927 -0.1715071,-0.0585 z m 3.5059966,1.43476 c 0.03523,-0.0257 -0.04615,0.0773 -0.01719,0.11016 0,0 0.22499,0.27484 0.338103,0.38668 0.11308,0.11187 0.173645,0.0924 0.335004,0.2862 0.161268,0.19398 0.535491,0.92958 0.535491,0.92958 0.02576,0.0352 0.07493,0.0428 0.11015,0.0172 l 0.0088,-0.006 c 0.03523,-0.0257 0.03841,-0.0725 0.0172,-0.11017 0,0 -0.376804,-0.7121 -0.529261,-0.92105 -0.152445,-0.20894 -0.216285,-0.24816 -0.329786,-0.36173 -0.113433,-0.11362 -0.349703,-0.31958 -0.349703,-0.31958 -0.03219,-0.0296 -0.07493,-0.0428 -0.110161,-0.0172 z m 0.340072,1.74017 a 0.32692491,0.31206469 53.869213 0 1 -0.02849,0.17502 l 1.552911,2.12717 a 0.32692491,0.31206469 53.869213 0 1 0.121421,0.10517 0.32692491,0.31206469 53.869213 0 1 0.05742,0.1399 l 1.647924,2.2573 c 0.01194,-0.026 0.03002,-0.0498 0.05432,-0.0682 l 0.458187,-0.33448 c 0.02486,-0.0181 0.05307,-0.028 0.08155,-0.0311 l -0.07548,-0.10344 -0.356447,0.26023 c -0.07526,0.0549 -0.180002,0.0384 -0.234868,-0.0369 -0.0052,-0.007 -0.01006,-0.0162 -0.01439,-0.0245 -0.0034,-0.003 -0.0067,-0.006 -0.01048,-0.009 z m 1.111957,0.23126 c -0.03523,0.0257 -0.04282,0.0748 -0.01735,0.10999 l 0.303594,0.41586 c 0.02576,0.0353 0.07493,0.0428 0.11017,0.0172 0.03523,-0.0257 0.04285,-0.0749 0.0172,-0.11017 l -0.303595,-0.41585 c -0.02574,-0.0354 -0.07473,-0.0428 -0.110019,-0.0171 z m 0.568884,2.49922 a 0.32692491,0.31206469 53.869213 0 1 -0.04846,0.0758 l 1.908688,2.61451 c 0.01194,-0.0261 0.02893,-0.05 0.05411,-0.0682 l 0.645139,-0.47097 c 0.01802,-0.0133 0.03761,-0.0222 0.05818,-0.027 l -0.07046,-0.0965 c -0.01194,0.0261 -0.03002,0.0498 -0.05436,0.0683 l -0.458167,0.3345 c -0.02643,0.0194 -0.0566,0.0293 -0.08694,0.0315 0.0045,0.0145 0.0024,0.0304 -0.01085,0.0397 l -0.0425,0.0311 c -0.01663,0.0119 -0.03941,0.009 -0.05131,-0.008 z m 1.459672,0.0499 c -0.111178,0.0961 0.29064,0.4224 0.08587,0.3753 -0.03061,0.0223 -0.03702,0.0649 -0.01452,0.0955 l 1.400177,1.91794 c 0.02221,0.0306 0.06486,0.0371 0.09551,0.0146 0.03048,-0.0222 0.03685,-0.0646 0.01452,-0.0955 0,0 -1.021082,-1.30341 -1.078065,-1.48744 -0.05711,-0.18393 -0.08375,-0.45101 -0.165948,-0.57582 -0.08219,-0.12478 -0.226206,-0.34105 -0.33733,-0.24494 z m 0.889858,3.06089 0.06786,-0.0495 c 0.02818,-0.0206 0.06754,-0.0146 0.08821,0.0136 l 1.363029,1.86708 c 0.02056,0.0282 0.01424,0.0676 -0.01366,0.0883 l -0.06774,0.0495 c -0.02818,0.0206 -0.06754,0.0146 -0.0882,-0.0136 l -1.127617,-1.54462 -0.110606,0.0808 a 0.32692491,0.26005389 53.869213 0 1 -0.04176,0.38565 0.32692491,0.26005389 53.869213 0 1 -0.402172,-0.11508 l -0.0024,-0.003 a 0.32692491,0.26005389 53.869213 0 1 0.02444,-0.41482 0.32692491,0.26005389 53.869213 0 1 0.288009,0.01 l 0.132333,-0.0967 -0.123866,-0.16967 c -0.02056,-0.0282 -0.01424,-0.0676 0.01365,-0.0882 z m 0.63799,1.69373 0.0679,-0.0497 c 0.02818,-0.0206 0.06742,-0.0145 0.08802,0.0136 l 0.726849,0.99566 a 0.32692491,0.31206469 53.869213 0 1 0.356991,0.12863 0.32692491,0.31206469 53.869213 0 1 -0.06503,0.44652 0.32692491,0.31206469 53.869213 0 1 -0.443562,-0.0848 l -0.0024,-0.003 a 0.32692491,0.31206469 53.869213 0 1 -0.01365,-0.36058 l -0.729429,-0.99917 c -0.02056,-0.0282 -0.01449,-0.0675 0.0136,-0.0881 z m 2.132569,0.3206 c -0.06241,0.0949 -0.01113,0.33188 0.09909,0.38756 0.11003,0.056 0.120504,-0.17521 0.303644,-0.11892 0.07191,0.0135 0.366783,0.24206 0.147844,-0.0817 -0.07407,-0.10968 -0.349125,-0.28729 -0.550523,-0.18695 z m 0.293216,0.4371 c -0.0094,0.009 -0.01822,0.0176 -0.02575,0.0299 -0.06241,0.0949 -0.01127,0.33202 0.09891,0.38771 0.11003,0.056 0.132418,-0.18407 0.315702,-0.12775 0.227085,0.0112 0.464644,1.01355 0.498719,0.6004 -0.04622,-0.0999 -0.239084,-0.58546 -0.365098,-0.72699 -0.125973,-0.14154 -0.171851,-0.1562 -0.270407,-0.17733 -0.08626,-0.0183 -0.186597,-0.0434 -0.252068,0.0141 z m 0.274844,0.45448 c -0.04323,0.0315 -0.05285,0.0915 -0.02105,0.1349 l 3.671267,5.02887 c 0.03153,0.0433 0.09175,0.053 0.135055,0.0212 0.04313,-0.0316 0.05304,-0.0918 0.02113,-0.13521 l -3.671266,-5.02888 c -0.0316,-0.0434 -0.0921,-0.0521 -0.135093,-0.0209 z m 2.012952,0.73293 c -0.03225,0.0242 -0.04934,0.0506 -0.04968,0.0785 -0.0029,0.22288 0.574149,0.40872 0.574149,0.40872 0,0 0.379052,1.72884 0.815606,2.67967 0.503045,0.86548 1.543884,2.44226 1.543884,2.44226 0,0 0.247541,0.41481 -0.0468,0.64149 -0.459309,0.35373 -1.037505,-0.91713 -1.037505,-0.91713 0,0 -0.163496,0.22979 -0.367551,0.37875 -0.204033,0.14895 -0.439935,0.22925 -0.439935,0.22925 0,0 0.743034,1.16882 1.146308,1.24238 0.403265,0.0737 1.03062,0.27746 1.588747,-0.36896 0.558222,-0.64672 0.572616,-1.28257 0.111141,-2.14157 -0.547401,-0.64911 -0.853881,-1.54765 -0.852696,-2.1005 0.0013,-0.58879 0.118643,-1.37467 0.236379,-1.51581 0.117739,-0.14116 0.161132,-0.2833 0.161132,-0.2833 0,0 0.659932,-0.003 0.701074,-0.19904 0.04158,-0.19554 -1.012965,-0.73243 -2.025857,-0.78412 -0.886267,-0.0452 -1.833486,0.0385 -2.058352,0.20947 z" style="opacity:1;fill:#000000;fill-opacity:1;stroke:none;stroke-width:1.05195463;stroke-linecap:round;stroke-linejoin:round;stroke-miterlimit:4;stroke-dasharray:none;stroke-opacity:1;paint-order:stroke markers fill"/></g><text x="0" y="41.458332999999996" fill="#000000" font-size="5px" font-weight="bold" font-family="'Helvetica Neue', Helvetica, Arial-Unicode, Arial, Sans-serif">Created by Elves Sousa</text><text x="0" y="46.458332999999996" fill="#000000" font-size="5px" font-weight="bold" font-family="'Helvetica Neue', Helvetica, Arial-Unicode, Arial, Sans-serif">from the Noun Project</text></svg>