<svg xmlns:dc="http://purl.org/dc/elements/1.1/" xmlns:cc="http://creativecommons.org/ns#" xmlns:rdf="http://www.w3.org/1999/02/22-rdf-syntax-ns#" xmlns:svg="http://www.w3.org/2000/svg" xmlns="http://www.w3.org/2000/svg" xmlns:sodipodi="http://sodipodi.sourceforge.net/DTD/sodipodi-0.dtd" xmlns:inkscape="http://www.inkscape.org/namespaces/inkscape" viewBox="0 0 26.458334 33.07291625" version="1.1" x="0px" y="0px"><g transform="translate(0,-270.54168)"><path style="display:inline;opacity:1;fill:#000000;fill-opacity:1;stroke:none;stroke-width:0.42831519;stroke-linecap:round;stroke-linejoin:round;stroke-miterlimit:4;stroke-dasharray:none;stroke-opacity:1;paint-order:stroke markers fill" d="m 4.2845475,273.46959 a 0.46750524,0.26534078 44.568488 0 0 -0.5211693,-0.14796 l -0.0018,0.002 a 0.46750524,0.26534078 44.568488 0 0 0.1409753,0.515 0.46750524,0.26534078 44.568488 0 0 0.5205289,0.14568 0.46750524,0.26534078 44.568488 0 0 -0.1386215,-0.51432 z m 3.1177642,3.08855 c -0.06347,-0.0625 -0.1648735,-0.0617 -0.227399,0.002 -0.062521,0.0634 -0.061758,0.16482 0.00171,0.22733 l 0.2800752,0.27589 -0.1191136,0.12092 c -0.00662,0.007 -0.011527,0.0144 -0.015781,0.0222 l -1.866661,-1.83884 a 0.50541108,0.36642298 44.568488 0 1 -0.4970899,-0.17046 0.50541108,0.36642298 44.568488 0 1 -0.1691527,-0.48582 l -0.5293692,-0.52117 a 0.50541108,0.36642298 44.568488 0 1 -0.4362212,-0.18142 0.50541108,0.36642298 44.568488 0 1 -0.1790584,-0.42466 l -0.6449378,-0.6353 A 0.50541108,0.36642298 44.568488 0 1 2.563092,272.76739 0.50541108,0.36642298 44.568488 0 1 2.3840336,272.34273 l -0.8265683,-0.81421 c -0.1496056,-0.14736 -0.3886909,-0.14557 -0.5360597,0.005 l -0.21279604,0.21603 c -0.14736888,0.1496 -0.14556387,0.38868 0.004039,0.53605 l 4.44800574,4.38151 a 0.46750525,0.26534079 44.568488 0 0 0.1856038,0.43111 0.46750525,0.26534079 44.568488 0 0 0.4418622,0.18698 l 4.9251677,4.85153 c -0.01418,-0.002 -0.02847,-0.002 -0.04247,0.002 l -0.0022,4.5e-4 c -0.141846,0.036 -0.203282,0.26669 -0.13729,0.51591 0.06597,0.2492 0.337865,0.51577 0.480158,0.48076 0.142146,-0.0348 0.08796,-0.29077 0.02261,-0.54012 -0.02134,-0.0814 -0.05292,-0.16099 -0.08985,-0.23143 l 13.856624,13.64888 c 0.149601,0.14736 0.388682,0.14557 0.536056,-0.005 l 0.212791,-0.21602 c 0.14737,-0.14961 0.145568,-0.3887 -0.004,-0.53606 l -8.993373,-8.85832 c 0.0078,-0.005 0.01535,-0.009 0.02193,-0.0161 l 0.119117,-0.12093 0.02033,0.02 c 0.06347,0.0625 0.164874,0.0618 0.2274,-0.002 0.06252,-0.0634 0.06176,-0.16494 -0.0018,-0.22746 z M 5.4373621,274.67602 A 0.46750524,0.26534078 44.568488 0 0 4.916127,274.52799 l -0.0018,0.002 a 0.46750524,0.26534078 44.568488 0 0 0.1409708,0.51499 0.46750524,0.26534078 44.568488 0 0 0.5205992,0.14575 0.46750524,0.26534078 44.568488 0 0 -0.1386171,-0.51431 z m -2.4481917,-2.37604 a 0.46750524,0.26534078 44.568488 0 0 -0.521166,-0.1481 l -0.00173,0.002 a 0.46750524,0.26534078 44.568488 0 0 0.1408314,0.51498 0.46750524,0.26534078 44.568488 0 0 0.5206684,0.14569 0.46750524,0.26534078 44.568488 0 0 -0.1386863,-0.51425 z m 4.6076131,4.90112 0.8579653,0.84514 -0.119118,0.12092 c -0.00662,0.007 -0.011527,0.0144 -0.015781,0.0222 l -0.8638172,-0.85091 c 0.00777,-0.005 0.015354,-0.009 0.021927,-0.0161 z m 0.9980358,0.98311 0.7866812,0.77492 -0.119118,0.12093 c -0.00662,0.007 -0.011527,0.0143 -0.015781,0.0222 l -0.7925462,-0.7807 c 0.00777,-0.005 0.015354,-0.009 0.021927,-0.0162 z m 0.9267517,0.9129 0.786677,0.77492 -0.119118,0.12092 c -0.0066,0.007 -0.01153,0.0143 -0.01578,0.0222 l -0.7925301,-0.78066 c 0.00777,-0.005 0.015354,-0.009 0.021927,-0.0162 z m 0.926747,0.91289 0.715393,0.7047 -0.119118,0.12093 c -0.0066,0.007 -0.01153,0.0144 -0.01578,0.0221 l -0.72124,-0.71045 c 0.0078,-0.005 0.01535,-0.009 0.02193,-0.0161 z m 0.855463,0.84267 0.715388,0.7047 -0.119118,0.12093 c -0.0066,0.007 -0.01153,0.0144 -0.01578,0.0221 l -0.72124,-0.71045 c 0.0078,-0.005 0.01535,-0.009 0.02193,-0.0161 z m 0.855459,0.84267 0.572815,0.56426 -0.119118,0.12092 c -0.0066,0.007 -0.01153,0.0143 -0.01578,0.0222 l -0.578663,-0.57001 c 0.0078,-0.005 0.01536,-0.009 0.02192,-0.0161 z m 0.712886,0.70223 0.6441,0.63447 -0.119118,0.12093 c -0.0066,0.007 -0.01152,0.0144 -0.01578,0.0221 l -0.649947,-0.64024 c 0.0078,-0.005 0.01536,-0.009 0.02193,-0.0162 z m 0.78417,0.77245 0.572815,0.56425 -0.119118,0.12092 c -0.0066,0.007 -0.01152,0.0144 -0.01578,0.0222 l -0.578658,-0.57001 c 0.0078,-0.005 0.01536,-0.009 0.02192,-0.0161 z m 0.712886,0.70222 0.929258,0.91537 -0.119118,0.12093 c -0.0066,0.007 -0.01153,0.0143 -0.01578,0.0222 l -0.935106,-0.92112 c 0.0078,-0.005 0.01535,-0.009 0.02193,-0.0161 z m 1.069328,1.05335 1.214409,1.19625 -0.119118,0.12093 c -0.0066,0.007 -0.01152,0.0143 -0.01578,0.0222 l -1.22026,-1.20201 c 0.0078,-0.005 0.01535,-0.009 0.02193,-0.0161 z m -7.1159912,-6.62717 a 0.36642298,0.36642298 0 0 1 -0.00404,0.51766 0.36642298,0.36642298 0 0 1 -0.5176587,-0.003 0.36642298,0.36642298 0 0 1 0.00184,-0.51765 l 0.00216,-0.002 a 0.36642298,0.36642298 0 0 1 0.5176061,0.005 z m 1.8723672,1.84437 a 0.36642298,0.36642298 0 0 1 -0.0041,0.5176 0.36642298,0.36642298 0 0 1 -0.5176542,-0.003 0.36642298,0.36642298 0 0 1 0.00184,-0.51765 l 0.00223,-0.002 a 0.36642298,0.36642298 0 0 1 0.5176062,0.005 z m -2.8799661,-2.76598 a 0.36642298,0.36642298 0 0 1 -0.00411,0.51759 0.36642298,0.36642298 0 0 1 -0.5176587,-0.003 0.36642298,0.36642298 0 0 1 0.00184,-0.51765 l 0.00223,-0.002 a 0.36642298,0.36642298 0 0 1 0.5176061,0.005 z m 1.9263196,1.89752 a 0.36642298,0.36642298 0 0 1 -0.00411,0.5176 0.36642298,0.36642298 0 0 1 -0.5176588,-0.003 0.36642298,0.36642298 0 0 1 0.0019,-0.51758 l 0.00216,-0.002 a 0.36642298,0.36642298 0 0 1 0.5176062,0.005 z m 4.1047235,4.04335 a 0.36642298,0.36642298 0 0 1 -0.0041,0.5176 0.36642298,0.36642298 0 0 1 -0.517654,-0.003 0.36642298,0.36642298 0 0 1 0.0018,-0.51764 l 0.0022,-0.002 a 0.36642298,0.36642298 0 0 1 0.517606,0.005 z m -0.845943,-0.79774 a 0.36642298,0.36642298 0 0 1 -0.0041,0.51759 0.36642298,0.36642298 0 0 1 -0.517588,-0.003 0.36642298,0.36642298 0 0 1 0.0018,-0.51765 l 0.0022,-0.002 a 0.36642298,0.36642298 0 0 1 0.517606,0.005 z m 1.512836,1.56114 a 0.36642298,0.36642298 0 0 1 -0.0041,0.5176 0.36642298,0.36642298 0 0 1 -0.517655,-0.003 0.36642298,0.36642298 0 0 1 0.0018,-0.51764 l 0.0022,-0.002 a 0.36642298,0.36642298 0 0 1 0.517607,0.005 z m 9.161747,9.04191 a 0.39311753,0.29483814 44.568488 0 1 0.06556,0.48432 0.39311753,0.29483814 44.568488 0 1 -0.48736,-0.0721 0.39311753,0.29483814 44.568488 0 1 -0.0677,-0.48465 l 0.0018,-0.002 a 0.39311753,0.29483814 44.568488 0 1 0.487652,0.0744 z M 11.708975,281.88258 a 0.36642298,0.36642298 0 0 1 -0.0041,0.51759 0.36642298,0.36642298 0 0 1 -0.517584,-0.003 0.36642298,0.36642298 0 0 1 0.0018,-0.51765 l 0.0022,-0.002 a 0.36642298,0.36642298 0 0 1 0.517611,0.005 z m -0.845877,-0.79769 a 0.36642298,0.36642298 0 0 1 -0.0041,0.5176 0.36642298,0.36642298 0 0 1 -0.517654,-0.003 0.36642298,0.36642298 0 0 1 0.0018,-0.51764 l 0.0022,-0.002 a 0.36642298,0.36642298 0 0 1 0.517606,0.005 z m 4.12178,4.09554 a 0.26534076,0.26534076 0 0 1 -0.003,0.37483 0.26534076,0.26534076 0 0 1 -0.374822,-0.002 0.26534076,0.26534076 0 0 1 0.0014,-0.37481 l 0.0018,-0.002 a 0.26534076,0.26534076 0 0 1 0.374763,0.004 z"/></g><text x="0" y="41.458332999999996" fill="#000000" font-size="5px" font-weight="bold" font-family="'Helvetica Neue', Helvetica, Arial-Unicode, Arial, Sans-serif">Created by Elves Sousa</text><text x="0" y="46.458332999999996" fill="#000000" font-size="5px" font-weight="bold" font-family="'Helvetica Neue', Helvetica, Arial-Unicode, Arial, Sans-serif">from the Noun Project</text></svg>