<svg xml:space="preserve" style="max-height: 500px" viewBox="0 0 102 100.75" y="0px" x="0px" version="1.1" xmlns:xlink="http://www.w3.org/1999/xlink" xmlns="http://www.w3.org/2000/svg" width="102" height="100.75"><switch><g><path d="M94.13,30.13c-1.60999-1.17999-2.97998-1.67004-3.57001-2.84003c-0.13-0.25-0.34998-0.70001-0.13-1.07001    c0.27002-0.42999,0.97998-0.45001,1.07001-0.45996c0.04999,0.00995,0.21002,0.02997,0.28998-0.06    c0.08002-0.09003,0.06-0.21002,0.05005-0.27002c-0.22003-1.32001-1.16003-1.78998-1.16003-1.78998    c-0.67999-0.30005-1.33997-0.24005-1.59998-0.19c-0.81,0.15997-1.26001,0.60999-2.04999,1.41998    c-0.06006-0.08002-0.10004-0.19-0.10004-0.31c0-0.27002,0.22003-0.38,0.22998-0.64001c0-0.27997-0.23999-0.64001-0.58997-0.62    c-0.22998,0.01001-0.47003,0.19-0.59003,0.45001c-0.01001-0.01001-0.14996-0.16003-0.35999-0.10999    c-0.02002,0.00995-0.20001,0.04999-0.26001,0.21997c-0.04999,0.13-0.01996,0.27002,0.09003,0.35999    c-0.29004,0.10999-0.48999,0.37-0.48999,0.63c0,0.29999,0.26996,0.51001,0.5,0.54004    C85.76001,25.44,85.90997,25.17999,86.25,25.19c0.14001,0.01001,0.26001,0.06,0.34998,0.12    c-0.16998,0.16998-0.34998,0.34998-0.56,0.54999c-0.28998,0.28003-0.69,0.66998-1.19,1.09998    c-0.07996-0.09998-0.13995-0.21997-0.13-0.37c0.01001-0.26996,0.23004-0.37,0.24005-0.63995    c0.00995-0.27002-0.23004-0.64001-0.57001-0.63c-0.23999,0-0.48004,0.17999-0.60004,0.44    c-0.00995-0.01001-0.14996-0.17004-0.35999-0.12c-0.02002,0-0.20001,0.04999-0.27002,0.21997    c-0.04999,0.12-0.01996,0.27002,0.08002,0.35999c-0.28998,0.10004-0.5,0.35004-0.5,0.60999    c-0.01001,0.31006,0.25,0.52002,0.47998,0.56006c0.30005,0.04999,0.46002-0.21002,0.80005-0.18005    c0.14996,0.01001,0.26996,0.06,0.35999,0.14001c-0.53998,0.44-1.15002,0.89001-1.81,1.29004    c-0.13,0.07996-0.26001,0.14996-0.39001,0.21997c-0.06-0.10999-0.10999-0.25-0.08002-0.40997    c0.05005-0.27002,0.29004-0.34003,0.34003-0.59003c0.04999-0.28003-0.12-0.66998-0.46002-0.71997    c-0.23999-0.03003-0.5,0.09998-0.66998,0.33997c0-0.01001-0.12-0.19-0.33002-0.16998c-0.01996,0-0.20996,0.01996-0.29999,0.16998    c-0.07001,0.12-0.06,0.26001,0.02002,0.37C80.40002,27.89996,80.15997,28.12,80.10999,28.38    c-0.06,0.29999,0.17004,0.54999,0.39001,0.62c0.28998,0.09998,0.47998-0.13,0.82001-0.04999    c0.14001,0.02997,0.25,0.09998,0.33002,0.17999c-0.75,0.38-1.40002,0.60999-1.87,0.75    c0.09998,0.40997,0.27997,1.39996-0.13,2.60999c-0.36005,1.08997-1.02002,1.81-1.35004,2.12L78.28998,34.62l-36.35999,27.87    c-1.88-2.71002-1.79999-2.34003-3.56-5.06c-0.32001-0.48999-0.60999-0.95001-0.89001-1.37l43.86005-36.46002    c0.37994-0.16998,1.12-0.45996,2.06-0.45996c0.88995-0.01001,1.54999,0.25,1.89996,0.40997    c0.37-0.59003,0.88-1.31,1.54999-2.08002c0.05005,0.13,0.08002,0.27002,0.06,0.42999c-0.03998,0.46002-0.41998,0.60004-0.41998,1    c0,0.32001,0.22003,0.71002,0.62,0.77002c0.34003,0.06,0.73004-0.15002,0.92999-0.52002    c0.09003,0.16003,0.28003,0.23004,0.45001,0.19c0.23999-0.04999,0.34003-0.27997,0.35004-0.29999    c0.12-0.27002-0.06-0.48999-0.07001-0.48999c0.37-0.10999,0.65997-0.38,0.71997-0.70001    c0.09003-0.45001-0.33997-0.83997-0.70996-0.89001C88.44,16.90997,88.25,17.17999,87.89001,17.12    c-0.21002-0.03003-0.37-0.15002-0.48004-0.27002c0.51001-0.52997,1.10004-1.08002,1.77002-1.62    c0.46002-0.37,1.03998-0.78998,1.65002-1.20001c0.07996,0.15002,0.14996,0.36005,0.12,0.58002    c-0.04004,0.46002-0.41003,0.59998-0.41998,1c0,0.32001,0.21997,0.71002,0.62,0.77002    c0.33997,0.06,0.72998-0.15002,0.92999-0.52002c0.09998,0.15997,0.27997,0.22998,0.45996,0.19    C92.78003,16,92.88,15.76996,92.89001,15.75c0.10999-0.27002-0.07001-0.48999-0.07001-0.48999    c0.37-0.11005,0.64996-0.38,0.71002-0.70001c0.08997-0.45001-0.34003-0.84003-0.70001-0.89001    c-0.35004-0.04999-0.53003,0.22003-0.90002,0.15997C91.75,13.81,91.60999,13.70996,91.5,13.60999    c1.07001-0.65997,2.15002-1.20001,2.82001-1.22998c0.09998,0,0.53998-0.01001,0.59998-0.17999    c0.07001-0.18005-0.26996-0.43005-0.44-0.55005c-1.62-1.14996-3-1.62-3.60999-2.78998c-0.13-0.23999-0.35999-0.69-0.14001-1.06    c0.25-0.44,0.96002-0.47003,1.06-0.47003c0.05005,0,0.20001,0.01001,0.29004-0.07996    C92.15002,7.16998,92.13,7.04999,92.12,6.97998C91.89001,5.66998,90.94,5.20996,90.94,5.20996    c-0.69-0.27997-1.34998-0.21997-1.60999-0.15997C88.25,5.27997,87.84003,6,86.41998,7.41998    C86.31,7.27997,86.23999,7.10999,86.25,6.90997c0.02002-0.37,0.32001-0.5,0.34003-0.84998c0.01996-0.37-0.27002-0.87-0.74005-0.87    c-0.31995-0.01001-0.63995,0.21997-0.81995,0.56c-0.01001-0.01001-0.19-0.22003-0.47003-0.17004    c-0.02997,0.01001-0.27002,0.06006-0.37,0.28003C84.12,6.02997,84.15002,6.21997,84.28003,6.34998    c-0.39001,0.12-0.68005,0.46002-0.69,0.79999C83.57001,7.56,83.90997,7.84998,84.21997,7.90997    c0.39001,0.08002,0.61005-0.25,1.07001-0.20996c0.24005,0.01996,0.42999,0.14996,0.57001,0.26996    c-0.64996,0.63-1.60999,1.5-2.72998,2.22003c-0.10999-0.14001-0.21002-0.33002-0.20001-0.56    c0.02002-0.37,0.32001-0.48999,0.34003-0.84003c0.02997-0.38-0.27002-0.87-0.73004-0.88c-0.32001,0-0.64996,0.22003-0.82001,0.56    C81.71002,8.45996,81.53003,8.25,81.25,8.31c-0.03003,0-0.28003,0.04999-0.37,0.27997    C80.79999,8.75,80.84003,8.95001,80.96997,9.07001c-0.39996,0.12-0.67999,0.45996-0.69995,0.81    c-0.02002,0.39996,0.32996,0.69,0.63,0.76001c0.39996,0.06995,0.62-0.26001,1.06995-0.22003    c0.19,0.02002,0.35004,0.09998,0.47003,0.19C81.51001,11.13,80.69,11.44,80.13,11.62    c0.10999,0.40997,0.29999,1.39996-0.08002,2.60999c-0.35999,1.10999-1.01001,1.84003-1.33002,2.16003L34.78998,51.39996    c-0.10999-0.25995-0.21997-0.50995-0.31-0.75995c-0.89996-2.46002-2.23999-6.12006-0.44-9.07001    c0.99005-1.63,2.55005-2.42999,3.52002-2.82001c0.65997-1.94,0.39001-3.73004-0.53998-4.28003    c-1.17999-0.70001-3.10004,0.77002-3.90002,1.39001C31.46997,37.13,30.58002,38.82001,29.94,40.03998    c-0.5,0.94-0.38,0.91998-0.98999,2.14001c-0.25,0.5-0.91003,1.77002-2.35004,3.89996    c-1.45996,2.15002-2.20996,3.24005-3.50995,4.64001c-1.37006,1.47003-2.51001,2.34003-4.02002,3.5    c-0.96002,0.75-1.81,1.33002-2.97998,1.81c-0.16003,0.07001-0.69,0.28003-1.44,0.48004    C12.04999,57.20996,11.34998,56.53998,9.56,57.12C9,57.31,7.52002,57.88,6.48999,59.28998    C6.16998,59.73999,5.78003,60.41998,5.44,62.06C5.33002,62.59998,5.19,63.32996,5.12,64.23999    C5.07001,64.82001,5,66.12,5.20001,67.82996c0.29999,2.59003,1,4.29004,1.26996,4.84003c0.18005,0.37,0.38,0.71002,0.38,0.71002    C7.13,73.83997,7.40002,74.20001,7.62,74.46997c2.33002,3.08002,4.34998,5.64001,5.88,7.54004    c3.20001,3.98999,4.85999,5.83997,6.90002,7.81c3.10999,3,5.02997,4.25,7.26996,4.81    c0.83002,0.20996,2.61005,0.63995,4.71002,0.13C33.53003,94.47998,34.44,94,34.90002,93.75    c1.38-0.73999,2.27997-1.56,2.56-1.84003c1.03998-0.97998,1.62-1.91998,1.81-2.23999    c0.51001-0.84003,0.76996-1.53998,0.94995-2.06c0.57001-1.56,0.37006-1.84998,0.89001-3.65997    c0.48004-1.68005,1.03003-2.78003,1.23004-3.15002c0.41998-0.81,0.75995-1.45001,1.40997-2.14001    c0.98999-1.06,2.03998-1.54999,2.39001-1.70001c1.14996-0.5,2.27997-0.62,2.82001-0.66998    c0.39996-0.03998,0.94995-0.08002,1.77997-0.22998c0.31-0.06,0.66003-0.13,1.10999-0.26001    c0.53003-0.15002,1.12-0.33002,1.77002-0.72998c0.38-0.24005,0.71002-0.44,1.02002-0.82001    c0.23999-0.29004,0.77997-0.94,0.67999-1.79004c-0.09003-0.75-0.63-1.22998-0.95001-1.50995    c-0.41998-0.37006-0.84998-0.55005-1.13-0.64001c-0.23999,0.17999-0.63,0.44-1.16998,0.60999    c-0.73999,0.22998-1.35004,0.15002-1.60004,0.12c-1.23999-0.15997-2.12994-0.89996-2.5-1.23999    c-1.06995-0.94-2.06995-2.04999-2.88995-3.03998L80.87,37.87V37.88c0.38-0.17004,1.12-0.45001,2.06-0.44    c0.89001,0.01996,1.53998,0.27997,1.89001,0.45001c0.39001-0.60004,0.92999-1.33002,1.64001-2.12006    c0.08997,0.11005,0.15997,0.26001,0.15997,0.44c0,0.34003-0.26001,0.48004-0.22998,0.78003    c0.01996,0.22998,0.20996,0.51001,0.51001,0.52002c0.25995,0.01996,0.52997-0.17004,0.64996-0.45001    c0.09003,0.09998,0.23004,0.14001,0.35999,0.09998c0.17004-0.06,0.23004-0.22998,0.23004-0.25    c0.07001-0.20996-0.08002-0.35999-0.09003-0.35999c0.27002-0.10999,0.46002-0.34003,0.48004-0.57001    C88.56,35.63,88.21997,35.37,87.94,35.35999c-0.26001-0.01001-0.38,0.21002-0.65997,0.19    c-0.19-0.01001-0.33002-0.10999-0.42004-0.21002c0.54004-0.56,1.17999-1.13995,1.91003-1.70996    c0.02997-0.02002,0.04999-0.04004,0.07996-0.06c0.07001,0.12,0.15002,0.31,0.12,0.50995    c-0.04999,0.34003-0.32996,0.44-0.33997,0.74005c-0.01001,0.23999,0.14001,0.53998,0.44,0.58997    c0.25,0.04999,0.54999-0.08997,0.70001-0.35999c0.07001,0.12,0.19995,0.17999,0.33997,0.15002    C90.28998,35.16998,90.37,35,90.38,34.98999c0.08997-0.20001-0.03998-0.37-0.03998-0.37c0.27997-0.07001,0.5-0.27002,0.54999-0.5    c0.07996-0.34003-0.23004-0.64001-0.5-0.69C90.13,33.38,89.98999,33.57996,89.71002,33.52997    c-0.19-0.03998-0.33002-0.19-0.41003-0.29999c0.62-0.45001,1.37-0.94,2.10004-1.35999    c0.04999,0.13,0.08997,0.29999,0.04999,0.47998c-0.08002,0.34003-0.37,0.41003-0.41003,0.70001    C91,33.28998,91.12,33.59998,91.40997,33.69c0.25,0.07001,0.56-0.04999,0.74005-0.29004c0.06,0.12,0.19,0.19,0.31995,0.17999    c0.18005-0.00995,0.28003-0.16998,0.29004-0.18994c0.10999-0.18005,0-0.36005,0-0.37006    c0.27997-0.03998,0.52002-0.21997,0.59998-0.44c0.10999-0.32996-0.15997-0.65997-0.42999-0.73999    C92.66998,31.76996,92.51001,31.95001,92.25,31.87c-0.15997-0.04999-0.27002-0.16998-0.34003-0.28003    c0.80005-0.40997,1.55005-0.70996,2.05005-0.72998c0.08997,0,0.52997,0,0.59998-0.17999    C94.63,30.51001,94.28998,30.26001,94.13,30.13z M29.03998,55.57001l4.17004,5.21997l-1.92999,1.54999L27.09998,57.12    L29.03998,55.57001z M19.46002,59.14996l8.25995,10.32001l-4.07996,3.26001l-8.25-10.32001L19.46002,59.14996z M11.5,78.76996    c-0.75-0.78998-1.53003-1.66998-2.32001-2.65997c-0.76001-0.96002-1.42999-1.88-2.01001-2.76001    c2.28003-2.45996,4.57001-4.92999,6.86005-7.39996c1.06995,1.13995,2.17999,2.40997,3.28998,3.81    C18.40997,71.12,19.37,72.44,20.21997,73.69L11.5,78.76996z M21.82001,85.14996c-0.67999,0.21002-1.10999,0.30005-1.85004,0.62    c-0.90997,0.38-1.60999,0.81-2.06,1.12006c-0.38995-0.37006-0.79999-0.81006-1.21997-1.34003    c-0.41998-0.53003-0.77002-1.04999-1.03998-1.52002c0.37-0.38,0.76996-0.82001,1.16998-1.32001    c0.33002-0.41998,0.62-0.82996,0.88-1.21997c0.04999-0.28998,0.14996-0.72003,0.31-1.22998    c0.28998-0.88,0.47998-1.02002,0.54999-1.06c0.38-0.23004,0.89001-0.02002,1.34003,0.17999    c1.91998,0.82001,2.88,1.23999,3.01996,1.32996c1.48999,0.98004,2.78003,1.84003,2.61005,2.63    C25.35999,84.04999,24.06,84.45996,21.82001,85.14996z M30.59998,80.46997l-5.41998-6.81l1.48999-1.19l5.42004,6.81    L30.59998,80.46997z M32.66998,78.77997L27.25,71.97998l2.59998-2.07001l5.42004,6.79999L32.66998,78.77997z M39.38,72.47998    l-4.53998-5.71002l1.92999-1.54999l4.54999,5.71002L39.38,72.47998z"/></g></switch><text font-family="'Helvetica Neue', Helvetica, Arial-Unicode, Arial, Sans-serif" font-weight="bold" font-size="5px" fill="#000000" y="115" x="0">Created by Marvdrock</text><text font-family="'Helvetica Neue', Helvetica, Arial-Unicode, Arial, Sans-serif" font-weight="bold" font-size="5px" fill="#000000" y="120" x="0">from the Noun Project</text></svg>