<svg viewBox="4.888513513513514 -0.45887499999999903 92.43243243243242 99.09" version="1.1" xmlns="http://www.w3.org/2000/svg" style="max-height: 500px" width="92.43243243243242" height="99.09">
 <path d="m49.871 4.168c-8.3242 0.03125-16.32 3.25-22.344 8.9961-6.0273 5.7461-9.6211 13.582-10.051 21.895v8.4492c-2.2109 0.019532-4.3047 0.98828-5.7539 2.6562-1.4492 1.668-2.1094 3.8789-1.8164 6.0703l3.8906 29.156c0.21094 1.582 1.5586 2.7578 3.1523 2.7578h1.8789l1.5586 11.684h7.8477l1.5625-11.684h40.406l1.5625 11.684h7.8477l1.5625-11.684h1.875c1.5938 0 2.9414-1.1758 3.1523-2.7578l3.8906-29.156c0.30859-2.3086-0.44141-4.6328-2.043-6.3242-1.6016-1.6875-3.8828-2.5664-6.2031-2.3828 2.0547-9.6328-0.35938-19.684-6.5703-27.328-6.2148-7.6484-15.555-12.07-25.406-12.031zm-0.078125 1.6406c9.4922-0.058594 18.484 4.2461 24.395 11.676 5.9102 7.4258 8.0781 17.156 5.8867 26.395-3.1836 1.0273-5.3398 3.9883-5.3398 7.3359v3.4414c-4.8867-2.1328-10.438-2.1328-15.32 0-6.1055-2.1328-12.754-2.1328-18.859 0-4.8828-2.1328-10.438-2.1328-15.324 0v-3.4414c0.003906-3.6523-2.5586-6.8047-6.1328-7.5469v-8.5703c0.41797-7.875 3.8281-15.293 9.5312-20.738 5.707-5.4453 13.277-8.5039 21.164-8.5508zm-11.156 9.9492c-0.87109 0.042969-1.5547 0.75781-1.5625 1.6289 0 1.2305-0.99609 2.2266-2.2266 2.2266-0.90625 0.003907-1.6406 0.73828-1.6406 1.6484 0 0.90625 0.73438 1.6406 1.6406 1.6445 1.2305 0 2.2266 0.99609 2.2266 2.2266 0.023437 0.89063 0.75391 1.6016 1.6445 1.6016s1.6211-0.71094 1.6445-1.6016c0-0.58984 0.23438-1.1562 0.65234-1.5742 0.41797-0.41797 0.98438-0.65234 1.5742-0.65234 0.90625-0.003906 1.6406-0.73828 1.6406-1.6445 0-0.91016-0.73438-1.6445-1.6406-1.6484-0.58984 0-1.1562-0.23438-1.5742-0.65234-0.41797-0.41797-0.65234-0.98438-0.65234-1.5742-0.003906-0.44922-0.19141-0.875-0.51562-1.1836-0.32422-0.30469-0.76172-0.46875-1.2109-0.44531zm22.535 0c-0.87109 0.039063-1.5625 0.75391-1.5703 1.6289 0 1.2305-0.99609 2.2266-2.2266 2.2266-0.90625 0.003907-1.6406 0.73828-1.6406 1.6484 0 0.90625 0.73438 1.6406 1.6406 1.6445 1.2305 0 2.2266 0.99609 2.2266 2.2266 0.023438 0.89063 0.75 1.6016 1.6445 1.6016 0.89062 0 1.6211-0.71094 1.6445-1.6016 0-1.2305 0.99609-2.2266 2.2266-2.2266 0.90625-0.003906 1.6406-0.73828 1.6406-1.6445 0-0.91016-0.73437-1.6445-1.6406-1.6484-1.2305 0-2.2266-0.99609-2.2266-2.2266-0.003906-0.44531-0.1875-0.87109-0.51172-1.1797-0.32422-0.30859-0.76172-0.46875-1.207-0.44922zm-22.453 1.6289c0 2.1367 1.7344 3.8711 3.8711 3.8711-1.0273 0-2.0117 0.41016-2.7383 1.1367-0.72656 0.72656-1.1328 1.7109-1.1328 2.7383 0-1.0273-0.40625-2.0117-1.1328-2.7383-0.72656-0.72656-1.7109-1.1367-2.7383-1.1367 2.1367 0 3.8711-1.7344 3.8711-3.8711zm22.527 0c0 2.1367 1.7344 3.8711 3.8711 3.8711-1.0273 0-2.0117 0.41016-2.7383 1.1367-0.72656 0.72656-1.1328 1.7109-1.1328 2.7383 0-1.0273-0.40625-2.0117-1.1328-2.7383-0.72656-0.72656-1.7109-1.1367-2.7383-1.1367 2.1367 0 3.8711-1.7344 3.8711-3.8711zm-22.801 18.363c-0.87109 0.042969-1.5586 0.75781-1.5625 1.6328 0 0.58984-0.23437 1.1562-0.65234 1.5742s-0.98438 0.65234-1.5742 0.65234c-0.89453 0.019531-1.6094 0.75-1.6094 1.6445 0 0.89453 0.71484 1.625 1.6094 1.6445 0.58984 0 1.1562 0.23437 1.5742 0.65234s0.65234 0.98438 0.65234 1.5742c0.023438 0.89062 0.75391 1.6016 1.6445 1.6016 0.89453 0 1.6211-0.71094 1.6445-1.6016 0-1.2305 1-2.2266 2.2266-2.2266 0.89453-0.019532 1.6094-0.75 1.6094-1.6445 0-0.89453-0.71484-1.625-1.6094-1.6445-1.2266 0-2.2266-0.99609-2.2266-2.2266 0-0.44922-0.1875-0.87891-0.51172-1.1875-0.32812-0.30859-0.76562-0.46875-1.2148-0.44531zm22.539 0c-0.875 0.039062-1.5664 0.75781-1.5703 1.6328 0 0.58984-0.23437 1.1562-0.65234 1.5742s-0.98438 0.65234-1.5742 0.65234c-0.89453 0.019531-1.6094 0.75-1.6094 1.6445 0 0.89453 0.71484 1.625 1.6094 1.6445 0.58984 0 1.1562 0.23437 1.5742 0.65234s0.65234 0.98438 0.65234 1.5742c0.023438 0.89062 0.75391 1.6016 1.6445 1.6016s1.6211-0.71094 1.6445-1.6016c0-1.2305 0.99609-2.2266 2.2266-2.2266 0.89453-0.019532 1.6094-0.75 1.6094-1.6445 0-0.89453-0.71484-1.625-1.6094-1.6445-1.2305 0-2.2266-0.99609-2.2266-2.2266-0.003906-0.44922-0.1875-0.875-0.51172-1.1836-0.32422-0.30859-0.75781-0.46875-1.207-0.44922zm-22.457 1.6328c0 2.1367 1.7344 3.8711 3.8711 3.8711-2.1367 0-3.8711 1.7344-3.8711 3.8711 0-2.1367-1.7344-3.8711-3.8711-3.8711 2.1367 0 3.8711-1.7344 3.8711-3.8711zm22.531 0c0 2.1367 1.7344 3.8711 3.8711 3.8711-2.1367 0-3.8711 1.7344-3.8711 3.8711 0-2.1367-1.7344-3.8711-3.8711-3.8711 2.1367 0 3.8711-1.7344 3.8711-3.8711zm21.273 7.7539c1.7695-0.03125 3.4648 0.71094 4.6406 2.0352 1.1797 1.3203 1.7188 3.0938 1.4844 4.8477l-3.8906 29.152h-0.003906c-0.10156 0.76953-0.75391 1.3398-1.5312 1.3398h-66.098c-0.77344 0-1.4297-0.57422-1.5312-1.3398l-3.8945-29.152c-0.21875-1.6641 0.26172-3.3438 1.3281-4.6406 1.0625-1.293 2.6133-2.0938 4.2891-2.2031 1.6719-0.11328 3.3164 0.47266 4.543 1.6172 1.2266 1.1445 1.9258 2.7461 1.9297 4.4219v4.2617c-1.0469 0.48438-1.7539 1.5-1.8398 2.6523v7.9922c0 0.84375 0.33594 1.6523 0.92969 2.25 0.59766 0.59375 1.4062 0.92969 2.25 0.92969h50.086c0.84375 0 1.6562-0.33594 2.25-0.92969 0.59766-0.59766 0.93359-1.4062 0.93359-2.25v-7.9922c-0.085937-1.1523-0.78906-2.168-1.8359-2.6523v-4.2617c-0.003906-3.3125 2.6484-6.0156 5.9609-6.0781zm-49.707 9.5664c2.7188-0.039063 5.4062 0.55469 7.8555 1.7305 6.125-2.3047 12.883-2.3047 19.008 0h0.003907c5.1992-2.5 11.301-2.2773 16.305 0.59766 0.48047 0.27734 0.77344 0.78516 0.77344 1.3398v7.75c0 0.41016-0.16406 0.80078-0.45312 1.0898-0.28906 0.29297-0.68359 0.45312-1.0938 0.45312h-50.082c-0.40625 0-0.80078-0.16406-1.0898-0.45312-0.28906-0.28906-0.45312-0.67969-0.45312-1.0898v-7.75c0-0.55469 0.29297-1.0625 0.77344-1.3398 2.5742-1.4805 5.4844-2.2812 8.4531-2.3281zm-12.168 29.445h7.6719l-1.3398 10.047h-4.9844zm51.379 0h7.6719l-1.3398 10.047h-4.9883z"/>
<text fill="#000000" font-family="Arbeit Regular, Helvetica, Arial-Unicode, Arial, Sans-serif" font-weight="bold" font-size="5.0" y="117.5" x="0.0">Created by Lê Khắc Bảo Thoại</text><text fill="#000000" font-family="Arbeit Regular, Helvetica, Arial-Unicode, Arial, Sans-serif" font-weight="bold" font-size="5.0" y="122.5" x="0.0">from Noun Project</text></svg>