<svg viewBox="-5 38.478500000000004 110.27027027027027 60.480000000000004" version="1.1" xmlns="http://www.w3.org/2000/svg" style="max-height: 500px" width="110.27027027027027" height="60.480000000000004">
 <path d="m85.859 57.289c-0.39062 0-0.76172 0.03125-1.1289 0.078126v-1.7656c0-3.6289-3-6.5781-6.6914-6.5781l-11.09-0.003907c-2.5703 0-4.8008 1.4414-5.9297 3.5312-1.3398-2.1211-3.7109-3.5312-6.3906-3.5312h-9.2695c-2.6914 0-5.0586 1.4102-6.3984 3.5312-1.1094-2.0898-3.3398-3.5312-5.9219-3.5312h-11.07c-3.6914 0-6.6914 2.9492-6.6914 6.5781v1.7695c-0.37109-0.050782-0.73828-0.078126-1.1289-0.078126-4.4883 0-8.1484 3.0508-8.1484 6.7695 0 1.0586 0.28125 2.0586 0.82812 3 3.3594 5.6914 5.0703 11.359 5.0703 16.859v1.5703c0 2.4102 1.9688 4.3711 4.3711 4.3711h1.5391v1.1992c0 1.6211 1.3086 2.9297 2.9219 2.9297h4.5391c1.6094 0 2.9297-1.3086 2.9297-2.9297v-1.1992h43.59v1.1992c0 1.6211 1.3203 2.9297 2.9297 2.9297h4.5391c1.6094 0 2.9219-1.3086 2.9219-2.9297v-1.1992h1.5391c2.4102 0 4.3711-1.9688 4.3711-4.3711v-1.5703c0-5.5 1.7109-11.172 5.0703-16.859 0.55078-0.94141 0.82812-1.9492 0.82812-3 0.011719-3.7188-3.6484-6.7695-8.1289-6.7695zm-23.641-1.6875c0-2.5508 2.1211-4.6211 4.7305-4.6211h11.078c2.6094 0 4.7305 2.0703 4.7305 4.6211v2.1992c-2.9609 1.0195-5.0586 3.4414-5.0586 6.2617 0 0.16016 0.011719 0.30078 0.019531 0.44922-0.011719 0.12891-0.019531 0.25-0.019531 0.37891v8.9492h-15.48zm-22.488 0.95703c0.03125-3.0781 2.5391-5.5781 5.6289-5.5781h9.2695c3.0898 0 5.6016 2.5 5.6289 5.5781v17.281h-20.527zm37.969 19.23v7.1484l-55.398 0.003906v-7.1484zm-60.469-20.188c0-2.5508 2.1211-4.6211 4.7305-4.6211h11.078c2.6094 0 4.7305 2.0703 4.7305 4.6211v18.238h-15.469v-8.9492c0-0.14844-0.011719-0.28906-0.019531-0.37891 0.011719-0.14844 0.019531-0.28906 0.019531-0.44922 0-2.8203-2.1016-5.2383-5.0586-6.2617l-0.003907-2.1992zm-8.7188 10.457c-0.37109-0.62891-0.55859-1.3008-0.55859-2 0-2.6484 2.7812-4.8086 6.1914-4.8086 3.4219 0 6.1992 2.1602 6.1992 4.8086 0 0.12109-0.011719 0.21875-0.019531 0.32812 0 0.019531-0.011719 0.050781-0.011719 0.070312 0 0.078125 0 0.14844 0.011719 0.21094 0.011719 0.078125 0.019531 0.16016 0.019531 0.21875v18.051h-6.5c-0.18359-5.5391-1.9727-11.207-5.332-16.879zm17.738 25.012c0 0.53906-0.44141 0.98047-0.98047 0.98047h-4.5391c-0.53906 0-0.96875-0.44141-0.96875-0.98047v-1.1992h6.4805l-0.003907 1.1992zm53.98 0c0 0.53906-0.42969 0.98047-0.96875 0.98047h-4.5391c-0.53906 0-0.98047-0.44141-0.98047-0.98047v-1.1992h6.4805l-0.003906 1.1992zm5.9102-5.582c0 1.3281-1.0898 2.4219-2.4219 2.4219h-67.438c-1.3281 0-2.4219-1.0898-2.4219-2.4219v-0.60156h72.281zm5.3477-19.43c-3.3516 5.6602-5.1406 11.328-5.3281 16.879h-6.5v-18.047c0-0.070313 0.011719-0.14844 0.019532-0.21875 0.011718-0.050781 0.011718-0.10938 0.011718-0.16016v-0.039063c0-0.070312-0.011718-0.12891-0.019531-0.19141 0-0.078125-0.011719-0.14844-0.011719-0.21875 0-2.6484 2.7812-4.8086 6.1992-4.8086 3.4102 0 6.1914 2.1602 6.1914 4.8086-0.011719 0.69922-0.19141 1.3789-0.5625 1.9961z"/>
 <path d="m50 35.328c8.0898 0 14.672-6.5781 14.672-14.672 0-8.0781-6.582-14.656-14.672-14.656s-14.672 6.5781-14.672 14.672c0 8.0781 6.582 14.656 14.672 14.656zm0-27.367c7.0117 0 12.711 5.6992 12.711 12.711s-5.6992 12.711-12.711 12.711-12.711-5.6992-12.711-12.711 5.6992-12.711 12.711-12.711z"/>
 <path d="m50 23.602c1.2695 0 2.3516-0.82031 2.7617-1.9609h3.1094c0.53906 0 0.98047-0.44141 0.98047-0.98047 0-0.53906-0.44141-0.98047-0.98047-0.98047h-3.1094c-0.30078-0.82813-0.94922-1.4805-1.7812-1.7812v-4.0898c0-0.53906-0.44141-0.98047-0.98047-0.98047s-0.98047 0.44141-0.98047 0.98047v4.0898c-1.1289 0.41016-1.9609 1.4883-1.9609 2.7617 0.011718 1.6211 1.332 2.9414 2.9414 2.9414zm0-3.9102c0.53906 0 0.98047 0.44141 0.98047 0.98047s-0.44141 0.98047-0.98047 0.98047-0.98047-0.44141-0.98047-0.98047c0-0.54297 0.44141-0.98047 0.98047-0.98047z"/>
 <path d="m50 11.871c0.53906 0 0.98047-0.44141 0.98047-0.98047v-0.98047c0-0.53906-0.44141-0.98047-0.98047-0.98047s-0.98047 0.44141-0.98047 0.98047v0.98047c0 0.53906 0.44141 0.98047 0.98047 0.98047z"/>
 <path d="m50 29.469c-0.53906 0-0.98047 0.44141-0.98047 0.98047v0.98047c0 0.53906 0.44141 0.98047 0.98047 0.98047s0.98047-0.44141 0.98047-0.98047v-0.98047c0-0.53906-0.44141-0.98047-0.98047-0.98047z"/>
 <path d="m59.781 21.641h0.98047c0.53906 0 0.98047-0.44141 0.98047-0.98047 0-0.53906-0.44141-0.98047-0.98047-0.98047h-0.98047c-0.53906 0-0.98047 0.44141-0.98047 0.98047 0 0.53906 0.4375 0.98047 0.98047 0.98047z"/>
 <path d="m40.219 19.691h-0.98047c-0.53906 0-0.98047 0.44141-0.98047 0.98047s0.44141 0.98047 0.98047 0.98047h0.98047c0.53906 0 0.98047-0.44141 0.98047-0.98047 0-0.54297-0.4375-0.98047-0.98047-0.98047z"/>
 <path d="m42.391 14.449c0.19922 0.19141 0.44141 0.28125 0.69141 0.28125 0.23828 0 0.5-0.10156 0.69141-0.28125 0.37891-0.37891 0.37891-1.0117 0-1.3906l-0.69141-0.69141c-0.37891-0.37891-1-0.37891-1.3906 0-0.37891 0.39062-0.37891 1.0117 0 1.3906z"/>
 <path d="m57.609 26.891c-0.37891-0.37891-1.0117-0.37891-1.3906 0s-0.37891 1.0117 0 1.3906l0.69141 0.69141c0.19922 0.19141 0.44141 0.28125 0.69141 0.28125 0.23828 0 0.5-0.10156 0.69141-0.28125 0.37891-0.39062 0.37891-1.0117 0-1.3906z"/>
 <path d="m56.91 14.73c0.25 0 0.5-0.10156 0.69141-0.28125l0.69141-0.69141c0.37891-0.37891 0.37891-1 0-1.3906-0.39062-0.37891-1.0117-0.37891-1.3906 0l-0.69141 0.69141c-0.37891 0.37891-0.37891 1.0117 0 1.3906 0.19922 0.17969 0.46094 0.28125 0.69922 0.28125z"/>
 <path d="m42.391 29.25c0.25 0 0.5-0.10156 0.69141-0.28125l0.69141-0.69141c0.37891-0.37891 0.37891-1.0117 0-1.3906-0.37891-0.37891-1.0117-0.37891-1.3906 0l-0.69141 0.69141c-0.37891 0.37891-0.37891 1 0 1.3906 0.19922 0.17969 0.45703 0.28125 0.69922 0.28125z"/>
<text fill="#000000" font-family="Arbeit Regular, Helvetica, Arial-Unicode, Arial, Sans-serif" font-weight="bold" font-size="5.0" y="117.5" x="0.0">Created by Olifernes Tejeros</text><text fill="#000000" font-family="Arbeit Regular, Helvetica, Arial-Unicode, Arial, Sans-serif" font-weight="bold" font-size="5.0" y="122.5" x="0.0">from Noun Project</text></svg>