<svg viewBox="-5 -5.4775 109.72972972972974 110.42999999999999" version="1.1" xmlns="http://www.w3.org/2000/svg" style="max-height: 500px" width="109.72972972972974" height="110.42999999999999">
 <path d="m96.875 16.797h-93.75c-1.7266 0-3.125-1.3984-3.125-3.125v-10.547c0-1.7266 1.3984-3.125 3.125-3.125h93.75c1.7266 0 3.125 1.3984 3.125 3.125v10.547c0 1.7266-1.3984 3.125-3.125 3.125zm-90.625-6.25h87.5v-4.2969h-87.5z"/>
 <path d="m7.8125 100c-1.7266 0-3.125-1.3984-3.125-3.125v-83.203c0-1.7266 1.3984-3.125 3.125-3.125s3.125 1.3984 3.125 3.125v79.562l16.945-2.6094c-4.5625-6.8438-6.9102-14.449-7.1797-22.156-0.03125-0.9375 0.35938-1.8398 1.0625-2.457 12.922-11.352 21.395-26.969 23.867-43.992l1.2773-8.7969c0.25-1.707 1.8359-2.8906 3.5391-2.6445 1.707 0.24609 2.8906 1.8359 2.6445 3.5391l-1.2773 8.7969c-2.6094 17.98-11.391 34.531-24.785 46.766 0.46484 6.1914 2.5156 12.16 5.9688 17.344l2.8047 4.207c1.2656 1.8984 0.13281 4.4766-2.125 4.8203-27.102 4.1719-25.492 3.9453-25.867 3.9453z"/>
 <path d="m22.586 71.227-20.703-8.9844c-1.5859-0.6875-2.3125-2.5273-1.625-4.1094 0.6875-1.5859 2.5273-2.3125 4.1094-1.625l20.703 8.9844c1.5859 0.6875 2.3125 2.5273 1.625 4.1094-0.6875 1.5898-2.5312 2.3086-4.1094 1.625z"/>
 <path d="m11.969 66.195c-1.0547-1.3672-0.80469-3.3281 0.5625-4.3828 7.7031-5.9531 10.898-19.805 12.117-27.531 0.26953-1.7031 1.8672-2.8672 3.5742-2.6016 1.7031 0.26953 2.8672 1.8672 2.6016 3.5742-3.0195 19.133-9.5391 27.691-14.469 31.508-1.3633 1.0547-3.3281 0.80469-4.3828-0.5625z"/>
 <path d="m19.383 98.219c-1.3125 0-2.5391-0.83594-2.9688-2.1523-1.4219-4.3398-1.9141-8.0078-1.9336-8.1641-0.22266-1.7109 0.98047-3.2812 2.6914-3.5078 1.7109-0.22266 3.2812 0.98047 3.5039 2.6875 0.019531 0 0.38672 3.1016 1.6758 7.0312 0.66406 2.0273-0.85156 4.1016-2.9688 4.1016z"/>
 <path d="m92.188 100c-0.35156 0 1.3398 0.24219-25.867-3.9453-2.2539-0.34375-3.3906-2.9219-2.125-4.8203l2.8047-4.207c3.457-5.1797 5.5039-11.148 5.9688-17.344-13.391-12.234-22.176-28.785-24.785-46.766l-1.2773-8.7969c-0.25-1.7109 0.9375-3.293 2.6445-3.5391 1.707-0.25 3.293 0.9375 3.5391 2.6445l1.2773 8.7969c2.4688 17.016 10.945 32.641 23.867 43.992 0.70312 0.61719 1.0938 1.5234 1.0625 2.457-0.26953 7.6992-2.6094 15.305-7.1797 22.156l16.945 2.6094 0.003906-79.566c0-1.7266 1.3984-3.125 3.125-3.125 1.7266 0 3.125 1.3984 3.125 3.125v83.203c0 1.7266-1.3984 3.125-3.125 3.125z"/>
 <path d="m73.305 69.602c-0.6875-1.5859 0.039062-3.4219 1.625-4.1094l20.703-8.9844c1.5859-0.6875 3.4219 0.039063 4.1094 1.625 0.6875 1.5859-0.039063 3.4219-1.625 4.1094l-20.703 8.9844c-1.5742 0.68359-3.4219-0.03125-4.1094-1.625z"/>
 <path d="m83.648 66.758c-4.9375-3.8125-11.453-12.375-14.469-31.508-0.26953-1.7031 0.89453-3.3047 2.6016-3.5742 1.7031-0.26562 3.3047 0.89453 3.5742 2.6016 1.2188 7.7266 4.4141 21.582 12.117 27.531 1.3672 1.0547 1.6172 3.0156 0.5625 4.3828-1.0547 1.3672-3.0195 1.6172-4.3828 0.5625z"/>
 <path d="m80.617 98.219c-2.1172 0-3.6328-2.0742-2.9688-4.1016 1.2344-3.7578 1.6719-7 1.6758-7.0312 0.22656-1.7109 1.8008-2.9141 3.5078-2.6875 1.7109 0.22656 2.9141 1.793 2.6875 3.5039-0.019531 0.15625-0.51172 3.8242-1.9336 8.1641-0.42969 1.3164-1.6562 2.1523-2.9688 2.1523z"/>
<text fill="#000000" font-family="Arbeit Regular, Helvetica, Arial-Unicode, Arial, Sans-serif" font-weight="bold" font-size="5.0" y="117.5" x="0.0">Created by tezar tantular</text><text fill="#000000" font-family="Arbeit Regular, Helvetica, Arial-Unicode, Arial, Sans-serif" font-weight="bold" font-size="5.0" y="122.5" x="0.0">from Noun Project</text></svg>