<svg xmlns="http://www.w3.org/2000/svg" viewBox="0 0 32 40" x="0px" y="0px"><title>11</title><g data-name="11"><path d="M29,7H21a1,1,0,0,0,0,2v3H15a1,1,0,0,0,0,2v3H9a1,1,0,0,0,0,2v3H3a1,1,0,0,0,0,2v5a1,1,0,0,0,1,1H29a1,1,0,0,0,1-1V8A1,1,0,0,0,29,7Z"/></g><text x="0" y="47" fill="#000000" font-size="5px" font-weight="bold" font-family="'Helvetica Neue', Helvetica, Arial-Unicode, Arial, Sans-serif">Created by ghufronagustian</text><text x="0" y="52" fill="#000000" font-size="5px" font-weight="bold" font-family="'Helvetica Neue', Helvetica, Arial-Unicode, Arial, Sans-serif">from the Noun Project</text></svg>