<svg viewBox="-5 -10 115.67567567567568 117.72" version="1.1" xmlns="http://www.w3.org/2000/svg" style="max-height: 500px" width="115.67567567567568" height="117.72">
 <path d="m43.688 69.07c2.6875 6.6328 5 19.969-3.9883 23.578-3.5781 1.457-8 0.51172-12.258-2.1797-5.8242-3.6797-10.188-9.668-12.758-15.988-2.6992-6.6445-4.7461-19.258 3.3789-23.301 0-0.011719 0.55469-0.25391 0.60156-0.27734 10.891-4.4219 21.613 9.7773 25.023 18.168zm6.5-1.2695c5.6992 15.426 0.93359 29.723-10.668 31.914-11.59 2.1992-25.625-8.5352-31.336-23.957-5.7109-15.434-0.93359-29.723 10.656-31.922 11.602-2.2031 25.637 8.5312 31.348 23.965zm-3.6992 0.13672c-4.0547-9.9766-16.277-24.988-28.957-19.836-0.25391 0.10938-0.53516 0.23438-0.80078 0.36719h-0.011719c-5.5234 2.7461-7.4102 8.4453-7.4102 14.355 0 4.5352 1.1094 9.2109 2.5664 12.789 2.8125 6.9102 7.6016 13.391 13.957 17.41 4.6211 2.9219 10.621 4.6328 15.812 2.0586h0.011719c9.7422-4.8438 8.1875-18.891 4.832-27.145zm-15.48-29.359c-2 0.32031-3.8789 1.3242-5.7227 2.1094 13.113 2.0547 23.445 14.18 27.824 26.023 2.9453 7.9336 3.8789 17.332 0.32031 25.223l2.3984-1.5664c7.3438-4.7656 9.8672-16.422 5.3008-28.746-5.4844-14.832-18.977-25.152-30.121-23.043zm54.871 28.859-20.289 13.855c0.80859-3.0117 1.0781-6.1328 0.92188-9.2461-0.19922-3.9336-1.0898-7.8555-2.4453-11.512-3.9883-10.789-12.789-21.355-24.234-24.523l22.535-10.867c2.2773-1.0898 4.6094-1.7227 6.9688-1.8906l1.2891 21.621c0.12109 2.0898 1.4219 3.8008 3.4023 4.4766l6.7344 2.3125c2.3008 0.78906 4.6992-0.76562 4.9883-3.1094 0.023438-0.12109 0.035156-0.25391 0.035156-0.39063l0.36719-17.832c9.6055 9.4688 11.969 28.738-0.27344 37.105zm4.0117-18.758c-0.15625-0.82031-0.95703-1.3438-1.7695-1.1875-0.63281 0.13281-1.0859 0.62109-1.1875 1.2227-0.035156 0.17969-0.035156 0.36719 0 0.55469 0.87891 4.3125-0.054688 8.957-3.6797 11.766l-14.133 9.4688c-0.5 0.33203-0.72266 0.91016-0.65625 1.4648 0.035156 0.22266 0.12109 0.43359 0.24609 0.625 0.46484 0.69922 1.3984 0.87891 2.1016 0.42188l14.18-9.5c0.023437-0.023437 0.054687-0.042969 0.078124-0.066406 4.5625-3.5039 5.9297-9.3125 4.8203-14.77zm-39.703-21.133-9.4766-4.2109 0.51172 8.5352zm2.7109-2.2109-12.402-5.5117 27.555-17.867 0.89062 14.824zm3.7656-10.457c0 1.8125 1.9883 2.6094 3.5117 2.6094 1.5352 0 3.5117-0.80078 3.5117-2.6094 0-1.8125-1.9766-2.6211-3.5117-2.6211-1.5195 0-3.5117 0.80859-3.5117 2.6211zm17.004 28.578-2.6016-43.457 11.266 7.7656c0.72266 0.48828 1.1094 1.2539 1.1016 2.1328l-0.76562 37.379c-0.023438 0.85547-0.86719 1.4453-1.6797 1.168l-4.7656-1.6328c-1.4883-0.51172-2.457-1.8008-2.5547-3.3555zm2.7656-2.2656c0 1.7109 0.80078 3.1016 1.7891 3.1016 0.98828 0 1.7891-1.3906 1.7891-3.1016 0-1.7109-0.80078-3.1016-1.7891-3.1016-0.98828 0-1.7891 1.3906-1.7891 3.1016z"/>
<text fill="#000000" font-family="Arbeit Regular, Helvetica, Arial-Unicode, Arial, Sans-serif" font-weight="bold" font-size="5.0" y="117.5" x="0.0">Created by Ainul abib</text><text fill="#000000" font-family="Arbeit Regular, Helvetica, Arial-Unicode, Arial, Sans-serif" font-weight="bold" font-size="5.0" y="122.5" x="0.0">from Noun Project</text></svg>