<svg xmlns="http://www.w3.org/2000/svg" xmlns:xlink="http://www.w3.org/1999/xlink" width="40" zoomAndPan="magnify" viewBox="0 0 30 30.000001" height="40" preserveAspectRatio="xMidYMid meet" version="1.0"><defs><clipPath id="817cf87957"><path d="M 0.484375 0 L 29.515625 0 L 29.515625 29.03125 L 0.484375 29.03125 Z M 0.484375 0 " clip-rule="nonzero"/></clipPath></defs><g clip-path="url(#817cf87957)"><path fill="#ffffff" d="M 0.484375 0 L 29.515625 0 L 29.515625 29.03125 L 0.484375 29.03125 Z M 0.484375 0 " fill-opacity="1" fill-rule="nonzero"/><path fill="#ffffff" d="M 0.484375 0 L 29.515625 0 L 29.515625 29.03125 L 0.484375 29.03125 Z M 0.484375 0 " fill-opacity="1" fill-rule="nonzero"/><path fill="#d7e0eb" d="M 28.457031 16.785156 C 29.027344 16.785156 29.496094 16.320312 29.496094 15.75 L 29.496094 13.246094 C 29.496094 12.675781 29.027344 12.210938 28.457031 12.210938 L 27.382812 12.210938 C 26.8125 12.210938 26.210938 11.765625 26.042969 11.222656 L 25.125 8.992188 C 24.855469 8.492188 24.964844 7.75 25.367188 7.347656 L 26.128906 6.585938 C 26.53125 6.183594 26.53125 5.527344 26.128906 5.121094 L 24.359375 3.351562 C 23.957031 2.949219 23.296875 2.949219 22.894531 3.351562 L 22.132812 4.113281 C 21.730469 4.515625 20.988281 4.625 20.488281 4.355469 L 18.261719 3.4375 C 17.714844 3.269531 17.269531 2.667969 17.269531 2.097656 L 17.269531 1.023438 C 17.269531 0.453125 16.804688 -0.0117188 16.234375 -0.0117188 L 13.730469 -0.0117188 C 13.160156 -0.0117188 12.695312 0.453125 12.695312 1.023438 L 12.695312 2.097656 C 12.695312 2.667969 12.25 3.269531 11.707031 3.4375 L 9.476562 4.355469 C 8.976562 4.625 8.234375 4.515625 7.832031 4.113281 L 7.070312 3.351562 C 6.667969 2.949219 6.011719 2.949219 5.605469 3.351562 L 3.835938 5.121094 C 3.433594 5.527344 3.433594 6.183594 3.835938 6.585938 L 4.597656 7.347656 C 5 7.75 5.109375 8.492188 4.839844 8.992188 L 3.921875 11.222656 C 3.753906 11.765625 3.152344 12.210938 2.582031 12.210938 L 1.507812 12.210938 C 0.9375 12.210938 0.472656 12.675781 0.472656 13.246094 L 0.472656 15.75 C 0.472656 16.320312 0.9375 16.785156 1.507812 16.785156 L 2.582031 16.785156 C 3.152344 16.785156 3.753906 17.230469 3.921875 17.777344 L 4.839844 20.003906 C 5.109375 20.507812 5 21.246094 4.597656 21.648438 L 3.835938 22.410156 C 3.433594 22.8125 3.433594 23.472656 3.835938 23.875 L 5.605469 25.644531 C 6.011719 26.046875 6.667969 26.046875 7.070312 25.644531 L 7.832031 24.882812 C 8.234375 24.480469 8.976562 24.371094 9.476562 24.640625 L 11.707031 25.558594 C 12.25 25.726562 12.695312 26.328125 12.695312 26.898438 L 12.695312 27.976562 C 12.695312 28.542969 13.160156 29.011719 13.730469 29.011719 L 16.234375 29.011719 C 16.804688 29.011719 17.269531 28.542969 17.269531 27.976562 L 17.269531 26.898438 C 17.269531 26.328125 17.714844 25.726562 18.261719 25.558594 L 20.488281 24.640625 C 20.988281 24.371094 21.730469 24.480469 22.132812 24.882812 L 22.894531 25.644531 C 23.296875 26.046875 23.957031 26.046875 24.359375 25.644531 L 26.128906 23.875 C 26.53125 23.472656 26.53125 22.8125 26.128906 22.410156 L 25.367188 21.648438 C 24.964844 21.246094 24.855469 20.503906 25.125 20.003906 L 26.042969 17.777344 C 26.210938 17.230469 26.8125 16.785156 27.382812 16.785156 Z M 14.984375 20.46875 C 11.6875 20.46875 9.011719 17.796875 9.011719 14.5 C 9.011719 11.203125 11.6875 8.527344 14.984375 8.527344 C 18.28125 8.527344 20.953125 11.203125 20.953125 14.5 C 20.953125 17.796875 18.28125 20.46875 14.984375 20.46875 Z M 14.984375 20.46875 " fill-opacity="1" fill-rule="nonzero"/></g></svg>