<svg xmlns="http://www.w3.org/2000/svg" xmlns:xlink="http://www.w3.org/1999/xlink" width="40" zoomAndPan="magnify" viewBox="0 0 30 30.000001" height="40" preserveAspectRatio="xMidYMid meet" version="1.0"><defs><clipPath id="33de56ba72"><path d="M 0.765625 6 L 24 6 L 24 28 L 0.765625 28 Z M 0.765625 6 " clip-rule="nonzero"/></clipPath><clipPath id="6387edff39"><path d="M 0.765625 1 L 10 1 L 10 10 L 0.765625 10 Z M 0.765625 1 " clip-rule="nonzero"/></clipPath><clipPath id="0bac8332a9"><path d="M 14 1 L 29.074219 1 L 29.074219 12 L 14 12 Z M 14 1 " clip-rule="nonzero"/></clipPath></defs><path fill="#d7e0eb" d="M 27.328125 21.046875 C 27.042969 20.628906 26.355469 19.945312 25.113281 19.917969 C 24.125 20.164062 23.066406 20.539062 22.078125 21.105469 C 20.839844 21.820312 19.898438 22.726562 19.242188 23.804688 C 19.234375 23.832031 19.226562 23.855469 19.226562 23.855469 C 19.160156 24.214844 19.171875 24.546875 19.238281 24.839844 C 19.59375 26.429688 21.546875 27.523438 23.148438 27.542969 C 23.335938 27.546875 23.511719 27.453125 23.617188 27.296875 C 23.71875 27.140625 23.738281 26.945312 23.664062 26.773438 L 22.695312 24.511719 L 24.832031 23.445312 L 25.777344 25.644531 C 25.84375 25.804688 25.988281 25.925781 26.164062 25.964844 C 26.335938 26.003906 26.515625 25.957031 26.648438 25.839844 C 27.96875 24.683594 28.285156 22.441406 27.328125 21.046875 Z M 27.328125 21.046875 " fill-opacity="1" fill-rule="nonzero"/><g clip-path="url(#33de56ba72)"><path fill="#d7e0eb" d="M 23.320312 18.855469 C 20.820312 17.136719 18.496094 15.296875 16.398438 13.390625 L 20.742188 9.050781 C 20.84375 8.945312 20.84375 8.78125 20.742188 8.679688 L 19.628906 7.566406 C 19.527344 7.464844 19.363281 7.464844 19.261719 7.566406 L 14.875 11.953125 C 13.167969 10.289062 11.644531 8.589844 10.34375 6.886719 C 10.230469 6.738281 10.015625 6.746094 9.90625 6.894531 C 9.664062 7.226562 9.398438 7.539062 9.101562 7.835938 C 8.527344 8.410156 7.855469 8.921875 7.09375 9.359375 C 6.605469 9.636719 6.09375 9.878906 5.574219 10.082031 C 5.363281 10.164062 5.332031 10.445312 5.519531 10.570312 C 7.460938 11.878906 9.234375 13.183594 10.851562 14.492188 L 3.882812 21.460938 L 1.371094 22.507812 C 1.273438 22.570312 1.203125 22.667969 1.164062 22.777344 L 0.792969 23.890625 C 0.730469 24.078125 0.78125 24.285156 0.921875 24.425781 L 3.882812 27.390625 C 4.023438 27.527344 4.234375 27.578125 4.421875 27.515625 L 5.53125 27.144531 C 5.640625 27.109375 5.738281 27.035156 5.800781 26.9375 L 6.847656 24.425781 L 14.019531 17.25 C 15.773438 18.898438 17.285156 20.558594 18.566406 22.242188 C 18.675781 22.386719 18.882812 22.386719 19 22.246094 C 19.164062 22.046875 19.335938 21.855469 19.519531 21.667969 C 20.097656 21.09375 20.765625 20.582031 21.527344 20.148438 C 22.082031 19.828125 22.667969 19.5625 23.257812 19.339844 C 23.46875 19.261719 23.503906 18.984375 23.320312 18.855469 Z M 23.320312 18.855469 " fill-opacity="1" fill-rule="nonzero"/></g><g clip-path="url(#6387edff39)"><path fill="#d7e0eb" d="M 9.414062 4.570312 C 9.058594 2.980469 7.101562 1.886719 5.5 1.867188 C 5.3125 1.863281 5.140625 1.957031 5.035156 2.113281 C 4.929688 2.269531 4.914062 2.464844 4.984375 2.636719 L 5.953125 4.898438 L 3.816406 5.964844 L 2.875 3.765625 C 2.804688 3.605469 2.660156 3.484375 2.488281 3.445312 C 2.3125 3.40625 2.132812 3.453125 2 3.570312 C 0.679688 4.726562 0.367188 6.96875 1.320312 8.363281 C 1.636719 8.820312 2.363281 9.625 3.859375 9.496094 C 4.746094 9.253906 5.671875 8.898438 6.542969 8.398438 C 7.8125 7.671875 8.765625 6.742188 9.421875 5.628906 C 9.417969 5.621094 9.410156 5.613281 9.40625 5.605469 C 9.414062 5.578125 9.476562 4.863281 9.414062 4.570312 Z M 9.414062 4.570312 " fill-opacity="1" fill-rule="nonzero"/></g><g clip-path="url(#0bac8332a9)"><path fill="#d7e0eb" d="M 29.078125 8.125 L 27.96875 7.011719 C 27.921875 6.980469 27.875 6.945312 27.832031 6.914062 L 26.429688 6.210938 C 26.132812 5.898438 26.0625 5.699219 25.980469 5.445312 C 25.890625 5.164062 25.773438 4.816406 25.375 4.417969 C 22.101562 1.144531 18.34375 0.585938 15.066406 2.882812 C 14.925781 2.976562 14.847656 3.140625 14.847656 3.308594 L 14.847656 4.789062 C 14.847656 4.964844 14.941406 5.125 15.089844 5.222656 C 15.234375 5.320312 15.429688 5.332031 15.589844 5.265625 C 16.976562 4.675781 18.292969 4.117188 19.929688 5.019531 L 19.691406 5.734375 C 19.628906 5.921875 19.675781 6.128906 19.816406 6.269531 L 21.875 8.328125 C 22.003906 8.460938 22.195312 8.511719 22.375 8.460938 C 22.875 8.328125 23.429688 8.441406 23.835938 8.808594 L 24.535156 10.210938 C 24.566406 10.253906 24.601562 10.300781 24.632812 10.347656 L 25.746094 11.457031 C 25.949219 11.660156 26.28125 11.660156 26.484375 11.457031 L 29.078125 8.863281 C 29.285156 8.660156 29.285156 8.328125 29.078125 8.125 Z M 29.078125 8.125 " fill-opacity="1" fill-rule="nonzero"/></g></svg>