<svg xmlns="http://www.w3.org/2000/svg" xmlns:xlink="http://www.w3.org/1999/xlink" width="40" zoomAndPan="magnify" viewBox="0 0 30 30.000001" height="40" preserveAspectRatio="xMidYMid meet" version="1.0"><defs><clipPath id="05d93ac8ef"><path d="M 0.484375 0 L 29.515625 0 L 29.515625 29.03125 L 0.484375 29.03125 Z M 0.484375 0 " clip-rule="nonzero"/></clipPath><clipPath id="9ca3fe358a"><path d="M 0.484375 0 L 29.515625 0 L 29.515625 29.03125 L 0.484375 29.03125 Z M 0.484375 0 " clip-rule="nonzero"/></clipPath></defs><g clip-path="url(#05d93ac8ef)"><path fill="#1b2333" d="M 199.949219 -1.027344 C 90.035156 -1.027344 0.484375 88.390625 0.484375 198.433594 C 0.484375 259.644531 28.292969 314.46875 71.804688 351.058594 C 71.804688 351.058594 71.804688 351.058594 71.804688 351.191406 C 106.535156 380.335938 151.246094 397.898438 199.949219 397.898438 C 269.40625 397.898438 332.746094 362.769531 369.472656 303.824219 C 389.296875 272.152344 399.675781 235.828125 399.675781 198.433594 C 399.675781 161.042969 389.296875 124.585938 369.472656 93.046875 C 332.746094 34.101562 269.40625 -1.027344 199.949219 -1.027344 Z M 346.984375 289.71875 C 340.597656 299.964844 333.144531 309.011719 325.027344 317.527344 C 304.800781 276.011719 261.824219 248.335938 214.320312 248.335938 L 185.84375 248.335938 C 152.84375 248.335938 121.839844 261.242188 98.550781 284.527344 C 88.839844 294.109375 81.121094 305.417969 75.132812 317.660156 C 45.460938 286.65625 27.097656 244.742188 27.097656 198.433594 C 27.097656 103.160156 104.671875 25.585938 199.949219 25.585938 C 260.226562 25.585938 315.046875 56.054688 346.984375 107.152344 C 364.015625 134.566406 373.066406 166.101562 373.066406 198.433594 C 373.066406 230.769531 364.015625 262.304688 346.984375 289.71875 Z M 346.984375 289.71875 " fill-opacity="1" fill-rule="nonzero"/></g><path fill="#d7e0eb" d="M 15 5.972656 C 12.261719 5.972656 10.027344 8.195312 10.027344 10.933594 C 10.027344 13.683594 12.261719 15.910156 15 15.910156 C 17.738281 15.910156 19.972656 13.683594 19.972656 10.933594 C 19.972656 8.195312 17.738281 5.972656 15 5.972656 Z M 15 5.972656 " fill-opacity="1" fill-rule="nonzero"/><g clip-path="url(#9ca3fe358a)"><path fill="#d7e0eb" d="M 14.992188 0.0078125 C 6.996094 0.0078125 0.484375 6.511719 0.484375 14.515625 C 0.484375 18.96875 2.507812 22.953125 5.671875 25.617188 C 5.671875 25.617188 5.671875 25.617188 5.671875 25.625 C 8.195312 27.746094 11.449219 29.023438 14.992188 29.023438 C 20.042969 29.023438 24.648438 26.46875 27.320312 22.179688 C 28.761719 19.878906 29.515625 17.234375 29.515625 14.515625 C 29.515625 11.796875 28.761719 9.144531 27.320312 6.851562 C 24.648438 2.566406 20.042969 0.0078125 14.992188 0.0078125 Z M 25.683594 21.15625 C 25.21875 21.898438 24.675781 22.558594 24.085938 23.175781 C 22.617188 20.15625 19.492188 18.144531 16.035156 18.144531 L 13.964844 18.144531 C 11.566406 18.144531 9.308594 19.082031 7.617188 20.777344 C 6.910156 21.472656 6.347656 22.296875 5.914062 23.1875 C 3.753906 20.933594 2.417969 17.882812 2.417969 14.515625 C 2.417969 7.585938 8.0625 1.945312 14.992188 1.945312 C 19.375 1.945312 23.359375 4.160156 25.683594 7.878906 C 26.921875 9.871094 27.582031 12.164062 27.582031 14.515625 C 27.582031 16.867188 26.921875 19.160156 25.683594 21.15625 Z M 25.683594 21.15625 " fill-opacity="1" fill-rule="nonzero"/></g></svg>