<svg xml:space="preserve" viewBox="0.990615 17.490625 98.5 64" y="0px" x="0px" version="1.1" xmlns:xlink="http://www.w3.org/1999/xlink" xmlns="http://www.w3.org/2000/svg" style="max-height: 500px" width="98.5" height="64"><path d="M86.504,26.986H12.905c-2.698,0-4.884,2.187-4.884,4.884v34.948  c0,2.697,2.187,4.07,4.884,4.07h1.264h0.257l0.164,0.839c0,0.45,1.163,0.816,2.596,0.816c1.433,0,2.595-0.366,2.595-0.816  l0.164-0.839h7.134v-0.003l0.164,0.842c0,0.45,1.163,0.816,2.596,0.816c1.433,0,2.595-0.366,2.595-0.816l0.164-0.839h7.134  l0.164,0.839c0,0.45,1.163,0.816,2.596,0.816c1.433,0,2.595-0.366,2.595-0.816l0.165-0.844v0.005h7.134l0.163,0.839  c0,0.45,1.163,0.816,2.597,0.816c1.433,0,2.595-0.366,2.595-0.816l0.165-0.846v0.007h28.6c2.698,0,4.885-1.373,4.885-4.07V31.87  C91.389,29.172,89.202,26.986,86.504,26.986z M31.971,43.27c0-1.08,0.878-1.958,1.958-1.958h1.739c0.79,0,1.468,0.472,1.778,1.147  h25.802c0.31-0.675,0.988-1.147,1.778-1.147h1.738c1.08,0,1.959,0.878,1.959,1.958v4.327c0,1.08-0.879,1.958-1.959,1.958h-1.738  c-0.846,0-1.562-0.542-1.835-1.295H37.504c-0.273,0.753-0.989,1.295-1.835,1.295H33.93c-1.08,0-1.958-0.878-1.958-1.958V43.27z   M17.186,72.404c-1.29,0-2.336-0.303-2.336-0.677s1.046-0.679,2.336-0.679c0.007,0,0.013,0.001,0.02,0.001l0.628-5.597  c0.026-0.232,0.237-0.402,0.47-0.375c0.234,0.025,0.401,0.236,0.375,0.469l-0.623,5.552c0.858,0.101,1.465,0.345,1.465,0.629  C19.521,72.102,18.476,72.404,17.186,72.404z M29.839,72.404c-1.29,0-2.336-0.303-2.336-0.677s1.046-0.679,2.336-0.679  c0.007,0,0.013,0.001,0.02,0.001l0.628-5.597c0.026-0.232,0.237-0.402,0.47-0.375c0.234,0.025,0.401,0.236,0.375,0.469l-0.623,5.552  c0.858,0.101,1.465,0.345,1.465,0.629C32.174,72.102,31.128,72.404,29.839,72.404z M42.491,72.404c-1.29,0-2.336-0.303-2.336-0.677  s1.046-0.679,2.336-0.679c0.007,0,0.013,0.001,0.02,0.001l0.628-5.597c0.026-0.232,0.237-0.402,0.47-0.375  c0.234,0.025,0.401,0.236,0.375,0.469l-0.623,5.552c0.858,0.101,1.465,0.345,1.465,0.629C44.827,72.102,43.781,72.404,42.491,72.404  z M55.145,72.404c-1.29,0-2.336-0.303-2.336-0.677s1.046-0.679,2.336-0.679c0.006,0,0.013,0.001,0.02,0.001l0.627-5.597  c0.027-0.232,0.237-0.402,0.471-0.375c0.234,0.025,0.401,0.236,0.375,0.469l-0.623,5.552c0.858,0.101,1.466,0.345,1.466,0.629  C57.479,72.102,56.434,72.404,55.145,72.404z M89.449,67.219c0,1.312-2.187,2.376-4.884,2.376H58.156h-0.001l0.817-4.188  c0-0.664-1.715-1.202-3.828-1.202c-2.115,0-3.829,0.538-3.829,1.202l0.816,4.188h-6.628h-0.001l0.817-4.188  c0-0.664-1.714-1.202-3.829-1.202c-2.115,0-3.829,0.538-3.829,1.202l0.816,4.188H32.85l0.817-4.188c0-0.664-1.714-1.202-3.829-1.202  c-2.115,0-3.829,0.538-3.829,1.202l0.816,4.188h0h-6.629l0.817-4.188c0-0.664-1.714-1.202-3.829-1.202  c-2.115,0-3.829,0.538-3.829,1.202l0.812,4.166c-2.478-0.114-4.424-1.119-4.424-2.354v-2.344c0-1.312,2.187-2.376,4.884-2.376  h69.936c2.697,0,4.884,1.063,4.884,2.376V67.219z" fill="#000000"/><path d="M67.249,44.214v2.291c0,0.97-0.784,1.755-1.754,1.755H63.63  c0.25,0.523,0.779,0.888,1.397,0.888h1.738c0.856,0,1.553-0.696,1.553-1.551V43.27c0-0.855-0.696-1.551-1.553-1.551h-1.738  c-0.558,0-1.044,0.298-1.317,0.74h1.785C66.465,42.459,67.249,43.245,67.249,44.214z" fill="#000000"/><path d="M35.681,44.008c0,0.209,0.169,0.378,0.377,0.378h28.233c0.209,0,0.378-0.169,0.378-0.378  c0-0.208-0.169-0.377-0.378-0.377H36.058C35.85,43.631,35.681,43.8,35.681,44.008z" fill="#000000"/><path d="M64.669,46.858c0-0.208-0.169-0.377-0.378-0.377H36.058c-0.208,0-0.377,0.169-0.377,0.377  c0,0.209,0.169,0.378,0.377,0.378h28.233C64.5,47.236,64.669,47.067,64.669,46.858z" fill="#000000"/><path d="M36.058,45.811h28.233c0.209,0,0.378-0.169,0.378-0.377c0-0.209-0.169-0.378-0.378-0.378H36.058  c-0.208,0-0.377,0.169-0.377,0.378C35.681,45.642,35.85,45.811,36.058,45.811z" fill="#000000"/><path d="M33.93,49.148h1.739c0.617,0,1.147-0.365,1.397-0.888h-2.211  c-0.97,0-1.755-0.785-1.755-1.755v-2.291c0-0.97,0.785-1.755,1.755-1.755h2.131c-0.273-0.442-0.759-0.74-1.316-0.74H33.93  c-0.855,0-1.551,0.696-1.551,1.551v4.327C32.378,48.452,33.074,49.148,33.93,49.148z" fill="#000000"/><ellipse ry="0.677" rx="2.336" cy="66.61" cx="82.591"/><path d="M82.591,67.93c-1.61,0-3.241-0.453-3.241-1.319c0-0.856,1.67-1.319,3.241-1.319s3.242,0.463,3.242,1.319  C85.833,67.477,84.202,67.93,82.591,67.93z M82.591,65.746c-1.701,0-2.786,0.512-2.786,0.864s1.085,0.864,2.786,0.864  s2.787-0.512,2.787-0.864S84.292,65.746,82.591,65.746z"/><text font-family="'Helvetica Neue', Helvetica, Arial-Unicode, Arial, Sans-serif" font-weight="bold" font-size="5px" fill="#000000" y="115" x="0">Created by Thijs Leydens</text><text font-family="'Helvetica Neue', Helvetica, Arial-Unicode, Arial, Sans-serif" font-weight="bold" font-size="5px" fill="#000000" y="120" x="0">from the Noun Project</text></svg>