<?xml version="1.0" encoding="UTF-8"?>
<svg version="1.1" xmlns="http://www.w3.org/2000/svg" width="1024" height="1024">
<path d="M0 0 C1.94627092 -0.00258694 3.89254131 -0.00560101 5.83881098 -0.0090034 C11.16829294 -0.01703801 16.4977614 -0.01886099 21.82724869 -0.01960087 C27.5827782 -0.02145761 33.3383008 -0.02900803 39.09382629 -0.03573608 C51.67056202 -0.04929466 64.24729454 -0.05534023 76.82403636 -0.05974674 C84.68330563 -0.0625133 92.54257368 -0.0667514 100.40184212 -0.07125092 C122.18012769 -0.08344024 143.95841212 -0.09377562 165.73670101 -0.09712601 C167.14353187 -0.09734763 168.55036273 -0.09756942 169.95719359 -0.09779136 C171.36730683 -0.09801199 172.77742007 -0.09823248 174.18753332 -0.09845281 C177.01618127 -0.09889534 179.84482922 -0.09934246 182.67347717 -0.09979248 C183.37481084 -0.09990187 184.0761445 -0.10001126 184.7987307 -0.10012397 C207.52679214 -0.10375259 230.25482166 -0.1196673 252.98287088 -0.14298284 C277.0445456 -0.16762111 301.10620195 -0.18129399 325.16788965 -0.18249393 C338.27155053 -0.183409 351.37516958 -0.18911918 364.47881889 -0.20731354 C375.63849547 -0.22275459 386.79811729 -0.22781139 397.95780253 -0.21957543 C403.64532133 -0.21568314 409.33272999 -0.21652879 415.02023506 -0.23063278 C420.23971615 -0.2434571 425.45900527 -0.24210008 430.67848641 -0.23004207 C432.55400761 -0.22809975 434.42954281 -0.23109463 436.30504441 -0.23988643 C461.49760375 -0.35038479 484.7406334 3.76160735 506.85487366 16.14044189 C507.85260803 16.69602783 508.85034241 17.25161377 509.87831116 17.82403564 C517.42718363 22.33389212 523.55849561 28.07431115 529.85487366 34.14044189 C530.57545959 34.78626221 531.29604553 35.43208252 532.03846741 36.09747314 C553.0626653 55.51418709 563.09633479 87.00808062 564.36148548 114.85880947 C564.43353254 117.52735844 564.49126418 120.19310223 564.53329468 122.86198425 C564.56613873 124.36835898 564.59957044 125.87472099 564.63352805 127.38107103 C565.02985239 146.38585924 565.00474109 165.39797855 565.00025737 184.40593612 C565.00004956 189.92787342 565.00560699 195.44980583 565.01031494 200.97174072 C565.01853631 211.73269671 565.02136571 222.49364721 565.02192732 233.25460608 C565.02240579 242.0040932 565.02447682 250.75357855 565.02762794 259.50306511 C565.03498338 280.35415031 565.0411555 301.20523446 565.04062939 322.05632114 C565.04061381 322.71945807 565.04059823 323.382595 565.04058218 324.06582699 C565.04049909 327.42551465 565.04040005 330.7852023 565.04029747 334.14488996 C565.04026755 335.14545611 565.04026755 335.14545611 565.04023703 336.16623572 C565.04019659 337.5151443 565.0401548 338.86405288 565.04011164 340.21296146 C565.03949759 361.24470336 565.04703872 382.2764292 565.0606842 403.3081665 C565.07606644 427.02555064 565.0846368 450.74292578 565.08372098 474.46031612 C565.08338983 486.98786492 565.08610232 499.51539553 565.09689903 512.04294014 C565.1060189 522.69117951 565.10816641 533.33939242 565.10138961 543.98763401 C565.09813429 549.41176446 565.09803238 554.83584415 565.10674286 560.25996971 C565.11465051 565.23533325 565.11313336 570.21060612 565.10445873 575.18596756 C565.1029333 576.97459765 565.10470327 578.76323466 565.1103188 580.55185658 C565.15360243 595.32972523 564.68361429 610.43334036 560.72987366 624.76544189 C560.51742004 625.54484131 560.30496643 626.32424072 560.08607483 627.1272583 C556.11209568 640.85149496 549.11437111 652.36442832 539.85487366 663.14044189 C539.17038147 663.93837158 538.48588928 664.73630127 537.78065491 665.55841064 C524.56176155 679.78445778 506.56472979 688.77083643 487.85487366 693.14044189 C487.18460111 693.30940904 486.51432855 693.47837619 485.82374471 693.65246356 C475.97450564 695.81306295 465.9895982 695.42450534 455.96340942 695.40786743 C453.82739665 695.41160688 451.69138524 695.41620958 449.55537599 695.42159808 C443.70140855 695.43380734 437.84749835 695.43357004 431.99352109 695.43120933 C425.67356386 695.43080063 419.35362485 695.44184548 413.03367615 695.45132446 C400.6565034 695.46792484 388.27935358 695.47345956 375.90217114 695.47454922 C365.837289 695.4754695 355.77241302 695.4795924 345.70753288 695.48595047 C342.80675632 695.48774567 339.90597976 695.48952529 337.00520319 695.49130023 C336.2839822 695.49174232 335.56276122 695.49218442 334.81968505 695.49263991 C314.53981749 695.50494396 294.25995206 695.5128415 273.9800806 695.51195335 C273.21590667 695.5119222 272.45173275 695.51189104 271.66440203 695.51185894 C267.7915713 695.51169273 263.91874056 695.51149465 260.04590983 695.51128952 C258.89225083 695.51122969 258.89225083 695.51122969 257.71528558 695.51116864 C256.15996515 695.51108777 254.60464472 695.51100417 253.04932429 695.51091786 C228.8662379 695.50969312 204.68320766 695.52469317 180.50013733 695.55206299 C153.30587662 695.5828284 126.1116528 695.59999274 98.9173736 695.59813654 C96.01376784 695.59798729 93.11016208 695.59788987 90.20655632 695.59782791 C89.13421362 695.59779295 89.13421362 695.59779295 88.04020743 695.59775728 C76.56781034 695.5976959 65.09546225 695.6104326 53.6230797 695.62769244 C42.07806935 695.64470139 30.53315518 695.64624069 18.98813439 695.6334738 C12.7416189 695.6269605 6.49527973 695.62676773 0.2487812 695.6441803 C-5.48146006 695.65998873 -11.21138635 695.65696834 -16.9416203 695.63961203 C-19.00287335 695.63655915 -21.06415038 695.64010905 -23.12537514 695.65133218 C-52.90362719 695.80259429 -80.62278242 688.48655685 -102.28184509 667.09747314 C-127.81039786 641.03341484 -131.31117842 608.4826371 -131.27883911 573.74449158 C-131.28071097 571.81966874 -131.28301316 569.89484628 -131.28570443 567.97002441 C-131.2917827 562.71816971 -131.29169355 557.46633102 -131.29051006 552.21447361 C-131.29030503 546.53524781 -131.29583455 540.85602702 -131.30056763 535.17680359 C-131.30885345 524.06283821 -131.31162155 512.94887814 -131.31218001 501.83490994 C-131.31265625 492.79277441 -131.31471641 483.75064061 -131.31788063 474.70850563 C-131.32525174 453.20457669 -131.33140604 431.70064945 -131.33088207 410.19671917 C-131.33086649 409.50998649 -131.33085091 408.82325381 -131.33083486 408.11571104 C-131.33075177 404.6356754 -131.33065273 401.15563977 -131.33055016 397.67560413 C-131.33052024 396.63902982 -131.33052024 396.63902982 -131.33048972 395.58151463 C-131.33044928 394.18404403 -131.33040748 392.78657344 -131.33036433 391.38910285 C-131.3297522 369.66908351 -131.33724877 347.94907981 -131.35093689 326.22906494 C-131.36633836 301.78074466 -131.37488798 277.33243645 -131.37397367 252.88411075 C-131.37364272 239.95694538 -131.37634456 227.02979764 -131.38715172 214.10263634 C-131.39629798 203.09218889 -131.39839839 192.08176707 -131.39164229 181.07131746 C-131.38839749 175.46406145 -131.38824572 169.85685448 -131.39699554 164.24960327 C-131.49955193 93.98084139 -131.49955193 93.98084139 -119.14512634 67.14044189 C-118.72819519 66.22464355 -118.72819519 66.22464355 -118.30284119 65.29034424 C-105.85307803 38.556042 -81.99764803 17.28158213 -54.39903259 7.15826416 C-36.48493681 0.97230296 -18.78151975 -0.01001753 0 0 Z M-49.08262634 45.89044189 C-49.78371521 46.23260742 -50.48480408 46.57477295 -51.20713806 46.92730713 C-57.16234876 49.9379282 -62.24935943 53.59769044 -67.14512634 58.14044189 C-67.75227478 58.65735596 -68.35942322 59.17427002 -68.98497009 59.70684814 C-84.24320206 73.51191516 -91.85582708 96.16551022 -93.14512634 116.14044189 C-93.33653389 122.5195741 -93.28461267 128.90467493 -93.27883911 135.28593445 C-93.2807088 137.24442926 -93.28301013 139.20292369 -93.28570443 141.16141754 C-93.29180951 146.52929578 -93.29169035 151.89715841 -93.29051006 157.26503932 C-93.29030572 163.06010291 -93.29582805 168.85516152 -93.30056763 174.65022278 C-93.30886816 185.99981702 -93.31162222 197.34940607 -93.31218001 208.69900309 C-93.31265554 217.92867536 -93.31471219 227.15834592 -93.31788063 236.38801765 C-93.31877518 239.04810415 -93.31966679 241.70819064 -93.32055551 244.36827713 C-93.32077656 245.02965743 -93.3209976 245.69103772 -93.32122535 246.37245984 C-93.32737751 264.97010784 -93.33132614 283.56775526 -93.33088207 302.16540432 C-93.33086649 302.86620649 -93.33085091 303.56700867 -93.33083486 304.28904727 C-93.33075176 307.84070517 -93.33065272 311.39236308 -93.33055016 314.94402098 C-93.33053021 315.64934411 -93.33051027 316.35466725 -93.33048972 317.08136381 C-93.33044928 318.50769999 -93.33040748 319.93403617 -93.33036433 321.36037235 C-93.32975201 343.53601082 -93.33725096 365.71163398 -93.35093689 387.88726807 C-93.36632114 412.82477278 -93.37490166 437.76226743 -93.37397367 462.69977719 C-93.3736039 475.89451299 -93.37636897 489.08923227 -93.38715172 502.28396416 C-93.39627615 513.5212732 -93.39841611 524.75855716 -93.39164229 535.99586832 C-93.38838661 541.72373787 -93.38828583 547.45155936 -93.39699554 553.17942429 C-93.40490394 558.43463308 -93.40338516 563.68975605 -93.39471141 568.94496287 C-93.3931859 570.83462649 -93.39495629 572.72429667 -93.40057149 574.61395257 C-93.42641937 583.93851683 -93.20546365 593.15698512 -92.26639271 602.43971348 C-92.19044854 603.20513983 -92.11450437 603.97056619 -92.03625886 604.75918728 C-90.46164434 618.72515169 -83.94319318 633.76090395 -72.98887634 642.94903564 C-55.39546677 655.1764553 -40.00028588 657.59507313 -19.13136292 657.52812195 C-17.00655854 657.53229953 -14.8817564 657.53777936 -12.75695837 657.54444176 C-6.94343381 657.55885928 -1.13005148 657.55466316 4.68348074 657.54727495 C10.9630932 657.54253646 17.2426752 657.55505914 23.52227783 657.56529236 C35.10484053 657.58148019 46.68734655 657.58392859 58.26991708 657.57898737 C68.97259499 657.57442397 79.67525613 657.57503713 90.3779335 657.58082771 C91.81552828 657.58158459 93.25312305 657.58234057 94.69071782 657.58309566 C96.85724412 657.5842409 99.02377041 657.58539078 101.19029669 657.5865549 C121.32299396 657.59725421 141.45568565 657.60199099 161.58838463 657.59408474 C162.34672118 657.59378757 163.10505773 657.59349039 163.88637417 657.59318421 C170.04395722 657.59073547 176.20154021 657.58812379 182.35912319 657.58550008 C206.37466032 657.57539859 230.39012752 657.58375351 254.40565491 657.60699463 C281.4105425 657.63308666 308.41538801 657.64591002 335.42028868 657.63880688 C338.30158654 657.63809086 341.18288441 657.63741646 344.06418228 657.63676643 C344.77358893 657.63659662 345.48299558 657.63642682 346.2138994 657.63625186 C356.90607257 657.63395229 367.59820656 657.64190948 378.29037094 657.65505791 C390.45477521 657.66999045 402.61905948 657.67041052 414.78346704 657.652987 C420.98684321 657.6444778 427.19004461 657.64232581 433.39341164 657.65763855 C439.07829138 657.67149745 444.76284681 657.66670661 450.44770785 657.64739931 C452.4980427 657.64364275 454.54840361 657.64655124 456.59871523 657.65701097 C476.72053125 657.75231803 493.51583266 654.77578465 508.64393616 640.33966064 C509.37354553 639.61391846 510.10315491 638.88817627 510.85487366 638.14044189 C511.41948303 637.61063721 511.98409241 637.08083252 512.56581116 636.53497314 C528.6225379 620.01098716 527.00793628 594.75467472 526.98858643 573.53170776 C526.99045774 571.57174746 526.99275972 569.61178752 526.99545175 567.65182817 C527.00153628 562.29859705 527.00144013 556.94538162 527.00025737 551.59214783 C527.00005252 545.80607363 527.00558008 540.02000437 527.01031494 534.2339325 C527.01860311 522.91129358 527.02136893 511.58865987 527.02192732 500.26601817 C527.02240324 491.06025256 527.0244618 481.85448867 527.02762794 472.6487236 C527.0285225 469.99357394 527.02941411 467.33842429 527.03030282 464.68327463 C527.03052387 464.02310211 527.03074492 463.3629296 527.03097267 462.68275186 C527.03712142 444.12939102 527.04107377 425.57603075 527.04062939 407.02266884 C527.04061381 406.32403793 527.04059823 405.62540703 527.04058218 404.90560549 C527.04049908 401.36508356 527.04040004 397.82456162 527.04029747 394.28403969 C527.04027753 393.58094526 527.04025758 392.87785084 527.04023703 392.15345052 C527.04019659 390.73162529 527.0401548 389.30980006 527.04011164 387.88797483 C527.03949885 365.76541822 527.04700835 343.64287693 527.0606842 321.52032471 C527.07606125 296.63592374 527.0846495 271.75153284 527.08372098 246.86712682 C527.08338933 233.70216829 527.08612266 220.53722705 527.09689903 207.37227249 C527.1060139 196.16571676 527.10817107 184.95918618 527.10138961 173.75262834 C527.09812973 168.03927951 527.09804859 162.32597888 527.10674286 156.61263466 C527.11463197 151.37439612 527.11315189 146.13624382 527.10445873 140.89800732 C527.10292907 139.0112084 527.10471956 137.12440296 527.1103188 135.23761173 C527.18715592 107.49020432 523.05352147 81.12238924 503.35487366 60.14044189 C484.61026621 42.04317074 462.10540569 37.66563797 436.9427948 37.75276184 C434.96205751 37.74858164 432.98132262 37.74310038 431.00059211 37.73644203 C425.59449902 37.7220589 420.1885593 37.72620974 414.78245807 37.73360884 C408.93774682 37.73835592 403.09306802 37.7258171 397.24836731 37.71559143 C385.81255093 37.69842843 374.37678955 37.69755821 362.94096364 37.70280433 C353.64273897 37.7068518 344.34453051 37.70539563 335.04630661 37.70005608 C333.70768766 37.69929919 332.36906872 37.69854321 331.03044977 37.69778813 C329.01298022 37.69664287 326.99551068 37.69549298 324.97804115 37.69432889 C306.2357008 37.68363289 287.49336643 37.67888941 268.75102425 37.68679905 C268.04537027 37.68709622 267.3397163 37.6873934 266.61267888 37.68769957 C260.88321008 37.69014821 255.15374136 37.69275995 249.42427265 37.69538371 C227.0799848 37.70548472 204.73577212 37.69712984 182.39149475 37.67388916 C157.25436661 37.64778553 132.11728371 37.63497683 106.98014152 37.64207691 C104.29711843 37.64279291 101.61409534 37.64346731 98.93107224 37.64411736 C96.95113823 37.64460053 96.95113823 37.64460053 94.93120555 37.64509346 C85.65007108 37.6463923 76.36897422 37.6380627 67.08784866 37.62582588 C55.76859649 37.61108643 44.44944948 37.61049138 33.13019933 37.62789679 C27.35996391 37.63639455 21.58991621 37.63858609 15.8196907 37.62324524 C10.52830117 37.60935205 5.23725936 37.61422077 -0.0541103 37.63348448 C-1.95906521 37.63723058 -3.86404828 37.63436304 -5.76897798 37.62387282 C-20.80314949 37.54702754 -35.43711433 39.01174733 -49.08262634 45.89044189 Z " fill="#000000" transform="translate(295.14512634277344,164.85955810546875)"/>
<path d="M0 0 C0.85004608 -0.00365067 1.70009216 -0.00730133 2.57589722 -0.01106262 C5.37705726 -0.019142 8.17763307 -0.00556031 10.97875977 0.0090332 C12.95150248 0.00955293 14.92424571 0.00903087 16.89698792 0.00752258 C21.03866283 0.00761224 25.18014292 0.01801427 29.32177734 0.03613281 C34.5585288 0.05856971 39.79499237 0.05922788 45.03177834 0.05287361 C99.6124522 0.00290734 150.25616854 2.77105564 191.79516602 42.55981445 C220.45091704 71.90852105 230.64546122 112.61824252 230.46533203 152.59423828 C230.00168916 188.25321919 220.80914875 223.82429558 197.23266602 251.37231445 C196.59723877 252.1310083 196.59723877 252.1310083 195.94897461 252.9050293 C171.47126745 281.96712839 135.3434887 295.89826907 98.23266602 299.37231445 C76.43927584 300.83791146 54.5375668 300.45265065 32.71264648 300.18530273 C28.08316453 300.12927379 23.45373984 300.09331969 18.82403564 300.06167221 C15.21741158 300.03387289 11.61102713 299.99285169 8.00457764 299.94806671 C6.2950301 299.92896486 4.58542211 299.91462146 2.87579346 299.90526581 C0.5086682 299.89094675 -1.85750967 299.85807951 -4.22436523 299.82055664 C-4.91823837 299.82042068 -5.61211151 299.82028473 -6.32701111 299.82014465 C-10.63542219 299.72695844 -13.47277715 299.21108857 -16.76733398 296.37231445 C-20.15237276 290.27507748 -20.19397905 284.86068804 -20.15501404 277.98571777 C-20.16309234 276.27518809 -20.16309234 276.27518809 -20.17133385 274.53010225 C-20.18563104 270.7124223 -20.17850512 266.89508822 -20.17138672 263.07739258 C-20.17544619 260.33897503 -20.18395256 257.60057511 -20.19218445 254.86216736 C-20.20936426 248.1985134 -20.21021427 241.53495377 -20.20497154 234.87128341 C-20.20092753 229.45483372 -20.20237614 224.03841187 -20.2077198 218.6219635 C-20.20846822 217.8506072 -20.20921665 217.07925091 -20.20998775 216.28452018 C-20.21151925 214.71744803 -20.21305759 213.15037589 -20.21460272 211.58330375 C-20.22832448 196.89426113 -20.22289207 182.2052718 -20.2114175 167.5162304 C-20.20148269 154.08067618 -20.21443062 140.64525962 -20.2383517 127.20972663 C-20.26273828 113.40861544 -20.27235183 99.60756837 -20.26569897 85.80643606 C-20.26220612 78.06029347 -20.26444327 70.31425679 -20.28195 62.56813049 C-20.29666637 55.97497896 -20.29731477 49.38200794 -20.27987909 42.78885996 C-20.27136225 39.42581425 -20.27140062 36.06335612 -20.28453064 32.70028496 C-20.29768473 29.05285451 -20.28624106 25.40630344 -20.26853943 21.75891113 C-20.27814444 20.69850129 -20.28774944 19.63809144 -20.29764551 18.54554796 C-20.23510395 12.29101782 -19.54338527 8.4353259 -15.76733398 3.37231445 C-10.53430286 0.24392696 -5.91126121 -0.05733698 0 0 Z M34.23266602 47.37231445 C34.13484351 50.02778019 34.10272454 52.65722361 34.1124115 55.31312561 C34.11155707 56.15519182 34.11070265 56.99725803 34.10982233 57.8648414 C34.10816494 60.70858075 34.11369311 63.55226211 34.11914062 66.39599609 C34.11942247 68.42567442 34.11926482 70.45535286 34.11869812 72.48503113 C34.11841003 78.01373006 34.12430862 83.54240751 34.13127208 89.07110143 C34.1375037 94.84203182 34.13810926 100.61296264 34.13929749 106.38389587 C34.14241137 117.32031805 34.15062552 128.25673029 34.16064698 139.19314808 C34.17180634 151.64033336 34.17731812 164.08751911 34.18234241 176.53470814 C34.19280809 202.1472491 34.21040863 227.75978122 34.23266602 253.37231445 C37.98003856 254.39677784 41.35579678 254.50163086 45.25219727 254.50512695 C46.28246284 254.50737778 46.28246284 254.50737778 47.33354187 254.50967407 C49.57080905 254.51203106 51.80791482 254.50576724 54.04516602 254.49731445 C54.80909668 254.49509888 55.57302734 254.4928833 56.36010742 254.49060059 C61.6512236 254.47257907 66.94184723 254.4304878 72.23266602 254.37231445 C73.99489502 254.35346191 73.99489502 254.35346191 75.79272461 254.33422852 C104.23485496 253.9049464 129.82025552 247.21964847 150.23266602 226.37231445 C169.67255801 205.61617978 176.16701639 176.12420978 175.45141602 148.44262695 C174.27516479 118.10710794 167.7515561 90.59408065 145.11157227 68.8527832 C120.57130925 47.70886595 91.6775652 46.17869851 60.578125 46.24194336 C57.38154525 46.24738014 54.1851013 46.24192893 50.98852539 46.2355957 C48.95922821 46.2362552 46.9299311 46.2375337 44.90063477 46.23950195 C43.94352097 46.23747772 42.98640717 46.23545349 42.00028992 46.23336792 C41.12459854 46.23652008 40.24890717 46.23967224 39.34667969 46.24291992 C38.57394211 46.24371552 37.80120453 46.24451111 37.00505066 46.24533081 C35.20697932 46.17974538 35.20697932 46.17974538 34.23266602 47.37231445 Z " fill="#000000" transform="translate(359.767333984375,361.627685546875)"/>
<path d="M0 0 C1.68444716 0.02936985 3.36906465 0.04963015 5.05371094 0.06347656 C7.87207112 0.09240042 10.68780801 0.15709111 13.50537109 0.22900391 C14.40570068 0.23464355 15.30603027 0.2402832 16.23364258 0.24609375 C20.77576294 0.40096307 22.77452479 0.56039066 26.43505859 3.46728516 C29.48462663 7.50275772 29.67652438 10.60705035 29.93280029 15.52909851 C29.97487382 16.32202102 30.01694734 17.11494354 30.06029582 17.931894 C30.60475011 29.36085631 30.53669475 40.80092679 30.54150391 52.23999023 C30.54614215 54.83548552 30.55116813 57.43098014 30.55654907 60.026474 C30.56999425 67.02138681 30.57613201 74.01629379 30.58055973 81.01121736 C30.58333939 85.38436327 30.58757908 89.75750703 30.5920639 94.13065147 C30.60422634 106.26202791 30.61453939 118.39340265 30.617939 130.52478504 C30.61826834 131.68362412 30.61826834 131.68362412 30.61860435 132.86587409 C30.61893176 134.02723885 30.61893176 134.02723885 30.61926579 135.21206552 C30.61970924 136.78061855 30.62015581 138.34917158 30.62060547 139.91772461 C30.6208269 140.69575633 30.62104833 141.47378805 30.62127647 142.27539649 C30.62523786 154.925893 30.64274601 167.57633241 30.66596499 180.2268068 C30.68966336 193.24401591 30.70213974 206.26119626 30.70330691 219.2784273 C30.70422322 226.57608499 30.70996675 233.87366769 30.72812653 241.1713047 C30.7451101 248.01933493 30.74679203 254.86722019 30.73798752 261.71526527 C30.7372144 264.23038617 30.74159578 266.74551458 30.75144577 269.2606163 C30.76408103 272.68688142 30.75833459 276.11263373 30.74786377 279.53889465 C30.75592017 280.53926264 30.76397658 281.53963063 30.77227712 282.5703128 C30.725842 289.04228881 29.78767011 292.49259907 25.25537109 297.29150391 C18.23842779 301.56268679 8.14834388 300.17695303 0.21362305 299.96435547 C-1.13870241 299.9323323 -2.49132938 299.91125533 -3.84399414 299.90087891 C-16.54989459 299.80277568 -16.54989459 299.80277568 -20.48291016 296.61181641 C-23.89709701 292.50480553 -23.91976534 289.22005937 -24.17304993 284.04953003 C-24.21515038 283.20965227 -24.25725083 282.36977451 -24.30062705 281.50444591 C-24.82191723 269.97921217 -24.76759867 258.44753862 -24.76489258 246.91308594 C-24.7678911 244.33714754 -24.77129521 241.76120959 -24.77507019 239.18527222 C-24.78329676 232.96512232 -24.78612117 226.74498191 -24.78668257 220.52482702 C-24.78716062 215.47049769 -24.78922962 210.41617146 -24.79238319 205.36184311 C-24.80116017 191.00099224 -24.80580607 176.64014879 -24.80505272 162.27929522 C-24.80501276 161.50875866 -24.80497281 160.73822209 -24.80493164 159.94433594 C-24.80489076 159.17285095 -24.80484988 158.40136596 -24.80480776 157.60650264 C-24.80439991 145.05954772 -24.81401199 132.5126226 -24.82807001 119.96567632 C-24.84242374 107.05239684 -24.84934106 94.13913193 -24.84847623 81.22584426 C-24.8481444 73.98746529 -24.85088691 66.74911776 -24.86165428 59.510746 C-24.87169362 52.71935588 -24.87143468 45.92804343 -24.86413765 39.13664627 C-24.86308881 36.64249067 -24.86547232 34.14833097 -24.87149811 31.65418243 C-24.87917732 28.25652772 -24.87460054 24.85910574 -24.86686707 21.4614563 C-24.87201063 20.46955233 -24.87715419 19.47764836 -24.88245362 18.45568669 C-24.83922726 9.89380357 -24.83922726 9.89380357 -22.61962891 6.04150391 C-15.40820706 -0.85637786 -9.61335143 -0.17758918 0 0 Z " fill="#000000" transform="translate(653.61962890625,361.95849609375)"/>
</svg>
