<svg xmlns="http://www.w3.org/2000/svg" viewBox="0 0 100 125" x="0px" y="0px"><path d="M49.25,28.58v-5.9c0-1.06-.87-1.93-1.93-1.93H12.68c-1.06,0-1.93,.87-1.93,1.93v49.64c0,1.06,.87,1.93,1.93,1.93H47.32c1.06,0,1.93-.87,1.93-1.93V28.58Zm-13.5,24.96v4.67c0,.32-.21,.61-.51,.71l-9.56,3.18c.04,.25,.08,.51,.08,.77,0,2.63-2.14,4.77-4.77,4.77s-4.77-2.14-4.77-4.77,2.14-4.77,4.77-4.77c1.84,0,3.41,1.05,4.21,2.58l9.06-3.01v-3.59c-1.35,.41-2.77,.63-4.25,.63-8.11,0-14.71-6.6-14.71-14.71s6.6-14.71,14.71-14.71,14.71,6.6,14.71,14.71c0,6.07-3.7,11.3-8.96,13.54Z"/><path d="M43.21,40c0-7.29-5.93-13.21-13.21-13.21s-13.21,5.93-13.21,13.21,5.93,13.21,13.21,13.21c1.49,0,2.91-.26,4.25-.71v-6.18c0-.41,.34-.75,.75-.75s.75,.34,.75,.75v5.56c4.41-2.14,7.46-6.66,7.46-11.88Zm-13.21,3.79c-2.09,0-3.79-1.7-3.79-3.79s1.7-3.79,3.79-3.79,3.79,1.7,3.79,3.79-1.7,3.79-3.79,3.79Z"/><circle cx="30" cy="40" r="2.29"/><path d="M20.98,59.61c-1.8,0-3.27,1.47-3.27,3.27s1.47,3.27,3.27,3.27,3.27-1.47,3.27-3.27-1.47-3.27-3.27-3.27Z"/><path d="M50.75,28.58v12.58h38.5v-12.58c0-.99-.81-1.79-1.79-1.79H52.54c-.99,0-1.79,.81-1.79,1.79Zm31.19,2.02c1.98,0,3.58,1.61,3.58,3.58s-1.61,3.58-3.58,3.58-3.58-1.61-3.58-3.58,1.61-3.58,3.58-3.58Zm-11.94,0c1.98,0,3.58,1.61,3.58,3.58s-1.61,3.58-3.58,3.58-3.58-1.61-3.58-3.58,1.61-3.58,3.58-3.58Zm-11.94,0c1.98,0,3.58,1.61,3.58,3.58s-1.61,3.58-3.58,3.58-3.58-1.61-3.58-3.58,1.61-3.58,3.58-3.58Z"/><path d="M50.75,42.66v25.1c0,.99,.81,1.79,1.79,1.79h34.91c.99,0,1.79-.81,1.79-1.79v-25.1H50.75Zm11.21,11.12c0,1.44-1.17,2.61-2.61,2.61h-.54v8.57c0,.41-.34,.75-.75,.75s-.75-.34-.75-.75v-8.57h-.54c-1.44,0-2.61-1.17-2.61-2.61v-.82c0-1.44,1.17-2.61,2.61-2.61h.54v-2.14c0-.41,.34-.75,.75-.75s.75,.34,.75,.75v2.14h.54c1.44,0,2.61,1.17,2.61,2.61v.82Zm11.94,6.7c0,1.44-1.17,2.61-2.61,2.61h-.54v1.88c0,.41-.34,.75-.75,.75s-.75-.34-.75-.75v-1.88h-.54c-1.44,0-2.61-1.17-2.61-2.61v-.82c0-1.44,1.17-2.61,2.61-2.61h.54v-8.84c0-.41,.34-.75,.75-.75s.75,.34,.75,.75v8.84h.54c1.44,0,2.61,1.17,2.61,2.61v.82Zm11.94-5.38c0,1.44-1.17,2.61-2.61,2.61h-.54v7.25c0,.41-.34,.75-.75,.75s-.75-.34-.75-.75v-7.25h-.54c-1.44,0-2.61-1.17-2.61-2.61v-.82c0-1.44,1.17-2.61,2.61-2.61h.54v-3.46c0-.41,.34-.75,.75-.75s.75,.34,.75,.75v3.46h.54c1.44,0,2.61,1.17,2.61,2.61v.82Z"/><path d="M56.76,51.86h2.59c.61,0,1.11,.5,1.11,1.11v.82c0,.61-.5,1.11-1.11,1.11h-2.59c-.61,0-1.11-.5-1.11-1.11v-.82c0-.61,.5-1.11,1.11-1.11Z"/><path d="M68.71,58.56h2.59c.61,0,1.11,.5,1.11,1.11v.82c0,.61-.5,1.11-1.11,1.11h-2.59c-.61,0-1.11-.5-1.11-1.11v-.82c0-.61,.5-1.11,1.11-1.11Z"/><path d="M80.65,53.18h2.59c.61,0,1.11,.5,1.11,1.11v.82c0,.61-.5,1.11-1.11,1.11h-2.59c-.61,0-1.11-.5-1.11-1.11v-.82c0-.61,.5-1.11,1.11-1.11Z"/><path d="M55.97,34.19c0,1.15,.93,2.08,2.08,2.08s2.08-.93,2.08-2.08-.93-2.08-2.08-2.08-2.08,.93-2.08,2.08Z"/><circle cx="70" cy="34.19" r="2.08"/><path d="M81.94,36.27c1.15,0,2.08-.93,2.08-2.08s-.93-2.08-2.08-2.08-2.08,.93-2.08,2.08,.93,2.08,2.08,2.08Z"/><text x="0" y="115" fill="#000000" font-size="5px" font-weight="bold" font-family="'Helvetica Neue', Helvetica, Arial-Unicode, Arial, Sans-serif">Created by Lars Meiertoberens</text><text x="0" y="120" fill="#000000" font-size="5px" font-weight="bold" font-family="'Helvetica Neue', Helvetica, Arial-Unicode, Arial, Sans-serif">from the Noun Project</text></svg>