<svg xml:space="preserve" viewBox="1.0437475 0.2937475 102.25 101.75" y="0px" x="0px" version="1.1" xmlns:xlink="http://www.w3.org/1999/xlink" xmlns="http://www.w3.org/2000/svg" style="max-height: 500px" width="102.25" height="101.75"><g><path d="M66.864,3.97v31.065c5.939,1.725,10.287,7.197,10.287,13.694c0,7.881-6.389,14.27-14.27,14.27   c-2.765,0-5.337-0.799-7.522-2.16c0.001-0.001,0.001-0.001,0.002-0.003c-6.558,5.245-14.487,9.12-23.206,11.232   c-1.502,0.364-3.038,0.675-4.564,0.93c-0.113,0.018-0.226,0.026-0.337,0.026c-0.981,0-1.848-0.709-2.013-1.71   c-0.184-1.114,0.569-2.167,1.683-2.352c1.428-0.235,2.864-0.528,4.269-0.868c7.857-1.902,15.011-5.331,20.977-9.951   c0.353,0.408,0.962,0.997,1.532,1.482c0.583,0.495,1.148,0.891,1.661,1.208l0,0c3.417-2.733,6.47-5.83,9.052-9.257   c0.68-0.901,0.5-2.183-0.401-2.862c-0.902-0.679-2.183-0.5-2.861,0.402c-2.534,3.364-5.561,6.389-8.973,9.029   c-2.212-2.513-3.566-5.803-3.566-9.417c0-6.497,4.346-11.97,10.287-13.694V2.079c-1.449-0.177-2.923-0.277-4.42-0.277   c-16.473,0-31.665,12.371-34.82,25.994c-0.7,3.028-1.493,10.94-1.493,10.94L8.843,57.198c-0.152,0.339-0.225,0.732-0.225,1.136   c0,1.612,1.301,2.923,2.922,2.923h6.627v10.781c0,8.436,3.679,14.188,14.308,14.188h2.52V99.5h41.904V68.686   c8.449-6.642,13.883-18.992,13.883-30.572C90.782,22.406,80.818,9.033,66.864,3.97z M22.953,42.425   c0-1.955,1.584-3.539,3.539-3.539c1.956,0,3.54,1.584,3.54,3.539c0,1.955-1.584,3.54-3.54,3.54   C24.537,45.965,22.953,44.379,22.953,42.425z" fill="#000000"/></g><text font-family="'Helvetica Neue', Helvetica, Arial-Unicode, Arial, Sans-serif" font-weight="bold" font-size="5px" fill="#000000" y="115" x="0">Created by Luis Prado</text><text font-family="'Helvetica Neue', Helvetica, Arial-Unicode, Arial, Sans-serif" font-weight="bold" font-size="5px" fill="#000000" y="120" x="0">from the Noun Project</text></svg>