<svg xmlns="http://www.w3.org/2000/svg" xmlns:xlink="http://www.w3.org/1999/xlink" xml:space="preserve" version="1.1" style="shape-rendering:geometricPrecision;text-rendering:geometricPrecision;image-rendering:optimizeQuality;" viewBox="0 0 60000 75000" x="0px" y="0px" fill-rule="evenodd" clip-rule="evenodd"><defs><style type="text/css">
   
    .fil0 {fill:black;fill-rule:nonzero}
   
  </style></defs><g><path class="fil0" d="M40851 1412c528,710 706,1575 567,2399 -137,807 -578,1576 -1293,2121l-1 1 -31 23c-28,21 -56,41 -85,61 -5,4 -10,7 -16,11 -502,347 -1065,542 -1628,593l-4700 2902c75,-2 155,-9 242,-21 218,-30 420,122 450,341 21,150 -45,292 -158,376l-893 723c196,98 341,241 444,421 123,216 176,473 176,758 0,17 -1,34 -3,51l-210 2885c-32,434 -176,784 -435,1041 -63,63 -133,119 -208,169l0 11946c2355,754 4380,1817 5486,3819 1468,2657 1272,4513 68,5931 -1140,1342 -3185,2231 -5553,3034l0 11348c1592,83 3007,359 4038,757 494,191 907,415 1221,665 226,114 387,310 501,554 115,195 178,400 183,613 119,675 58,1463 20,1953 -11,144 -20,256 -20,318 0,810 -838,1501 -2194,1965 -1227,420 -2913,679 -4768,679 -1855,0 -3541,-259 -4768,-679 -1355,-463 -2194,-1155 -2194,-1965 0,-47 -9,-156 -22,-298 -45,-514 -121,-1388 31,-2094 16,-128 54,-252 110,-373 106,-269 264,-488 493,-615 322,-275 761,-519 1295,-725 1051,-405 2500,-683 4129,-760l0 -10715c-177,55 -354,111 -532,166 -4346,1357 -9076,2834 -10803,6257 -99,197 -339,276 -536,177 -197,-99 -276,-339 -177,-536 1879,-3726 6777,-5255 11278,-6661 258,-81 515,-161 770,-241l0 -12298c-654,-169 -1323,-328 -1995,-486 -4399,-1040 -8897,-2104 -10412,-6419 -3,-10 -7,-21 -9,-31 -398,-1532 -71,-2765 532,-3768 526,-875 1253,-1555 1881,-2105 -32,-132 -42,-277 -14,-432 49,-271 209,-556 560,-828l3596 -2918c6,-5 12,-9 18,-14 10,-282 120,-547 384,-764l-1 -1 9481 -8428c220,-548 591,-1049 1099,-1437l1 -1 33 -25c732,-544 1607,-754 2429,-652 830,103 1608,522 2138,1233zm-7780 27642l0 11099c2139,-738 3962,-1550 4944,-2706 983,-1158 1116,-2724 -158,-5031 -939,-1699 -2700,-2664 -4786,-3362zm-1943 -1391l0 -11369c-42,-27 -82,-57 -121,-89 -310,-257 -488,-641 -531,-1143l-193 -2257c-28,-151 -40,-297 -37,-437 -260,-44 -508,-120 -734,-237 -13,-7 -26,-13 -39,-20 -4,2 -7,5 -11,7l-1874 1157c-253,173 -506,218 -752,178 -20,22 -44,43 -70,60l-3832 2612 0 0c-360,257 -677,328 -947,297 -139,-16 -261,-57 -368,-114 -578,507 -1233,1127 -1690,1886 -503,836 -776,1863 -450,3140 1374,3889 5652,4901 9835,5890 609,144 1216,288 1813,440zm800 211c115,32 229,64 343,96l0 -11444c-13,1 -26,2 -39,3 -106,8 -207,10 -304,5l0 11339zm343 929c-114,-34 -228,-67 -343,-99l0 25847 343 0 0 -25748zm800 24339l0 1809c0,221 -179,400 -400,400l-1143 0c-221,0 -400,-179 -400,-400l0 -1814c-1528,75 -2874,333 -3841,706 -868,335 -1396,729 -1396,1117 0,429 631,860 1650,1208 1148,393 2743,635 4512,635 1769,0 3364,-243 4512,-635 1019,-349 1650,-779 1650,-1208 0,-388 -526,-781 -1393,-1116 -948,-366 -2260,-621 -3751,-702zm5209 3049c-369,282 -864,529 -1459,733 -1227,420 -2913,679 -4768,679 -1855,0 -3541,-259 -4768,-679 -600,-205 -1098,-455 -1468,-740 14,246 34,476 49,652 14,162 25,287 25,367 0,429 631,860 1650,1208 1148,393 2743,635 4512,635 1769,0 3364,-243 4512,-635 1019,-349 1650,-779 1650,-1208 0,-81 10,-211 23,-377 14,-174 31,-396 42,-634zm-5967 -45472l637 -516c-101,-39 -196,-88 -287,-146 -302,-192 -530,-468 -761,-813l-16 10c-244,147 -734,496 -1247,862 -429,306 -873,623 -1210,847 -13,9 -22,18 -26,26 123,194 286,335 476,433 169,87 362,142 569,170 89,-162 206,-307 348,-431 223,-193 508,-331 844,-399 206,-42 431,-57 674,-43zm605 4280l210 -2886c-1,-149 -21,-271 -69,-355 -35,-60 -94,-106 -184,-132 -424,-122 -788,-143 -1079,-84 -196,40 -357,116 -478,221 -113,97 -193,224 -235,372 -44,152 -50,326 -15,517 7,24 12,50 14,76l194 2266c24,282 106,482 243,596 139,115 358,164 657,141 248,-19 428,-88 543,-202 117,-116 183,-295 200,-532zm-117 -5879l4275 -2640c-591,-189 -1127,-550 -1527,-1073l-1 -1 -23 -31c-402,-540 -601,-1169 -612,-1801l-8711 7744 -17 13c-91,73 -110,180 -90,298 31,185 141,395 264,584 142,165 307,322 472,404 106,52 214,65 311,-2l17 -11 1677 -1036c-38,-50 -74,-102 -109,-156 -124,-197 -151,-413 -100,-614 50,-199 178,-379 361,-501 337,-225 770,-534 1188,-832 524,-374 1025,-731 1300,-896 150,-90 298,-153 447,-165 229,-18 423,61 567,284 107,165 208,311 310,431zm7830 -5440c105,-618 -27,-1265 -420,-1792 -392,-527 -973,-837 -1594,-914 -602,-75 -1240,69 -1786,447 -145,316 -151,711 -56,1127 113,497 368,1014 705,1470 336,455 747,842 1175,1078 326,181 657,270 957,225l7 -5c561,-417 906,-1012 1012,-1635zm-2871 2136c185,23 374,25 562,6 -18,-10 -36,-19 -54,-29 -528,-292 -1028,-759 -1428,-1300 -399,-541 -704,-1164 -842,-1770 -20,-87 -36,-174 -49,-261 -97,208 -165,426 -202,647 -105,618 27,1264 420,1792l0 1c392,527 973,837 1594,914zm-11710 7221c-117,-105 -226,-220 -323,-336l-23 -27 -7 -10c-67,-103 -133,-213 -190,-327l-3344 2713c-175,135 -249,247 -266,339 -10,56 4,114 27,167 44,38 95,67 151,73 95,11 224,-28 402,-156l8 -6 3565 -2430z"/></g><text x="0" y="60015" fill="#000000" font-size="5px" font-weight="bold" font-family="'Helvetica Neue', Helvetica, Arial-Unicode, Arial, Sans-serif">Created by Olena Panasovska</text><text x="0" y="60020" fill="#000000" font-size="5px" font-weight="bold" font-family="'Helvetica Neue', Helvetica, Arial-Unicode, Arial, Sans-serif">from the Noun Project</text></svg>