<svg viewBox="-5 -2.4399999999999995 110.8108108108108 101.52" version="1.1" xmlns="http://www.w3.org/2000/svg" style="max-height: 500px" width="110.8108108108108" height="101.52">
 <path d="m94.48 48.805-7.8633-7.7695-0.74219-2.0586c-0.003906-0.007812-0.015625-0.007812-0.019531-0.015624-0.007813-0.011719-0.007813-0.023438-0.015625-0.035157-0.011719-0.011719-0.023438-0.007812-0.035156-0.015625-0.007813-0.003906-0.011719-0.015625-0.019532-0.015625l-2.1562-0.52734-0.89453-1.9844c-0.003906-0.007812-0.015625-0.007812-0.019531-0.015624-0.007813-0.011719-0.007813-0.023438-0.019532-0.03125-0.011718-0.007813-0.023437-0.007813-0.035156-0.011719-0.007812-0.003907-0.011718-0.011719-0.019531-0.015625l-2.1875-0.375-1.0547-1.9102c-0.003907-0.007813-0.015626-0.007813-0.019532-0.011719-0.007812-0.011719-0.011718-0.023438-0.019531-0.03125-0.015625-0.007813-0.027344-0.003907-0.039063-0.007813-0.007812-0.003906-0.011718-0.011718-0.019531-0.011718l-2.2188-0.1875-1.2031-1.8242c-0.003906-0.007813-0.015625-0.003907-0.019531-0.011719-0.007813-0.007812-0.011719-0.023438-0.019531-0.027344-0.015625-0.007812-0.023438-0.003906-0.039063-0.003906-0.007812 0-0.015625-0.011719-0.019531-0.011719l-2.2227-0.03125-1.3438-1.7344c-0.003906-0.007812-0.015625-0.003906-0.019532-0.007812-0.011718-0.007813-0.015624-0.019532-0.023437-0.027344-0.015625-0.007812-0.023437 0-0.039063 0-0.011718 0-0.015624-0.011719-0.019531-0.011719l-2.2227 0.14844-1.4922-1.6133c-0.007813-0.003907-0.015626-0.003907-0.019532-0.007813-0.011718-0.007813-0.015625-0.019531-0.027344-0.023437-0.015624-0.003907-0.023437 0-0.039062 0-0.007812 0-0.015625-0.007813-0.019531-0.007813l-2.1992 0.32031-1.6055-1.5039c-0.007812-0.003906-0.015625-0.003906-0.019531-0.007812-0.011719-0.007813-0.015625-0.019531-0.027344-0.023438-0.015625-0.003906-0.023437 0.003907-0.039062 0.003907-0.011719 0-0.015625-0.007813-0.019532-0.007813l-2.168 0.48047-1.7266-1.3711c-0.007812-0.003906-0.015625 0-0.019531-0.003906-0.011719-0.007813-0.019531-0.019532-0.03125-0.019532-0.015625-0.003906-0.027344 0.007813-0.039062 0.007813-0.011719 0-0.019532-0.007813-0.023438-0.003906-0.0625 0.019531-1.3789 0.42578-2.1172 0.65234l-1.8281-1.2305c-0.007813-0.003906-0.015626 0-0.023438-0.003906-0.011719-0.003907-0.019531-0.015626-0.03125-0.019532-0.011719 0-0.023438 0.007813-0.035156 0.011719-0.007813 0-0.019532-0.007813-0.023438-0.003906l-2.0625 0.80469c-1.8281-1.0469-1.9414-1.1094-1.9805-1.1133h-0.003907-0.007812c-0.019531 0-0.035157 0.003906-0.054688 0.011719l-2.0234 0.96875-2.0352-0.94922c-0.007813-0.003906-0.015626 0.003906-0.027344 0-0.011719-0.003906-0.019532-0.011719-0.03125-0.011719-0.011719 0-0.019532 0.011719-0.03125 0.015625-0.007813 0.003907-0.015625-0.003906-0.023438 0-0.003906 0-0.003906 0.003907-0.007812 0.003907-0.058594 0.035156-1.2383 0.72656-1.9062 1.1133l-2.0703-0.78906c-0.007812-0.003906-0.015625 0.003906-0.023437 0.003906-0.011719-0.003906-0.023438-0.011718-0.035156-0.011718-0.011719 0.003906-0.019532 0.011718-0.03125 0.019531-0.007813 0.003906-0.015626 0-0.023438 0.003906l-1.8164 1.25-2.1328-0.63672c-0.007812-0.003906-0.015625 0.003907-0.023437 0.003907-0.011719 0-0.023438-0.011719-0.039063-0.007813-0.011719 0.003906-0.019531 0.015625-0.03125 0.019532-0.007812 0.003906-0.015625 0-0.023437 0.003906l-1.7109 1.3867-2.1719-0.45703c-0.007812 0-0.015625 0.007813-0.023437 0.007813-0.011719 0-0.023438-0.007813-0.039063-0.003906-0.011719 0.003906-0.019531 0.015624-0.027343 0.023437-0.007813 0.003906-0.015626 0-0.023438 0.007813l-1.5938 1.5156-2.2031-0.29687c-0.007813 0-0.015625 0.007812-0.023437 0.007812-0.015626 0-0.027344-0.007812-0.039063 0-0.011719 0.003906-0.015625 0.015625-0.027344 0.023438-0.007812 0.003906-0.015625 0-0.019531 0.007812l-1.4688 1.625-2.2227-0.12891c-0.007813 0-0.015625 0.007812-0.023438 0.011718-0.011718 0-0.027344-0.003906-0.039062 0-0.011719 0.007813-0.015625 0.019532-0.023438 0.027344-0.007812 0.003906-0.015625 0.003906-0.019531 0.011719l-1.3281 1.7461-2.2188 0.046875c-0.007812 0-0.011719 0.011718-0.019531 0.011718-0.015625 0.003907-0.027344-0.003906-0.039063 0.003907-0.011718 0.007812-0.015625 0.019531-0.023437 0.027343-0.003907 0.007813-0.015625 0.003907-0.019531 0.011719l-1.1875 1.832-2.2148 0.21094c-0.007813 0-0.011719 0.011719-0.019532 0.015625-0.011718 0.003906-0.027343 0-0.039062 0.007813-0.011719 0.007812-0.011719 0.019531-0.019531 0.03125-0.003907 0.007812-0.015625 0.003906-0.019531 0.011718l-1.0352 1.918-2.1836 0.39453c-0.007813 0-0.011719 0.011719-0.019532 0.015625-0.011718 0.003907-0.027344 0.003907-0.039062 0.011719-0.011719 0.007812-0.011719 0.023438-0.019532 0.03125-0.003906 0.007812-0.015624 0.007812-0.019531 0.015625l-0.875 1.9961-2.1523 0.54688c-0.007813 0.003906-0.011719 0.011718-0.019532 0.015625-0.011718 0.007812-0.027344 0.003906-0.035156 0.015625-0.007812 0.007812-0.007812 0.019531-0.011719 0.027344-0.003906 0.007812-0.015625 0.007812-0.015625 0.015624l-0.80859 2.0156-8.2969 8.3516c-0.31641 0.33594-0.49609 0.76953-0.49219 1.2344 0.003906 0.44141 0.17969 0.85547 0.49609 1.1641l0.53516 0.51953-0.32812 0.32812c-0.023437 0.019531-0.035156 0.054687-0.035156 0.089844 0 0.03125 0.015625 0.066406 0.039062 0.089843l1.5195 1.4727 1.5156 1.4727 3.0391 2.9453 1.5156 1.4727v0.003907l4.5469 4.418 1.5195 1.4727 3.0312 2.9453 1.5195 1.4727h0.003907l1.5156 1.4727 1.5195 1.4727c0.023437 0.023437 0.054687 0.035156 0.085937 0.035156s0.0625-0.011719 0.089844-0.035156l0.32812-0.32812 0.65625 0.63672c0.32422 0.3125 0.74219 0.46875 1.168 0.46875 0.44922 0 0.90234-0.17578 1.2461-0.51953l8.2734-8.3242 1.0938 0.29688c0.011719 0.003906 0.023438 0.003906 0.03125 0.003906 0.03125 0 0.0625-0.011719 0.085938-0.035156 0.027343-0.027344 0.035156-0.0625 0.03125-0.10547 0-0.003906 0.003906-0.007813 0.003906-0.011719l-0.19141-0.98438 0.9375 0.32031c0.011719 0.003906 0.027343 0.007812 0.039062 0.007812 0.027344 0 0.054688-0.011718 0.078125-0.027344 0.03125-0.023437 0.042969-0.0625 0.039063-0.10156 0-0.003906 0.003906-0.007812 0.003906-0.011719l-0.10547-0.96094 0.90625 0.38672c0.015625 0.007813 0.03125 0.011719 0.050782 0.011719 0.023437 0 0.050781-0.007812 0.070312-0.019531 0.03125-0.019531 0.046875-0.058594 0.050781-0.097656 0-0.007813 0.003907-0.007813 0.003907-0.011719l-0.027344-0.96094 0.875 0.46484c0.019531 0.011719 0.039062 0.015625 0.058594 0.015625 0.019531 0 0.042968-0.007812 0.0625-0.015625 0.035156-0.019531 0.050781-0.054687 0.054687-0.09375 0-0.003906 0.007813-0.007812 0.007813-0.011719l0.042968-0.97656 0.83984 0.53906c0.019531 0.015626 0.042969 0.019532 0.066406 0.019532 0.019532 0 0.035156-0.003906 0.054688-0.011719 0.035156-0.019531 0.054687-0.050781 0.0625-0.089844 0-0.003906 0.007812-0.007812 0.007812-0.011719l0.12109-0.97266 0.79297 0.60156c0.023437 0.019531 0.050781 0.023437 0.074219 0.023437 0.015624 0 0.03125-0.003906 0.046874-0.011718 0.039063-0.015626 0.058594-0.046876 0.070313-0.082032 0-0.003906 0.007813-0.007812 0.007813-0.011718l0.19922-0.95313 0.73828 0.64453c0.023437 0.019531 0.054687 0.03125 0.082031 0.03125 0.011719 0 0.023437-0.003906 0.035156-0.007813 0.039063-0.011719 0.0625-0.039062 0.074219-0.074219 0-0.003906 0.007812-0.003906 0.007812-0.007812l0.27734-0.92578 0.68359 0.69531c0.003906 0.003907 0.003906 0 0.007812 0.003907 0.023438 0.019531 0.050782 0.035156 0.082032 0.035156 0.007812 0 0.015624 0 0.023437-0.003906 0.039063-0.011719 0.066406-0.035157 0.082031-0.070313 0.003906-0.003906 0.007813-0.003906 0.007813-0.007813l0.35156-0.89844 0.62891 0.75781c0.003906 0.003906 0.007812 0.003906 0.007812 0.003906 0.023438 0.023437 0.054688 0.039062 0.089844 0.039062h0.015625c0.039062-0.007812 0.066406-0.03125 0.085937-0.0625 0.003906-0.003906 0.007813-0.003906 0.011719-0.007812 0.21484-0.44531 0.33984-0.71484 0.41797-0.89062l0.57031 0.8125c0.003906 0.003906 0.007813 0.003906 0.011719 0.003906 0.023437 0.027344 0.054687 0.050781 0.09375 0.050781h0.007813c0.039062-0.003906 0.070312-0.023437 0.09375-0.058594 0.003906-0.003906 0.007812-0.003906 0.011718-0.007812l0.5-0.87891 0.50781 0.87891c0.003906 0.003906 0.007812 0.003906 0.011719 0.007812 0.023437 0.027344 0.054687 0.054688 0.09375 0.054688h0.003906c0.039062 0 0.066406-0.019531 0.09375-0.050781 0.003906-0.003907 0.011718-0.003907 0.011718-0.007813l0.55859-0.8125 0.42969 0.87891c0.003906 0.003907 0.007812 0.003907 0.011718 0.007813 0.019532 0.03125 0.046876 0.058594 0.089844 0.0625h0.015625c0.03125 0 0.0625-0.019531 0.089844-0.042969 0.003906-0.003906 0.007813 0 0.007813-0.003906l0.625-0.76172 0.35937 0.89453c0.003907 0.003907 0.007813 0.003907 0.011719 0.007813 0.019531 0.03125 0.042969 0.0625 0.082031 0.066406 0.007813 0 0.019532 0.003907 0.023438 0.003907 0.03125 0 0.0625-0.015626 0.085938-0.035157 0.003906-0.003906 0.003906 0 0.007812-0.003906l0.67969-0.69922 0.28906 0.92578c0 0.007812 0.007812 0.007812 0.007812 0.011718 0.015626 0.035156 0.035157 0.0625 0.074219 0.074219 0.011719 0.003906 0.019531 0.007813 0.035157 0.007813 0.027343 0 0.0625-0.011719 0.082031-0.03125l0.73047-0.65234 0.21094 0.94922c0.003906 0.007813 0.007813 0.007813 0.007813 0.011719 0.011718 0.035157 0.03125 0.066407 0.070312 0.082031 0.015625 0.007813 0.027344 0.007813 0.042969 0.007813 0.027343 0 0.054687-0.007813 0.074219-0.023437l0.78516-0.60938 0.125 0.97266c0 0.007812 0.007812 0.007812 0.007812 0.011719 0.007813 0.035156 0.023438 0.070312 0.0625 0.089843 0.019532 0.007813 0.035156 0.011719 0.054688 0.011719 0.023437 0 0.046875-0.007812 0.066406-0.019531l0.83984-0.54688 0.050781 0.97266c0 0.003906 0.007813 0.007812 0.007813 0.011719 0.003906 0.035156 0.019531 0.066406 0.054687 0.089843 0.003906 0 0 0.003907 0.003906 0.003907 0.019531 0.011719 0.039063 0.015625 0.0625 0.015625 0.019531 0 0.039063-0.003906 0.0625-0.015625l0.87891-0.47656c-0.003907 0.26953-0.011719 0.69922-0.011719 0.76953l-0.015625 0.1875c0 0.007812 0.007812 0.007812 0.007812 0.015624 0.003906 0.035157 0.015625 0.070313 0.046875 0.09375 0 0.003907 0 0.003907 0.003907 0.003907v0.003906c0.019531 0.015625 0.046874 0.019531 0.070312 0.019531 0.019531 0 0.035156-0.003906 0.050781-0.011718l0.89844-0.39453-0.097657 0.96094c0 0.003906 0.007813 0.007812 0.007813 0.011718 0 0.035157 0.011719 0.074219 0.039063 0.10156h0.003906c0.019531 0.019531 0.050781 0.023437 0.074218 0.023437 0.015626 0 0.027344-0.003906 0.042969-0.007812l0.93359-0.32812-0.18359 0.96094c0 0.003907 0.003907 0.007813 0.003907 0.011719-0.003907 0.03125 0.007812 0.0625 0.027343 0.09375 0.003907 0.003907 0 0.007813 0.003907 0.011719l0.003906 0.003906c0.023437 0.019532 0.054687 0.03125 0.085937 0.03125 0.011719 0 0.019531 0 0.027344-0.003906l1.0352-0.23828 7.8242 7.7305c0.34375 0.33984 0.79297 0.51172 1.2344 0.51172 0.43359 0 0.85547-0.16016 1.1797-0.48047l22.41-22.137c0.3125-0.3125 0.48438-0.72266 0.48438-1.168-0.027344-0.46484-0.21094-0.89844-0.54688-1.2266zm-88.508 4.1836 0.32812-0.33203 7.2773-7.3242 0.94922 0.92188-4.8086 4.8477c-0.023438 0.023438-0.035156 0.054688-0.035156 0.089844 0 0.03125 0.015625 0.066406 0.039062 0.089844l0.29297 0.28516-2.707 2.7188zm1.5156 1.4727 0.10547-0.10547 2.6016-2.6133 0.29688 0.28516c0.023437 0.023437 0.054687 0.035156 0.085937 0.035156s0.0625-0.015625 0.089844-0.035156l4.8164-4.8438 0.56641 0.54688-4.8125 4.8438c-0.023437 0.023437-0.035156 0.058593-0.035156 0.089843s0.015625 0.0625 0.039063 0.089844l0.29687 0.28516-2.707 2.7227zm1.5195 1.4688 2.707-2.7188 0.29688 0.28516c0.023437 0.023437 0.054687 0.035156 0.085937 0.035156s0.0625-0.011719 0.089844-0.035156l4.8164-4.8438 0.94922 0.92188-7.6055 7.6523zm1.5156 1.4727 7.6055-7.6523 0.94922 0.92188-4.8125 4.8438c-0.023437 0.023437-0.035156 0.058594-0.035156 0.089844s0.015625 0.0625 0.039062 0.089843l0.29297 0.28516-2.6992 2.7188zm1.5156 1.4727 0.10547-0.10547 2.6016-2.6133 0.29688 0.28906c0.023437 0.023438 0.054687 0.035157 0.085937 0.035157s0.0625-0.015625 0.089844-0.035157l4.8164-4.8477 0.5625 0.54688-4.8125 4.8438c-0.023437 0.023438-0.035156 0.058594-0.035156 0.089844s0.015625 0.0625 0.039062 0.089844l0.29688 0.28516-2.707 2.7227zm1.5195 1.4727 2.707-2.7227 0.29688 0.28516c0.023438 0.023438 0.054688 0.035156 0.085938 0.035156s0.0625-0.011718 0.089843-0.035156l4.8125-4.8438 0.56641 0.55078-4.8125 4.8438c-0.023438 0.023437-0.035157 0.054687-0.035157 0.089843 0 0.03125 0.015625 0.0625 0.039063 0.089844l0.29688 0.28906-2.707 2.7227zm1.5195 1.4688 0.67188-0.67578 2.0352-2.0469 0.29688 0.28516c0.023438 0.019532 0.054688 0.035156 0.085938 0.035156s0.0625-0.015624 0.089843-0.035156l4.8125-4.8438 0.95313 0.92578-7.6055 7.6562zm1.5156 1.4727 7.6055-7.6562 0.95312 0.92578-4.8125 4.8438c-0.023438 0.023437-0.035156 0.058594-0.035156 0.089844s0.015624 0.0625 0.039062 0.089843l0.29297 0.28516-2.7031 2.7227zm2.8555 2.7695-1.3398-1.2969 0.17578-0.17578 2.5312-2.543 0.29688 0.28906c0.023438 0.023438 0.054688 0.035157 0.085938 0.035157s0.0625-0.015626 0.089843-0.035157l4.8164-4.8477 0.56641 0.55078-4.8125 4.8438c-0.023437 0.023438-0.035156 0.054688-0.035156 0.089844 0 0.03125 0.015625 0.0625 0.039062 0.089844l0.29688 0.28906-2.6602 2.6797zm0.18359 0.17188 0.85938-0.86328 1.8438-1.8555 0.29687 0.28906c0.023438 0.023438 0.054688 0.035157 0.085938 0.035157s0.0625-0.011719 0.089844-0.035157l4.8164-4.8438 0.95312 0.92188-7.6094 7.6523zm1.5117 1.4727 7.6094-7.6562 0.94922 0.92188-4.8125 4.8438c-0.023437 0.023438-0.035156 0.058594-0.035156 0.089844s0.015625 0.0625 0.039062 0.089844l0.29297 0.28125-2.7031 2.7266zm1.5156 1.4727 0.10938-0.10938 2.5977-2.6094 0.29687 0.28516c0.023438 0.019531 0.054688 0.03125 0.085938 0.03125s0.0625-0.011719 0.089844-0.035157l4.8125-4.8477 0.56641 0.55078-4.8125 4.8438c-0.023438 0.023438-0.035156 0.054688-0.035156 0.089844 0 0.03125 0.015625 0.0625 0.039062 0.089844l0.29688 0.28516-2.707 2.7266zm1.5195 1.4727 2.707-2.7227 0.29688 0.28516c0.023437 0.019531 0.054687 0.035156 0.085937 0.035156s0.0625-0.015625 0.089844-0.035156l4.8164-4.8438 0.5625 0.54687-4.8125 4.8438c-0.023437 0.023438-0.035156 0.058594-0.035156 0.089844s0.015625 0.0625 0.039063 0.089844l0.29687 0.28906-2.707 2.7227zm3.1875 2.4375s-0.003907 0 0 0v0.003906l-0.32813 0.32812-1.3398-1.2969 0.42188-0.42578 2.2852-2.2969 0.29297 0.28516c0.023437 0.023437 0.054687 0.035156 0.085937 0.035156s0.0625-0.011719 0.089844-0.035156l4.8164-4.8477 0.95312 0.92969zm-12.402-33.68 1.9297-0.49219 22.684 25.754 0.14453 0.71484zm3.1016-2.5938 1.957-0.35156 20.559 27.422 0.078125 0.71484zm3.2969-2.3594 1.9883-0.19141 18.297 28.902 0.019531 0.71875zm21.367 28.805-17.883-30.891 1.9922-0.042969 15.922 30.203zm1.1094-0.54297-15.355-32.176 1.9922 0.11719 13.453 31.328zm1.1484-0.45703-12.723-33.238 1.9766 0.26562 10.898 32.258zm1.1797-0.37109-10.02-34.105 1.9453 0.41016 8.2812 33.004zm1.2031-0.28125-7.2539-34.77 1.9141 0.57031 5.6055 33.52zm1.2305-0.17969-4.4453-35.207 1.8594 0.70703 2.9023 33.84zm1.2344-0.097656-1.6094-35.441 1.8008 0.83984 0.17969 33.957zm1.6797-0.59766-0.41797 0.60938 1.2773-35.457c0.41406 0.23438 1.4492 0.82813 1.7266 0.98438zm1.2852 0.13672-0.46484 0.57031 4.1172-35.246 1.6406 1.1055zm1.2656 0.23047-0.50781 0.51953 6.9297-34.828 1.5469 1.2344zm1.2461 0.32422-0.54297 0.48438 9.6953-34.191 1.4414 1.3516zm1.2188 0.40625-0.58594 0.45312 12.41-33.348 1.332 1.4492zm1.1836 0.51953-0.625 0.40625 15.059-32.312 1.2031 1.5547zm1.1328 0.60547-0.65234 0.35156 17.598-31.051 1.0781 1.6367zm1.0742 0.69141-0.003906 0.003907-0.66406 0.28906 20.031-29.609 0.94141 1.7148zm0.33594 1.0078 22.332-27.98 0.80469 1.7812-22.449 25.953zm1.582 0.66797-0.67188 0.15234 24.539-26.223 0.66016 1.832zm10.52 4.7695c-0.32422 0.32031-0.89062 0.32422-1.2148 0-0.16016-0.15625-0.25-0.36719-0.25-0.59766-0.003906-0.22656 0.089844-0.4375 0.25-0.60156 0.16016-0.16016 0.37891-0.24609 0.60547-0.24609s0.44531 0.089844 0.60547 0.24609c0.16016 0.16016 0.25391 0.37109 0.25 0.59766 0.007812 0.23047-0.082031 0.44531-0.24609 0.60156zm0-4.8906c-0.32422 0.31641-0.89062 0.32031-1.2148 0-0.16016-0.16016-0.25391-0.375-0.25391-0.60156 0-0.22656 0.089844-0.4375 0.25-0.59766s0.37891-0.24609 0.60547-0.24609c0.23047 0 0.44531 0.089844 0.60938 0.25 0.16016 0.16016 0.25 0.37109 0.25 0.60156 0.007812 0.22266-0.082031 0.43359-0.24609 0.59375zm0-4.8867c-0.32422 0.32031-0.89062 0.31641-1.2188-0.003906-0.16016-0.16016-0.25-0.37109-0.25-0.60156 0-0.22656 0.089844-0.4375 0.25-0.59766s0.37891-0.24609 0.60547-0.24609c0.22656 0 0.44531 0.089844 0.60547 0.24609 0.16016 0.16016 0.25 0.375 0.25 0.60156 0.007813 0.22656-0.078124 0.4375-0.24219 0.60156zm2.3242 7.4883c-0.32422 0.32031-0.89453 0.32031-1.2188 0-0.16016-0.16016-0.25-0.37109-0.25-0.59766s0.089844-0.4375 0.25391-0.60156c0.16016-0.16016 0.37891-0.24609 0.60547-0.24609 0.23047 0 0.44531 0.089843 0.60938 0.24609 0.16016 0.16016 0.25 0.375 0.25 0.60156 0.003906 0.22656-0.085938 0.4375-0.25 0.59766zm0-4.8945c-0.32422 0.32031-0.89453 0.32031-1.2188 0-0.16016-0.16016-0.25-0.37109-0.25-0.60156 0-0.22656 0.089844-0.4375 0.25-0.59766 0.16406-0.16016 0.38281-0.25 0.60938-0.25 0.23047 0 0.44531 0.089844 0.60938 0.25 0.16016 0.16016 0.25 0.37109 0.25 0.59766 0 0.23047-0.085938 0.44141-0.25 0.60156zm0-4.8867c-0.32422 0.32031-0.89453 0.32031-1.2188 0-0.16016-0.16016-0.25-0.37109-0.25-0.60156 0-0.22656 0.089844-0.4375 0.25-0.60156 0.16016-0.16016 0.37891-0.24609 0.60547-0.24609 0.22656 0 0.44531 0.089844 0.60547 0.24609 0.16016 0.16016 0.25391 0.37109 0.25391 0.59766 0.007812 0.23047-0.082032 0.44141-0.24609 0.60547zm1.1016-3.4922c0.16016-0.16016 0.37891-0.25 0.60547-0.25 0.23047 0 0.44531 0.089844 0.60547 0.24609 0.16016 0.16016 0.25391 0.375 0.25 0.60156 0 0.22656-0.089844 0.4375-0.25 0.59766-0.32422 0.32031-0.89453 0.32031-1.2148 0-0.16016-0.16016-0.25-0.37109-0.25391-0.59766 0.007812-0.22656 0.097656-0.4375 0.25781-0.59766zm1.4688 5.4922c0 0.22656-0.089844 0.4375-0.25 0.60156-0.32422 0.31641-0.89062 0.31641-1.2148-0.003906-0.16016-0.16016-0.25-0.37109-0.25-0.60156 0-0.22656 0.089844-0.4375 0.25391-0.59766 0.16016-0.16016 0.375-0.24609 0.60547-0.24609 0.23047 0 0.44531 0.089844 0.60547 0.25 0.15625 0.15625 0.25 0.36719 0.25 0.59766zm-0.25 5.4883c-0.32422 0.32031-0.89062 0.32031-1.2148 0-0.16016-0.16016-0.25391-0.37109-0.25391-0.59766 0-0.22656 0.089844-0.4375 0.25391-0.59766 0.16016-0.16016 0.37891-0.24609 0.60547-0.24609 0.22656 0 0.44531 0.089844 0.60547 0.24609 0.16016 0.16016 0.25391 0.37109 0.25391 0.59766 0.003906 0.22266-0.089844 0.4375-0.25 0.59766zm2.3164-2.293c-0.32422 0.32031-0.89062 0.32031-1.2148 0-0.16016-0.16016-0.25-0.375-0.25-0.60156 0-0.22656 0.089843-0.4375 0.25-0.59766 0.16016-0.16016 0.37891-0.25 0.60547-0.25 0.22656 0 0.44531 0.089844 0.60547 0.25s0.25391 0.37109 0.25391 0.59766c0.003907 0.23047-0.085937 0.44531-0.25 0.60156zm0.003907-4.8906c-0.32812 0.32031-0.89453 0.31641-1.2188 0-0.16016-0.16016-0.25-0.37109-0.25-0.60156 0-0.22656 0.089843-0.4375 0.25-0.60156 0.16016-0.16406 0.37891-0.24609 0.60547-0.24609 0.23047 0 0.44531 0.089844 0.60547 0.24609 0.16016 0.16016 0.25391 0.375 0.25391 0.60156 0.003907 0.23047-0.085937 0.44141-0.24609 0.60156zm0-4.8906c-0.32422 0.32031-0.89453 0.32031-1.2188-0.003906-0.16016-0.15625-0.24609-0.36719-0.24609-0.59375 0-0.22656 0.089844-0.44141 0.25-0.60156s0.37891-0.24609 0.60547-0.24609c0.23047 0 0.44531 0.089844 0.60547 0.24609 0.16016 0.16016 0.25391 0.375 0.25391 0.60547 0 0.22266-0.089844 0.42969-0.25 0.59375zm2.3203 7.4883c-0.32422 0.32031-0.89062 0.32031-1.2188 0-0.16016-0.16016-0.25-0.37109-0.25-0.59766 0-0.22656 0.089844-0.4375 0.25391-0.60156 0.16016-0.16016 0.37891-0.24609 0.60547-0.24609 0.23047 0 0.44531 0.089844 0.60938 0.24609 0.16016 0.16016 0.25 0.375 0.25 0.60156 0 0.22656-0.085937 0.44141-0.25 0.59766zm0-4.8906c-0.32422 0.32031-0.89453 0.32031-1.2188 0-0.16016-0.16016-0.25-0.37109-0.25-0.60156 0-0.22656 0.089844-0.4375 0.25-0.59766 0.16016-0.16016 0.37891-0.25 0.60938-0.25 0.23047 0 0.44531 0.089844 0.60938 0.25 0.16016 0.16016 0.25 0.37109 0.25 0.59766 0 0.22656-0.085937 0.44141-0.25 0.60156zm0-4.8906c-0.32422 0.32031-0.89453 0.31641-1.2188 0-0.16016-0.16016-0.25-0.37109-0.25-0.60156 0-0.22656 0.089844-0.4375 0.25-0.59766 0.16016-0.16016 0.37891-0.25 0.60938-0.25 0.23047 0 0.44531 0.089844 0.60938 0.25 0.16016 0.16016 0.25 0.37109 0.25 0.59766 0 0.23047-0.085937 0.44141-0.25 0.60156zm2.3203 7.4922c-0.32422 0.32031-0.89062 0.32031-1.2148 0-0.16016-0.16016-0.25391-0.37109-0.25391-0.59766 0-0.22656 0.089844-0.4375 0.25391-0.59766 0.16016-0.16016 0.37891-0.24609 0.60547-0.24609 0.22656 0 0.44531 0.089844 0.60547 0.24609 0.16016 0.15625 0.25 0.37109 0.25 0.59766 0.003906 0.22266-0.085938 0.4375-0.24609 0.59766zm0-4.8945c-0.32422 0.32031-0.89453 0.32031-1.2148 0-0.16016-0.16016-0.25-0.37109-0.25-0.60156 0-0.22656 0.089844-0.4375 0.25391-0.59766 0.16016-0.16016 0.375-0.25 0.60547-0.25s0.44531 0.089844 0.60547 0.25c0.16016 0.16016 0.25 0.37109 0.25 0.60156 0 0.22656-0.089844 0.4375-0.25 0.59766zm0-4.8906c-0.32422 0.32031-0.89453 0.32031-1.2148 0-0.16016-0.16016-0.25-0.37109-0.25-0.59766s0.089844-0.4375 0.25-0.59766 0.37891-0.25 0.60938-0.25 0.44141 0.089844 0.60547 0.24609c0.16016 0.16016 0.25 0.375 0.25 0.60156s-0.089844 0.4375-0.25 0.59766zm2.3203 7.4922c-0.32422 0.32031-0.89453 0.32031-1.2188 0-0.16016-0.15625-0.25-0.37109-0.25-0.59766 0-0.22656 0.089844-0.4375 0.25-0.60156 0.16016-0.16016 0.37891-0.24609 0.60938-0.24609s0.44531 0.089844 0.60547 0.24609c0.16016 0.16016 0.25 0.37109 0.25 0.60156 0.003906 0.22266-0.085938 0.4375-0.24609 0.59766zm0-4.8945c-0.32422 0.32031-0.89453 0.32031-1.2188 0-0.16016-0.16016-0.25-0.37109-0.25-0.60156 0-0.22656 0.089844-0.4375 0.25-0.60156 0.16406-0.15234 0.37891-0.24219 0.60938-0.24219s0.44531 0.089844 0.60938 0.25c0.16016 0.16016 0.25 0.37109 0.25 0.59766 0 0.22656-0.089844 0.4375-0.25 0.59766zm0-4.8906c-0.32812 0.32031-0.89453 0.32031-1.2188 0-0.16016-0.16016-0.24609-0.37109-0.24609-0.59766 0-0.22656 0.089844-0.44141 0.25-0.60156 0.16016-0.16016 0.37891-0.25 0.60547-0.25 0.22656 0 0.44531 0.089843 0.60547 0.25 0.16016 0.16016 0.25391 0.375 0.25391 0.60156 0 0.22656-0.089844 0.4375-0.25 0.59766z"/>
<text fill="#000000" font-family="Arbeit Regular, Helvetica, Arial-Unicode, Arial, Sans-serif" font-weight="bold" font-size="5.0" y="117.5" x="0.0">Created by luca fruzza</text><text fill="#000000" font-family="Arbeit Regular, Helvetica, Arial-Unicode, Arial, Sans-serif" font-weight="bold" font-size="5.0" y="122.5" x="0.0">from Noun Project</text></svg>