<svg y="0px" x="0px" viewBox="0 8.96 131.2 120.32" xmlns="http://www.w3.org/2000/svg" style="max-height: 500px" width="131.2" height="120.32"><g><path d="M98.757,68.84l.25-.05q1.074-.219,2.149-.445t2.161-.446l.544-.111-.306-.463c-.266-.4-.546-.8-.825-1.193a15.765,15.765,0,0,1-1.923-3.223l-.1-.244-.262.009a1.848,1.848,0,0,1-1.055-.233,2.091,2.091,0,0,1-.634-.609l-.111-.206h-.023c-.391-.6-.79-1.193-1.189-1.789-.842-1.257-1.712-2.558-2.489-3.87a14.653,14.653,0,0,0-1.136-1.581,8.789,8.789,0,0,1-1.525-2.419l-.107-.314-.324.067c-.545.112-1.1.223-1.642.328l-.528.1.277.46c.94,1.56,2,3.069,3.024,4.527.762,1.086,1.551,2.209,2.279,3.338a.355.355,0,0,1,.053.114l.018.1.064.077a4.009,4.009,0,0,1,.9,1.524,1.373,1.373,0,0,1-.391,1.434l-.231.172.106.267a14.4,14.4,0,0,0,1.9,3.14c.319.437.638.874.933,1.326Z"/><path d="M98.156,56.217C97.1,54.7,96,53.137,95.034,51.527l-.134-.221-.254.045c-.345.062-.691.146-1.028.23l-.493.124.263.434a6.89,6.89,0,0,0,.751.961,6.616,6.616,0,0,1,.6.747c.226.35.439.709.652,1.068.238.4.477.8.733,1.193l.487.744q.737,1.125,1.473,2.256l.157.242.274-.09a8.474,8.474,0,0,1,.945-.236l.553-.11-.316-.467C99.192,57.7,98.674,56.958,98.156,56.217Z"/><path d="M98.957,60.133l.208.425a3.878,3.878,0,0,0,.193.487l.267.406a.93.93,0,0,0,.267.2,1.214,1.214,0,0,0,.5.095,1.762,1.762,0,0,0,.777-.179l.271-.145-.088-.295a2.219,2.219,0,0,0-.213-.508,6.49,6.49,0,0,0-.469-.66l-.134-.167-.213.033c-.309.046-.618.1-.919.17Z"/><path d="M104.823,67.585l4.105-.858-.319-.464c-.192-.278-.388-.554-.585-.829a15.653,15.653,0,0,1-1.949-3.257l-.1-.244-.263.008a1.94,1.94,0,0,1-1.054-.22,2.355,2.355,0,0,1-.66-.658l-.062-.1c-.406-.623-.821-1.243-1.237-1.864-.842-1.257-1.712-2.556-2.489-3.868a14.387,14.387,0,0,0-1.138-1.576,7.973,7.973,0,0,1-1.6-2.634l-.09-.335-.341.064c-.236.044-.472.081-.707.118l-.558.086.3.481c.9,1.466,1.9,2.895,2.872,4.275.752,1.074,1.529,2.183,2.241,3.282a.687.687,0,0,1,.075.157l.074.141a4.129,4.129,0,0,1,.9,1.527,1.373,1.373,0,0,1-.389,1.44l-.234.171.107.27a14.558,14.558,0,0,0,1.909,3.148c.359.492.73,1,1.055,1.516Z"/><path d="M84.728,65.021l.078.1a.643.643,0,0,0,.242.177,1.144,1.144,0,0,0,.511.106,1.662,1.662,0,0,0,.775-.189l.267-.15-.092-.291a2.1,2.1,0,0,0-.208-.49,6.626,6.626,0,0,0-.468-.667l-.134-.173-.217.033c-.308.046-.608.108-.917.177l-.533.1.3.452a3.734,3.734,0,0,0,.192.487l.2.314.315-.2h0Z"/><path d="M89.515,70.519l.141.206,4.159-.856-.291-.458c-.725-1.143-1.536-2.27-2.32-3.36-.823-1.144-1.674-2.327-2.415-3.515a56.719,56.719,0,0,0-5.928-8.269.416.416,0,0,1-.129-.281l-.019-.439-2.157.432.266.453c1,1.7,2.146,3.328,3.256,4.9.763,1.084,1.552,2.2,2.293,3.349a.346.346,0,0,1,.055.126l.074.142a4.036,4.036,0,0,1,.9,1.526,1.364,1.364,0,0,1-.389,1.433l-.233.171.106.27a14.525,14.525,0,0,0,1.9,3.132C89.028,69.827,89.277,70.169,89.515,70.519Z"/><path d="M94.789,69.665l3.019-.62-.316-.467c-.224-.331-.456-.657-.688-.983a15.717,15.717,0,0,1-1.931-3.226l-.1-.249-.268.014a1.791,1.791,0,0,1-1.042-.223,2.1,2.1,0,0,1-.618-.595l-.3.22h0l.1-.156.173-.088a1.176,1.176,0,0,0-.08-.132c-.406-.624-.821-1.244-1.237-1.865-.842-1.257-1.712-2.556-2.488-3.867a14.319,14.319,0,0,0-1.144-1.585,7.878,7.878,0,0,1-1.6-2.645l-.09-.345-.349.072c-.612.127-1.224.247-1.836.366l-.648.127.44.491a51.561,51.561,0,0,1,5.177,7.139c.835,1.342,1.782,2.669,2.7,3.952,1.027,1.439,2.089,2.927,2.994,4.439Z"/><path d="M92.213,57.669c-1.059-1.513-2.153-3.078-3.121-4.684l-.137-.226-.26.053c-.335.068-.676.144-1.011.228l-.489.123.258.433a6.658,6.658,0,0,0,.76.974,6.545,6.545,0,0,1,.594.736c.227.351.44.71.653,1.069.238.4.476.8.733,1.193.651,1,1.3,2,1.96,3l.158.239.272-.089a6.944,6.944,0,0,1,.937-.226l.569-.1-.324-.478C93.256,59.16,92.734,58.415,92.213,57.669Z"/><path d="M114.45,65.57l2.1-.44-.341-.468c-1.264-1.736-2.482-3.559-3.661-5.323-.655-.981-1.311-1.961-1.976-2.93-.652-.948-1.281-1.932-1.946-2.973-.927-1.452-1.885-2.953-2.917-4.349l-.166-.224-.264.095c-.345.125-.691.243-1.051.354l-.508.155.316.426c2.069,2.792,3.975,5.788,5.819,8.685,1.43,2.247,2.909,4.57,4.456,6.788Z"/><path d="M42.6,81.871v3.35l.447-.089c16.559-3.284,33.318-7.049,49.524-10.691,7.949-1.786,16.168-3.632,24.257-5.4l.24-.052.048-.241a10.106,10.106,0,0,0,.111-2.169l-.01-.452-.442.093c-2.508.528-5.061,1.006-7.531,1.468-4.911.919-9.989,1.869-14.919,3.253a35.376,35.376,0,0,1-4.9.89c-1.277.17-2.6.347-3.882.631-.889.2-1.764.46-2.61.716-.888.268-1.8.545-2.737.742L67.434,76.608Q55.166,79.2,42.9,81.808Z"/><path d="M97.221,41.5a6.486,6.486,0,0,1-1.743.624,4.929,4.929,0,0,1-2.579-.029l-.642-.212.16.657c.079.322.226.759.6.844a5.351,5.351,0,0,0,1.33.14c.246,0,.5-.009.755-.018.1,0,.209,0,.332,0,.7.008,1.613,0,2.065-.573a1.556,1.556,0,0,0,.289-1.142l-.055-.592Z"/><path d="M103.367,55.414c-1.044-1.493-2.123-3.037-3.073-4.62l-.136-.227-.26.052c-.342.069-.677.145-1.013.229l-.489.122.259.434a6.643,6.643,0,0,0,.759.973,6.39,6.39,0,0,1,.595.737c.237.366.459.742.681,1.119s.454.767.7,1.141l0,0q.609.921,1.214,1.85l.91,1.389.273-.089a7.028,7.028,0,0,1,.931-.227l.564-.1-.32-.476C104.438,56.947,103.9,56.181,103.367,55.414Z"/><path d="M42.3,72.2l.027.073c.044.086.087.18.144.306l.167.26.088.047a1.056,1.056,0,0,0,.491.105,1.7,1.7,0,0,0,.956-.3c.27-.261-.022-.889-.035-.918-.095-.2-.2-.392-.314-.58l-.13-.223-.254.042c-.331.054-.653.115-.977.192l-.346.148.108.478C42.243,71.94,42.265,72.069,42.3,72.2Z"/><path d="M88.171,47.893l.093.13,7.819-1.5c1.256-.243,2.527-.462,3.8-.682,2.273-.391,4.623-.8,6.888-1.341l.368-.089-.225-.3c-2.292-3.081-4.551-6.081-6.993-8.918l-.084-.1-.127.012a104.612,104.612,0,0,0-10.552,1.727c-1.72.339-3.344.659-4.922.935-.488.089-.975.177-1.471.259l-.334.054.151.3A68.688,68.688,0,0,0,88.171,47.893Zm-.557-8.522-.339.126a7.34,7.34,0,0,1-1.014.329.548.548,0,0,1-.56-.164.69.69,0,0,1-.159-.643.481.481,0,0,1,.391-.323,8.713,8.713,0,0,0,1.046-.345c.119-.045.238-.091.357-.134a.424.424,0,0,1,.144-.025.547.547,0,0,1,.244.063.642.642,0,0,1,.32.388A.608.608,0,0,1,87.614,39.371Zm7.4,5.19a5.575,5.575,0,0,1-2.9-.423c-.836-.457-.909-2-.962-3.13-.011-.238-.022-.458-.038-.647a.436.436,0,0,1,.314-.5l.077-.025.048-.065a3.957,3.957,0,0,1,2.363-1.122,7.745,7.745,0,0,1,1.523-.162,3.37,3.37,0,0,1,1.932.487l.059.042.072,0a.532.532,0,0,1,.446.279c.691,1.116,1.23,2.7.671,3.817-.479.934-1.513,1.418-3.073,1.436C95.369,44.551,95.19,44.556,95.012,44.561Zm2.766-7.486c-.25.071-.5.134-.75.2-.3.077-.609.154-.913.245a.53.53,0,0,1-.686-.394.57.57,0,0,1,.379-.75c.294-.088.59-.163.884-.237.26-.066.519-.131.775-.2a.646.646,0,0,1,.181-.027.546.546,0,0,1,.514.431A.563.563,0,0,1,97.778,37.075Zm-5.183.7a.49.49,0,0,1-.247.309,3.745,3.745,0,0,1-1.436.394.483.483,0,0,1-.357-.138.637.637,0,0,1-.21-.451.606.606,0,0,1,.606-.6,2.032,2.032,0,0,0,.769-.214.607.607,0,0,1,.823.2A.627.627,0,0,1,92.6,37.771Z"/><path d="M92.826,41.05a2.715,2.715,0,0,0,1.323.311,4.7,4.7,0,0,0,1.135-.152c1.221-.275,1.639-.475,1.72-.822a.471.471,0,0,0-.173-.477,3.228,3.228,0,0,0-2.6-.251c-.113.025-.229.048-.345.07a6.513,6.513,0,0,0-.875.218c-.243.083-.575.2-.6.531S92.712,40.99,92.826,41.05Z"/><path d="M38.375,64.383a7.559,7.559,0,0,1,.608,1.022c.111.242.218.485.325.728.238.541.484,1.1.769,1.639q.638,1.219,1.245,2.454l.14.285.3-.091a10.073,10.073,0,0,1,1.019-.238l.494-.095-.233-.447c-.393-.756-.8-1.506-1.2-2.256-.843-1.557-1.715-3.167-2.452-4.8l-.122-.272-1.787.4.166.4A7.508,7.508,0,0,0,38.375,64.383Z"/><path d="M78.723,44.418h.26c.126,0,.253.009.38.018.111.008.222.016.335.019h.171a.921.921,0,0,0,.191-.017l.271-.055.027-.275c.077-.759.11-1.47-.313-1.827a.831.831,0,0,0-.8-.136,1.051,1.051,0,0,0-.7.53,1.929,1.929,0,0,0,.084,1.5Z"/><path d="M43.839,57.854c-1.221.238-2.512.443-3.76.641a63.485,63.485,0,0,0-6.961,1.372l-.38.105.124.375c.1.3.208.606.313.907l.365,1.061.311-.048c1.566-.24,3.133-.494,4.732-.771a4.779,4.779,0,0,1,.626-.132l.083.005.045-.009c3.712-.656,7.73-1.438,12.283-2.388l.1-.036a.734.734,0,0,1,.274-.093,7.677,7.677,0,0,0,1.2-.253,7.591,7.591,0,0,1,.989-.22.7.7,0,0,1,.2,0l.067.01,2.78-.589c3.9-.829,7.938-1.686,11.963-2.484q12.269-2.436,24.522-4.9c1.151-.235,2.33-.425,3.579-.627a48.445,48.445,0,0,0,7.118-1.516l.527-.171-.355-.426c-.306-.367-.627-.718-.955-1.055l-.14-.143-.2.036c-1.091.2-2.187.391-3.28.578-1.375.235-2.746.47-4.1.732h0L64.721,53.821Q54.277,55.831,43.839,57.854Z"/><path d="M104.893,60.725a.963.963,0,0,0,.253.19,1.159,1.159,0,0,0,.512.106,1.668,1.668,0,0,0,.775-.189l.25-.14-.069-.277a1.784,1.784,0,0,0-.21-.507,5.672,5.672,0,0,0-.464-.674l-.135-.172-.217.032c-.306.046-.611.107-.91.168l-.382.079.176.613a3.318,3.318,0,0,0,.146.358l.209.313.316-.2-.316.213Z"/><path d="M57.1,68.373l.09.465c.019.108.041.238.075.367l.172.378.166.26.089.048a1.06,1.06,0,0,0,.489.1,1.716,1.716,0,0,0,.962-.3c.261-.261-.025-.884-.039-.914-.094-.2-.2-.392-.313-.58l-.13-.223-.255.041c-.331.055-.655.116-.978.193ZM57.82,69.5h0l0,0Z"/><path d="M63.085,66.876l.091.466c.018.108.041.237.074.366l.172.38.167.26.088.046a1.062,1.062,0,0,0,.49.1,1.714,1.714,0,0,0,.961-.3c.264-.264-.026-.886-.039-.913-.094-.2-.2-.393-.314-.582l-.13-.223-.254.042c-.331.054-.654.116-.977.192Zm.721,1.129h0l0,0Z"/><path d="M56.751,64.282c-.814-1.5-1.656-3.06-2.375-4.643l-.124-.275-1.809.382.186.423a8.18,8.18,0,0,0,.706,1.21,7.655,7.655,0,0,1,.614,1.033c.109.239.215.48.321.72.239.544.487,1.108.772,1.647.425.813.843,1.633,1.246,2.454l.14.285.3-.091a10.125,10.125,0,0,1,1.018-.239l.494-.094-.231-.446C57.6,65.854,57.176,65.068,56.751,64.282Z"/><path d="M62.824,62.953c-.8-1.491-1.638-3.033-2.357-4.6l-.125-.271-1.832.387.219.434a9.438,9.438,0,0,0,.59.967,7.265,7.265,0,0,1,.616,1.04c.11.242.217.485.324.729.239.541.485,1.1.769,1.639.426.813.843,1.633,1.245,2.453l.141.285.3-.091c.34-.1.68-.173,1.019-.238l.495-.095L64,65.15C63.614,64.414,63.219,63.684,62.824,62.953Z"/><path d="M62,76.461l5.158-1.075-.177-.42a21.524,21.524,0,0,0-1.077-2.11,13.438,13.438,0,0,1-1.42-3.144l-.073-.281h-.29a1.582,1.582,0,0,1-.912-.232,1.962,1.962,0,0,1-.492-.5.8.8,0,0,1-.121-.185l-.024-.052c-.323-.652-.656-1.3-.99-1.952-.652-1.273-1.328-2.59-1.906-3.905a14.109,14.109,0,0,0-.935-1.694,11.725,11.725,0,0,1-1.032-1.946l-.112-.3-2.413.505.2.431c.657,1.4,1.405,2.777,2.129,4.109.609,1.122,1.24,2.283,1.817,3.459a.607.607,0,0,1,.048.178l.056.147a3.309,3.309,0,0,1,.678,2.28,1.176,1.176,0,0,1-.556.762l-.231.146.069.265a14.346,14.346,0,0,0,1.5,3.339c.343.615.7,1.251.981,1.9Z"/><path d="M48.285,71.45l.172.379.167.259.087.047a1.048,1.048,0,0,0,.489.1,1.718,1.718,0,0,0,.967-.3c.256-.266-.04-.9-.044-.91-.094-.2-.2-.392-.313-.58l-.13-.223-.254.042c-.331.053-.655.115-.977.192l-.329.158.09.466C48.229,71.191,48.251,71.32,48.285,71.45Zm.535.272Z"/><path d="M50.58,72.782l-.232.146.069.265a14.383,14.383,0,0,0,1.5,3.333c.292.524.585,1.049.842,1.589l.128.268,4.186-.89-.181-.42a53.055,53.055,0,0,0-2.453-4.765c-.708-1.269-1.44-2.582-2.049-3.881a50.986,50.986,0,0,0-4.3-7.553l-.2-.189-.241.048c-.382.078-.765.156-1.147.226l-.473.088.2.437c.7,1.537,1.522,3.044,2.314,4.5.606,1.115,1.232,2.266,1.8,3.431a.578.578,0,0,1,.049.179l.056.146a3.309,3.309,0,0,1,.678,2.28A1.179,1.179,0,0,1,50.58,72.782Z"/><path d="M58,77.3l3.089-.646-.19-.424c-.291-.651-.64-1.276-.978-1.88A13.4,13.4,0,0,1,58.5,71.208l-.073-.28h-.29a1.575,1.575,0,0,1-.912-.233,1.945,1.945,0,0,1-.493-.5.811.811,0,0,1-.121-.184l-.024-.052c-.323-.655-.658-1.308-.993-1.962-.651-1.27-1.325-2.583-1.9-3.9a14.149,14.149,0,0,0-.946-1.7,10.422,10.422,0,0,1-1.1-2.135l-.1-.323-2.6.535.313.463a63.309,63.309,0,0,1,4.484,8.168c.568,1.189,1.23,2.372,1.87,3.515a48.473,48.473,0,0,1,2.27,4.4Z"/><path d="M83.31,59.865c-1.058-1.511-2.152-3.073-3.115-4.678l-.133-.222-.254.045c-.345.061-.691.138-1.028.222l-.49.122.259.435a6.7,6.7,0,0,0,.751.965,6.467,6.467,0,0,1,.6.753c.225.347.438.7.651,1.063.238.4.476.8.734,1.19L83.4,63l.272-.087a7.138,7.138,0,0,1,.939-.228l.569-.1-.324-.478C84.352,61.353,83.831,60.609,83.31,59.865Z"/><path d="M49.265,69.339l-.232-.446c-.4-.779-.822-1.551-1.24-2.323-.835-1.54-1.7-3.132-2.424-4.752l-.124-.276-.3.063c-.262.056-.524.119-.783.183l-.7.168.167.4a7.49,7.49,0,0,0,.729,1.272,7.577,7.577,0,0,1,.608,1.024c.11.239.216.479.321.719.24.545.487,1.108.773,1.648.425.813.843,1.633,1.246,2.453l.139.285.3-.091c.339-.1.679-.172,1.019-.237Z"/><path d="M77.3,60.63c-1.066-1.525-2.168-3.1-3.138-4.718l-.136-.226-.259.051c-.343.069-.686.145-1.021.229l-.49.122.26.434a6.569,6.569,0,0,0,.759.974,6.581,6.581,0,0,1,.595.736c.226.351.44.709.652,1.069.238.4.476.8.733,1.192l.53.81q.715,1.092,1.43,2.19l.156.24.272-.087a7.393,7.393,0,0,1,.941-.228l.566-.1-.322-.476C78.328,62.1,77.815,61.364,77.3,60.63Z"/><path d="M79.09,72.911l3.866-.8-.309-.463c-.255-.384-.522-.76-.787-1.136a15.81,15.81,0,0,1-1.923-3.219l-.1-.244-.263.009a1.842,1.842,0,0,1-1.055-.233,2.129,2.129,0,0,1-.638-.617l-.082-.124c-.429-.663-.871-1.323-1.314-1.984-.816-1.218-1.66-2.478-2.412-3.749a14.557,14.557,0,0,0-1.132-1.567,8.034,8.034,0,0,1-1.59-2.608l-.092-.333-.34.065c-.473.09-.954.188-1.416.283l-1.05.2.3.469c.788,1.251,1.7,2.428,2.59,3.565a39.163,39.163,0,0,1,2.807,3.926c.683,1.144,1.343,2.336,1.981,3.489.892,1.612,1.815,3.279,2.822,4.856Z"/><path d="M78.763,65.843a.852.852,0,0,0,.255.191,1.146,1.146,0,0,0,.509.106,1.67,1.67,0,0,0,.776-.19l.263-.146-.087-.289a2.213,2.213,0,0,0-.212-.509,7.64,7.64,0,0,0-.464-.653l-.135-.173-.217.032c-.274.041-.541.095-.814.149l-.566.139.224.441a3.823,3.823,0,0,0,.193.488l.2.315.315-.2-.313.2Z"/><path d="M83.916,71.909l4.777-.982-.765-1.091a16.213,16.213,0,0,1-1.96-3.275l-.1-.249-.267.014a1.794,1.794,0,0,1-1.045-.223,2.13,2.13,0,0,1-.6-.557l-.128-.187c-.418-.646-.848-1.287-1.276-1.929-.829-1.239-1.685-2.52-2.449-3.811a14.365,14.365,0,0,0-1.142-1.577,7.7,7.7,0,0,1-1.616-2.694.6.6,0,0,1-.012-.156v-.1l-.109-.448-.371.075c-.514.105-1.029.209-1.544.3l-.531.1.28.463c.943,1.56,2,3.073,3.027,4.536.748,1.066,1.521,2.169,2.251,3.295a.378.378,0,0,1,.054.125l.075.144a4.006,4.006,0,0,1,.895,1.517,1.373,1.373,0,0,1-.389,1.441l-.233.17.106.27a14.552,14.552,0,0,0,1.914,3.156c.349.477.7.954,1.015,1.449Z"/><path d="M68.323,66.127l.091.466c.018.109.041.238.074.367l.172.377.166.262.089.047a1.06,1.06,0,0,0,.489.105,1.708,1.708,0,0,0,.962-.3c.261-.262-.025-.884-.039-.914-.094-.2-.2-.392-.313-.58l-.13-.223-.255.042c-.331.054-.654.116-.977.192Z"/><path d="M68,62.085c-.835-1.541-1.7-3.135-2.427-4.757l-.124-.276-.3.063c-.26.055-.522.119-.78.182l-.7.169.167.406a7.558,7.558,0,0,0,.729,1.272,7.684,7.684,0,0,1,.609,1.023c.11.241.217.483.323.726.239.543.486,1.1.771,1.642.424.812.842,1.632,1.245,2.453l.14.284.3-.09a10.332,10.332,0,0,1,1.018-.238l.494-.094-.231-.447C68.833,63.625,68.416,62.855,68,62.085Z"/><path d="M68.068,75.2l4.208-.878-.195-.427c-.283-.618-.616-1.212-.937-1.788a13.311,13.311,0,0,1-1.421-3.142l-.073-.28h-.29a1.577,1.577,0,0,1-.911-.232,1.94,1.94,0,0,1-.492-.5.633.633,0,0,1-.1-.145l-.047-.093c-.323-.653-.656-1.3-.989-1.953-.653-1.273-1.328-2.589-1.907-3.906a14.508,14.508,0,0,0-.927-1.673,9.867,9.867,0,0,1-1.144-2.275l-.1-.343-.348.081c-.217.051-.435.094-.662.14l-.472.094.208.435c.638,1.338,1.355,2.659,2.049,3.937.6,1.11,1.225,2.259,1.8,3.421a.6.6,0,0,1,.049.176l.055.148a3.309,3.309,0,0,1,.678,2.28,1.172,1.172,0,0,1-.556.761l-.231.147.069.265a14.454,14.454,0,0,0,1.481,3.3,20.3,20.3,0,0,1,1.086,2.155Z"/><path d="M73.189,74.133l4.927-1.023-.281-.455c-.775-1.258-1.5-2.581-2.211-3.86-.727-1.318-1.479-2.681-2.287-3.983a46.388,46.388,0,0,0-2.771-3.851,45,45,0,0,1-2.8-3.9.324.324,0,0,1-.048-.121l-.069-.374-1.29.257.2.432c.678,1.458,1.455,2.89,2.207,4.275.6,1.1,1.215,2.24,1.784,3.392a.606.606,0,0,1,.049.179l.055.146a3.311,3.311,0,0,1,.678,2.28,1.171,1.171,0,0,1-.556.762l-.231.146.069.265a14.3,14.3,0,0,0,1.5,3.326c.33.594.672,1.207.95,1.829Z"/><path d="M93.737,62.958a.933.933,0,0,0,.213.152,1.171,1.171,0,0,0,.511.1,1.669,1.669,0,0,0,.778-.19l.262-.147-.086-.288a2.375,2.375,0,0,0-.21-.5,6.7,6.7,0,0,0-.467-.665l-.134-.173-.217.033c-.309.046-.618.108-.92.177l-.373.157.137.395a3.848,3.848,0,0,0,.192.487l.2.315.316-.2-.316.214Z"/><path d="M16.749,69.1l.093.313.322-.049a8.691,8.691,0,0,0,1.319-.345c.254-.081.5-.162.753-.224.678-.173,1.347-.361,2.017-.557l.46-.134-.383-.664c-.049-.091-.091-.182-.133-.272l-.133-.288-.3.083c-.546.148-1.079.308-1.616.47l-.188.056c-.295.087-.606.152-.919.218a10.191,10.191,0,0,0-1.223.311l-.336.115.172.611C16.682,68.861,16.714,68.98,16.749,69.1Z"/><path d="M10.65,63.238l.108.3.312-.057c1.941-.356,3.984-.668,5.959-.97a87.262,87.262,0,0,0,14.182-2.971l.139-.046.071-.128a.573.573,0,0,1,.319-.26,55.264,55.264,0,0,1,8.222-1.739l1.154-.184-.171-.434c-.432-1.1-.894-2.184-1.357-3.27-.4-.946-.8-1.892-1.188-2.847-.216-.532-.467-1.044-.718-1.554a12.893,12.893,0,0,1-1.061-2.622l-.084-.344-.348.064c-8.516,1.555-19.113,3.489-29.3,5.117l-.435.069.138.419C7.885,55.686,9.291,59.525,10.65,63.238ZM32.488,55.8a5.5,5.5,0,0,1,.816-.173l.178-.029a.929.929,0,0,1,.126-.009.469.469,0,0,1,.5.33.525.525,0,0,1-.074.4.335.335,0,0,1-.216.161l-.182.029a6.386,6.386,0,0,0-.942.2.381.381,0,0,1-.3-.032.5.5,0,0,1-.248-.3A.484.484,0,0,1,32.488,55.8Zm-21.1,1.673.05-.117a.41.41,0,0,1,.309-.3,30.028,30.028,0,0,1,4.184-.794c1.094-.154,2.227-.314,3.338-.569,1.471-.338,2.938-.692,4.4-1.046,1.421-.342,2.84-.684,4.265-1.013a.546.546,0,0,1,.128-.016.507.507,0,0,1,.438.34.386.386,0,0,1,.055.125,12.312,12.312,0,0,0,.521,1.4,8.638,8.638,0,0,1,.593,1.747.577.577,0,0,1-.086.411.411.411,0,0,1-.3.258,79.6,79.6,0,0,1-9.14,1.967c-.938.149-1.873.363-2.777.57a24.74,24.74,0,0,1-4.585.75.357.357,0,0,1-.4-.265l-.084-.142a.444.444,0,0,1-.131-.273,7.824,7.824,0,0,0-.789-2.515A.538.538,0,0,1,11.384,57.468Zm24.742-2.712a3.583,3.583,0,0,0,.969-.3l.1-.04a.215.215,0,0,1,.085-.017.378.378,0,0,1,.16.042.563.563,0,0,1,.284.32h0c.1.361-.258.537-.375.585a4.693,4.693,0,0,1-1.3.347A.307.307,0,0,1,35.8,55.6a.552.552,0,0,1-.183-.382C35.621,54.844,36.008,54.77,36.126,54.756Zm-.149-5.123a5.384,5.384,0,0,0,1.253,2.649.376.376,0,0,1,.138.342l-.01.06.01.061a.382.382,0,0,1-.045.28.326.326,0,0,1-.227.113,27.371,27.371,0,0,0-2.86.663c-.85.23-1.73.468-2.607.617a.447.447,0,0,1-.411-.125l-.1-.067a.465.465,0,0,1-.234-.272c-.167-.479-.3-.973-.439-1.466a12.341,12.341,0,0,0-1.128-3.017.386.386,0,0,1-.019-.4l.04-.134a.332.332,0,0,1,.3-.3l.633-.133a23.535,23.535,0,0,1,4.783-.668.367.367,0,0,1,.355.2l.065.1A8.5,8.5,0,0,1,35.977,49.633ZM27.39,52.359l-.161.07a39.412,39.412,0,0,1-5.826.995c-1.009.121-2.053.246-3.074.41-1.094.173-2.181.431-3.232.68a29.625,29.625,0,0,1-4.611.836.318.318,0,0,1-.359-.208l-.055-.09a.439.439,0,0,1-.11-.28,2.915,2.915,0,0,0-.482-1.3c-.058-.1-.115-.2-.163-.294a.451.451,0,0,1,.056-.525l.066-.079.018-.1c.017-.107.063-.211.27-.244,2.347-.359,4.691-.9,6.959-1.415a69.184,69.184,0,0,1,9.64-1.732.37.37,0,0,1,.048,0,.313.313,0,0,1,.312.21l.079.117a.458.458,0,0,1,.109.189c.1.312.217.615.34.919a6.835,6.835,0,0,1,.429,1.291A.479.479,0,0,1,27.39,52.359Z"/><path d="M44.593,73.53l-.231.146.069.265a14.359,14.359,0,0,0,1.484,3.308,20.657,20.657,0,0,1,1.055,2.077l.119.288,4.88-1.04-.207-.43c-.253-.525-.537-1.035-.821-1.543a13.363,13.363,0,0,1-1.421-3.147l-.073-.282h-.29a1.572,1.572,0,0,1-.912-.232,2.025,2.025,0,0,1-.491-.5.771.771,0,0,1-.122-.187l.039.094-.064-.145c-.322-.653-.655-1.3-.989-1.953-.653-1.273-1.328-2.589-1.907-3.906a14.414,14.414,0,0,0-.931-1.68A8.346,8.346,0,0,1,42.566,62.1l-.071-.367-.367.069c-.247.047-.495.089-.744.132-.232.04-.465.079-.7.123l-.478.088.207.44c.666,1.414,1.421,2.8,2.15,4.148.6,1.112,1.228,2.263,1.8,3.426a.564.564,0,0,1,.05.181l.055.145a3.31,3.31,0,0,1,.678,2.28A1.173,1.173,0,0,1,44.593,73.53Z"/><path d="M30.79,64.644l-.123-.3-.318.082c-.833.216-1.673.432-2.523.61-.308.067-.626.116-.946.167s-.648.1-.967.17l-.325.068.029.33a3.156,3.156,0,0,0,.1.578.166.166,0,0,1,.007.064l-.027.776.6-.453c.462-.091.924-.2,1.391-.319a19.309,19.309,0,0,1,1.914-.357c.39-.059.78-.118,1.167-.191l.4-.076-.11-.394A6.96,6.96,0,0,0,30.79,64.644Z"/><path d="M16.418,82.676c-.217-.555-.431-1.1-.617-1.634Q13.725,75.069,11.6,69.1c-.716-2.012-1.45-4.019-2.184-6.027C8.337,60.14,7.227,57.1,6.193,54.1l-.86-2.5.131,2.643c.026.523.089,1.056.149,1.569.045.378.088.745.114,1.089l.013.182.153.1a.6.6,0,0,1,.222.3c1.731,4.789,3.366,9.719,4.947,14.487,1.862,5.617,3.788,11.425,5.889,17.056l.633,1.695.093-1.806c.03-.573.067-1.146.112-1.712l-.04-.226A20.394,20.394,0,0,0,16.418,82.676Z"/><path d="M13.006,59.906l.066.325.331-.025a33.181,33.181,0,0,0,4.56-.8c.957-.214,1.947-.436,2.909-.591A71.353,71.353,0,0,0,28.3,57.185l.386-.1L28.56,56.7c-.127-.371-.277-.736-.427-1.1-.091-.222-.181-.442-.266-.664l-.118-.306-.319.076c-.9.211-1.791.434-2.687.656-1.7.422-3.455.858-5.186,1.212-.948.188-1.925.331-2.87.468-1.3.189-2.633.384-3.934.7l-.423.1.166.4A8.842,8.842,0,0,1,13.006,59.906Z"/><path d="M26.3,50.719l-.258-.672-.286.028a71.569,71.569,0,0,0-9,1.661c-1.947.446-3.96.908-5.956,1.246l-.493.083.217.45a4.152,4.152,0,0,1,.227.576l.092.3.308-.034a38.486,38.486,0,0,0,4.4-.844c1.137-.264,2.312-.537,3.465-.715.861-.135,1.729-.24,2.6-.346a43.889,43.889,0,0,0,4.611-.729l.414-.1-.146-.4C26.437,51.054,26.37,50.886,26.3,50.719Z"/><path d="M34.86,49.036l-.1-.248-.267.013a23.92,23.92,0,0,0-3.679.539l-.45.093.181.422a19.894,19.894,0,0,1,.774,2.315c.092.319.184.639.283.956l.1.329.336-.074c.657-.144,1.307-.314,1.958-.485.537-.14,1.074-.281,1.616-.407l.462-.107-.211-.424a9.92,9.92,0,0,1-.572-1.608A13.73,13.73,0,0,0,34.86,49.036Z"/><path d="M109.888,66.528l3.576-.751-.32-.464c-1.43-2.073-2.809-4.242-4.142-6.339-1.9-2.994-3.871-6.09-6.044-8.995l-.141-.279-.635.137c-.228.05-.457.1-.692.145l-.535.1.284.464c.926,1.516,1.958,2.988,2.956,4.412.758,1.082,1.543,2.2,2.27,3.325a.481.481,0,0,1,.059.143l.076.144a4.074,4.074,0,0,1,.9,1.525,1.377,1.377,0,0,1-.391,1.434l-.231.171.106.268a14.68,14.68,0,0,0,1.926,3.175c.284.388.568.776.835,1.175Z"/><path d="M104.806,46.208l.411.48a52,52,0,0,1,4.057,5.743c.617.96,1.226,1.908,1.845,2.809.714,1.04,1.419,2.094,2.125,3.151,1.395,2.087,2.838,4.245,4.356,6.289l.144.193,4.37-.922-.311-.461c-2.194-3.248-4.7-6.4-7.121-9.437-1.2-1.5-2.391-3-3.547-4.513-.979-1.286-1.951-2.586-2.915-3.887l-.151-.2-.245.064c-.8.209-1.59.394-2.4.565Z"/><path d="M42.287,56.614c.569-.1,1.13-.2,1.684-.307q12.875-2.492,25.756-4.968l16.649-3.211A71.145,71.145,0,0,1,80.891,38.6q-14.142,2.481-28.27,4.976c-4.909.868-9.81,1.766-14.711,2.656a43.134,43.134,0,0,0,2.005,4.744C40.664,52.873,41.547,54.713,42.287,56.614Zm41.844-9.5c.052.165-2.185.816-5.866,1.744-3.682.83-8.778,1.93-14.42,3.008s-10.76,2-14.494,2.649a35.271,35.271,0,0,1-4.437.561,4.382,4.382,0,0,1-1.654-.008c0-.1.561-.254,1.579-.478,1.033-.225,2.544-.479,4.355-.951,3.652-.875,8.762-1.923,14.4-3.008,5.657-1.085,10.768-2.043,14.487-2.649C81.766,47.3,84.079,46.954,84.131,47.118Zm-6.974-4.4a2.243,2.243,0,0,1,1.736-1.833,2.206,2.206,0,0,1,2.514,1.033,5.619,5.619,0,0,1,.232,2.521c0,.008-.007.008-.007.015a.741.741,0,0,1-.24.674,2.083,2.083,0,0,1-1.376.628,3.416,3.416,0,0,1-.554-.015.916.916,0,0,1-.943.21.659.659,0,0,1-.718-.427A4.929,4.929,0,0,1,77.157,42.718Zm-5.208.928a2.321,2.321,0,0,1,4.25-.808,5.554,5.554,0,0,1,.225,2.529v.015a.759.759,0,0,1-.24.674,2.088,2.088,0,0,1-1.377.628,4.441,4.441,0,0,1-.553-.015.936.936,0,0,1-.943.21.668.668,0,0,1-.726-.427A5,5,0,0,1,71.949,43.646Zm-5.208.928a2.321,2.321,0,0,1,4.25-.808,5.532,5.532,0,0,1,.225,2.522V46.3a.777.777,0,0,1-.24.673,2.13,2.13,0,0,1-1.377.636,4.4,4.4,0,0,1-.553-.015.954.954,0,0,1-.943.21.664.664,0,0,1-.726-.427A5,5,0,0,1,66.741,44.574Zm-5.208.928a2.235,2.235,0,0,1,1.729-1.841,2.211,2.211,0,0,1,2.514,1.033,5.534,5.534,0,0,1,.232,2.522v.015a.777.777,0,0,1-.24.673,2.146,2.146,0,0,1-1.377.636c-.187.007-.374-.007-.561-.015a.935.935,0,0,1-.935.21.671.671,0,0,1-.726-.434A4.924,4.924,0,0,1,61.533,45.5Zm-5.215.92a2.242,2.242,0,0,1,1.736-1.833,2.215,2.215,0,0,1,2.514,1.033,5.531,5.531,0,0,1,.232,2.521c0,.008,0,.008-.008.015a.737.737,0,0,1-.239.674,2.088,2.088,0,0,1-1.37.628,3.506,3.506,0,0,1-.561-.015.919.919,0,0,1-.935.217.668.668,0,0,1-.726-.434A4.993,4.993,0,0,1,56.318,46.422Zm-5.208.928a2.242,2.242,0,0,1,1.736-1.833,2.21,2.21,0,0,1,2.514,1.025,5.565,5.565,0,0,1,.232,2.529.028.028,0,0,0-.008.015.737.737,0,0,1-.239.674,2.09,2.09,0,0,1-1.377.628,3.441,3.441,0,0,1-.554-.015.931.931,0,0,1-.943.21.659.659,0,0,1-.718-.427A4.936,4.936,0,0,1,51.11,47.35Zm-5.208.928a2.321,2.321,0,0,1,4.25-.808A5.668,5.668,0,0,1,50.384,50l-.008.008a.751.751,0,0,1-.239.681,2.09,2.09,0,0,1-1.377.628,4.457,4.457,0,0,1-.554-.015.953.953,0,0,1-.943.21.672.672,0,0,1-.725-.427A4.994,4.994,0,0,1,45.9,48.278Zm-5.208.928a2.317,2.317,0,0,1,4.25-.808,5.531,5.531,0,0,1,.224,2.522.819.819,0,0,1-.134.441.791.791,0,0,1-.255.419,2.136,2.136,0,0,1-1.444.606c-.232,0-.464-.022-.7-.045a.7.7,0,0,1-1.153-.1,1.084,1.084,0,0,1-.149-.225A5.009,5.009,0,0,1,40.694,49.206Z"/><path d="M46,79.386a22.36,22.36,0,0,0-1.047-2.041A13.31,13.31,0,0,1,43.534,74.2l-.073-.281H43.17a1.579,1.579,0,0,1-.911-.232,1.953,1.953,0,0,1-.493-.5.762.762,0,0,1-.12-.184l.039.094-.064-.146c-.323-.652-.656-1.3-.989-1.953-.653-1.273-1.328-2.589-1.907-3.906a14.861,14.861,0,0,0-.927-1.674A9.6,9.6,0,0,1,36.641,63.1l-.089-.326-2.7.434.156.427a88.112,88.112,0,0,0,3.916,9.146c.448.886.912,1.759,1.376,2.629.867,1.629,1.764,3.313,2.506,5.035l.122.284,4.256-.925Z"/><path d="M19.525,85.676c6.578-1.5,13.4-3.006,20.851-4.616l.446-.1-.181-.418C39.889,78.8,38.978,77.1,38.1,75.456c-.784-1.461-1.594-2.973-2.285-4.5A106.352,106.352,0,0,1,31.868,60.9l-.118-.354-.355.117a87.329,87.329,0,0,1-13.982,2.916c-1.929.3-3.923.6-5.828.947l-.436.079.55,1.513c.333.914.667,1.829,1.01,2.8,1.408,3.956,2.815,7.912,4.187,11.885.187.53.4,1.073.613,1.625a29.541,29.541,0,0,1,1.077,3.1l.1.366.364-.1c.1-.028.208-.05.312-.072ZM17.958,72.532l.061-.076a.327.327,0,0,1,.138-.126c.038-.022.079-.04.121-.059s.108-.049.16-.077l.084-.062a1.157,1.157,0,0,1,.723-.351l.115-.03A14.648,14.648,0,0,1,23.6,70.627a.294.294,0,0,1,.222.069.378.378,0,0,1,.1.06v.409l.5-.184c.511-.186.968-.332,1.4-.446l.509-.135-.294-.437c-.037-.055-.083-.11-.117-.151a.21.21,0,0,1-.026-.239.539.539,0,0,1,.4-.291,13.983,13.983,0,0,0,1.915-.313c1.81-.383,3.239-.687,4.241,1.312a22.639,22.639,0,0,1,2.209,7.971l-.018.125a.252.252,0,0,1-.107.213h-.3v.121c-.464.083-.921.172-1.391.281-.753.2-1.507.429-2.279.673l-.335.123a1.064,1.064,0,0,1-.209.046l-.274.088a36,36,0,0,1-6.681,1.671l-.132.015-.094.095a.444.444,0,0,1-.361.146c-.031-.005-.126-.019-.206-.172-.394-.739-.815-1.483-1.24-2.232a33.924,33.924,0,0,1-3.147-6.606A.273.273,0,0,1,17.958,72.532Zm14.1-6.246-.051.1a.365.365,0,0,1-.288.237c-.548.133-1.124.215-1.681.294a16.767,16.767,0,0,0-1.861.335l-.335.086a11.263,11.263,0,0,1-1.69.346,1.126,1.126,0,0,1-.911-.247,2.794,2.794,0,0,1-.578-2.029.452.452,0,0,1,.042-.206l.04-.158a.42.42,0,0,1,.323-.416,11.266,11.266,0,0,1,1.661-.35c.411-.066.821-.132,1.221-.226.864-.2,1.723-.417,2.586-.633l.29-.073a.534.534,0,0,1,.131-.018c.289,0,.4.288.429.374a.708.708,0,0,0,.05.1l.038.1a9,9,0,0,1,.65,2.186A.307.307,0,0,1,32.062,66.286ZM15.718,67.677l.077-.069.032-.1a.3.3,0,0,1,.192-.172,8.7,8.7,0,0,1,1.415-.415c.308-.072.618-.145.926-.237l.747-.227c.685-.209,1.394-.427,2.1-.59a.458.458,0,0,1,.5.2.645.645,0,0,1,.117.208,5.955,5.955,0,0,0,.414.95,3.394,3.394,0,0,1,.445,1.243.424.424,0,0,1-.126.3l-.1.07a.573.573,0,0,1-.161.08c-.415.113-.834.22-1.253.327-.757.192-1.514.385-2.253.612l-.324.1a5.412,5.412,0,0,1-1.982.376.482.482,0,0,1-.464-.316c-.059-.286-.138-.565-.217-.845a8.46,8.46,0,0,1-.25-1.052A.49.49,0,0,1,15.718,67.677Z"/><path d="M118.634,65.825l-.306.062.012.624a8.914,8.914,0,0,1-.3,3.146.573.573,0,0,1-.576.388l-.157.017-.087.044c-8.249,1.8-16.631,3.681-24.737,5.5-16.429,3.693-33.418,7.51-50.2,10.816l-.322.063.069,1.147.429-.094c11.133-2.452,22.48-4.832,33.454-7.134,14.786-3.1,30.075-6.309,45.05-9.733l.277-.063.014-.283a29.332,29.332,0,0,1,.487-3.585q.1-.543.19-1.087l.09-.543-.539.115C120.532,65.428,119.583,65.63,118.634,65.825Z"/><path d="M41.135,86.163a1.074,1.074,0,0,1-.4-.883v-.92c-.636.224-1.25.4-1.833.546-.344.09-.674.172-1,.255s-.643.142-.95.217c-1.22.269-2.38.508-3.293.658a11.883,11.883,0,0,1-2.3.314c-.539-.022-.845-.082-.853-.164s.292-.2.808-.322c.524-.15,1.19-.382,2.118-.688.958-.285,2.013-.592,3.247-.936.307-.082.621-.164.936-.254s.628-.18.957-.27c.666-.187,1.34-.374,1.968-.621.068-.03.128-.059.2-.082v-.367q-3.222.685-6.458,1.37c-4.841,1.032-10.311,1.556-15,3.247a37.673,37.673,0,0,0-.142,4.5,11.017,11.017,0,0,0,.987-2.35l.008-.022.007-.015c.015-.045.038-.217.06-.374a3.951,3.951,0,0,1,.083-.524,1.389,1.389,0,0,1,.112-.359.876.876,0,0,1,.105-.187l.03-.053.014-.022.06-.067a1.268,1.268,0,0,1,.726-.352,4.849,4.849,0,0,1,.5-.06l.187-.007.112-.015.09-.015c.269-.053.538-.105.8-.158,1.048-.217,1.991-.321,2.761-.531,1.564-.366,2.5-.516,2.545-.381s-.831.538-2.328,1.1a27.42,27.42,0,0,1-2.761.815c-.269.068-.546.142-.823.217l-.127.03-.105.015-.247.037a3.24,3.24,0,0,0-.381.053,1.051,1.051,0,0,0-.113.037c0,.015-.007.015-.022,0l.015.03c-.037.045.007.015.007.023l.008-.008c0,.008-.008.06-.015.1-.022.113-.03.255-.045.412a2.854,2.854,0,0,1-.067.591l.037-.045a10.491,10.491,0,0,1-.943,2.544c6.974-1.661,13.582-3.255,21.064-4.8V87.42l-.119-.112C41.322,86.942,41.172,86.552,41.135,86.163Z"/><path d="M29.374,73.6a18.068,18.068,0,0,1,1.069,4.72l.044.435.423-.109c.87-.223,1.747-.424,2.632-.609l.336-.071-.04-.341a23.935,23.935,0,0,0-1.65-6.153c-.691-1.67-1.657-2.2-3.347-1.831-.5.111-.982.2-1.479.264l-.325.043v.165l-.183.142.323.354A7.321,7.321,0,0,1,29.374,73.6Z"/><path d="M26.757,79.07l.05.308.313.007h.056a5.274,5.274,0,0,0,1.436-.264,7.49,7.49,0,0,1,.8-.2l.339-.058-.029-.344a15.135,15.135,0,0,0-.883-4.231,7.491,7.491,0,0,0-2.078-3.045l-.144-.135-.194.044a13.867,13.867,0,0,0-1.507.438l-.408.14.2.385A22.887,22.887,0,0,1,26.757,79.07Z"/><path d="M21.539,73.736a17.206,17.206,0,0,1,1.48,6.485l.025.449.444-.092a9.61,9.61,0,0,0,2.385-.716l.247-.123-.044-.272a21.1,21.1,0,0,0-2.509-7.861l-.128-.216-.248.035a13.115,13.115,0,0,0-2.279.524l-.553.182.394.428A4.578,4.578,0,0,1,21.539,73.736Z"/><path d="M21.376,78.551l1.006,1.772-.309-2.014a17.7,17.7,0,0,0-.441-2.057c-.037-.141-1.148-3.137-1.875-3.654l-.178-.127-.884.417.108.317A32.026,32.026,0,0,0,21.376,78.551Z"/><path d="M63.091,47.194h.261c.132,0,.262.01.391.019.107.007.212.015.318.018.055,0,.106,0,.153,0a1.034,1.034,0,0,0,.22-.021l.266-.061.028-.272c.06-.6.143-1.432-.308-1.817a.846.846,0,0,0-.808-.142,1.048,1.048,0,0,0-.7.53A1.929,1.929,0,0,0,63,46.95Z"/><path d="M47.465,49.962l.251.008c.114,0,.228.01.343.018s.253.015.383.019l.011-.374h0l0,.375c.061,0,.116.008.172.008A.893.893,0,0,0,48.805,50l.271-.055.027-.276c.061-.608.143-1.442-.312-1.827a.835.835,0,0,0-.8-.135,1.052,1.052,0,0,0-.7.532,1.822,1.822,0,0,0,.086,1.489Z"/><path d="M68.3,46.258l.252.008c.117,0,.235.011.353.018s.242.015.364.02l.012-.375.02.377c.056,0,.11.006.161.006a.808.808,0,0,0,.176-.017l.263-.057.03-.268c.079-.726.122-1.465-.3-1.83A.843.843,0,0,0,68.82,44a1.046,1.046,0,0,0-.692.526,1.942,1.942,0,0,0,.088,1.5Z"/><path d="M52.675,49.05h.261c.166,0,.332.012.5.023l.313.015h.072a.931.931,0,0,0,.192-.017l.271-.055.027-.275c.076-.76.109-1.471-.313-1.827a.83.83,0,0,0-.8-.136,1.053,1.053,0,0,0-.7.53,1.933,1.933,0,0,0,.084,1.5Z"/><path d="M57.883,48.122h.261c.132,0,.263.009.393.019.107.007.214.015.321.018h.174a.878.878,0,0,0,.2-.018l.264-.061.028-.27c.06-.607.144-1.44-.31-1.824a.843.843,0,0,0-.806-.137,1.053,1.053,0,0,0-.7.53,1.934,1.934,0,0,0,.084,1.5Z"/><path d="M73.515,45.346h.26c.134,0,.269.008.405.015l.31.014L74.5,45h0l0,.375c.06,0,.116.008.171.008a.887.887,0,0,0,.176-.016l.271-.055.027-.275c.061-.609.143-1.443-.312-1.828a.836.836,0,0,0-.8-.136,1.052,1.052,0,0,0-.7.53,1.933,1.933,0,0,0,.087,1.5Z"/><path d="M42.339,51l.208.034a3.825,3.825,0,0,0,.6.065,1.128,1.128,0,0,0,.537-.118l.184-.167.02-.2c.064-.616.151-1.46-.306-1.849a.843.843,0,0,0-.808-.14,1.043,1.043,0,0,0-.7.541,2.106,2.106,0,0,0,.151,1.631Z"/></g><text font-family="'Helvetica Neue', Helvetica, Arial-Unicode, Arial, Sans-serif" font-weight="bold" font-size="5px" fill="#000000" y="143" x="0">Created by Hey Rabbit</text><text font-family="'Helvetica Neue', Helvetica, Arial-Unicode, Arial, Sans-serif" font-weight="bold" font-size="5px" fill="#000000" y="148" x="0">from the Noun Project</text></svg>