<svg xmlns:dc="http://purl.org/dc/elements/1.1/" xmlns:cc="http://creativecommons.org/ns#" xmlns:rdf="http://www.w3.org/1999/02/22-rdf-syntax-ns#" xmlns:svg="http://www.w3.org/2000/svg" xmlns="http://www.w3.org/2000/svg" xmlns:sodipodi="http://sodipodi.sourceforge.net/DTD/sodipodi-0.dtd" xmlns:inkscape="http://www.inkscape.org/namespaces/inkscape" viewBox="0 0 26.458334 33.07291625" version="1.1" x="0px" y="0px"><g transform="translate(0,-270.54168)"><path style="" d="m 7.2628128,271.10823 c -1.7845645,-0.004 -3.3663549,0.6836 -3.9306789,2.62136 -1.8047362,6.19716 -0.9871837,20.46091 -0.9871837,20.46091 l 0.077132,6.4e-4 -0.00515,1.86767 c -1.89e-4,0.0735 0.058885,0.13267 0.1325252,0.13271 l 0.2652124,5e-4 -2.418e-4,0.0509 c -1.748e-4,0.0734 0.058712,0.13287 0.1321994,0.13302 l 20.8732306,0.0577 c 0.07345,7e-5 0.132664,-0.0588 0.132885,-0.13234 l 1.8e-5,-0.0265 0.193848,4.2e-4 c 0.06896,1.1e-4 0.124663,-0.0552 0.124821,-0.12419 l 0.0049,-1.79321 c -1.86e-4,-0.0161 -0.0034,-0.0313 -0.009,-0.0454 l 0.03078,5e-5 -0.101978,-9.38297 c 0,0 -5.78455,-2.25799 -8.08483,-4.2534 -2.883304,-2.50116 -4.179142,-8.64049 -6.7091873,-9.2795 -0.7115675,-0.17975 -1.440981,-0.28705 -2.1392965,-0.28855 z m 2.2095428,21.86435 7.2833704,0.0201 c 0.06896,1.1e-4 0.124371,0.0559 0.12438,0.12464 l -0.0018,0.6527 c -1.06e-4,0.069 -0.05583,0.12438 -0.124826,0.1242 l -7.2833529,-0.0201 c -0.068963,-1e-4 -0.124334,-0.0559 -0.1243839,-0.12463 l 0.00181,-0.65272 c 1.062e-4,-0.069 0.055899,-0.12435 0.124826,-0.1242 z m -6.3077198,1.22243 0.2477917,10e-4 c -0.020067,0.0232 -0.03364,0.0524 -0.033686,0.0856 l -0.00315,1.1405 c -2.264e-4,0.0734 0.058938,0.13285 0.132279,0.13314 l 0.079581,2e-5 c 0.073508,8e-5 0.13268,-0.0589 0.1328911,-0.13233 l 0.00314,-1.14051 c 6.85e-5,-0.0329 -0.012674,-0.0619 -0.03254,-0.085 l 0.140714,6.5e-4 c -0.019533,0.0231 -0.032785,0.0517 -0.032787,0.0844 l -0.00313,1.14049 c -1.87e-4,0.0735 0.058942,0.13285 0.1322828,0.13314 l 0.079581,2e-5 c 0.073508,7e-5 0.1326694,-0.0589 0.1328858,-0.13233 l 0.00314,-1.14051 c 8.64e-5,-0.0324 -0.012444,-0.061 -0.031718,-0.084 l 0.3487105,0.002 c -0.018714,0.0228 -0.031579,0.0508 -0.031612,0.0828 l -0.00313,1.14049 c -1.871e-4,0.0735 0.058942,0.13286 0.1322828,0.13315 l 0.079581,2e-5 c 0.073508,7e-5 0.1326699,-0.0589 0.1328427,-0.13238 l 0.00313,-1.14051 c 1.879e-4,-0.0316 -0.012684,-0.0593 -0.030724,-0.0822 l 0.1368116,6.5e-4 c -0.018257,0.0226 -0.030724,0.0501 -0.030834,0.0816 l -0.00316,1.1405 c -1.355e-4,0.0735 0.058942,0.13285 0.1322791,0.13314 l 0.079581,2e-5 c 0.073456,7e-5 0.1326541,-0.0589 0.1328701,-0.13232 l 0.00315,-1.14052 c 1.909e-4,-0.031 -0.012392,-0.0583 -0.029687,-0.0809 l 0.1349651,6.5e-4 c -0.017618,0.0224 -0.029869,0.0495 -0.029972,0.0803 l -0.00315,1.14049 c -2.262e-4,0.0735 0.058942,0.13286 0.1322866,0.13315 l 0.079581,2e-5 c 0.073508,8e-5 0.1326747,-0.0589 0.1328911,-0.13233 l 0.00314,-1.14051 c 2.605e-4,-0.0306 -0.012139,-0.0572 -0.029157,-0.0796 l 0.553,0.003 c -0.016641,0.0221 -0.028408,0.0481 -0.028488,0.0781 l -0.00279,1.14017 c -1.87e-4,0.0735 0.058938,0.13285 0.1326049,0.13281 l 0.079581,3e-5 c 0.073456,7e-5 0.1326699,-0.0588 0.1328857,-0.13234 l 0.00313,-1.14049 c 3.71e-4,-0.0296 -0.011031,-0.0554 -0.027516,-0.0774 l 0.1304531,6.5e-4 c -0.016146,0.0219 -0.027645,0.0474 -0.02772,0.0769 l -0.00314,1.14049 c -2.263e-4,0.0735 0.058942,0.13286 0.1326048,0.13282 l 0.079581,2e-5 c 0.073456,7e-5 0.1326646,-0.0588 0.1328858,-0.13232 l 0.00314,-1.14051 c -2.209e-4,-0.0291 -0.011425,-0.0544 -0.026711,-0.0764 l 0.3384676,0.002 c -0.015402,0.0216 -0.026399,0.0466 -0.026498,0.0752 l -0.00313,1.14049 c -2.263e-4,0.0735 0.058942,0.13285 0.1326009,0.13281 l 0.079581,2e-5 c 0.073456,7e-5 0.13268,-0.0589 0.1328911,-0.13233 l 0.00314,-1.14052 c -1.566e-4,-0.0283 -0.01035,-0.0531 -0.025963,-0.0745 l 0.1265597,6.5e-4 c -0.014944,0.0214 -0.025582,0.0458 -0.025629,0.074 l -0.00314,1.1405 c -2.262e-4,0.0735 0.058938,0.13285 0.132601,0.13282 l 0.079581,10e-6 c 0.073456,8e-5 0.1326694,-0.0589 0.1328858,-0.13233 l 0.00315,-1.14052 c -1.015e-4,-0.0278 -0.010096,-0.0521 -0.024306,-0.0734 l 0.1249208,6.5e-4 c -0.014463,0.0212 -0.024909,0.0451 -0.025011,0.0727 l -0.00313,1.1405 c -2.263e-4,0.0734 0.058938,0.13285 0.1326009,0.13281 l 0.079581,2e-5 c 0.073508,7e-5 0.1326694,-0.0589 0.132891,-0.13235 l 0.00313,-1.14049 c -1.364e-4,-0.0273 -0.010505,-0.051 -0.02401,-0.0721 l 0.3331271,0.002 c -0.013692,0.0208 -0.023648,0.0442 -0.023596,0.0712 l -0.00311,1.14049 c -2.001e-4,0.0735 0.058935,0.13286 0.1326013,0.13281 l 0.079581,3e-5 c 0.073455,7e-5 0.13267,-0.0589 0.1328804,-0.13233 l 0.00311,-1.14051 c 3.23e-5,-0.0266 -0.00954,-0.0497 -0.022865,-0.0704 l 0.1210416,10e-4 c -0.013193,0.0206 -0.022936,0.0436 -0.023285,0.0698 l -0.00317,1.1405 c -2.001e-4,0.0735 0.058935,0.13285 0.1326046,0.13282 l 0.079581,3e-5 c 0.073455,7e-5 0.1326694,-0.0589 0.1328856,-0.13234 l 0.00311,-1.14051 c 8.74e-5,-0.0261 -0.00924,-0.0487 -0.021945,-0.0692 l 0.329226,0.002 c -0.012584,0.0202 -0.021673,0.0427 -0.021511,0.0683 l -0.00317,1.14049 c -2.007e-4,0.0734 0.058935,0.13286 0.1326008,0.13281 l 0.079581,3e-5 c 0.073456,7e-5 0.1326747,-0.0589 0.1328857,-0.13233 l 0.0032,-1.14052 c 1.36e-4,-0.0252 -0.0083,-0.0475 -0.02083,-0.0676 l 0.117128,0.001 c -0.01224,0.0198 -0.02088,0.042 -0.02053,0.0671 l -0.0031,1.14048 c -2.01e-4,0.0734 0.05894,0.13287 0.132602,0.13282 l 0.07958,2e-5 c 0.07345,8e-5 0.132674,-0.0589 0.132885,-0.13233 l 0.0031,-1.1405 c 2.83e-4,-0.0247 -0.0087,-0.0464 -0.01984,-0.0664 l 0.115688,10e-4 c -0.01166,0.0197 -0.02015,0.0412 -0.02022,0.0658 l -0.0032,1.14049 c -2e-4,0.0735 0.05894,0.13286 0.132609,0.13282 l 0.07958,3e-5 c 0.07346,7e-5 0.132675,-0.0589 0.132892,-0.13234 l 0.0031,-1.14051 c 4.04e-4,-0.0243 -0.0084,-0.0455 -0.01949,-0.065 l 0.323686,0.002 c -0.01078,0.0194 -0.01894,0.0403 -0.01912,0.0641 l -0.0031,1.1405 c -2e-4,0.0735 0.05893,0.13285 0.132602,0.13281 l 0.07958,2e-5 c 0.07346,7e-5 0.132674,-0.0589 0.13288,-0.13233 l 0.0032,-1.14051 c -8.8e-5,-0.0236 -0.0075,-0.0444 -0.01774,-0.0635 l 0.111583,4.2e-4 c -0.01067,0.019 -0.01818,0.0396 -0.01819,0.0629 l -0.0031,1.14049 c -2.01e-4,0.0735 0.05894,0.13287 0.132609,0.13283 l 0.07958,2e-5 c 0.07345,7e-5 0.132675,-0.0589 0.132891,-0.13234 l 0.0031,-1.1405 c 1.19e-4,-0.0229 -0.0072,-0.0434 -0.01741,-0.0621 l 0.319789,0.002 c -0.0099,0.0186 -0.01688,0.0388 -0.01712,0.0612 l -0.0032,1.1405 c -1.36e-4,0.0735 0.05894,0.13286 0.132605,0.13281 l 0.07958,3e-5 c 0.07351,7e-5 0.132669,-0.0589 0.132891,-0.13234 l 0.0031,-1.14051 c 3.25e-4,-0.0221 -0.0068,-0.0419 -0.01626,-0.0603 l 0.107603,4.5e-4 c -0.0092,0.0183 -0.01612,0.0381 -0.01614,0.06 l -0.0031,1.1405 c -2e-4,0.0735 0.05893,0.13285 0.132601,0.13281 l 0.07958,2e-5 c 0.07346,7e-5 0.13268,-0.0589 0.132896,-0.13234 l 0.0031,-1.1405 c -2.67e-4,-0.0216 -0.0066,-0.041 -0.01545,-0.0591 l 0.106254,4.5e-4 c -0.0091,0.0179 -0.01527,0.0374 -0.01527,0.0589 l -0.0032,1.14049 c -2.01e-4,0.0735 0.05893,0.13285 0.132604,0.13282 l 0.07958,2e-5 c 0.07345,7e-5 0.13267,-0.0589 0.132891,-0.13233 l 0.0031,-1.14049 c -1.43e-4,-0.0212 -0.0058,-0.0404 -0.01468,-0.0581 l 0.314242,0.001 c -0.0084,0.0175 -0.01431,0.0364 -0.01429,0.0572 l -0.0031,1.14049 c -1.35e-4,0.0735 0.05894,0.13287 0.132605,0.13283 l 0.07958,2e-5 c 0.07346,7e-5 0.132679,-0.0589 0.132896,-0.13234 l 0.0031,-1.14052 c 7.77e-4,-0.0204 -0.0054,-0.039 -0.01322,-0.0562 l 0.102156,4.9e-4 c -0.0082,0.017 -0.01351,0.0357 -0.0134,0.056 l -0.0031,1.1405 c -1.35e-4,0.0735 0.05894,0.13286 0.132608,0.13282 l 0.07958,2e-5 c 0.07346,7e-5 0.13267,-0.0589 0.132886,-0.13233 l 0.0031,-1.1405 c 1.94e-4,-0.0199 -0.0052,-0.0382 -0.01293,-0.0551 l 0.310548,10e-4 c -0.0075,0.0166 -0.01261,0.0348 -0.01275,0.0543 l -0.0038,1.14068 c -2e-4,0.0735 0.05893,0.13285 0.132601,0.13281 l 0.07958,3e-5 c 0.07346,7e-5 0.132663,-0.0589 0.132885,-0.13234 l 0.0031,-1.14051 c 3.64e-4,-0.0192 -0.0042,-0.037 -0.01178,-0.0534 l 0.09824,5.2e-4 c -0.0073,0.0162 -0.01109,0.0342 -0.0111,0.0531 l -0.0032,1.1405 c -2.01e-4,0.0734 0.05893,0.13286 0.132604,0.13282 l 0.07958,2e-5 c 0.07351,8e-5 0.132681,-0.0589 0.132898,-0.13233 l 0.0032,-1.14051 c -1.16e-4,-0.0185 -0.0039,-0.036 -0.01082,-0.0522 l 0.09681,5.3e-4 c 0,0 -2.09e-4,2.1e-4 -2.09e-4,2.1e-4 -0.0066,0.0159 -0.01084,0.0332 -0.01013,0.0518 l -0.0031,1.1405 c -2e-4,0.0735 0.05893,0.13286 0.132605,0.13281 l 0.07958,3e-5 c 0.07346,7e-5 0.132675,-0.0589 0.132891,-0.13234 l 0.0031,-1.14051 c 3e-5,-0.018 -0.0038,-0.0353 -0.01055,-0.051 l 0.305639,10e-4 c -0.0065,0.0155 -0.01064,0.0322 -0.0097,0.0503 l -0.0032,1.14063 c -2e-4,0.0735 0.05888,0.13289 0.132605,0.13282 l 0.07958,2e-5 c 0.07346,7e-5 0.132681,-0.0589 0.132886,-0.13234 l 0.0032,-1.14051 c 1.61e-4,-0.0174 -0.0034,-0.034 -0.0094,-0.0493 l 0.09451,5.5e-4 c -0.0063,0.0151 -0.0097,0.0316 -0.0095,0.0491 l -0.0031,1.14049 c -2e-4,0.0735 0.05893,0.13286 0.132602,0.13281 l 0.07958,3e-5 c 0.07346,7e-5 0.132664,-0.0589 0.132886,-0.13234 l 0.0032,-1.1405 c 2.46e-4,-0.017 -0.0032,-0.0333 -0.0091,-0.0483 l 0.303786,10e-4 c -0.0057,0.0148 -0.0089,0.0307 -0.009,0.0474 l -0.0031,1.14049 c -2e-4,0.0735 0.05894,0.13285 0.132601,0.13281 l 0.07958,2e-5 c 0.07346,7e-5 0.13267,-0.0588 0.132885,-0.13234 l 0.0031,-1.1405 c 4.29e-4,-0.0165 -0.0036,-0.0319 -0.0086,-0.0464 l 0.0927,5.7e-4 c -0.0056,0.0144 -0.0087,0.0298 -0.0087,0.0461 l -0.0031,1.14048 c -2e-4,0.0735 0.05893,0.13286 0.132605,0.13283 l 0.07958,2e-5 c 0.07346,7e-5 0.132665,-0.0588 0.132881,-0.13233 l 0.0032,-1.14049 c -1.49e-4,-0.0161 -0.0033,-0.0309 -0.0083,-0.0451 l 0.09213,5.7e-4 c -0.0054,0.014 -0.0085,0.0289 -0.0084,0.0449 l -0.0032,1.14049 c -2e-4,0.0735 0.05894,0.13286 0.132609,0.13283 l 0.07958,2e-5 c 0.07346,8e-5 0.132664,-0.0588 0.13288,-0.13233 l 0.0031,-1.1405 c -4e-5,-0.0155 -0.0031,-0.0301 -0.008,-0.0439 l 0.301121,10e-4 c -0.0045,0.0137 -0.0076,0.0279 -0.0079,0.043 l -0.0032,1.14049 c -2e-4,0.0735 0.05894,0.13287 0.132604,0.13282 l 0.07958,3e-5 c 0.07346,7e-5 0.13268,-0.0589 0.132896,-0.13235 l 0.0031,-1.14051 c 1.04e-4,-0.015 -0.0027,-0.0289 -0.0075,-0.0419 l 0.09006,5.9e-4 c -0.0045,0.0131 -0.0074,0.027 -0.0077,0.0418 l -0.0027,1.14045 c -2e-4,0.0735 0.05894,0.13286 0.132602,0.13282 l 0.07958,1e-5 c 0.07346,8e-5 0.132676,-0.0588 0.132886,-0.13233 l 0.0031,-1.14049 c -3.96e-4,-0.0145 -0.0026,-0.0279 -0.0066,-0.0409 l 0.299056,10e-4 c -0.0039,0.0127 -0.0068,0.0259 -0.0072,0.0399 l -0.0031,1.1405 c -2e-4,0.0734 0.05894,0.13285 0.132606,0.13282 l 0.07958,2e-5 c 0.07351,7e-5 0.132679,-0.0589 0.132896,-0.13234 l 0.0031,-1.14051 c -1.66e-4,-0.0136 -0.0022,-0.0267 -0.0067,-0.0389 l 0.08799,6e-4 c -0.004,0.0124 -0.0065,0.0251 -0.0063,0.0388 l -0.0031,1.14051 c -2e-4,0.0735 0.05893,0.13285 0.132601,0.13281 l 0.07958,2e-5 c 0.07346,7e-5 0.132675,-0.0589 0.132897,-0.13234 l 0.0031,-1.14049 c -8.1e-5,-0.0133 -0.0026,-0.0256 -0.0058,-0.0377 l 0.08718,6.1e-4 c -0.0036,0.012 -0.006,0.0243 -0.0059,0.0376 l -0.0032,1.1405 c -2e-4,0.0735 0.05894,0.13286 0.132605,0.13281 l 0.07958,3e-5 c 0.07346,7e-5 0.132669,-0.0589 0.132886,-0.13234 l 0.0032,-1.1405 c 2.5e-5,-0.0128 -0.0024,-0.0248 -0.0054,-0.0364 l 0.296622,0.001 c -0.0038,0.0115 -0.0056,0.0231 -0.0055,0.0357 l -0.0056,1.14329 c -1.36e-4,0.0735 0.05893,0.13285 0.132604,0.13282 l 0.07958,2e-5 c 0.07345,7e-5 0.132669,-0.0589 0.13288,-0.13233 l 0.0032,-1.14052 c 1.95e-4,-0.0121 -0.0021,-0.0236 -0.0049,-0.0346 l 0.08552,6.2e-4 c -0.0025,0.011 -0.0052,0.0225 -0.0052,0.0345 l -0.0025,1.14034 c -2e-4,0.0734 0.05894,0.13287 0.132605,0.13283 l 0.07958,2e-5 c 0.07351,7e-5 0.132675,-0.0588 0.132886,-0.13233 l 0.0032,-1.1405 c 3.55e-4,-0.0116 -0.0019,-0.0227 -0.0047,-0.0334 l 0.294561,0.001 c -0.0027,0.0104 -0.0047,0.0212 -0.0047,0.0326 l -0.0031,1.14048 c -2e-4,0.0735 0.05894,0.13286 0.132601,0.13281 l 0.07958,3e-5 c 0.07345,7e-5 0.132664,-0.0589 0.132843,-0.13239 l 0.0032,-1.14051 c 4.86e-4,-0.0111 -0.0016,-0.0215 -0.0036,-0.0317 l 0.08347,6.4e-4 c -0.0021,0.01 -0.0045,0.0204 -0.0038,0.0315 l -0.003,1.14043 c -2.01e-4,0.0735 0.05894,0.13286 0.132601,0.13281 l 0.07958,2e-5 c 0.07351,7e-5 0.132675,-0.0589 0.132892,-0.13234 l 0.0031,-1.14049 c 1.72e-4,-0.0108 -0.0014,-0.0206 -0.0038,-0.0302 l 0.08287,6.4e-4 c -0.0022,0.01 -0.0039,0.0195 -0.0036,0.0302 l -0.003,1.14048 c -2e-4,0.0735 0.05888,0.13289 0.132601,0.13281 l 0.07958,2e-5 c 0.07346,7e-5 0.132664,-0.0589 0.13288,-0.13233 l 0.0032,-1.1405 c -7.77e-4,-0.01 -0.001,-0.0197 -0.0036,-0.0292 l 0.0788,6.5e-4 c -0.0063,0.0146 -0.01025,0.0304 -0.0097,0.0474 l -0.01047,1.57888 -20.3693145,-0.0561 z" display="inline" fill="#000000" fill-opacity="1" stroke="none"/></g><text x="0" y="41.458332999999996" fill="#000000" font-size="5px" font-weight="bold" font-family="'Helvetica Neue', Helvetica, Arial-Unicode, Arial, Sans-serif">Created by Elves Sousa</text><text x="0" y="46.458332999999996" fill="#000000" font-size="5px" font-weight="bold" font-family="'Helvetica Neue', Helvetica, Arial-Unicode, Arial, Sans-serif">from the Noun Project</text></svg>