<svg viewBox="0.40540540540540526 4.309999999999999 99.45945945945947 90.45" version="1.1" xmlns="http://www.w3.org/2000/svg" style="max-height: 500px" width="99.45945945945947" height="90.45">
 <path d="m92.18 19.238c-0.035157-0.1875-0.17969-0.40234-0.39844-0.49609l-16.434-6.9375c-0.19141-0.082032-0.40625-0.070313-0.58594 0.03125l-7.1445 3.9648c-0.28125 0.039063-2.3711-0.375-4.4336 1.4609l-47.461 44.727c-1.2031 1.0859-1.9297 2.6328-1.9727 4.1211l-0.33203 1.4453-6.0938 6.2852c-0.21484 0.22266-0.22656 0.60547-0.074219 0.83984 4.0664 5.9609 4 7.0703 5.9727 8.0117l11.461 5.2031c1.6133 0.69922 3.2812 0.31641 4.3828-0.73438l62.531-58.688c0.91016-0.85938 1.375-2.1094 1.2344-3.3438-0.33203-2.9766-0.68359-6.0742-0.65234-5.8906zm-17.051-6.0742 15.191 6.4141c-58.066 55.379-65.074 62.055-64.812 61.805-1.7031-0.75 6.1328 2.7031-16.555-7.3008l5.2109-5.375 10.773 5.3789c1.5078 0.75391 3.3164 0.48437 4.5117-0.64453 7.0977-6.6484 45.258-42.387 52.734-49.391 0.96484-0.91406 0.73047-2.4727-0.40625-3.0938l-7.4219-4.0938c-2.0117-1.1094-3.8984-0.97656-4.0781-1.0039zm-60.059 53.121c0.046876-1.2539 0.61328-2.457 1.5625-3.3125l47.461-44.723c0.84375-0.75391 1.9219-1.1758 3.0234-1.1172 2.5664 0.17578 4.4297-0.29297 6.5977 0.89844l7.4219 4.0977c0.35547 0.19531 0.42578 0.67188 0.12891 0.94531l-52.734 49.387c-0.79688 0.75-2 0.92187-2.9961 0.42187l-10.742-5.3633zm19.949 11.992c-0.13672-0.21875-2.082-3.3359-1.9688-3.1484l3.8281-3.6641c0.12891 0.21094 2.1641 3.5703 2.0391 3.3633zm5.5938-5.0977c-0.11328-0.17969-2.1094-3.3477-1.9844-3.1484l3.8438-3.6641c0.10938 0.17969 2.1641 3.5703 2.0391 3.3633zm5.4922-5.3086c-0.11328-0.17969-2.1133-3.3672-1.9844-3.1641l3.8281-3.6484c0.10938 0.17969 2.1875 3.5586 2.0547 3.3438zm5.4727-5.3477c-0.11328-0.17969-2.1133-3.3672-1.9844-3.1641l3.8281-3.6484c0.10938 0.17969 2.1875 3.5781 2.0547 3.3633zm5.5586-5.1484c-0.11328-0.17969-2.1133-3.3672-1.9844-3.1641l3.8438-3.6484c0.10938 0.17969 2.168 3.5586 2.0391 3.3438zm5.4727-5.332c-0.11328-0.17969-2.0938-3.3672-1.9688-3.1641l3.8281-3.6641c0.10938 0.17969 2.1641 3.5703 2.0391 3.3633zm5.5977-5.1289c-0.11328-0.17969-2.1133-3.3516-1.9844-3.1484l3.8281-3.6641c0.10938 0.17969 2.1641 3.5703 2.0391 3.3633zm5.5586-5.1523c-0.11328-0.17969-2.1133-3.3672-1.9844-3.1641l3.8281-3.6484c0.33203 0.54297 2.1523 3.5508 2.0391 3.3633zm5.543-5.1836c-0.11328-0.17969-2.1133-3.3672-1.9844-3.1641l3.8281-3.6641c0.10938 0.17969 2.1875 3.5781 2.0547 3.3633z"/>
 <path d="m19.402 73.684c-2.6953 1.3125-2.4062 4.1836 0.15234 4.1836 2.0195 0 4.2266-1.9492 3.4258-3.5938-0.59375-1.2148-2.3047-1.207-3.5781-0.58984z"/>
 <path d="m80.344 19.641c1.5859 0 3.0898-1.5117 2.5-2.7305-0.39844-0.82031-1.5898-1.0391-2.7031-0.49609-2.0273 0.98438-1.7578 3.2266 0.20312 3.2266z"/>
 <path d="m28.969 68.398 46.379-44.707c0.63672-0.61328-0.29297-1.5781-0.92969-0.96484l-46.379 44.707c-0.63672 0.61328 0.29688 1.5781 0.92969 0.96484z"/>
 <path d="m68.812 19.34-46.383 44.707c-0.64063 0.61719 0.29297 1.5781 0.92969 0.96484l46.379-44.707c0.64062-0.61328-0.28906-1.5781-0.92578-0.96484z"/>
<text fill="#000000" font-family="Arbeit Regular, Helvetica, Arial-Unicode, Arial, Sans-serif" font-weight="bold" font-size="5.0" y="117.5" x="0.0">Created by Vectors Market</text><text fill="#000000" font-family="Arbeit Regular, Helvetica, Arial-Unicode, Arial, Sans-serif" font-weight="bold" font-size="5.0" y="122.5" x="0.0">from Noun Project</text></svg>