<?xml version="1.0" encoding="UTF-8"?>
<svg version="1.1" xmlns="http://www.w3.org/2000/svg" width="100" height="100">
<path d="M0 0 C5.53634992 4.18404733 7.78551513 7.59042545 8.87109375 14.4140625 C10.13953125 15.0946875 10.13953125 15.0946875 11.43359375 15.7890625 C12.23796875 16.3253125 13.04234375 16.8615625 13.87109375 17.4140625 C14.23868637 20.40731669 14.23096344 22.48087801 13.87109375 25.4140625 C13.74541016 26.70376953 13.74541016 26.70376953 13.6171875 28.01953125 C12.95285643 32.75376424 12.57209314 34.80068804 8.87109375 38.0390625 C5.87109375 39.4140625 5.87109375 39.4140625 3.87109375 39.4140625 C3.59265625 40.620625 3.59265625 40.620625 3.30859375 41.8515625 C1.03400233 47.4885934 -2.84416215 52.1293184 -7.12890625 56.4140625 C-6.81108302 60.43080713 -5.29017527 62.99809463 -3.06640625 66.2890625 C-0.32010907 70.70157836 0.72795252 73.27290986 -0.12890625 78.4140625 C-2.12890625 80.4140625 -2.12890625 80.4140625 -5.50390625 80.8515625 C-9.12890625 80.4140625 -9.12890625 80.4140625 -11.19140625 78.5390625 C-13.88738163 74.19071512 -16.53975798 69.82738342 -19.12890625 65.4140625 C-22.75890625 65.7440625 -26.38890625 66.0740625 -30.12890625 66.4140625 C-30.10570312 68.12335938 -30.0825 69.83265625 -30.05859375 71.59375 C-30.03983941 73.82551648 -30.02163885 76.05728767 -30.00390625 78.2890625 C-29.98714844 79.41699219 -29.97039063 80.54492188 -29.953125 81.70703125 C-29.94345703 83.32158203 -29.94345703 83.32158203 -29.93359375 84.96875 C-29.9178833 86.46124268 -29.9178833 86.46124268 -29.90185547 87.98388672 C-30.12890625 90.4140625 -30.12890625 90.4140625 -32.12890625 92.4140625 C-34.00390625 92.6796875 -34.00390625 92.6796875 -36.12890625 92.6640625 C-36.83015625 92.66921875 -37.53140625 92.674375 -38.25390625 92.6796875 C-40.12890625 92.4140625 -40.12890625 92.4140625 -42.12890625 90.4140625 C-42.35595703 87.98388672 -42.35595703 87.98388672 -42.32421875 84.96875 C-42.31777344 83.89238281 -42.31132813 82.81601563 -42.3046875 81.70703125 C-42.28792969 80.57910156 -42.27117188 79.45117188 -42.25390625 78.2890625 C-42.24488281 77.15339844 -42.23585937 76.01773438 -42.2265625 74.84765625 C-42.20293824 72.03636913 -42.16706635 69.22518988 -42.12890625 66.4140625 C-45.75890625 66.0840625 -49.38890625 65.7540625 -53.12890625 65.4140625 C-53.96035156 66.78691406 -53.96035156 66.78691406 -54.80859375 68.1875 C-55.54021623 69.38811125 -56.27199523 70.58862713 -57.00390625 71.7890625 C-57.36871094 72.39234375 -57.73351562 72.995625 -58.109375 73.6171875 C-59.63836947 76.11917845 -61.04761979 78.33277604 -63.12890625 80.4140625 C-66.62890625 80.6640625 -66.62890625 80.6640625 -70.12890625 80.4140625 C-72.12890625 78.4140625 -72.12890625 78.4140625 -72.69140625 75.5390625 C-72.62612438 70.37091436 -69.3088551 66.35398483 -66.5625 62.18359375 C-64.93690849 59.61301932 -64.93690849 59.61301932 -65.23828125 57.25390625 C-66.23715182 55.19044994 -67.35584554 53.81786253 -68.94140625 52.1640625 C-71.23123176 49.64146513 -72.68476753 47.42423525 -74.00390625 44.2890625 C-75.53616711 40.88692398 -76.94835861 39.7275077 -80.25390625 38.0390625 C-82.84405407 36.60918536 -83.91345993 35.91764637 -85.08984375 33.16796875 C-85.63606256 30.56749223 -85.9396594 28.0635184 -86.12890625 25.4140625 C-86.26619141 24.26550781 -86.26619141 24.26550781 -86.40625 23.09375 C-86.56640625 20.9765625 -86.56640625 20.9765625 -86.12890625 17.4140625 C-84.48557121 16.37616669 -82.81646758 15.37838326 -81.12890625 14.4140625 C-80.70472784 12.45631599 -80.2825906 10.49803072 -79.8828125 8.53515625 C-78.00861524 3.26215567 -73.01765419 0.38278261 -68.25 -2.0625 C-48.01449927 -10.90099457 -19.26062318 -11.86949557 0 0 Z M-81.12890625 20.4140625 C-80.12890625 24.4140625 -80.12890625 24.4140625 -80.12890625 24.4140625 Z M7.87109375 20.4140625 C8.87109375 24.4140625 8.87109375 24.4140625 8.87109375 24.4140625 Z M-75.12890625 24.4140625 C-74.81516618 27.40471384 -74.59577118 28.97313451 -72.37109375 31.07421875 C-63.09990036 36.56655939 -52.96482738 39.77572354 -42.12890625 39.4140625 C-42.12890625 37.7640625 -42.12890625 36.1140625 -42.12890625 34.4140625 C-43.76085938 34.17623047 -43.76085938 34.17623047 -45.42578125 33.93359375 C-56.19932084 32.26071441 -65.36356897 29.3536387 -75.12890625 24.4140625 Z M-3.44140625 27.2265625 C-12.3377065 31.70640966 -21.25959194 33.59161964 -31.12890625 34.4140625 C-31.12890625 36.0640625 -31.12890625 37.7140625 -31.12890625 39.4140625 C-20.13666188 40.31138857 -9.2523524 36.62250667 0.11328125 31.07421875 C2.33795868 28.97313451 2.55735368 27.40471384 2.87109375 24.4140625 C0.73617928 24.4140625 -1.63386957 26.26301182 -3.44140625 27.2265625 Z M-37.12890625 34.4140625 C-37.12890625 38.3740625 -37.12890625 42.3340625 -37.12890625 46.4140625 C-36.46890625 46.4140625 -35.80890625 46.4140625 -35.12890625 46.4140625 C-35.12890625 42.4540625 -35.12890625 38.4940625 -35.12890625 34.4140625 C-35.78890625 34.4140625 -36.44890625 34.4140625 -37.12890625 34.4140625 Z M-60.12890625 61.4140625 C-62.0658437 64.02891398 -62.0658437 64.02891398 -63.81640625 67.2890625 C-64.43902344 68.37960938 -65.06164062 69.47015625 -65.703125 70.59375 C-67.27929446 73.18483877 -67.27929446 73.18483877 -67.12890625 75.4140625 C-66.46890625 75.4140625 -65.80890625 75.4140625 -65.12890625 75.4140625 C-62.48890625 70.7940625 -59.84890625 66.1740625 -57.12890625 61.4140625 C-58.11890625 61.4140625 -59.10890625 61.4140625 -60.12890625 61.4140625 Z M-15.12890625 61.4140625 C-12.48890625 66.0340625 -9.84890625 70.6540625 -7.12890625 75.4140625 C-6.46890625 75.4140625 -5.80890625 75.4140625 -5.12890625 75.4140625 C-6.52650582 70.33188223 -8.67911732 65.44734688 -12.12890625 61.4140625 C-13.11890625 61.4140625 -14.10890625 61.4140625 -15.12890625 61.4140625 Z M-38.12890625 66.4140625 C-38.12890625 73.0140625 -38.12890625 79.6140625 -38.12890625 86.4140625 C-36.80890625 86.4140625 -35.48890625 86.4140625 -34.12890625 86.4140625 C-34.12890625 79.8140625 -34.12890625 73.2140625 -34.12890625 66.4140625 C-35.44890625 66.4140625 -36.76890625 66.4140625 -38.12890625 66.4140625 Z " fill="#000000" transform="translate(86.12890625,7.5859375)"/>
</svg>
